M48
; DRILL file {KiCad 7.0.2-0} date 2023 April 26, Wednesday 13:01:49
; FORMAT={-:-/ absolute / inch / decimal}
; #@! TF.CreationDate,2023-04-26T13:01:49-04:00
; #@! TF.GenerationSoftware,Kicad,Pcbnew,7.0.2-0
; #@! TF.FileFunction,MixedPlating,1,2
FMAT,2
INCH
; #@! TA.AperFunction,Plated,PTH,ViaDrill
T1C0.0150
; #@! TA.AperFunction,Plated,PTH,ComponentDrill
T2C0.0157
; #@! TA.AperFunction,Plated,PTH,ComponentDrill
T3C0.0236
; #@! TA.AperFunction,Plated,PTH,ComponentDrill
T4C0.0295
; #@! TA.AperFunction,Plated,PTH,ComponentDrill
T5C0.0315
; #@! TA.AperFunction,Plated,PTH,ComponentDrill
T6C0.0354
; #@! TA.AperFunction,Plated,PTH,ComponentDrill
T7C0.0394
; #@! TA.AperFunction,Plated,PTH,ComponentDrill
T8C0.0433
; #@! TA.AperFunction,Plated,PTH,ComponentDrill
T9C0.0472
; #@! TA.AperFunction,Plated,PTH,ComponentDrill
T10C0.1260
%
G90
G05
T1
X4.085Y-4.05
X5.175Y-4.425
X6.425Y-3.8
T2
X4.1869Y-3.883
X4.1869Y-3.9165
X4.1869Y-3.9499
X4.1869Y-3.9834
X4.1869Y-4.0169
X4.1869Y-4.0503
X4.1869Y-4.0838
X4.1869Y-4.1173
X4.24Y-3.883
X4.24Y-3.9165
X4.24Y-3.9499
X4.24Y-3.9834
X4.24Y-4.0169
X4.24Y-4.0503
X4.24Y-4.0838
X4.24Y-4.1173
T4
X7.3Y-4.225
X7.35Y-4.175
X7.4Y-4.225
T5
X4.125Y-4.2758
X4.125Y-4.3742
X4.3766Y-3.5
X4.45Y-4.275
X4.45Y-4.675
X4.475Y-3.5
X4.55Y-4.275
X4.55Y-4.675
X4.675Y-3.85
X4.675Y-4.15
X4.6758Y-4.25
X4.7008Y-3.75
X4.7742Y-4.25
X4.775Y-3.85
X4.775Y-4.15
X4.7992Y-3.75
X4.875Y-3.85
X4.875Y-4.15
X4.975Y-3.85
X4.975Y-4.15
X5.075Y-3.85
X5.075Y-4.15
X5.125Y-3.325
X5.125Y-3.725
X5.125Y-4.275
X5.125Y-4.675
X5.175Y-3.85
X5.175Y-4.15
X5.225Y-3.325
X5.225Y-3.725
X5.225Y-4.275
X5.225Y-4.675
X5.275Y-3.85
X5.275Y-4.15
X5.325Y-3.325
X5.325Y-3.725
X5.325Y-4.275
X5.325Y-4.675
X5.375Y-3.85
X5.375Y-4.15
X5.425Y-3.325
X5.425Y-3.725
X5.425Y-4.275
X5.425Y-4.675
X5.475Y-3.85
X5.475Y-4.15
X5.575Y-3.85
X5.575Y-4.15
X6.075Y-3.625
X6.075Y-4.025
X6.075Y-4.225
X6.075Y-4.625
X6.175Y-3.625
X6.175Y-4.025
X6.175Y-4.225
X6.175Y-4.625
X6.275Y-3.625
X6.275Y-4.025
X6.275Y-4.225
X6.275Y-4.625
X6.375Y-3.625
X6.375Y-4.025
X6.375Y-4.225
X6.375Y-4.625
X6.475Y-3.625
X6.475Y-4.025
X6.575Y-3.625
X6.575Y-4.025
X6.675Y-3.625
X6.675Y-4.025
X6.675Y-4.125
X6.7734Y-4.125
X6.775Y-3.625
X6.775Y-4.025
X6.875Y-3.625
X7.0Y-3.3516
X7.0Y-3.45
X7.025Y-4.375
X7.275Y-3.625
X7.425Y-4.375
T6
X4.2498Y-4.325
X4.3498Y-4.325
X4.875Y-3.675
X4.875Y-4.325
X4.975Y-3.675
X4.975Y-4.325
X5.6Y-3.675
X5.6Y-4.325
X5.7Y-3.675
X5.7Y-4.325
X6.85Y-4.2
X6.85Y-4.3
X6.85Y-4.4
X7.4Y-3.7
X7.4Y-3.8
X7.4Y-3.95
X7.4Y-4.05
T7
X4.375Y-3.325
X4.475Y-3.325
X6.075Y-3.325
X6.075Y-3.425
X6.075Y-3.525
X6.175Y-3.325
X6.175Y-3.425
X6.175Y-3.525
X6.275Y-3.325
X6.275Y-3.425
X6.275Y-3.525
X6.375Y-3.325
X6.375Y-3.425
X6.375Y-3.525
X6.475Y-3.325
X6.475Y-3.425
X6.475Y-3.525
X6.55Y-4.55
X6.575Y-3.325
X6.575Y-3.425
X6.575Y-3.525
X6.65Y-4.55
X6.675Y-3.325
X6.675Y-3.425
X6.675Y-3.525
X6.75Y-4.55
X6.775Y-3.325
X6.775Y-3.425
X6.775Y-3.525
X6.85Y-4.55
X6.95Y-4.55
X7.05Y-4.55
X7.1Y-3.85
X7.1Y-4.0469
T8
X4.3478Y-3.875
X4.3478Y-4.1309
X4.525Y-3.875
X4.525Y-4.1309
X4.7Y-3.325
X4.7Y-3.5022
X4.7Y-4.4978
X4.7Y-4.675
X4.9559Y-3.325
X4.9559Y-3.5022
X4.9559Y-4.4978
X4.9559Y-4.675
X5.625Y-3.325
X5.625Y-3.5022
X5.625Y-4.4978
X5.625Y-4.675
X5.8809Y-3.325
X5.8809Y-3.5022
X5.8809Y-4.4978
X5.8809Y-4.675
T9
X4.1Y-3.7
X4.6Y-3.7
T10
X4.15Y-3.4
X4.15Y-4.6
X7.35Y-3.4
X7.35Y-4.6
T3
G00X4.0841Y-3.8299
M15
G01X4.0526Y-3.8299
M16
G05
G00X4.0841Y-4.1704
M15
G01X4.0526Y-4.1704
M16
G05
G00X4.2309Y-3.8299
M15
G01X4.1719Y-3.8299
M16
G05
G00X4.2309Y-4.1704
M15
G01X4.1719Y-4.1704
M16
G05
T0
M30
