%TF.GenerationSoftware,KiCad,Pcbnew,7.0.2-0*%
%TF.CreationDate,2023-04-26T13:01:35-04:00*%
%TF.ProjectId,UBMP430,55424d50-3433-4302-9e6b-696361645f70,3*%
%TF.SameCoordinates,Original*%
%TF.FileFunction,Legend,Top*%
%TF.FilePolarity,Positive*%
%FSLAX46Y46*%
G04 Gerber Fmt 4.6, Leading zero omitted, Abs format (unit mm)*
G04 Created by KiCad (PCBNEW 7.0.2-0) date 2023-04-26 13:01:35*
%MOMM*%
%LPD*%
G01*
G04 APERTURE LIST*
G04 Aperture macros list*
%AMRoundRect*
0 Rectangle with rounded corners*
0 $1 Rounding radius*
0 $2 $3 $4 $5 $6 $7 $8 $9 X,Y pos of 4 corners*
0 Add a 4 corners polygon primitive as box body*
4,1,4,$2,$3,$4,$5,$6,$7,$8,$9,$2,$3,0*
0 Add four circle primitives for the rounded corners*
1,1,$1+$1,$2,$3*
1,1,$1+$1,$4,$5*
1,1,$1+$1,$6,$7*
1,1,$1+$1,$8,$9*
0 Add four rect primitives between the rounded corners*
20,1,$1+$1,$2,$3,$4,$5,0*
20,1,$1+$1,$4,$5,$6,$7,0*
20,1,$1+$1,$6,$7,$8,$9,0*
20,1,$1+$1,$8,$9,$2,$3,0*%
G04 Aperture macros list end*
%ADD10C,0.120000*%
%ADD11C,0.152400*%
%ADD12C,1.496103*%
%ADD13C,0.150000*%
%ADD14C,0.200000*%
%ADD15C,0.010000*%
%ADD16C,1.901600*%
%ADD17RoundRect,0.050800X-0.900000X0.900000X-0.900000X-0.900000X0.900000X-0.900000X0.900000X0.900000X0*%
%ADD18RoundRect,0.050800X0.800000X0.800000X-0.800000X0.800000X-0.800000X-0.800000X0.800000X-0.800000X0*%
%ADD19C,1.701600*%
%ADD20RoundRect,0.050800X-0.900000X-0.900000X0.900000X-0.900000X0.900000X0.900000X-0.900000X0.900000X0*%
%ADD21C,2.501600*%
%ADD22O,2.501600X2.501600*%
%ADD23C,6.501600*%
%ADD24O,1.701600X1.701600*%
%ADD25C,2.101600*%
%ADD26RoundRect,0.050800X0.800000X-0.800000X0.800000X0.800000X-0.800000X0.800000X-0.800000X-0.800000X0*%
%ADD27RoundRect,0.050800X0.850000X0.850000X-0.850000X0.850000X-0.850000X-0.850000X0.850000X-0.850000X0*%
%ADD28O,1.801600X1.801600*%
%ADD29RoundRect,0.050800X-0.650000X-0.650000X0.650000X-0.650000X0.650000X0.650000X-0.650000X0.650000X0*%
%ADD30C,1.401600*%
%ADD31C,0.801600*%
%ADD32O,2.501600X1.001600*%
%ADD33O,1.801600X1.001600*%
%ADD34RoundRect,0.050800X-1.000000X1.000000X-1.000000X-1.000000X1.000000X-1.000000X1.000000X1.000000X0*%
%ADD35RoundRect,0.301000X0.649800X-0.649800X0.649800X0.649800X-0.649800X0.649800X-0.649800X-0.649800X0*%
%ADD36RoundRect,0.050800X0.850000X-0.850000X0.850000X0.850000X-0.850000X0.850000X-0.850000X-0.850000X0*%
%ADD37RoundRect,0.050800X0.900000X-0.900000X0.900000X0.900000X-0.900000X0.900000X-0.900000X-0.900000X0*%
%ADD38RoundRect,0.050800X-0.850000X0.850000X-0.850000X-0.850000X0.850000X-0.850000X0.850000X0.850000X0*%
G04 APERTURE END LIST*
D10*
X165100000Y-106680000D02*
X165100000Y-111760000D01*
X172085000Y-106680000D02*
X165100000Y-106680000D01*
X165100000Y-111760000D02*
X172085000Y-111760000D01*
D11*
X151384000Y-88392000D02*
X151384000Y-89027000D01*
X152654000Y-89027000D02*
X152654000Y-89662000D01*
D12*
X120763051Y-92202000D02*
G75*
G03*
X120763051Y-92202000I-748051J0D01*
G01*
D11*
X151384000Y-89662000D02*
X151384000Y-90932000D01*
D13*
X166370000Y-114046000D02*
X165100000Y-112141000D01*
X167640000Y-112141000D01*
X166370000Y-114046000D01*
G36*
X166370000Y-114046000D02*
G01*
X165100000Y-112141000D01*
X167640000Y-112141000D01*
X166370000Y-114046000D01*
G37*
D11*
X151765000Y-83820000D02*
X151765000Y-85090000D01*
X151765000Y-84455000D02*
X152400000Y-84455000D01*
X172085000Y-111125000D02*
X167640000Y-111125000D01*
X151765000Y-86360000D02*
X151765000Y-87630000D01*
D13*
X118745000Y-109855000D02*
X121285000Y-109855000D01*
X121285000Y-112395000D01*
X118745000Y-112395000D01*
X118745000Y-109855000D01*
G36*
X118745000Y-109855000D02*
G01*
X121285000Y-109855000D01*
X121285000Y-112395000D01*
X118745000Y-112395000D01*
X118745000Y-109855000D01*
G37*
D11*
X172085000Y-107315000D02*
X167640000Y-107315000D01*
X115570000Y-84455000D02*
X116840000Y-84455000D01*
X167640000Y-107315000D02*
G75*
G03*
X167640000Y-111125000I0J-1905000D01*
G01*
X151384000Y-89027000D02*
X152654000Y-89027000D01*
X152400000Y-86995000D02*
X151130000Y-86995000D01*
X109220000Y-83820000D02*
X109220000Y-85090000D01*
X116205000Y-83820000D02*
X116205000Y-85090000D01*
X151384000Y-84074000D02*
X151384000Y-84836000D01*
D13*
X151003000Y-84328000D02*
X151003000Y-84582000D01*
X148590000Y-112395000D02*
X147220000Y-109855000D01*
X149860000Y-109855000D01*
X148590000Y-112395000D01*
G36*
X148590000Y-112395000D02*
G01*
X147220000Y-109855000D01*
X149860000Y-109855000D01*
X148590000Y-112395000D01*
G37*
X149860000Y-93345000D02*
X147320000Y-93345000D01*
X148590000Y-90805000D01*
X149860000Y-93345000D01*
G36*
X149860000Y-93345000D02*
G01*
X147320000Y-93345000D01*
X148590000Y-90805000D01*
X149860000Y-93345000D01*
G37*
D11*
X152654000Y-89662000D02*
X151384000Y-89662000D01*
X168631809Y-114135020D02*
X168631809Y-113119020D01*
X168631809Y-113119020D02*
X169018857Y-113119020D01*
X169018857Y-113119020D02*
X169115619Y-113167401D01*
X169115619Y-113167401D02*
X169164000Y-113215782D01*
X169164000Y-113215782D02*
X169212381Y-113312544D01*
X169212381Y-113312544D02*
X169212381Y-113457687D01*
X169212381Y-113457687D02*
X169164000Y-113554449D01*
X169164000Y-113554449D02*
X169115619Y-113602830D01*
X169115619Y-113602830D02*
X169018857Y-113651211D01*
X169018857Y-113651211D02*
X168631809Y-113651211D01*
X169647809Y-114135020D02*
X169647809Y-113119020D01*
X170712191Y-114038259D02*
X170663810Y-114086640D01*
X170663810Y-114086640D02*
X170518667Y-114135020D01*
X170518667Y-114135020D02*
X170421905Y-114135020D01*
X170421905Y-114135020D02*
X170276762Y-114086640D01*
X170276762Y-114086640D02*
X170180000Y-113989878D01*
X170180000Y-113989878D02*
X170131619Y-113893116D01*
X170131619Y-113893116D02*
X170083238Y-113699592D01*
X170083238Y-113699592D02*
X170083238Y-113554449D01*
X170083238Y-113554449D02*
X170131619Y-113360925D01*
X170131619Y-113360925D02*
X170180000Y-113264163D01*
X170180000Y-113264163D02*
X170276762Y-113167401D01*
X170276762Y-113167401D02*
X170421905Y-113119020D01*
X170421905Y-113119020D02*
X170518667Y-113119020D01*
X170518667Y-113119020D02*
X170663810Y-113167401D01*
X170663810Y-113167401D02*
X170712191Y-113215782D01*
X171147619Y-114135020D02*
X171147619Y-113119020D01*
X171244381Y-113747973D02*
X171534667Y-114135020D01*
X171534667Y-113457687D02*
X171147619Y-113844735D01*
X171970095Y-114135020D02*
X171970095Y-113457687D01*
X171970095Y-113119020D02*
X171921714Y-113167401D01*
X171921714Y-113167401D02*
X171970095Y-113215782D01*
X171970095Y-113215782D02*
X172018476Y-113167401D01*
X172018476Y-113167401D02*
X171970095Y-113119020D01*
X171970095Y-113119020D02*
X171970095Y-113215782D01*
X172308762Y-113457687D02*
X172695810Y-113457687D01*
X172453905Y-113119020D02*
X172453905Y-113989878D01*
X172453905Y-113989878D02*
X172502286Y-114086640D01*
X172502286Y-114086640D02*
X172599048Y-114135020D01*
X172599048Y-114135020D02*
X172695810Y-114135020D01*
X173808571Y-114135020D02*
X173808571Y-113119020D01*
X174872953Y-114038259D02*
X174824572Y-114086640D01*
X174824572Y-114086640D02*
X174679429Y-114135020D01*
X174679429Y-114135020D02*
X174582667Y-114135020D01*
X174582667Y-114135020D02*
X174437524Y-114086640D01*
X174437524Y-114086640D02*
X174340762Y-113989878D01*
X174340762Y-113989878D02*
X174292381Y-113893116D01*
X174292381Y-113893116D02*
X174244000Y-113699592D01*
X174244000Y-113699592D02*
X174244000Y-113554449D01*
X174244000Y-113554449D02*
X174292381Y-113360925D01*
X174292381Y-113360925D02*
X174340762Y-113264163D01*
X174340762Y-113264163D02*
X174437524Y-113167401D01*
X174437524Y-113167401D02*
X174582667Y-113119020D01*
X174582667Y-113119020D02*
X174679429Y-113119020D01*
X174679429Y-113119020D02*
X174824572Y-113167401D01*
X174824572Y-113167401D02*
X174872953Y-113215782D01*
X175260000Y-114086640D02*
X175405143Y-114135020D01*
X175405143Y-114135020D02*
X175647048Y-114135020D01*
X175647048Y-114135020D02*
X175743810Y-114086640D01*
X175743810Y-114086640D02*
X175792191Y-114038259D01*
X175792191Y-114038259D02*
X175840572Y-113941497D01*
X175840572Y-113941497D02*
X175840572Y-113844735D01*
X175840572Y-113844735D02*
X175792191Y-113747973D01*
X175792191Y-113747973D02*
X175743810Y-113699592D01*
X175743810Y-113699592D02*
X175647048Y-113651211D01*
X175647048Y-113651211D02*
X175453524Y-113602830D01*
X175453524Y-113602830D02*
X175356762Y-113554449D01*
X175356762Y-113554449D02*
X175308381Y-113506068D01*
X175308381Y-113506068D02*
X175260000Y-113409306D01*
X175260000Y-113409306D02*
X175260000Y-113312544D01*
X175260000Y-113312544D02*
X175308381Y-113215782D01*
X175308381Y-113215782D02*
X175356762Y-113167401D01*
X175356762Y-113167401D02*
X175453524Y-113119020D01*
X175453524Y-113119020D02*
X175695429Y-113119020D01*
X175695429Y-113119020D02*
X175840572Y-113167401D01*
X176276000Y-114135020D02*
X176276000Y-113119020D01*
X176276000Y-113119020D02*
X176663048Y-113119020D01*
X176663048Y-113119020D02*
X176759810Y-113167401D01*
X176759810Y-113167401D02*
X176808191Y-113215782D01*
X176808191Y-113215782D02*
X176856572Y-113312544D01*
X176856572Y-113312544D02*
X176856572Y-113457687D01*
X176856572Y-113457687D02*
X176808191Y-113554449D01*
X176808191Y-113554449D02*
X176759810Y-113602830D01*
X176759810Y-113602830D02*
X176663048Y-113651211D01*
X176663048Y-113651211D02*
X176276000Y-113651211D01*
X170262973Y-93611095D02*
X170214592Y-93562714D01*
X170214592Y-93562714D02*
X170166211Y-93465952D01*
X170166211Y-93465952D02*
X170262973Y-93272428D01*
X170262973Y-93272428D02*
X170214592Y-93175666D01*
X170214592Y-93175666D02*
X170166211Y-93127285D01*
X152214217Y-109728000D02*
X152262598Y-109776381D01*
X152262598Y-109776381D02*
X152310979Y-109873143D01*
X152310979Y-109873143D02*
X152310979Y-110115048D01*
X152310979Y-110115048D02*
X152262598Y-110211810D01*
X152262598Y-110211810D02*
X152214217Y-110260191D01*
X152214217Y-110260191D02*
X152117455Y-110308572D01*
X152117455Y-110308572D02*
X152020693Y-110308572D01*
X152020693Y-110308572D02*
X151875550Y-110260191D01*
X151875550Y-110260191D02*
X151294979Y-109679619D01*
X151294979Y-109679619D02*
X151294979Y-110308572D01*
X152310979Y-110647238D02*
X152310979Y-111276191D01*
X152310979Y-111276191D02*
X151923931Y-110937524D01*
X151923931Y-110937524D02*
X151923931Y-111082667D01*
X151923931Y-111082667D02*
X151875550Y-111179429D01*
X151875550Y-111179429D02*
X151827169Y-111227810D01*
X151827169Y-111227810D02*
X151730407Y-111276191D01*
X151730407Y-111276191D02*
X151488502Y-111276191D01*
X151488502Y-111276191D02*
X151391740Y-111227810D01*
X151391740Y-111227810D02*
X151343360Y-111179429D01*
X151343360Y-111179429D02*
X151294979Y-111082667D01*
X151294979Y-111082667D02*
X151294979Y-110792381D01*
X151294979Y-110792381D02*
X151343360Y-110695619D01*
X151343360Y-110695619D02*
X151391740Y-110647238D01*
X152310979Y-111905143D02*
X152310979Y-112001905D01*
X152310979Y-112001905D02*
X152262598Y-112098667D01*
X152262598Y-112098667D02*
X152214217Y-112147048D01*
X152214217Y-112147048D02*
X152117455Y-112195429D01*
X152117455Y-112195429D02*
X151923931Y-112243810D01*
X151923931Y-112243810D02*
X151682026Y-112243810D01*
X151682026Y-112243810D02*
X151488502Y-112195429D01*
X151488502Y-112195429D02*
X151391740Y-112147048D01*
X151391740Y-112147048D02*
X151343360Y-112098667D01*
X151343360Y-112098667D02*
X151294979Y-112001905D01*
X151294979Y-112001905D02*
X151294979Y-111905143D01*
X151294979Y-111905143D02*
X151343360Y-111808381D01*
X151343360Y-111808381D02*
X151391740Y-111760000D01*
X151391740Y-111760000D02*
X151488502Y-111711619D01*
X151488502Y-111711619D02*
X151682026Y-111663238D01*
X151682026Y-111663238D02*
X151923931Y-111663238D01*
X151923931Y-111663238D02*
X152117455Y-111711619D01*
X152117455Y-111711619D02*
X152214217Y-111760000D01*
X152214217Y-111760000D02*
X152262598Y-111808381D01*
X152262598Y-111808381D02*
X152310979Y-111905143D01*
X151972312Y-113114667D02*
X151294979Y-113114667D01*
X152359360Y-112872762D02*
X151633645Y-112630857D01*
X151633645Y-112630857D02*
X151633645Y-113259810D01*
X152214217Y-113598476D02*
X152262598Y-113646857D01*
X152262598Y-113646857D02*
X152310979Y-113743619D01*
X152310979Y-113743619D02*
X152310979Y-113985524D01*
X152310979Y-113985524D02*
X152262598Y-114082286D01*
X152262598Y-114082286D02*
X152214217Y-114130667D01*
X152214217Y-114130667D02*
X152117455Y-114179048D01*
X152117455Y-114179048D02*
X152020693Y-114179048D01*
X152020693Y-114179048D02*
X151875550Y-114130667D01*
X151875550Y-114130667D02*
X151294979Y-113550095D01*
X151294979Y-113550095D02*
X151294979Y-114179048D01*
X152310979Y-115049905D02*
X152310979Y-114856381D01*
X152310979Y-114856381D02*
X152262598Y-114759619D01*
X152262598Y-114759619D02*
X152214217Y-114711238D01*
X152214217Y-114711238D02*
X152069074Y-114614476D01*
X152069074Y-114614476D02*
X151875550Y-114566095D01*
X151875550Y-114566095D02*
X151488502Y-114566095D01*
X151488502Y-114566095D02*
X151391740Y-114614476D01*
X151391740Y-114614476D02*
X151343360Y-114662857D01*
X151343360Y-114662857D02*
X151294979Y-114759619D01*
X151294979Y-114759619D02*
X151294979Y-114953143D01*
X151294979Y-114953143D02*
X151343360Y-115049905D01*
X151343360Y-115049905D02*
X151391740Y-115098286D01*
X151391740Y-115098286D02*
X151488502Y-115146667D01*
X151488502Y-115146667D02*
X151730407Y-115146667D01*
X151730407Y-115146667D02*
X151827169Y-115098286D01*
X151827169Y-115098286D02*
X151875550Y-115049905D01*
X151875550Y-115049905D02*
X151923931Y-114953143D01*
X151923931Y-114953143D02*
X151923931Y-114759619D01*
X151923931Y-114759619D02*
X151875550Y-114662857D01*
X151875550Y-114662857D02*
X151827169Y-114614476D01*
X151827169Y-114614476D02*
X151730407Y-114566095D01*
X152310979Y-116646476D02*
X151585264Y-116646476D01*
X151585264Y-116646476D02*
X151440121Y-116598095D01*
X151440121Y-116598095D02*
X151343360Y-116501333D01*
X151343360Y-116501333D02*
X151294979Y-116356190D01*
X151294979Y-116356190D02*
X151294979Y-116259428D01*
X151294979Y-117130285D02*
X152310979Y-117130285D01*
X152310979Y-117130285D02*
X151585264Y-117468952D01*
X151585264Y-117468952D02*
X152310979Y-117807619D01*
X152310979Y-117807619D02*
X151294979Y-117807619D01*
X151294979Y-118872000D02*
X151778788Y-118533333D01*
X151294979Y-118291428D02*
X152310979Y-118291428D01*
X152310979Y-118291428D02*
X152310979Y-118678476D01*
X152310979Y-118678476D02*
X152262598Y-118775238D01*
X152262598Y-118775238D02*
X152214217Y-118823619D01*
X152214217Y-118823619D02*
X152117455Y-118872000D01*
X152117455Y-118872000D02*
X151972312Y-118872000D01*
X151972312Y-118872000D02*
X151875550Y-118823619D01*
X151875550Y-118823619D02*
X151827169Y-118775238D01*
X151827169Y-118775238D02*
X151778788Y-118678476D01*
X151778788Y-118678476D02*
X151778788Y-118291428D01*
D14*
X154879523Y-104219526D02*
X154879523Y-105247621D01*
X154879523Y-105247621D02*
X154940000Y-105368573D01*
X154940000Y-105368573D02*
X155000476Y-105429050D01*
X155000476Y-105429050D02*
X155121428Y-105489526D01*
X155121428Y-105489526D02*
X155363333Y-105489526D01*
X155363333Y-105489526D02*
X155484285Y-105429050D01*
X155484285Y-105429050D02*
X155544762Y-105368573D01*
X155544762Y-105368573D02*
X155605238Y-105247621D01*
X155605238Y-105247621D02*
X155605238Y-104219526D01*
X156633333Y-104824288D02*
X156814761Y-104884764D01*
X156814761Y-104884764D02*
X156875238Y-104945240D01*
X156875238Y-104945240D02*
X156935714Y-105066192D01*
X156935714Y-105066192D02*
X156935714Y-105247621D01*
X156935714Y-105247621D02*
X156875238Y-105368573D01*
X156875238Y-105368573D02*
X156814761Y-105429050D01*
X156814761Y-105429050D02*
X156693809Y-105489526D01*
X156693809Y-105489526D02*
X156209999Y-105489526D01*
X156209999Y-105489526D02*
X156209999Y-104219526D01*
X156209999Y-104219526D02*
X156633333Y-104219526D01*
X156633333Y-104219526D02*
X156754285Y-104280002D01*
X156754285Y-104280002D02*
X156814761Y-104340478D01*
X156814761Y-104340478D02*
X156875238Y-104461430D01*
X156875238Y-104461430D02*
X156875238Y-104582383D01*
X156875238Y-104582383D02*
X156814761Y-104703335D01*
X156814761Y-104703335D02*
X156754285Y-104763811D01*
X156754285Y-104763811D02*
X156633333Y-104824288D01*
X156633333Y-104824288D02*
X156209999Y-104824288D01*
X157479999Y-105489526D02*
X157479999Y-104219526D01*
X157479999Y-104219526D02*
X157903333Y-105126669D01*
X157903333Y-105126669D02*
X158326666Y-104219526D01*
X158326666Y-104219526D02*
X158326666Y-105489526D01*
X158931428Y-105489526D02*
X158931428Y-104219526D01*
X158931428Y-104219526D02*
X159415238Y-104219526D01*
X159415238Y-104219526D02*
X159536190Y-104280002D01*
X159536190Y-104280002D02*
X159596667Y-104340478D01*
X159596667Y-104340478D02*
X159657143Y-104461430D01*
X159657143Y-104461430D02*
X159657143Y-104642859D01*
X159657143Y-104642859D02*
X159596667Y-104763811D01*
X159596667Y-104763811D02*
X159536190Y-104824288D01*
X159536190Y-104824288D02*
X159415238Y-104884764D01*
X159415238Y-104884764D02*
X158931428Y-104884764D01*
X160745714Y-104642859D02*
X160745714Y-105489526D01*
X160443333Y-104159050D02*
X160140952Y-105066192D01*
X160140952Y-105066192D02*
X160927143Y-105066192D01*
X162378571Y-105489526D02*
X162378571Y-104642859D01*
X162378571Y-104884764D02*
X162439048Y-104763811D01*
X162439048Y-104763811D02*
X162499524Y-104703335D01*
X162499524Y-104703335D02*
X162620476Y-104642859D01*
X162620476Y-104642859D02*
X162741429Y-104642859D01*
X163648571Y-105429050D02*
X163527619Y-105489526D01*
X163527619Y-105489526D02*
X163285714Y-105489526D01*
X163285714Y-105489526D02*
X163164761Y-105429050D01*
X163164761Y-105429050D02*
X163104285Y-105308097D01*
X163104285Y-105308097D02*
X163104285Y-104824288D01*
X163104285Y-104824288D02*
X163164761Y-104703335D01*
X163164761Y-104703335D02*
X163285714Y-104642859D01*
X163285714Y-104642859D02*
X163527619Y-104642859D01*
X163527619Y-104642859D02*
X163648571Y-104703335D01*
X163648571Y-104703335D02*
X163709047Y-104824288D01*
X163709047Y-104824288D02*
X163709047Y-104945240D01*
X163709047Y-104945240D02*
X163104285Y-105066192D01*
X164132380Y-104642859D02*
X164434761Y-105489526D01*
X164434761Y-105489526D02*
X164737142Y-104642859D01*
X165220951Y-105368573D02*
X165281428Y-105429050D01*
X165281428Y-105429050D02*
X165220951Y-105489526D01*
X165220951Y-105489526D02*
X165160475Y-105429050D01*
X165160475Y-105429050D02*
X165220951Y-105368573D01*
X165220951Y-105368573D02*
X165220951Y-105489526D01*
X165704761Y-104219526D02*
X166490952Y-104219526D01*
X166490952Y-104219526D02*
X166067618Y-104703335D01*
X166067618Y-104703335D02*
X166249047Y-104703335D01*
X166249047Y-104703335D02*
X166369999Y-104763811D01*
X166369999Y-104763811D02*
X166430475Y-104824288D01*
X166430475Y-104824288D02*
X166490952Y-104945240D01*
X166490952Y-104945240D02*
X166490952Y-105247621D01*
X166490952Y-105247621D02*
X166430475Y-105368573D01*
X166430475Y-105368573D02*
X166369999Y-105429050D01*
X166369999Y-105429050D02*
X166249047Y-105489526D01*
X166249047Y-105489526D02*
X165886190Y-105489526D01*
X165886190Y-105489526D02*
X165765237Y-105429050D01*
X165765237Y-105429050D02*
X165704761Y-105368573D01*
D11*
X167722973Y-93611095D02*
X167674592Y-93562714D01*
X167674592Y-93562714D02*
X167626211Y-93465952D01*
X167626211Y-93465952D02*
X167722973Y-93272428D01*
X167722973Y-93272428D02*
X167674592Y-93175666D01*
X167674592Y-93175666D02*
X167626211Y-93127285D01*
X115480979Y-86293476D02*
X115480979Y-85809666D01*
X115480979Y-85809666D02*
X114997169Y-85761285D01*
X114997169Y-85761285D02*
X115045550Y-85809666D01*
X115045550Y-85809666D02*
X115093931Y-85906428D01*
X115093931Y-85906428D02*
X115093931Y-86148333D01*
X115093931Y-86148333D02*
X115045550Y-86245095D01*
X115045550Y-86245095D02*
X114997169Y-86293476D01*
X114997169Y-86293476D02*
X114900407Y-86341857D01*
X114900407Y-86341857D02*
X114658502Y-86341857D01*
X114658502Y-86341857D02*
X114561740Y-86293476D01*
X114561740Y-86293476D02*
X114513360Y-86245095D01*
X114513360Y-86245095D02*
X114464979Y-86148333D01*
X114464979Y-86148333D02*
X114464979Y-85906428D01*
X114464979Y-85906428D02*
X114513360Y-85809666D01*
X114513360Y-85809666D02*
X114561740Y-85761285D01*
X115480979Y-86632142D02*
X114464979Y-86970809D01*
X114464979Y-86970809D02*
X115480979Y-87309476D01*
D13*
%TO.C,Q1*%
X187402142Y-91725761D02*
X187449761Y-91630523D01*
X187449761Y-91630523D02*
X187545000Y-91535285D01*
X187545000Y-91535285D02*
X187687857Y-91392428D01*
X187687857Y-91392428D02*
X187735476Y-91297190D01*
X187735476Y-91297190D02*
X187735476Y-91201952D01*
X187497380Y-91249571D02*
X187545000Y-91154333D01*
X187545000Y-91154333D02*
X187640238Y-91059095D01*
X187640238Y-91059095D02*
X187830714Y-91011476D01*
X187830714Y-91011476D02*
X188164047Y-91011476D01*
X188164047Y-91011476D02*
X188354523Y-91059095D01*
X188354523Y-91059095D02*
X188449761Y-91154333D01*
X188449761Y-91154333D02*
X188497380Y-91249571D01*
X188497380Y-91249571D02*
X188497380Y-91440047D01*
X188497380Y-91440047D02*
X188449761Y-91535285D01*
X188449761Y-91535285D02*
X188354523Y-91630523D01*
X188354523Y-91630523D02*
X188164047Y-91678142D01*
X188164047Y-91678142D02*
X187830714Y-91678142D01*
X187830714Y-91678142D02*
X187640238Y-91630523D01*
X187640238Y-91630523D02*
X187545000Y-91535285D01*
X187545000Y-91535285D02*
X187497380Y-91440047D01*
X187497380Y-91440047D02*
X187497380Y-91249571D01*
X187497380Y-92630523D02*
X187497380Y-92059095D01*
X187497380Y-92344809D02*
X188497380Y-92344809D01*
X188497380Y-92344809D02*
X188354523Y-92249571D01*
X188354523Y-92249571D02*
X188259285Y-92154333D01*
X188259285Y-92154333D02*
X188211666Y-92059095D01*
%TO.C,C1*%
X115837619Y-90003333D02*
X115790000Y-89955714D01*
X115790000Y-89955714D02*
X115742380Y-89812857D01*
X115742380Y-89812857D02*
X115742380Y-89717619D01*
X115742380Y-89717619D02*
X115790000Y-89574762D01*
X115790000Y-89574762D02*
X115885238Y-89479524D01*
X115885238Y-89479524D02*
X115980476Y-89431905D01*
X115980476Y-89431905D02*
X116170952Y-89384286D01*
X116170952Y-89384286D02*
X116313809Y-89384286D01*
X116313809Y-89384286D02*
X116504285Y-89431905D01*
X116504285Y-89431905D02*
X116599523Y-89479524D01*
X116599523Y-89479524D02*
X116694761Y-89574762D01*
X116694761Y-89574762D02*
X116742380Y-89717619D01*
X116742380Y-89717619D02*
X116742380Y-89812857D01*
X116742380Y-89812857D02*
X116694761Y-89955714D01*
X116694761Y-89955714D02*
X116647142Y-90003333D01*
X115742380Y-90955714D02*
X115742380Y-90384286D01*
X115742380Y-90670000D02*
X116742380Y-90670000D01*
X116742380Y-90670000D02*
X116599523Y-90574762D01*
X116599523Y-90574762D02*
X116504285Y-90479524D01*
X116504285Y-90479524D02*
X116456666Y-90384286D01*
%TO.C,C4*%
X102248619Y-109688333D02*
X102201000Y-109640714D01*
X102201000Y-109640714D02*
X102153380Y-109497857D01*
X102153380Y-109497857D02*
X102153380Y-109402619D01*
X102153380Y-109402619D02*
X102201000Y-109259762D01*
X102201000Y-109259762D02*
X102296238Y-109164524D01*
X102296238Y-109164524D02*
X102391476Y-109116905D01*
X102391476Y-109116905D02*
X102581952Y-109069286D01*
X102581952Y-109069286D02*
X102724809Y-109069286D01*
X102724809Y-109069286D02*
X102915285Y-109116905D01*
X102915285Y-109116905D02*
X103010523Y-109164524D01*
X103010523Y-109164524D02*
X103105761Y-109259762D01*
X103105761Y-109259762D02*
X103153380Y-109402619D01*
X103153380Y-109402619D02*
X103153380Y-109497857D01*
X103153380Y-109497857D02*
X103105761Y-109640714D01*
X103105761Y-109640714D02*
X103058142Y-109688333D01*
X102820047Y-110545476D02*
X102153380Y-110545476D01*
X103201000Y-110307381D02*
X102486714Y-110069286D01*
X102486714Y-110069286D02*
X102486714Y-110688333D01*
%TO.C,D1*%
X109900380Y-112164905D02*
X110900380Y-112164905D01*
X110900380Y-112164905D02*
X110900380Y-112403000D01*
X110900380Y-112403000D02*
X110852761Y-112545857D01*
X110852761Y-112545857D02*
X110757523Y-112641095D01*
X110757523Y-112641095D02*
X110662285Y-112688714D01*
X110662285Y-112688714D02*
X110471809Y-112736333D01*
X110471809Y-112736333D02*
X110328952Y-112736333D01*
X110328952Y-112736333D02*
X110138476Y-112688714D01*
X110138476Y-112688714D02*
X110043238Y-112641095D01*
X110043238Y-112641095D02*
X109948000Y-112545857D01*
X109948000Y-112545857D02*
X109900380Y-112403000D01*
X109900380Y-112403000D02*
X109900380Y-112164905D01*
X109900380Y-113688714D02*
X109900380Y-113117286D01*
X109900380Y-113403000D02*
X110900380Y-113403000D01*
X110900380Y-113403000D02*
X110757523Y-113307762D01*
X110757523Y-113307762D02*
X110662285Y-113212524D01*
X110662285Y-113212524D02*
X110614666Y-113117286D01*
%TO.C,D4*%
X140507380Y-111148905D02*
X141507380Y-111148905D01*
X141507380Y-111148905D02*
X141507380Y-111387000D01*
X141507380Y-111387000D02*
X141459761Y-111529857D01*
X141459761Y-111529857D02*
X141364523Y-111625095D01*
X141364523Y-111625095D02*
X141269285Y-111672714D01*
X141269285Y-111672714D02*
X141078809Y-111720333D01*
X141078809Y-111720333D02*
X140935952Y-111720333D01*
X140935952Y-111720333D02*
X140745476Y-111672714D01*
X140745476Y-111672714D02*
X140650238Y-111625095D01*
X140650238Y-111625095D02*
X140555000Y-111529857D01*
X140555000Y-111529857D02*
X140507380Y-111387000D01*
X140507380Y-111387000D02*
X140507380Y-111148905D01*
X141174047Y-112577476D02*
X140507380Y-112577476D01*
X141555000Y-112339381D02*
X140840714Y-112101286D01*
X140840714Y-112101286D02*
X140840714Y-112720333D01*
%TO.C,FB1*%
X109656666Y-93918809D02*
X109323333Y-93918809D01*
X109323333Y-94442619D02*
X109323333Y-93442619D01*
X109323333Y-93442619D02*
X109799523Y-93442619D01*
X110513809Y-93918809D02*
X110656666Y-93966428D01*
X110656666Y-93966428D02*
X110704285Y-94014047D01*
X110704285Y-94014047D02*
X110751904Y-94109285D01*
X110751904Y-94109285D02*
X110751904Y-94252142D01*
X110751904Y-94252142D02*
X110704285Y-94347380D01*
X110704285Y-94347380D02*
X110656666Y-94395000D01*
X110656666Y-94395000D02*
X110561428Y-94442619D01*
X110561428Y-94442619D02*
X110180476Y-94442619D01*
X110180476Y-94442619D02*
X110180476Y-93442619D01*
X110180476Y-93442619D02*
X110513809Y-93442619D01*
X110513809Y-93442619D02*
X110609047Y-93490238D01*
X110609047Y-93490238D02*
X110656666Y-93537857D01*
X110656666Y-93537857D02*
X110704285Y-93633095D01*
X110704285Y-93633095D02*
X110704285Y-93728333D01*
X110704285Y-93728333D02*
X110656666Y-93823571D01*
X110656666Y-93823571D02*
X110609047Y-93871190D01*
X110609047Y-93871190D02*
X110513809Y-93918809D01*
X110513809Y-93918809D02*
X110180476Y-93918809D01*
X111704285Y-94442619D02*
X111132857Y-94442619D01*
X111418571Y-94442619D02*
X111418571Y-93442619D01*
X111418571Y-93442619D02*
X111323333Y-93585476D01*
X111323333Y-93585476D02*
X111228095Y-93680714D01*
X111228095Y-93680714D02*
X111132857Y-93728333D01*
%TO.C,R6*%
X134792380Y-113498333D02*
X135268571Y-113165000D01*
X134792380Y-112926905D02*
X135792380Y-112926905D01*
X135792380Y-112926905D02*
X135792380Y-113307857D01*
X135792380Y-113307857D02*
X135744761Y-113403095D01*
X135744761Y-113403095D02*
X135697142Y-113450714D01*
X135697142Y-113450714D02*
X135601904Y-113498333D01*
X135601904Y-113498333D02*
X135459047Y-113498333D01*
X135459047Y-113498333D02*
X135363809Y-113450714D01*
X135363809Y-113450714D02*
X135316190Y-113403095D01*
X135316190Y-113403095D02*
X135268571Y-113307857D01*
X135268571Y-113307857D02*
X135268571Y-112926905D01*
X135792380Y-114355476D02*
X135792380Y-114165000D01*
X135792380Y-114165000D02*
X135744761Y-114069762D01*
X135744761Y-114069762D02*
X135697142Y-114022143D01*
X135697142Y-114022143D02*
X135554285Y-113926905D01*
X135554285Y-113926905D02*
X135363809Y-113879286D01*
X135363809Y-113879286D02*
X134982857Y-113879286D01*
X134982857Y-113879286D02*
X134887619Y-113926905D01*
X134887619Y-113926905D02*
X134840000Y-113974524D01*
X134840000Y-113974524D02*
X134792380Y-114069762D01*
X134792380Y-114069762D02*
X134792380Y-114260238D01*
X134792380Y-114260238D02*
X134840000Y-114355476D01*
X134840000Y-114355476D02*
X134887619Y-114403095D01*
X134887619Y-114403095D02*
X134982857Y-114450714D01*
X134982857Y-114450714D02*
X135220952Y-114450714D01*
X135220952Y-114450714D02*
X135316190Y-114403095D01*
X135316190Y-114403095D02*
X135363809Y-114355476D01*
X135363809Y-114355476D02*
X135411428Y-114260238D01*
X135411428Y-114260238D02*
X135411428Y-114069762D01*
X135411428Y-114069762D02*
X135363809Y-113974524D01*
X135363809Y-113974524D02*
X135316190Y-113926905D01*
X135316190Y-113926905D02*
X135220952Y-113879286D01*
%TO.C,R20*%
X132252380Y-113022142D02*
X132728571Y-112688809D01*
X132252380Y-112450714D02*
X133252380Y-112450714D01*
X133252380Y-112450714D02*
X133252380Y-112831666D01*
X133252380Y-112831666D02*
X133204761Y-112926904D01*
X133204761Y-112926904D02*
X133157142Y-112974523D01*
X133157142Y-112974523D02*
X133061904Y-113022142D01*
X133061904Y-113022142D02*
X132919047Y-113022142D01*
X132919047Y-113022142D02*
X132823809Y-112974523D01*
X132823809Y-112974523D02*
X132776190Y-112926904D01*
X132776190Y-112926904D02*
X132728571Y-112831666D01*
X132728571Y-112831666D02*
X132728571Y-112450714D01*
X133157142Y-113403095D02*
X133204761Y-113450714D01*
X133204761Y-113450714D02*
X133252380Y-113545952D01*
X133252380Y-113545952D02*
X133252380Y-113784047D01*
X133252380Y-113784047D02*
X133204761Y-113879285D01*
X133204761Y-113879285D02*
X133157142Y-113926904D01*
X133157142Y-113926904D02*
X133061904Y-113974523D01*
X133061904Y-113974523D02*
X132966666Y-113974523D01*
X132966666Y-113974523D02*
X132823809Y-113926904D01*
X132823809Y-113926904D02*
X132252380Y-113355476D01*
X132252380Y-113355476D02*
X132252380Y-113974523D01*
X133252380Y-114593571D02*
X133252380Y-114688809D01*
X133252380Y-114688809D02*
X133204761Y-114784047D01*
X133204761Y-114784047D02*
X133157142Y-114831666D01*
X133157142Y-114831666D02*
X133061904Y-114879285D01*
X133061904Y-114879285D02*
X132871428Y-114926904D01*
X132871428Y-114926904D02*
X132633333Y-114926904D01*
X132633333Y-114926904D02*
X132442857Y-114879285D01*
X132442857Y-114879285D02*
X132347619Y-114831666D01*
X132347619Y-114831666D02*
X132300000Y-114784047D01*
X132300000Y-114784047D02*
X132252380Y-114688809D01*
X132252380Y-114688809D02*
X132252380Y-114593571D01*
X132252380Y-114593571D02*
X132300000Y-114498333D01*
X132300000Y-114498333D02*
X132347619Y-114450714D01*
X132347619Y-114450714D02*
X132442857Y-114403095D01*
X132442857Y-114403095D02*
X132633333Y-114355476D01*
X132633333Y-114355476D02*
X132871428Y-114355476D01*
X132871428Y-114355476D02*
X133061904Y-114403095D01*
X133061904Y-114403095D02*
X133157142Y-114450714D01*
X133157142Y-114450714D02*
X133204761Y-114498333D01*
X133204761Y-114498333D02*
X133252380Y-114593571D01*
%TO.C,SW4*%
X140555000Y-115252667D02*
X140507380Y-115395524D01*
X140507380Y-115395524D02*
X140507380Y-115633619D01*
X140507380Y-115633619D02*
X140555000Y-115728857D01*
X140555000Y-115728857D02*
X140602619Y-115776476D01*
X140602619Y-115776476D02*
X140697857Y-115824095D01*
X140697857Y-115824095D02*
X140793095Y-115824095D01*
X140793095Y-115824095D02*
X140888333Y-115776476D01*
X140888333Y-115776476D02*
X140935952Y-115728857D01*
X140935952Y-115728857D02*
X140983571Y-115633619D01*
X140983571Y-115633619D02*
X141031190Y-115443143D01*
X141031190Y-115443143D02*
X141078809Y-115347905D01*
X141078809Y-115347905D02*
X141126428Y-115300286D01*
X141126428Y-115300286D02*
X141221666Y-115252667D01*
X141221666Y-115252667D02*
X141316904Y-115252667D01*
X141316904Y-115252667D02*
X141412142Y-115300286D01*
X141412142Y-115300286D02*
X141459761Y-115347905D01*
X141459761Y-115347905D02*
X141507380Y-115443143D01*
X141507380Y-115443143D02*
X141507380Y-115681238D01*
X141507380Y-115681238D02*
X141459761Y-115824095D01*
X141507380Y-116157429D02*
X140507380Y-116395524D01*
X140507380Y-116395524D02*
X141221666Y-116586000D01*
X141221666Y-116586000D02*
X140507380Y-116776476D01*
X140507380Y-116776476D02*
X141507380Y-117014572D01*
X141174047Y-117824095D02*
X140507380Y-117824095D01*
X141555000Y-117586000D02*
X140840714Y-117347905D01*
X140840714Y-117347905D02*
X140840714Y-117966952D01*
%TO.C,C2*%
X117488619Y-109942333D02*
X117441000Y-109894714D01*
X117441000Y-109894714D02*
X117393380Y-109751857D01*
X117393380Y-109751857D02*
X117393380Y-109656619D01*
X117393380Y-109656619D02*
X117441000Y-109513762D01*
X117441000Y-109513762D02*
X117536238Y-109418524D01*
X117536238Y-109418524D02*
X117631476Y-109370905D01*
X117631476Y-109370905D02*
X117821952Y-109323286D01*
X117821952Y-109323286D02*
X117964809Y-109323286D01*
X117964809Y-109323286D02*
X118155285Y-109370905D01*
X118155285Y-109370905D02*
X118250523Y-109418524D01*
X118250523Y-109418524D02*
X118345761Y-109513762D01*
X118345761Y-109513762D02*
X118393380Y-109656619D01*
X118393380Y-109656619D02*
X118393380Y-109751857D01*
X118393380Y-109751857D02*
X118345761Y-109894714D01*
X118345761Y-109894714D02*
X118298142Y-109942333D01*
X118298142Y-110323286D02*
X118345761Y-110370905D01*
X118345761Y-110370905D02*
X118393380Y-110466143D01*
X118393380Y-110466143D02*
X118393380Y-110704238D01*
X118393380Y-110704238D02*
X118345761Y-110799476D01*
X118345761Y-110799476D02*
X118298142Y-110847095D01*
X118298142Y-110847095D02*
X118202904Y-110894714D01*
X118202904Y-110894714D02*
X118107666Y-110894714D01*
X118107666Y-110894714D02*
X117964809Y-110847095D01*
X117964809Y-110847095D02*
X117393380Y-110275667D01*
X117393380Y-110275667D02*
X117393380Y-110894714D01*
%TO.C,C3*%
X123531333Y-96252380D02*
X123483714Y-96300000D01*
X123483714Y-96300000D02*
X123340857Y-96347619D01*
X123340857Y-96347619D02*
X123245619Y-96347619D01*
X123245619Y-96347619D02*
X123102762Y-96300000D01*
X123102762Y-96300000D02*
X123007524Y-96204761D01*
X123007524Y-96204761D02*
X122959905Y-96109523D01*
X122959905Y-96109523D02*
X122912286Y-95919047D01*
X122912286Y-95919047D02*
X122912286Y-95776190D01*
X122912286Y-95776190D02*
X122959905Y-95585714D01*
X122959905Y-95585714D02*
X123007524Y-95490476D01*
X123007524Y-95490476D02*
X123102762Y-95395238D01*
X123102762Y-95395238D02*
X123245619Y-95347619D01*
X123245619Y-95347619D02*
X123340857Y-95347619D01*
X123340857Y-95347619D02*
X123483714Y-95395238D01*
X123483714Y-95395238D02*
X123531333Y-95442857D01*
X123864667Y-95347619D02*
X124483714Y-95347619D01*
X124483714Y-95347619D02*
X124150381Y-95728571D01*
X124150381Y-95728571D02*
X124293238Y-95728571D01*
X124293238Y-95728571D02*
X124388476Y-95776190D01*
X124388476Y-95776190D02*
X124436095Y-95823809D01*
X124436095Y-95823809D02*
X124483714Y-95919047D01*
X124483714Y-95919047D02*
X124483714Y-96157142D01*
X124483714Y-96157142D02*
X124436095Y-96252380D01*
X124436095Y-96252380D02*
X124388476Y-96300000D01*
X124388476Y-96300000D02*
X124293238Y-96347619D01*
X124293238Y-96347619D02*
X124007524Y-96347619D01*
X124007524Y-96347619D02*
X123912286Y-96300000D01*
X123912286Y-96300000D02*
X123864667Y-96252380D01*
%TO.C,D3*%
X140507380Y-90701905D02*
X141507380Y-90701905D01*
X141507380Y-90701905D02*
X141507380Y-90940000D01*
X141507380Y-90940000D02*
X141459761Y-91082857D01*
X141459761Y-91082857D02*
X141364523Y-91178095D01*
X141364523Y-91178095D02*
X141269285Y-91225714D01*
X141269285Y-91225714D02*
X141078809Y-91273333D01*
X141078809Y-91273333D02*
X140935952Y-91273333D01*
X140935952Y-91273333D02*
X140745476Y-91225714D01*
X140745476Y-91225714D02*
X140650238Y-91178095D01*
X140650238Y-91178095D02*
X140555000Y-91082857D01*
X140555000Y-91082857D02*
X140507380Y-90940000D01*
X140507380Y-90940000D02*
X140507380Y-90701905D01*
X141507380Y-91606667D02*
X141507380Y-92225714D01*
X141507380Y-92225714D02*
X141126428Y-91892381D01*
X141126428Y-91892381D02*
X141126428Y-92035238D01*
X141126428Y-92035238D02*
X141078809Y-92130476D01*
X141078809Y-92130476D02*
X141031190Y-92178095D01*
X141031190Y-92178095D02*
X140935952Y-92225714D01*
X140935952Y-92225714D02*
X140697857Y-92225714D01*
X140697857Y-92225714D02*
X140602619Y-92178095D01*
X140602619Y-92178095D02*
X140555000Y-92130476D01*
X140555000Y-92130476D02*
X140507380Y-92035238D01*
X140507380Y-92035238D02*
X140507380Y-91749524D01*
X140507380Y-91749524D02*
X140555000Y-91654286D01*
X140555000Y-91654286D02*
X140602619Y-91606667D01*
%TO.C,SW3*%
X140555000Y-85280667D02*
X140507380Y-85423524D01*
X140507380Y-85423524D02*
X140507380Y-85661619D01*
X140507380Y-85661619D02*
X140555000Y-85756857D01*
X140555000Y-85756857D02*
X140602619Y-85804476D01*
X140602619Y-85804476D02*
X140697857Y-85852095D01*
X140697857Y-85852095D02*
X140793095Y-85852095D01*
X140793095Y-85852095D02*
X140888333Y-85804476D01*
X140888333Y-85804476D02*
X140935952Y-85756857D01*
X140935952Y-85756857D02*
X140983571Y-85661619D01*
X140983571Y-85661619D02*
X141031190Y-85471143D01*
X141031190Y-85471143D02*
X141078809Y-85375905D01*
X141078809Y-85375905D02*
X141126428Y-85328286D01*
X141126428Y-85328286D02*
X141221666Y-85280667D01*
X141221666Y-85280667D02*
X141316904Y-85280667D01*
X141316904Y-85280667D02*
X141412142Y-85328286D01*
X141412142Y-85328286D02*
X141459761Y-85375905D01*
X141459761Y-85375905D02*
X141507380Y-85471143D01*
X141507380Y-85471143D02*
X141507380Y-85709238D01*
X141507380Y-85709238D02*
X141459761Y-85852095D01*
X141507380Y-86185429D02*
X140507380Y-86423524D01*
X140507380Y-86423524D02*
X141221666Y-86614000D01*
X141221666Y-86614000D02*
X140507380Y-86804476D01*
X140507380Y-86804476D02*
X141507380Y-87042572D01*
X141507380Y-87328286D02*
X141507380Y-87947333D01*
X141507380Y-87947333D02*
X141126428Y-87614000D01*
X141126428Y-87614000D02*
X141126428Y-87756857D01*
X141126428Y-87756857D02*
X141078809Y-87852095D01*
X141078809Y-87852095D02*
X141031190Y-87899714D01*
X141031190Y-87899714D02*
X140935952Y-87947333D01*
X140935952Y-87947333D02*
X140697857Y-87947333D01*
X140697857Y-87947333D02*
X140602619Y-87899714D01*
X140602619Y-87899714D02*
X140555000Y-87852095D01*
X140555000Y-87852095D02*
X140507380Y-87756857D01*
X140507380Y-87756857D02*
X140507380Y-87471143D01*
X140507380Y-87471143D02*
X140555000Y-87375905D01*
X140555000Y-87375905D02*
X140602619Y-87328286D01*
%TO.C,R5*%
X137332380Y-113498333D02*
X137808571Y-113165000D01*
X137332380Y-112926905D02*
X138332380Y-112926905D01*
X138332380Y-112926905D02*
X138332380Y-113307857D01*
X138332380Y-113307857D02*
X138284761Y-113403095D01*
X138284761Y-113403095D02*
X138237142Y-113450714D01*
X138237142Y-113450714D02*
X138141904Y-113498333D01*
X138141904Y-113498333D02*
X137999047Y-113498333D01*
X137999047Y-113498333D02*
X137903809Y-113450714D01*
X137903809Y-113450714D02*
X137856190Y-113403095D01*
X137856190Y-113403095D02*
X137808571Y-113307857D01*
X137808571Y-113307857D02*
X137808571Y-112926905D01*
X138332380Y-114403095D02*
X138332380Y-113926905D01*
X138332380Y-113926905D02*
X137856190Y-113879286D01*
X137856190Y-113879286D02*
X137903809Y-113926905D01*
X137903809Y-113926905D02*
X137951428Y-114022143D01*
X137951428Y-114022143D02*
X137951428Y-114260238D01*
X137951428Y-114260238D02*
X137903809Y-114355476D01*
X137903809Y-114355476D02*
X137856190Y-114403095D01*
X137856190Y-114403095D02*
X137760952Y-114450714D01*
X137760952Y-114450714D02*
X137522857Y-114450714D01*
X137522857Y-114450714D02*
X137427619Y-114403095D01*
X137427619Y-114403095D02*
X137380000Y-114355476D01*
X137380000Y-114355476D02*
X137332380Y-114260238D01*
X137332380Y-114260238D02*
X137332380Y-114022143D01*
X137332380Y-114022143D02*
X137380000Y-113926905D01*
X137380000Y-113926905D02*
X137427619Y-113879286D01*
%TO.C,SW5*%
X127220000Y-115252667D02*
X127172380Y-115395524D01*
X127172380Y-115395524D02*
X127172380Y-115633619D01*
X127172380Y-115633619D02*
X127220000Y-115728857D01*
X127220000Y-115728857D02*
X127267619Y-115776476D01*
X127267619Y-115776476D02*
X127362857Y-115824095D01*
X127362857Y-115824095D02*
X127458095Y-115824095D01*
X127458095Y-115824095D02*
X127553333Y-115776476D01*
X127553333Y-115776476D02*
X127600952Y-115728857D01*
X127600952Y-115728857D02*
X127648571Y-115633619D01*
X127648571Y-115633619D02*
X127696190Y-115443143D01*
X127696190Y-115443143D02*
X127743809Y-115347905D01*
X127743809Y-115347905D02*
X127791428Y-115300286D01*
X127791428Y-115300286D02*
X127886666Y-115252667D01*
X127886666Y-115252667D02*
X127981904Y-115252667D01*
X127981904Y-115252667D02*
X128077142Y-115300286D01*
X128077142Y-115300286D02*
X128124761Y-115347905D01*
X128124761Y-115347905D02*
X128172380Y-115443143D01*
X128172380Y-115443143D02*
X128172380Y-115681238D01*
X128172380Y-115681238D02*
X128124761Y-115824095D01*
X128172380Y-116157429D02*
X127172380Y-116395524D01*
X127172380Y-116395524D02*
X127886666Y-116586000D01*
X127886666Y-116586000D02*
X127172380Y-116776476D01*
X127172380Y-116776476D02*
X128172380Y-117014572D01*
X128172380Y-117871714D02*
X128172380Y-117395524D01*
X128172380Y-117395524D02*
X127696190Y-117347905D01*
X127696190Y-117347905D02*
X127743809Y-117395524D01*
X127743809Y-117395524D02*
X127791428Y-117490762D01*
X127791428Y-117490762D02*
X127791428Y-117728857D01*
X127791428Y-117728857D02*
X127743809Y-117824095D01*
X127743809Y-117824095D02*
X127696190Y-117871714D01*
X127696190Y-117871714D02*
X127600952Y-117919333D01*
X127600952Y-117919333D02*
X127362857Y-117919333D01*
X127362857Y-117919333D02*
X127267619Y-117871714D01*
X127267619Y-117871714D02*
X127220000Y-117824095D01*
X127220000Y-117824095D02*
X127172380Y-117728857D01*
X127172380Y-117728857D02*
X127172380Y-117490762D01*
X127172380Y-117490762D02*
X127220000Y-117395524D01*
X127220000Y-117395524D02*
X127267619Y-117347905D01*
%TO.C,R19*%
X129712380Y-113022142D02*
X130188571Y-112688809D01*
X129712380Y-112450714D02*
X130712380Y-112450714D01*
X130712380Y-112450714D02*
X130712380Y-112831666D01*
X130712380Y-112831666D02*
X130664761Y-112926904D01*
X130664761Y-112926904D02*
X130617142Y-112974523D01*
X130617142Y-112974523D02*
X130521904Y-113022142D01*
X130521904Y-113022142D02*
X130379047Y-113022142D01*
X130379047Y-113022142D02*
X130283809Y-112974523D01*
X130283809Y-112974523D02*
X130236190Y-112926904D01*
X130236190Y-112926904D02*
X130188571Y-112831666D01*
X130188571Y-112831666D02*
X130188571Y-112450714D01*
X129712380Y-113974523D02*
X129712380Y-113403095D01*
X129712380Y-113688809D02*
X130712380Y-113688809D01*
X130712380Y-113688809D02*
X130569523Y-113593571D01*
X130569523Y-113593571D02*
X130474285Y-113498333D01*
X130474285Y-113498333D02*
X130426666Y-113403095D01*
X129712380Y-114450714D02*
X129712380Y-114641190D01*
X129712380Y-114641190D02*
X129760000Y-114736428D01*
X129760000Y-114736428D02*
X129807619Y-114784047D01*
X129807619Y-114784047D02*
X129950476Y-114879285D01*
X129950476Y-114879285D02*
X130140952Y-114926904D01*
X130140952Y-114926904D02*
X130521904Y-114926904D01*
X130521904Y-114926904D02*
X130617142Y-114879285D01*
X130617142Y-114879285D02*
X130664761Y-114831666D01*
X130664761Y-114831666D02*
X130712380Y-114736428D01*
X130712380Y-114736428D02*
X130712380Y-114545952D01*
X130712380Y-114545952D02*
X130664761Y-114450714D01*
X130664761Y-114450714D02*
X130617142Y-114403095D01*
X130617142Y-114403095D02*
X130521904Y-114355476D01*
X130521904Y-114355476D02*
X130283809Y-114355476D01*
X130283809Y-114355476D02*
X130188571Y-114403095D01*
X130188571Y-114403095D02*
X130140952Y-114450714D01*
X130140952Y-114450714D02*
X130093333Y-114545952D01*
X130093333Y-114545952D02*
X130093333Y-114736428D01*
X130093333Y-114736428D02*
X130140952Y-114831666D01*
X130140952Y-114831666D02*
X130188571Y-114879285D01*
X130188571Y-114879285D02*
X130283809Y-114926904D01*
%TO.C,R2*%
X115107380Y-113498333D02*
X115583571Y-113165000D01*
X115107380Y-112926905D02*
X116107380Y-112926905D01*
X116107380Y-112926905D02*
X116107380Y-113307857D01*
X116107380Y-113307857D02*
X116059761Y-113403095D01*
X116059761Y-113403095D02*
X116012142Y-113450714D01*
X116012142Y-113450714D02*
X115916904Y-113498333D01*
X115916904Y-113498333D02*
X115774047Y-113498333D01*
X115774047Y-113498333D02*
X115678809Y-113450714D01*
X115678809Y-113450714D02*
X115631190Y-113403095D01*
X115631190Y-113403095D02*
X115583571Y-113307857D01*
X115583571Y-113307857D02*
X115583571Y-112926905D01*
X116012142Y-113879286D02*
X116059761Y-113926905D01*
X116059761Y-113926905D02*
X116107380Y-114022143D01*
X116107380Y-114022143D02*
X116107380Y-114260238D01*
X116107380Y-114260238D02*
X116059761Y-114355476D01*
X116059761Y-114355476D02*
X116012142Y-114403095D01*
X116012142Y-114403095D02*
X115916904Y-114450714D01*
X115916904Y-114450714D02*
X115821666Y-114450714D01*
X115821666Y-114450714D02*
X115678809Y-114403095D01*
X115678809Y-114403095D02*
X115107380Y-113831667D01*
X115107380Y-113831667D02*
X115107380Y-114450714D01*
%TO.C,U1*%
X116996380Y-105791095D02*
X116186857Y-105791095D01*
X116186857Y-105791095D02*
X116091619Y-105838714D01*
X116091619Y-105838714D02*
X116044000Y-105886333D01*
X116044000Y-105886333D02*
X115996380Y-105981571D01*
X115996380Y-105981571D02*
X115996380Y-106172047D01*
X115996380Y-106172047D02*
X116044000Y-106267285D01*
X116044000Y-106267285D02*
X116091619Y-106314904D01*
X116091619Y-106314904D02*
X116186857Y-106362523D01*
X116186857Y-106362523D02*
X116996380Y-106362523D01*
X115996380Y-107362523D02*
X115996380Y-106791095D01*
X115996380Y-107076809D02*
X116996380Y-107076809D01*
X116996380Y-107076809D02*
X116853523Y-106981571D01*
X116853523Y-106981571D02*
X116758285Y-106886333D01*
X116758285Y-106886333D02*
X116710666Y-106791095D01*
%TO.C,R13*%
X158922380Y-96512142D02*
X159398571Y-96178809D01*
X158922380Y-95940714D02*
X159922380Y-95940714D01*
X159922380Y-95940714D02*
X159922380Y-96321666D01*
X159922380Y-96321666D02*
X159874761Y-96416904D01*
X159874761Y-96416904D02*
X159827142Y-96464523D01*
X159827142Y-96464523D02*
X159731904Y-96512142D01*
X159731904Y-96512142D02*
X159589047Y-96512142D01*
X159589047Y-96512142D02*
X159493809Y-96464523D01*
X159493809Y-96464523D02*
X159446190Y-96416904D01*
X159446190Y-96416904D02*
X159398571Y-96321666D01*
X159398571Y-96321666D02*
X159398571Y-95940714D01*
X158922380Y-97464523D02*
X158922380Y-96893095D01*
X158922380Y-97178809D02*
X159922380Y-97178809D01*
X159922380Y-97178809D02*
X159779523Y-97083571D01*
X159779523Y-97083571D02*
X159684285Y-96988333D01*
X159684285Y-96988333D02*
X159636666Y-96893095D01*
X159922380Y-97797857D02*
X159922380Y-98416904D01*
X159922380Y-98416904D02*
X159541428Y-98083571D01*
X159541428Y-98083571D02*
X159541428Y-98226428D01*
X159541428Y-98226428D02*
X159493809Y-98321666D01*
X159493809Y-98321666D02*
X159446190Y-98369285D01*
X159446190Y-98369285D02*
X159350952Y-98416904D01*
X159350952Y-98416904D02*
X159112857Y-98416904D01*
X159112857Y-98416904D02*
X159017619Y-98369285D01*
X159017619Y-98369285D02*
X158970000Y-98321666D01*
X158970000Y-98321666D02*
X158922380Y-98226428D01*
X158922380Y-98226428D02*
X158922380Y-97940714D01*
X158922380Y-97940714D02*
X158970000Y-97845476D01*
X158970000Y-97845476D02*
X159017619Y-97797857D01*
%TO.C,R9*%
X158922380Y-112228333D02*
X159398571Y-111895000D01*
X158922380Y-111656905D02*
X159922380Y-111656905D01*
X159922380Y-111656905D02*
X159922380Y-112037857D01*
X159922380Y-112037857D02*
X159874761Y-112133095D01*
X159874761Y-112133095D02*
X159827142Y-112180714D01*
X159827142Y-112180714D02*
X159731904Y-112228333D01*
X159731904Y-112228333D02*
X159589047Y-112228333D01*
X159589047Y-112228333D02*
X159493809Y-112180714D01*
X159493809Y-112180714D02*
X159446190Y-112133095D01*
X159446190Y-112133095D02*
X159398571Y-112037857D01*
X159398571Y-112037857D02*
X159398571Y-111656905D01*
X158922380Y-112704524D02*
X158922380Y-112895000D01*
X158922380Y-112895000D02*
X158970000Y-112990238D01*
X158970000Y-112990238D02*
X159017619Y-113037857D01*
X159017619Y-113037857D02*
X159160476Y-113133095D01*
X159160476Y-113133095D02*
X159350952Y-113180714D01*
X159350952Y-113180714D02*
X159731904Y-113180714D01*
X159731904Y-113180714D02*
X159827142Y-113133095D01*
X159827142Y-113133095D02*
X159874761Y-113085476D01*
X159874761Y-113085476D02*
X159922380Y-112990238D01*
X159922380Y-112990238D02*
X159922380Y-112799762D01*
X159922380Y-112799762D02*
X159874761Y-112704524D01*
X159874761Y-112704524D02*
X159827142Y-112656905D01*
X159827142Y-112656905D02*
X159731904Y-112609286D01*
X159731904Y-112609286D02*
X159493809Y-112609286D01*
X159493809Y-112609286D02*
X159398571Y-112656905D01*
X159398571Y-112656905D02*
X159350952Y-112704524D01*
X159350952Y-112704524D02*
X159303333Y-112799762D01*
X159303333Y-112799762D02*
X159303333Y-112990238D01*
X159303333Y-112990238D02*
X159350952Y-113085476D01*
X159350952Y-113085476D02*
X159398571Y-113133095D01*
X159398571Y-113133095D02*
X159493809Y-113180714D01*
%TO.C,R8*%
X156382380Y-112228333D02*
X156858571Y-111895000D01*
X156382380Y-111656905D02*
X157382380Y-111656905D01*
X157382380Y-111656905D02*
X157382380Y-112037857D01*
X157382380Y-112037857D02*
X157334761Y-112133095D01*
X157334761Y-112133095D02*
X157287142Y-112180714D01*
X157287142Y-112180714D02*
X157191904Y-112228333D01*
X157191904Y-112228333D02*
X157049047Y-112228333D01*
X157049047Y-112228333D02*
X156953809Y-112180714D01*
X156953809Y-112180714D02*
X156906190Y-112133095D01*
X156906190Y-112133095D02*
X156858571Y-112037857D01*
X156858571Y-112037857D02*
X156858571Y-111656905D01*
X156953809Y-112799762D02*
X157001428Y-112704524D01*
X157001428Y-112704524D02*
X157049047Y-112656905D01*
X157049047Y-112656905D02*
X157144285Y-112609286D01*
X157144285Y-112609286D02*
X157191904Y-112609286D01*
X157191904Y-112609286D02*
X157287142Y-112656905D01*
X157287142Y-112656905D02*
X157334761Y-112704524D01*
X157334761Y-112704524D02*
X157382380Y-112799762D01*
X157382380Y-112799762D02*
X157382380Y-112990238D01*
X157382380Y-112990238D02*
X157334761Y-113085476D01*
X157334761Y-113085476D02*
X157287142Y-113133095D01*
X157287142Y-113133095D02*
X157191904Y-113180714D01*
X157191904Y-113180714D02*
X157144285Y-113180714D01*
X157144285Y-113180714D02*
X157049047Y-113133095D01*
X157049047Y-113133095D02*
X157001428Y-113085476D01*
X157001428Y-113085476D02*
X156953809Y-112990238D01*
X156953809Y-112990238D02*
X156953809Y-112799762D01*
X156953809Y-112799762D02*
X156906190Y-112704524D01*
X156906190Y-112704524D02*
X156858571Y-112656905D01*
X156858571Y-112656905D02*
X156763333Y-112609286D01*
X156763333Y-112609286D02*
X156572857Y-112609286D01*
X156572857Y-112609286D02*
X156477619Y-112656905D01*
X156477619Y-112656905D02*
X156430000Y-112704524D01*
X156430000Y-112704524D02*
X156382380Y-112799762D01*
X156382380Y-112799762D02*
X156382380Y-112990238D01*
X156382380Y-112990238D02*
X156430000Y-113085476D01*
X156430000Y-113085476D02*
X156477619Y-113133095D01*
X156477619Y-113133095D02*
X156572857Y-113180714D01*
X156572857Y-113180714D02*
X156763333Y-113180714D01*
X156763333Y-113180714D02*
X156858571Y-113133095D01*
X156858571Y-113133095D02*
X156906190Y-113085476D01*
X156906190Y-113085476D02*
X156953809Y-112990238D01*
%TO.C,R14*%
X161462380Y-96512142D02*
X161938571Y-96178809D01*
X161462380Y-95940714D02*
X162462380Y-95940714D01*
X162462380Y-95940714D02*
X162462380Y-96321666D01*
X162462380Y-96321666D02*
X162414761Y-96416904D01*
X162414761Y-96416904D02*
X162367142Y-96464523D01*
X162367142Y-96464523D02*
X162271904Y-96512142D01*
X162271904Y-96512142D02*
X162129047Y-96512142D01*
X162129047Y-96512142D02*
X162033809Y-96464523D01*
X162033809Y-96464523D02*
X161986190Y-96416904D01*
X161986190Y-96416904D02*
X161938571Y-96321666D01*
X161938571Y-96321666D02*
X161938571Y-95940714D01*
X161462380Y-97464523D02*
X161462380Y-96893095D01*
X161462380Y-97178809D02*
X162462380Y-97178809D01*
X162462380Y-97178809D02*
X162319523Y-97083571D01*
X162319523Y-97083571D02*
X162224285Y-96988333D01*
X162224285Y-96988333D02*
X162176666Y-96893095D01*
X162129047Y-98321666D02*
X161462380Y-98321666D01*
X162510000Y-98083571D02*
X161795714Y-97845476D01*
X161795714Y-97845476D02*
X161795714Y-98464523D01*
%TO.C,R10*%
X161462380Y-111752142D02*
X161938571Y-111418809D01*
X161462380Y-111180714D02*
X162462380Y-111180714D01*
X162462380Y-111180714D02*
X162462380Y-111561666D01*
X162462380Y-111561666D02*
X162414761Y-111656904D01*
X162414761Y-111656904D02*
X162367142Y-111704523D01*
X162367142Y-111704523D02*
X162271904Y-111752142D01*
X162271904Y-111752142D02*
X162129047Y-111752142D01*
X162129047Y-111752142D02*
X162033809Y-111704523D01*
X162033809Y-111704523D02*
X161986190Y-111656904D01*
X161986190Y-111656904D02*
X161938571Y-111561666D01*
X161938571Y-111561666D02*
X161938571Y-111180714D01*
X161462380Y-112704523D02*
X161462380Y-112133095D01*
X161462380Y-112418809D02*
X162462380Y-112418809D01*
X162462380Y-112418809D02*
X162319523Y-112323571D01*
X162319523Y-112323571D02*
X162224285Y-112228333D01*
X162224285Y-112228333D02*
X162176666Y-112133095D01*
X162462380Y-113323571D02*
X162462380Y-113418809D01*
X162462380Y-113418809D02*
X162414761Y-113514047D01*
X162414761Y-113514047D02*
X162367142Y-113561666D01*
X162367142Y-113561666D02*
X162271904Y-113609285D01*
X162271904Y-113609285D02*
X162081428Y-113656904D01*
X162081428Y-113656904D02*
X161843333Y-113656904D01*
X161843333Y-113656904D02*
X161652857Y-113609285D01*
X161652857Y-113609285D02*
X161557619Y-113561666D01*
X161557619Y-113561666D02*
X161510000Y-113514047D01*
X161510000Y-113514047D02*
X161462380Y-113418809D01*
X161462380Y-113418809D02*
X161462380Y-113323571D01*
X161462380Y-113323571D02*
X161510000Y-113228333D01*
X161510000Y-113228333D02*
X161557619Y-113180714D01*
X161557619Y-113180714D02*
X161652857Y-113133095D01*
X161652857Y-113133095D02*
X161843333Y-113085476D01*
X161843333Y-113085476D02*
X162081428Y-113085476D01*
X162081428Y-113085476D02*
X162271904Y-113133095D01*
X162271904Y-113133095D02*
X162367142Y-113180714D01*
X162367142Y-113180714D02*
X162414761Y-113228333D01*
X162414761Y-113228333D02*
X162462380Y-113323571D01*
%TO.C,R12*%
X156382380Y-96512142D02*
X156858571Y-96178809D01*
X156382380Y-95940714D02*
X157382380Y-95940714D01*
X157382380Y-95940714D02*
X157382380Y-96321666D01*
X157382380Y-96321666D02*
X157334761Y-96416904D01*
X157334761Y-96416904D02*
X157287142Y-96464523D01*
X157287142Y-96464523D02*
X157191904Y-96512142D01*
X157191904Y-96512142D02*
X157049047Y-96512142D01*
X157049047Y-96512142D02*
X156953809Y-96464523D01*
X156953809Y-96464523D02*
X156906190Y-96416904D01*
X156906190Y-96416904D02*
X156858571Y-96321666D01*
X156858571Y-96321666D02*
X156858571Y-95940714D01*
X156382380Y-97464523D02*
X156382380Y-96893095D01*
X156382380Y-97178809D02*
X157382380Y-97178809D01*
X157382380Y-97178809D02*
X157239523Y-97083571D01*
X157239523Y-97083571D02*
X157144285Y-96988333D01*
X157144285Y-96988333D02*
X157096666Y-96893095D01*
X157287142Y-97845476D02*
X157334761Y-97893095D01*
X157334761Y-97893095D02*
X157382380Y-97988333D01*
X157382380Y-97988333D02*
X157382380Y-98226428D01*
X157382380Y-98226428D02*
X157334761Y-98321666D01*
X157334761Y-98321666D02*
X157287142Y-98369285D01*
X157287142Y-98369285D02*
X157191904Y-98416904D01*
X157191904Y-98416904D02*
X157096666Y-98416904D01*
X157096666Y-98416904D02*
X156953809Y-98369285D01*
X156953809Y-98369285D02*
X156382380Y-97797857D01*
X156382380Y-97797857D02*
X156382380Y-98416904D01*
%TO.C,C6*%
X180607619Y-89114333D02*
X180560000Y-89066714D01*
X180560000Y-89066714D02*
X180512380Y-88923857D01*
X180512380Y-88923857D02*
X180512380Y-88828619D01*
X180512380Y-88828619D02*
X180560000Y-88685762D01*
X180560000Y-88685762D02*
X180655238Y-88590524D01*
X180655238Y-88590524D02*
X180750476Y-88542905D01*
X180750476Y-88542905D02*
X180940952Y-88495286D01*
X180940952Y-88495286D02*
X181083809Y-88495286D01*
X181083809Y-88495286D02*
X181274285Y-88542905D01*
X181274285Y-88542905D02*
X181369523Y-88590524D01*
X181369523Y-88590524D02*
X181464761Y-88685762D01*
X181464761Y-88685762D02*
X181512380Y-88828619D01*
X181512380Y-88828619D02*
X181512380Y-88923857D01*
X181512380Y-88923857D02*
X181464761Y-89066714D01*
X181464761Y-89066714D02*
X181417142Y-89114333D01*
X181512380Y-89971476D02*
X181512380Y-89781000D01*
X181512380Y-89781000D02*
X181464761Y-89685762D01*
X181464761Y-89685762D02*
X181417142Y-89638143D01*
X181417142Y-89638143D02*
X181274285Y-89542905D01*
X181274285Y-89542905D02*
X181083809Y-89495286D01*
X181083809Y-89495286D02*
X180702857Y-89495286D01*
X180702857Y-89495286D02*
X180607619Y-89542905D01*
X180607619Y-89542905D02*
X180560000Y-89590524D01*
X180560000Y-89590524D02*
X180512380Y-89685762D01*
X180512380Y-89685762D02*
X180512380Y-89876238D01*
X180512380Y-89876238D02*
X180560000Y-89971476D01*
X180560000Y-89971476D02*
X180607619Y-90019095D01*
X180607619Y-90019095D02*
X180702857Y-90066714D01*
X180702857Y-90066714D02*
X180940952Y-90066714D01*
X180940952Y-90066714D02*
X181036190Y-90019095D01*
X181036190Y-90019095D02*
X181083809Y-89971476D01*
X181083809Y-89971476D02*
X181131428Y-89876238D01*
X181131428Y-89876238D02*
X181131428Y-89685762D01*
X181131428Y-89685762D02*
X181083809Y-89590524D01*
X181083809Y-89590524D02*
X181036190Y-89542905D01*
X181036190Y-89542905D02*
X180940952Y-89495286D01*
%TO.C,H8*%
X173781380Y-88773095D02*
X174781380Y-88773095D01*
X174305190Y-88773095D02*
X174305190Y-89344523D01*
X173781380Y-89344523D02*
X174781380Y-89344523D01*
X174352809Y-89963571D02*
X174400428Y-89868333D01*
X174400428Y-89868333D02*
X174448047Y-89820714D01*
X174448047Y-89820714D02*
X174543285Y-89773095D01*
X174543285Y-89773095D02*
X174590904Y-89773095D01*
X174590904Y-89773095D02*
X174686142Y-89820714D01*
X174686142Y-89820714D02*
X174733761Y-89868333D01*
X174733761Y-89868333D02*
X174781380Y-89963571D01*
X174781380Y-89963571D02*
X174781380Y-90154047D01*
X174781380Y-90154047D02*
X174733761Y-90249285D01*
X174733761Y-90249285D02*
X174686142Y-90296904D01*
X174686142Y-90296904D02*
X174590904Y-90344523D01*
X174590904Y-90344523D02*
X174543285Y-90344523D01*
X174543285Y-90344523D02*
X174448047Y-90296904D01*
X174448047Y-90296904D02*
X174400428Y-90249285D01*
X174400428Y-90249285D02*
X174352809Y-90154047D01*
X174352809Y-90154047D02*
X174352809Y-89963571D01*
X174352809Y-89963571D02*
X174305190Y-89868333D01*
X174305190Y-89868333D02*
X174257571Y-89820714D01*
X174257571Y-89820714D02*
X174162333Y-89773095D01*
X174162333Y-89773095D02*
X173971857Y-89773095D01*
X173971857Y-89773095D02*
X173876619Y-89820714D01*
X173876619Y-89820714D02*
X173829000Y-89868333D01*
X173829000Y-89868333D02*
X173781380Y-89963571D01*
X173781380Y-89963571D02*
X173781380Y-90154047D01*
X173781380Y-90154047D02*
X173829000Y-90249285D01*
X173829000Y-90249285D02*
X173876619Y-90296904D01*
X173876619Y-90296904D02*
X173971857Y-90344523D01*
X173971857Y-90344523D02*
X174162333Y-90344523D01*
X174162333Y-90344523D02*
X174257571Y-90296904D01*
X174257571Y-90296904D02*
X174305190Y-90249285D01*
X174305190Y-90249285D02*
X174352809Y-90154047D01*
%TO.C,Q2*%
X182576142Y-107473761D02*
X182623761Y-107378523D01*
X182623761Y-107378523D02*
X182719000Y-107283285D01*
X182719000Y-107283285D02*
X182861857Y-107140428D01*
X182861857Y-107140428D02*
X182909476Y-107045190D01*
X182909476Y-107045190D02*
X182909476Y-106949952D01*
X182671380Y-106997571D02*
X182719000Y-106902333D01*
X182719000Y-106902333D02*
X182814238Y-106807095D01*
X182814238Y-106807095D02*
X183004714Y-106759476D01*
X183004714Y-106759476D02*
X183338047Y-106759476D01*
X183338047Y-106759476D02*
X183528523Y-106807095D01*
X183528523Y-106807095D02*
X183623761Y-106902333D01*
X183623761Y-106902333D02*
X183671380Y-106997571D01*
X183671380Y-106997571D02*
X183671380Y-107188047D01*
X183671380Y-107188047D02*
X183623761Y-107283285D01*
X183623761Y-107283285D02*
X183528523Y-107378523D01*
X183528523Y-107378523D02*
X183338047Y-107426142D01*
X183338047Y-107426142D02*
X183004714Y-107426142D01*
X183004714Y-107426142D02*
X182814238Y-107378523D01*
X182814238Y-107378523D02*
X182719000Y-107283285D01*
X182719000Y-107283285D02*
X182671380Y-107188047D01*
X182671380Y-107188047D02*
X182671380Y-106997571D01*
X183576142Y-107807095D02*
X183623761Y-107854714D01*
X183623761Y-107854714D02*
X183671380Y-107949952D01*
X183671380Y-107949952D02*
X183671380Y-108188047D01*
X183671380Y-108188047D02*
X183623761Y-108283285D01*
X183623761Y-108283285D02*
X183576142Y-108330904D01*
X183576142Y-108330904D02*
X183480904Y-108378523D01*
X183480904Y-108378523D02*
X183385666Y-108378523D01*
X183385666Y-108378523D02*
X183242809Y-108330904D01*
X183242809Y-108330904D02*
X182671380Y-107759476D01*
X182671380Y-107759476D02*
X182671380Y-108378523D01*
%TO.C,R4*%
X137332380Y-89368333D02*
X137808571Y-89035000D01*
X137332380Y-88796905D02*
X138332380Y-88796905D01*
X138332380Y-88796905D02*
X138332380Y-89177857D01*
X138332380Y-89177857D02*
X138284761Y-89273095D01*
X138284761Y-89273095D02*
X138237142Y-89320714D01*
X138237142Y-89320714D02*
X138141904Y-89368333D01*
X138141904Y-89368333D02*
X137999047Y-89368333D01*
X137999047Y-89368333D02*
X137903809Y-89320714D01*
X137903809Y-89320714D02*
X137856190Y-89273095D01*
X137856190Y-89273095D02*
X137808571Y-89177857D01*
X137808571Y-89177857D02*
X137808571Y-88796905D01*
X137999047Y-90225476D02*
X137332380Y-90225476D01*
X138380000Y-89987381D02*
X137665714Y-89749286D01*
X137665714Y-89749286D02*
X137665714Y-90368333D01*
%TO.C,J1*%
X109630380Y-106219666D02*
X108916095Y-106219666D01*
X108916095Y-106219666D02*
X108773238Y-106172047D01*
X108773238Y-106172047D02*
X108678000Y-106076809D01*
X108678000Y-106076809D02*
X108630380Y-105933952D01*
X108630380Y-105933952D02*
X108630380Y-105838714D01*
X108630380Y-107219666D02*
X108630380Y-106648238D01*
X108630380Y-106933952D02*
X109630380Y-106933952D01*
X109630380Y-106933952D02*
X109487523Y-106838714D01*
X109487523Y-106838714D02*
X109392285Y-106743476D01*
X109392285Y-106743476D02*
X109344666Y-106648238D01*
%TO.C,R18*%
X171622380Y-96512142D02*
X172098571Y-96178809D01*
X171622380Y-95940714D02*
X172622380Y-95940714D01*
X172622380Y-95940714D02*
X172622380Y-96321666D01*
X172622380Y-96321666D02*
X172574761Y-96416904D01*
X172574761Y-96416904D02*
X172527142Y-96464523D01*
X172527142Y-96464523D02*
X172431904Y-96512142D01*
X172431904Y-96512142D02*
X172289047Y-96512142D01*
X172289047Y-96512142D02*
X172193809Y-96464523D01*
X172193809Y-96464523D02*
X172146190Y-96416904D01*
X172146190Y-96416904D02*
X172098571Y-96321666D01*
X172098571Y-96321666D02*
X172098571Y-95940714D01*
X171622380Y-97464523D02*
X171622380Y-96893095D01*
X171622380Y-97178809D02*
X172622380Y-97178809D01*
X172622380Y-97178809D02*
X172479523Y-97083571D01*
X172479523Y-97083571D02*
X172384285Y-96988333D01*
X172384285Y-96988333D02*
X172336666Y-96893095D01*
X172193809Y-98035952D02*
X172241428Y-97940714D01*
X172241428Y-97940714D02*
X172289047Y-97893095D01*
X172289047Y-97893095D02*
X172384285Y-97845476D01*
X172384285Y-97845476D02*
X172431904Y-97845476D01*
X172431904Y-97845476D02*
X172527142Y-97893095D01*
X172527142Y-97893095D02*
X172574761Y-97940714D01*
X172574761Y-97940714D02*
X172622380Y-98035952D01*
X172622380Y-98035952D02*
X172622380Y-98226428D01*
X172622380Y-98226428D02*
X172574761Y-98321666D01*
X172574761Y-98321666D02*
X172527142Y-98369285D01*
X172527142Y-98369285D02*
X172431904Y-98416904D01*
X172431904Y-98416904D02*
X172384285Y-98416904D01*
X172384285Y-98416904D02*
X172289047Y-98369285D01*
X172289047Y-98369285D02*
X172241428Y-98321666D01*
X172241428Y-98321666D02*
X172193809Y-98226428D01*
X172193809Y-98226428D02*
X172193809Y-98035952D01*
X172193809Y-98035952D02*
X172146190Y-97940714D01*
X172146190Y-97940714D02*
X172098571Y-97893095D01*
X172098571Y-97893095D02*
X172003333Y-97845476D01*
X172003333Y-97845476D02*
X171812857Y-97845476D01*
X171812857Y-97845476D02*
X171717619Y-97893095D01*
X171717619Y-97893095D02*
X171670000Y-97940714D01*
X171670000Y-97940714D02*
X171622380Y-98035952D01*
X171622380Y-98035952D02*
X171622380Y-98226428D01*
X171622380Y-98226428D02*
X171670000Y-98321666D01*
X171670000Y-98321666D02*
X171717619Y-98369285D01*
X171717619Y-98369285D02*
X171812857Y-98416904D01*
X171812857Y-98416904D02*
X172003333Y-98416904D01*
X172003333Y-98416904D02*
X172098571Y-98369285D01*
X172098571Y-98369285D02*
X172146190Y-98321666D01*
X172146190Y-98321666D02*
X172193809Y-98226428D01*
%TO.C,R15*%
X164002380Y-96512142D02*
X164478571Y-96178809D01*
X164002380Y-95940714D02*
X165002380Y-95940714D01*
X165002380Y-95940714D02*
X165002380Y-96321666D01*
X165002380Y-96321666D02*
X164954761Y-96416904D01*
X164954761Y-96416904D02*
X164907142Y-96464523D01*
X164907142Y-96464523D02*
X164811904Y-96512142D01*
X164811904Y-96512142D02*
X164669047Y-96512142D01*
X164669047Y-96512142D02*
X164573809Y-96464523D01*
X164573809Y-96464523D02*
X164526190Y-96416904D01*
X164526190Y-96416904D02*
X164478571Y-96321666D01*
X164478571Y-96321666D02*
X164478571Y-95940714D01*
X164002380Y-97464523D02*
X164002380Y-96893095D01*
X164002380Y-97178809D02*
X165002380Y-97178809D01*
X165002380Y-97178809D02*
X164859523Y-97083571D01*
X164859523Y-97083571D02*
X164764285Y-96988333D01*
X164764285Y-96988333D02*
X164716666Y-96893095D01*
X165002380Y-98369285D02*
X165002380Y-97893095D01*
X165002380Y-97893095D02*
X164526190Y-97845476D01*
X164526190Y-97845476D02*
X164573809Y-97893095D01*
X164573809Y-97893095D02*
X164621428Y-97988333D01*
X164621428Y-97988333D02*
X164621428Y-98226428D01*
X164621428Y-98226428D02*
X164573809Y-98321666D01*
X164573809Y-98321666D02*
X164526190Y-98369285D01*
X164526190Y-98369285D02*
X164430952Y-98416904D01*
X164430952Y-98416904D02*
X164192857Y-98416904D01*
X164192857Y-98416904D02*
X164097619Y-98369285D01*
X164097619Y-98369285D02*
X164050000Y-98321666D01*
X164050000Y-98321666D02*
X164002380Y-98226428D01*
X164002380Y-98226428D02*
X164002380Y-97988333D01*
X164002380Y-97988333D02*
X164050000Y-97893095D01*
X164050000Y-97893095D02*
X164097619Y-97845476D01*
%TO.C,R16*%
X166542380Y-96512142D02*
X167018571Y-96178809D01*
X166542380Y-95940714D02*
X167542380Y-95940714D01*
X167542380Y-95940714D02*
X167542380Y-96321666D01*
X167542380Y-96321666D02*
X167494761Y-96416904D01*
X167494761Y-96416904D02*
X167447142Y-96464523D01*
X167447142Y-96464523D02*
X167351904Y-96512142D01*
X167351904Y-96512142D02*
X167209047Y-96512142D01*
X167209047Y-96512142D02*
X167113809Y-96464523D01*
X167113809Y-96464523D02*
X167066190Y-96416904D01*
X167066190Y-96416904D02*
X167018571Y-96321666D01*
X167018571Y-96321666D02*
X167018571Y-95940714D01*
X166542380Y-97464523D02*
X166542380Y-96893095D01*
X166542380Y-97178809D02*
X167542380Y-97178809D01*
X167542380Y-97178809D02*
X167399523Y-97083571D01*
X167399523Y-97083571D02*
X167304285Y-96988333D01*
X167304285Y-96988333D02*
X167256666Y-96893095D01*
X167542380Y-98321666D02*
X167542380Y-98131190D01*
X167542380Y-98131190D02*
X167494761Y-98035952D01*
X167494761Y-98035952D02*
X167447142Y-97988333D01*
X167447142Y-97988333D02*
X167304285Y-97893095D01*
X167304285Y-97893095D02*
X167113809Y-97845476D01*
X167113809Y-97845476D02*
X166732857Y-97845476D01*
X166732857Y-97845476D02*
X166637619Y-97893095D01*
X166637619Y-97893095D02*
X166590000Y-97940714D01*
X166590000Y-97940714D02*
X166542380Y-98035952D01*
X166542380Y-98035952D02*
X166542380Y-98226428D01*
X166542380Y-98226428D02*
X166590000Y-98321666D01*
X166590000Y-98321666D02*
X166637619Y-98369285D01*
X166637619Y-98369285D02*
X166732857Y-98416904D01*
X166732857Y-98416904D02*
X166970952Y-98416904D01*
X166970952Y-98416904D02*
X167066190Y-98369285D01*
X167066190Y-98369285D02*
X167113809Y-98321666D01*
X167113809Y-98321666D02*
X167161428Y-98226428D01*
X167161428Y-98226428D02*
X167161428Y-98035952D01*
X167161428Y-98035952D02*
X167113809Y-97940714D01*
X167113809Y-97940714D02*
X167066190Y-97893095D01*
X167066190Y-97893095D02*
X166970952Y-97845476D01*
%TO.C,R11*%
X153842380Y-96512142D02*
X154318571Y-96178809D01*
X153842380Y-95940714D02*
X154842380Y-95940714D01*
X154842380Y-95940714D02*
X154842380Y-96321666D01*
X154842380Y-96321666D02*
X154794761Y-96416904D01*
X154794761Y-96416904D02*
X154747142Y-96464523D01*
X154747142Y-96464523D02*
X154651904Y-96512142D01*
X154651904Y-96512142D02*
X154509047Y-96512142D01*
X154509047Y-96512142D02*
X154413809Y-96464523D01*
X154413809Y-96464523D02*
X154366190Y-96416904D01*
X154366190Y-96416904D02*
X154318571Y-96321666D01*
X154318571Y-96321666D02*
X154318571Y-95940714D01*
X153842380Y-97464523D02*
X153842380Y-96893095D01*
X153842380Y-97178809D02*
X154842380Y-97178809D01*
X154842380Y-97178809D02*
X154699523Y-97083571D01*
X154699523Y-97083571D02*
X154604285Y-96988333D01*
X154604285Y-96988333D02*
X154556666Y-96893095D01*
X153842380Y-98416904D02*
X153842380Y-97845476D01*
X153842380Y-98131190D02*
X154842380Y-98131190D01*
X154842380Y-98131190D02*
X154699523Y-98035952D01*
X154699523Y-98035952D02*
X154604285Y-97940714D01*
X154604285Y-97940714D02*
X154556666Y-97845476D01*
%TO.C,R17*%
X169082380Y-96512142D02*
X169558571Y-96178809D01*
X169082380Y-95940714D02*
X170082380Y-95940714D01*
X170082380Y-95940714D02*
X170082380Y-96321666D01*
X170082380Y-96321666D02*
X170034761Y-96416904D01*
X170034761Y-96416904D02*
X169987142Y-96464523D01*
X169987142Y-96464523D02*
X169891904Y-96512142D01*
X169891904Y-96512142D02*
X169749047Y-96512142D01*
X169749047Y-96512142D02*
X169653809Y-96464523D01*
X169653809Y-96464523D02*
X169606190Y-96416904D01*
X169606190Y-96416904D02*
X169558571Y-96321666D01*
X169558571Y-96321666D02*
X169558571Y-95940714D01*
X169082380Y-97464523D02*
X169082380Y-96893095D01*
X169082380Y-97178809D02*
X170082380Y-97178809D01*
X170082380Y-97178809D02*
X169939523Y-97083571D01*
X169939523Y-97083571D02*
X169844285Y-96988333D01*
X169844285Y-96988333D02*
X169796666Y-96893095D01*
X170082380Y-97797857D02*
X170082380Y-98464523D01*
X170082380Y-98464523D02*
X169082380Y-98035952D01*
%TO.C,R1*%
X112567380Y-113498333D02*
X113043571Y-113165000D01*
X112567380Y-112926905D02*
X113567380Y-112926905D01*
X113567380Y-112926905D02*
X113567380Y-113307857D01*
X113567380Y-113307857D02*
X113519761Y-113403095D01*
X113519761Y-113403095D02*
X113472142Y-113450714D01*
X113472142Y-113450714D02*
X113376904Y-113498333D01*
X113376904Y-113498333D02*
X113234047Y-113498333D01*
X113234047Y-113498333D02*
X113138809Y-113450714D01*
X113138809Y-113450714D02*
X113091190Y-113403095D01*
X113091190Y-113403095D02*
X113043571Y-113307857D01*
X113043571Y-113307857D02*
X113043571Y-112926905D01*
X112567380Y-114450714D02*
X112567380Y-113879286D01*
X112567380Y-114165000D02*
X113567380Y-114165000D01*
X113567380Y-114165000D02*
X113424523Y-114069762D01*
X113424523Y-114069762D02*
X113329285Y-113974524D01*
X113329285Y-113974524D02*
X113281666Y-113879286D01*
%TO.C,D5*%
X127172380Y-111148905D02*
X128172380Y-111148905D01*
X128172380Y-111148905D02*
X128172380Y-111387000D01*
X128172380Y-111387000D02*
X128124761Y-111529857D01*
X128124761Y-111529857D02*
X128029523Y-111625095D01*
X128029523Y-111625095D02*
X127934285Y-111672714D01*
X127934285Y-111672714D02*
X127743809Y-111720333D01*
X127743809Y-111720333D02*
X127600952Y-111720333D01*
X127600952Y-111720333D02*
X127410476Y-111672714D01*
X127410476Y-111672714D02*
X127315238Y-111625095D01*
X127315238Y-111625095D02*
X127220000Y-111529857D01*
X127220000Y-111529857D02*
X127172380Y-111387000D01*
X127172380Y-111387000D02*
X127172380Y-111148905D01*
X128172380Y-112625095D02*
X128172380Y-112148905D01*
X128172380Y-112148905D02*
X127696190Y-112101286D01*
X127696190Y-112101286D02*
X127743809Y-112148905D01*
X127743809Y-112148905D02*
X127791428Y-112244143D01*
X127791428Y-112244143D02*
X127791428Y-112482238D01*
X127791428Y-112482238D02*
X127743809Y-112577476D01*
X127743809Y-112577476D02*
X127696190Y-112625095D01*
X127696190Y-112625095D02*
X127600952Y-112672714D01*
X127600952Y-112672714D02*
X127362857Y-112672714D01*
X127362857Y-112672714D02*
X127267619Y-112625095D01*
X127267619Y-112625095D02*
X127220000Y-112577476D01*
X127220000Y-112577476D02*
X127172380Y-112482238D01*
X127172380Y-112482238D02*
X127172380Y-112244143D01*
X127172380Y-112244143D02*
X127220000Y-112148905D01*
X127220000Y-112148905D02*
X127267619Y-112101286D01*
%TO.C,R22*%
X179062142Y-92537619D02*
X178728809Y-92061428D01*
X178490714Y-92537619D02*
X178490714Y-91537619D01*
X178490714Y-91537619D02*
X178871666Y-91537619D01*
X178871666Y-91537619D02*
X178966904Y-91585238D01*
X178966904Y-91585238D02*
X179014523Y-91632857D01*
X179014523Y-91632857D02*
X179062142Y-91728095D01*
X179062142Y-91728095D02*
X179062142Y-91870952D01*
X179062142Y-91870952D02*
X179014523Y-91966190D01*
X179014523Y-91966190D02*
X178966904Y-92013809D01*
X178966904Y-92013809D02*
X178871666Y-92061428D01*
X178871666Y-92061428D02*
X178490714Y-92061428D01*
X179443095Y-91632857D02*
X179490714Y-91585238D01*
X179490714Y-91585238D02*
X179585952Y-91537619D01*
X179585952Y-91537619D02*
X179824047Y-91537619D01*
X179824047Y-91537619D02*
X179919285Y-91585238D01*
X179919285Y-91585238D02*
X179966904Y-91632857D01*
X179966904Y-91632857D02*
X180014523Y-91728095D01*
X180014523Y-91728095D02*
X180014523Y-91823333D01*
X180014523Y-91823333D02*
X179966904Y-91966190D01*
X179966904Y-91966190D02*
X179395476Y-92537619D01*
X179395476Y-92537619D02*
X180014523Y-92537619D01*
X180395476Y-91632857D02*
X180443095Y-91585238D01*
X180443095Y-91585238D02*
X180538333Y-91537619D01*
X180538333Y-91537619D02*
X180776428Y-91537619D01*
X180776428Y-91537619D02*
X180871666Y-91585238D01*
X180871666Y-91585238D02*
X180919285Y-91632857D01*
X180919285Y-91632857D02*
X180966904Y-91728095D01*
X180966904Y-91728095D02*
X180966904Y-91823333D01*
X180966904Y-91823333D02*
X180919285Y-91966190D01*
X180919285Y-91966190D02*
X180347857Y-92537619D01*
X180347857Y-92537619D02*
X180966904Y-92537619D01*
%TO.C,LS1*%
X174162380Y-94607142D02*
X174162380Y-94130952D01*
X174162380Y-94130952D02*
X175162380Y-94130952D01*
X174210000Y-94892857D02*
X174162380Y-95035714D01*
X174162380Y-95035714D02*
X174162380Y-95273809D01*
X174162380Y-95273809D02*
X174210000Y-95369047D01*
X174210000Y-95369047D02*
X174257619Y-95416666D01*
X174257619Y-95416666D02*
X174352857Y-95464285D01*
X174352857Y-95464285D02*
X174448095Y-95464285D01*
X174448095Y-95464285D02*
X174543333Y-95416666D01*
X174543333Y-95416666D02*
X174590952Y-95369047D01*
X174590952Y-95369047D02*
X174638571Y-95273809D01*
X174638571Y-95273809D02*
X174686190Y-95083333D01*
X174686190Y-95083333D02*
X174733809Y-94988095D01*
X174733809Y-94988095D02*
X174781428Y-94940476D01*
X174781428Y-94940476D02*
X174876666Y-94892857D01*
X174876666Y-94892857D02*
X174971904Y-94892857D01*
X174971904Y-94892857D02*
X175067142Y-94940476D01*
X175067142Y-94940476D02*
X175114761Y-94988095D01*
X175114761Y-94988095D02*
X175162380Y-95083333D01*
X175162380Y-95083333D02*
X175162380Y-95321428D01*
X175162380Y-95321428D02*
X175114761Y-95464285D01*
X174162380Y-96416666D02*
X174162380Y-95845238D01*
X174162380Y-96130952D02*
X175162380Y-96130952D01*
X175162380Y-96130952D02*
X175019523Y-96035714D01*
X175019523Y-96035714D02*
X174924285Y-95940476D01*
X174924285Y-95940476D02*
X174876666Y-95845238D01*
%TO.C,U2*%
X178972380Y-108204095D02*
X178162857Y-108204095D01*
X178162857Y-108204095D02*
X178067619Y-108251714D01*
X178067619Y-108251714D02*
X178020000Y-108299333D01*
X178020000Y-108299333D02*
X177972380Y-108394571D01*
X177972380Y-108394571D02*
X177972380Y-108585047D01*
X177972380Y-108585047D02*
X178020000Y-108680285D01*
X178020000Y-108680285D02*
X178067619Y-108727904D01*
X178067619Y-108727904D02*
X178162857Y-108775523D01*
X178162857Y-108775523D02*
X178972380Y-108775523D01*
X178877142Y-109204095D02*
X178924761Y-109251714D01*
X178924761Y-109251714D02*
X178972380Y-109346952D01*
X178972380Y-109346952D02*
X178972380Y-109585047D01*
X178972380Y-109585047D02*
X178924761Y-109680285D01*
X178924761Y-109680285D02*
X178877142Y-109727904D01*
X178877142Y-109727904D02*
X178781904Y-109775523D01*
X178781904Y-109775523D02*
X178686666Y-109775523D01*
X178686666Y-109775523D02*
X178543809Y-109727904D01*
X178543809Y-109727904D02*
X177972380Y-109156476D01*
X177972380Y-109156476D02*
X177972380Y-109775523D01*
%TO.C,R21*%
X182872142Y-111587619D02*
X182538809Y-111111428D01*
X182300714Y-111587619D02*
X182300714Y-110587619D01*
X182300714Y-110587619D02*
X182681666Y-110587619D01*
X182681666Y-110587619D02*
X182776904Y-110635238D01*
X182776904Y-110635238D02*
X182824523Y-110682857D01*
X182824523Y-110682857D02*
X182872142Y-110778095D01*
X182872142Y-110778095D02*
X182872142Y-110920952D01*
X182872142Y-110920952D02*
X182824523Y-111016190D01*
X182824523Y-111016190D02*
X182776904Y-111063809D01*
X182776904Y-111063809D02*
X182681666Y-111111428D01*
X182681666Y-111111428D02*
X182300714Y-111111428D01*
X183253095Y-110682857D02*
X183300714Y-110635238D01*
X183300714Y-110635238D02*
X183395952Y-110587619D01*
X183395952Y-110587619D02*
X183634047Y-110587619D01*
X183634047Y-110587619D02*
X183729285Y-110635238D01*
X183729285Y-110635238D02*
X183776904Y-110682857D01*
X183776904Y-110682857D02*
X183824523Y-110778095D01*
X183824523Y-110778095D02*
X183824523Y-110873333D01*
X183824523Y-110873333D02*
X183776904Y-111016190D01*
X183776904Y-111016190D02*
X183205476Y-111587619D01*
X183205476Y-111587619D02*
X183824523Y-111587619D01*
X184776904Y-111587619D02*
X184205476Y-111587619D01*
X184491190Y-111587619D02*
X184491190Y-110587619D01*
X184491190Y-110587619D02*
X184395952Y-110730476D01*
X184395952Y-110730476D02*
X184300714Y-110825714D01*
X184300714Y-110825714D02*
X184205476Y-110873333D01*
%TO.C,R7*%
X153842380Y-112228333D02*
X154318571Y-111895000D01*
X153842380Y-111656905D02*
X154842380Y-111656905D01*
X154842380Y-111656905D02*
X154842380Y-112037857D01*
X154842380Y-112037857D02*
X154794761Y-112133095D01*
X154794761Y-112133095D02*
X154747142Y-112180714D01*
X154747142Y-112180714D02*
X154651904Y-112228333D01*
X154651904Y-112228333D02*
X154509047Y-112228333D01*
X154509047Y-112228333D02*
X154413809Y-112180714D01*
X154413809Y-112180714D02*
X154366190Y-112133095D01*
X154366190Y-112133095D02*
X154318571Y-112037857D01*
X154318571Y-112037857D02*
X154318571Y-111656905D01*
X154842380Y-112561667D02*
X154842380Y-113228333D01*
X154842380Y-113228333D02*
X153842380Y-112799762D01*
%TO.C,H9*%
X163637380Y-117348095D02*
X164637380Y-117348095D01*
X164161190Y-117348095D02*
X164161190Y-117919523D01*
X163637380Y-117919523D02*
X164637380Y-117919523D01*
X163637380Y-118443333D02*
X163637380Y-118633809D01*
X163637380Y-118633809D02*
X163685000Y-118729047D01*
X163685000Y-118729047D02*
X163732619Y-118776666D01*
X163732619Y-118776666D02*
X163875476Y-118871904D01*
X163875476Y-118871904D02*
X164065952Y-118919523D01*
X164065952Y-118919523D02*
X164446904Y-118919523D01*
X164446904Y-118919523D02*
X164542142Y-118871904D01*
X164542142Y-118871904D02*
X164589761Y-118824285D01*
X164589761Y-118824285D02*
X164637380Y-118729047D01*
X164637380Y-118729047D02*
X164637380Y-118538571D01*
X164637380Y-118538571D02*
X164589761Y-118443333D01*
X164589761Y-118443333D02*
X164542142Y-118395714D01*
X164542142Y-118395714D02*
X164446904Y-118348095D01*
X164446904Y-118348095D02*
X164208809Y-118348095D01*
X164208809Y-118348095D02*
X164113571Y-118395714D01*
X164113571Y-118395714D02*
X164065952Y-118443333D01*
X164065952Y-118443333D02*
X164018333Y-118538571D01*
X164018333Y-118538571D02*
X164018333Y-118729047D01*
X164018333Y-118729047D02*
X164065952Y-118824285D01*
X164065952Y-118824285D02*
X164113571Y-118871904D01*
X164113571Y-118871904D02*
X164208809Y-118919523D01*
%TO.C,D6*%
X189021380Y-104417905D02*
X190021380Y-104417905D01*
X190021380Y-104417905D02*
X190021380Y-104656000D01*
X190021380Y-104656000D02*
X189973761Y-104798857D01*
X189973761Y-104798857D02*
X189878523Y-104894095D01*
X189878523Y-104894095D02*
X189783285Y-104941714D01*
X189783285Y-104941714D02*
X189592809Y-104989333D01*
X189592809Y-104989333D02*
X189449952Y-104989333D01*
X189449952Y-104989333D02*
X189259476Y-104941714D01*
X189259476Y-104941714D02*
X189164238Y-104894095D01*
X189164238Y-104894095D02*
X189069000Y-104798857D01*
X189069000Y-104798857D02*
X189021380Y-104656000D01*
X189021380Y-104656000D02*
X189021380Y-104417905D01*
X190021380Y-105846476D02*
X190021380Y-105656000D01*
X190021380Y-105656000D02*
X189973761Y-105560762D01*
X189973761Y-105560762D02*
X189926142Y-105513143D01*
X189926142Y-105513143D02*
X189783285Y-105417905D01*
X189783285Y-105417905D02*
X189592809Y-105370286D01*
X189592809Y-105370286D02*
X189211857Y-105370286D01*
X189211857Y-105370286D02*
X189116619Y-105417905D01*
X189116619Y-105417905D02*
X189069000Y-105465524D01*
X189069000Y-105465524D02*
X189021380Y-105560762D01*
X189021380Y-105560762D02*
X189021380Y-105751238D01*
X189021380Y-105751238D02*
X189069000Y-105846476D01*
X189069000Y-105846476D02*
X189116619Y-105894095D01*
X189116619Y-105894095D02*
X189211857Y-105941714D01*
X189211857Y-105941714D02*
X189449952Y-105941714D01*
X189449952Y-105941714D02*
X189545190Y-105894095D01*
X189545190Y-105894095D02*
X189592809Y-105846476D01*
X189592809Y-105846476D02*
X189640428Y-105751238D01*
X189640428Y-105751238D02*
X189640428Y-105560762D01*
X189640428Y-105560762D02*
X189592809Y-105465524D01*
X189592809Y-105465524D02*
X189545190Y-105417905D01*
X189545190Y-105417905D02*
X189449952Y-105370286D01*
%TO.C,H1*%
X151810380Y-90170095D02*
X152810380Y-90170095D01*
X152334190Y-90170095D02*
X152334190Y-90741523D01*
X151810380Y-90741523D02*
X152810380Y-90741523D01*
X151810380Y-91741523D02*
X151810380Y-91170095D01*
X151810380Y-91455809D02*
X152810380Y-91455809D01*
X152810380Y-91455809D02*
X152667523Y-91360571D01*
X152667523Y-91360571D02*
X152572285Y-91265333D01*
X152572285Y-91265333D02*
X152524666Y-91170095D01*
%TO.C,C5*%
X173495619Y-104227333D02*
X173448000Y-104179714D01*
X173448000Y-104179714D02*
X173400380Y-104036857D01*
X173400380Y-104036857D02*
X173400380Y-103941619D01*
X173400380Y-103941619D02*
X173448000Y-103798762D01*
X173448000Y-103798762D02*
X173543238Y-103703524D01*
X173543238Y-103703524D02*
X173638476Y-103655905D01*
X173638476Y-103655905D02*
X173828952Y-103608286D01*
X173828952Y-103608286D02*
X173971809Y-103608286D01*
X173971809Y-103608286D02*
X174162285Y-103655905D01*
X174162285Y-103655905D02*
X174257523Y-103703524D01*
X174257523Y-103703524D02*
X174352761Y-103798762D01*
X174352761Y-103798762D02*
X174400380Y-103941619D01*
X174400380Y-103941619D02*
X174400380Y-104036857D01*
X174400380Y-104036857D02*
X174352761Y-104179714D01*
X174352761Y-104179714D02*
X174305142Y-104227333D01*
X174400380Y-105132095D02*
X174400380Y-104655905D01*
X174400380Y-104655905D02*
X173924190Y-104608286D01*
X173924190Y-104608286D02*
X173971809Y-104655905D01*
X173971809Y-104655905D02*
X174019428Y-104751143D01*
X174019428Y-104751143D02*
X174019428Y-104989238D01*
X174019428Y-104989238D02*
X173971809Y-105084476D01*
X173971809Y-105084476D02*
X173924190Y-105132095D01*
X173924190Y-105132095D02*
X173828952Y-105179714D01*
X173828952Y-105179714D02*
X173590857Y-105179714D01*
X173590857Y-105179714D02*
X173495619Y-105132095D01*
X173495619Y-105132095D02*
X173448000Y-105084476D01*
X173448000Y-105084476D02*
X173400380Y-104989238D01*
X173400380Y-104989238D02*
X173400380Y-104751143D01*
X173400380Y-104751143D02*
X173448000Y-104655905D01*
X173448000Y-104655905D02*
X173495619Y-104608286D01*
%TO.C,R3*%
X134792380Y-89368333D02*
X135268571Y-89035000D01*
X134792380Y-88796905D02*
X135792380Y-88796905D01*
X135792380Y-88796905D02*
X135792380Y-89177857D01*
X135792380Y-89177857D02*
X135744761Y-89273095D01*
X135744761Y-89273095D02*
X135697142Y-89320714D01*
X135697142Y-89320714D02*
X135601904Y-89368333D01*
X135601904Y-89368333D02*
X135459047Y-89368333D01*
X135459047Y-89368333D02*
X135363809Y-89320714D01*
X135363809Y-89320714D02*
X135316190Y-89273095D01*
X135316190Y-89273095D02*
X135268571Y-89177857D01*
X135268571Y-89177857D02*
X135268571Y-88796905D01*
X135792380Y-89701667D02*
X135792380Y-90320714D01*
X135792380Y-90320714D02*
X135411428Y-89987381D01*
X135411428Y-89987381D02*
X135411428Y-90130238D01*
X135411428Y-90130238D02*
X135363809Y-90225476D01*
X135363809Y-90225476D02*
X135316190Y-90273095D01*
X135316190Y-90273095D02*
X135220952Y-90320714D01*
X135220952Y-90320714D02*
X134982857Y-90320714D01*
X134982857Y-90320714D02*
X134887619Y-90273095D01*
X134887619Y-90273095D02*
X134840000Y-90225476D01*
X134840000Y-90225476D02*
X134792380Y-90130238D01*
X134792380Y-90130238D02*
X134792380Y-89844524D01*
X134792380Y-89844524D02*
X134840000Y-89749286D01*
X134840000Y-89749286D02*
X134887619Y-89701667D01*
%TO.C,D2*%
X127172380Y-90574905D02*
X128172380Y-90574905D01*
X128172380Y-90574905D02*
X128172380Y-90813000D01*
X128172380Y-90813000D02*
X128124761Y-90955857D01*
X128124761Y-90955857D02*
X128029523Y-91051095D01*
X128029523Y-91051095D02*
X127934285Y-91098714D01*
X127934285Y-91098714D02*
X127743809Y-91146333D01*
X127743809Y-91146333D02*
X127600952Y-91146333D01*
X127600952Y-91146333D02*
X127410476Y-91098714D01*
X127410476Y-91098714D02*
X127315238Y-91051095D01*
X127315238Y-91051095D02*
X127220000Y-90955857D01*
X127220000Y-90955857D02*
X127172380Y-90813000D01*
X127172380Y-90813000D02*
X127172380Y-90574905D01*
X128077142Y-91527286D02*
X128124761Y-91574905D01*
X128124761Y-91574905D02*
X128172380Y-91670143D01*
X128172380Y-91670143D02*
X128172380Y-91908238D01*
X128172380Y-91908238D02*
X128124761Y-92003476D01*
X128124761Y-92003476D02*
X128077142Y-92051095D01*
X128077142Y-92051095D02*
X127981904Y-92098714D01*
X127981904Y-92098714D02*
X127886666Y-92098714D01*
X127886666Y-92098714D02*
X127743809Y-92051095D01*
X127743809Y-92051095D02*
X127172380Y-91479667D01*
X127172380Y-91479667D02*
X127172380Y-92098714D01*
%TO.C,SW2*%
X127220000Y-85280667D02*
X127172380Y-85423524D01*
X127172380Y-85423524D02*
X127172380Y-85661619D01*
X127172380Y-85661619D02*
X127220000Y-85756857D01*
X127220000Y-85756857D02*
X127267619Y-85804476D01*
X127267619Y-85804476D02*
X127362857Y-85852095D01*
X127362857Y-85852095D02*
X127458095Y-85852095D01*
X127458095Y-85852095D02*
X127553333Y-85804476D01*
X127553333Y-85804476D02*
X127600952Y-85756857D01*
X127600952Y-85756857D02*
X127648571Y-85661619D01*
X127648571Y-85661619D02*
X127696190Y-85471143D01*
X127696190Y-85471143D02*
X127743809Y-85375905D01*
X127743809Y-85375905D02*
X127791428Y-85328286D01*
X127791428Y-85328286D02*
X127886666Y-85280667D01*
X127886666Y-85280667D02*
X127981904Y-85280667D01*
X127981904Y-85280667D02*
X128077142Y-85328286D01*
X128077142Y-85328286D02*
X128124761Y-85375905D01*
X128124761Y-85375905D02*
X128172380Y-85471143D01*
X128172380Y-85471143D02*
X128172380Y-85709238D01*
X128172380Y-85709238D02*
X128124761Y-85852095D01*
X128172380Y-86185429D02*
X127172380Y-86423524D01*
X127172380Y-86423524D02*
X127886666Y-86614000D01*
X127886666Y-86614000D02*
X127172380Y-86804476D01*
X127172380Y-86804476D02*
X128172380Y-87042572D01*
X128077142Y-87375905D02*
X128124761Y-87423524D01*
X128124761Y-87423524D02*
X128172380Y-87518762D01*
X128172380Y-87518762D02*
X128172380Y-87756857D01*
X128172380Y-87756857D02*
X128124761Y-87852095D01*
X128124761Y-87852095D02*
X128077142Y-87899714D01*
X128077142Y-87899714D02*
X127981904Y-87947333D01*
X127981904Y-87947333D02*
X127886666Y-87947333D01*
X127886666Y-87947333D02*
X127743809Y-87899714D01*
X127743809Y-87899714D02*
X127172380Y-87328286D01*
X127172380Y-87328286D02*
X127172380Y-87947333D01*
%TO.C,SW1*%
X116044000Y-100266667D02*
X115996380Y-100409524D01*
X115996380Y-100409524D02*
X115996380Y-100647619D01*
X115996380Y-100647619D02*
X116044000Y-100742857D01*
X116044000Y-100742857D02*
X116091619Y-100790476D01*
X116091619Y-100790476D02*
X116186857Y-100838095D01*
X116186857Y-100838095D02*
X116282095Y-100838095D01*
X116282095Y-100838095D02*
X116377333Y-100790476D01*
X116377333Y-100790476D02*
X116424952Y-100742857D01*
X116424952Y-100742857D02*
X116472571Y-100647619D01*
X116472571Y-100647619D02*
X116520190Y-100457143D01*
X116520190Y-100457143D02*
X116567809Y-100361905D01*
X116567809Y-100361905D02*
X116615428Y-100314286D01*
X116615428Y-100314286D02*
X116710666Y-100266667D01*
X116710666Y-100266667D02*
X116805904Y-100266667D01*
X116805904Y-100266667D02*
X116901142Y-100314286D01*
X116901142Y-100314286D02*
X116948761Y-100361905D01*
X116948761Y-100361905D02*
X116996380Y-100457143D01*
X116996380Y-100457143D02*
X116996380Y-100695238D01*
X116996380Y-100695238D02*
X116948761Y-100838095D01*
X116996380Y-101171429D02*
X115996380Y-101409524D01*
X115996380Y-101409524D02*
X116710666Y-101600000D01*
X116710666Y-101600000D02*
X115996380Y-101790476D01*
X115996380Y-101790476D02*
X116996380Y-102028572D01*
X115996380Y-102933333D02*
X115996380Y-102361905D01*
X115996380Y-102647619D02*
X116996380Y-102647619D01*
X116996380Y-102647619D02*
X116853523Y-102552381D01*
X116853523Y-102552381D02*
X116758285Y-102457143D01*
X116758285Y-102457143D02*
X116710666Y-102361905D01*
%TO.C,BT1*%
X116393190Y-86082285D02*
X116345571Y-86225142D01*
X116345571Y-86225142D02*
X116297952Y-86272761D01*
X116297952Y-86272761D02*
X116202714Y-86320380D01*
X116202714Y-86320380D02*
X116059857Y-86320380D01*
X116059857Y-86320380D02*
X115964619Y-86272761D01*
X115964619Y-86272761D02*
X115917000Y-86225142D01*
X115917000Y-86225142D02*
X115869380Y-86129904D01*
X115869380Y-86129904D02*
X115869380Y-85748952D01*
X115869380Y-85748952D02*
X116869380Y-85748952D01*
X116869380Y-85748952D02*
X116869380Y-86082285D01*
X116869380Y-86082285D02*
X116821761Y-86177523D01*
X116821761Y-86177523D02*
X116774142Y-86225142D01*
X116774142Y-86225142D02*
X116678904Y-86272761D01*
X116678904Y-86272761D02*
X116583666Y-86272761D01*
X116583666Y-86272761D02*
X116488428Y-86225142D01*
X116488428Y-86225142D02*
X116440809Y-86177523D01*
X116440809Y-86177523D02*
X116393190Y-86082285D01*
X116393190Y-86082285D02*
X116393190Y-85748952D01*
X116869380Y-86606095D02*
X116869380Y-87177523D01*
X115869380Y-86891809D02*
X116869380Y-86891809D01*
X115869380Y-88034666D02*
X115869380Y-87463238D01*
X115869380Y-87748952D02*
X116869380Y-87748952D01*
X116869380Y-87748952D02*
X116726523Y-87653714D01*
X116726523Y-87653714D02*
X116631285Y-87558476D01*
X116631285Y-87558476D02*
X116583666Y-87463238D01*
%TO.C,R23*%
X129472380Y-88892142D02*
X129948571Y-88558809D01*
X129472380Y-88320714D02*
X130472380Y-88320714D01*
X130472380Y-88320714D02*
X130472380Y-88701666D01*
X130472380Y-88701666D02*
X130424761Y-88796904D01*
X130424761Y-88796904D02*
X130377142Y-88844523D01*
X130377142Y-88844523D02*
X130281904Y-88892142D01*
X130281904Y-88892142D02*
X130139047Y-88892142D01*
X130139047Y-88892142D02*
X130043809Y-88844523D01*
X130043809Y-88844523D02*
X129996190Y-88796904D01*
X129996190Y-88796904D02*
X129948571Y-88701666D01*
X129948571Y-88701666D02*
X129948571Y-88320714D01*
X130377142Y-89273095D02*
X130424761Y-89320714D01*
X130424761Y-89320714D02*
X130472380Y-89415952D01*
X130472380Y-89415952D02*
X130472380Y-89654047D01*
X130472380Y-89654047D02*
X130424761Y-89749285D01*
X130424761Y-89749285D02*
X130377142Y-89796904D01*
X130377142Y-89796904D02*
X130281904Y-89844523D01*
X130281904Y-89844523D02*
X130186666Y-89844523D01*
X130186666Y-89844523D02*
X130043809Y-89796904D01*
X130043809Y-89796904D02*
X129472380Y-89225476D01*
X129472380Y-89225476D02*
X129472380Y-89844523D01*
X130472380Y-90177857D02*
X130472380Y-90796904D01*
X130472380Y-90796904D02*
X130091428Y-90463571D01*
X130091428Y-90463571D02*
X130091428Y-90606428D01*
X130091428Y-90606428D02*
X130043809Y-90701666D01*
X130043809Y-90701666D02*
X129996190Y-90749285D01*
X129996190Y-90749285D02*
X129900952Y-90796904D01*
X129900952Y-90796904D02*
X129662857Y-90796904D01*
X129662857Y-90796904D02*
X129567619Y-90749285D01*
X129567619Y-90749285D02*
X129520000Y-90701666D01*
X129520000Y-90701666D02*
X129472380Y-90606428D01*
X129472380Y-90606428D02*
X129472380Y-90320714D01*
X129472380Y-90320714D02*
X129520000Y-90225476D01*
X129520000Y-90225476D02*
X129567619Y-90177857D01*
%TO.C,R24*%
X132252380Y-88892142D02*
X132728571Y-88558809D01*
X132252380Y-88320714D02*
X133252380Y-88320714D01*
X133252380Y-88320714D02*
X133252380Y-88701666D01*
X133252380Y-88701666D02*
X133204761Y-88796904D01*
X133204761Y-88796904D02*
X133157142Y-88844523D01*
X133157142Y-88844523D02*
X133061904Y-88892142D01*
X133061904Y-88892142D02*
X132919047Y-88892142D01*
X132919047Y-88892142D02*
X132823809Y-88844523D01*
X132823809Y-88844523D02*
X132776190Y-88796904D01*
X132776190Y-88796904D02*
X132728571Y-88701666D01*
X132728571Y-88701666D02*
X132728571Y-88320714D01*
X133157142Y-89273095D02*
X133204761Y-89320714D01*
X133204761Y-89320714D02*
X133252380Y-89415952D01*
X133252380Y-89415952D02*
X133252380Y-89654047D01*
X133252380Y-89654047D02*
X133204761Y-89749285D01*
X133204761Y-89749285D02*
X133157142Y-89796904D01*
X133157142Y-89796904D02*
X133061904Y-89844523D01*
X133061904Y-89844523D02*
X132966666Y-89844523D01*
X132966666Y-89844523D02*
X132823809Y-89796904D01*
X132823809Y-89796904D02*
X132252380Y-89225476D01*
X132252380Y-89225476D02*
X132252380Y-89844523D01*
X132919047Y-90701666D02*
X132252380Y-90701666D01*
X133300000Y-90463571D02*
X132585714Y-90225476D01*
X132585714Y-90225476D02*
X132585714Y-90844523D01*
D10*
%TO.C,Q1*%
X189196000Y-93690000D02*
X189040000Y-93690000D01*
X186880000Y-93690000D02*
X186724000Y-93690000D01*
X189038608Y-96922334D02*
G75*
G03*
X189195515Y-93690001I-1078608J1672334D01*
G01*
X189039836Y-96291129D02*
G75*
G03*
X189039999Y-94209040I-1079836J1041129D01*
G01*
X186880001Y-94209040D02*
G75*
G03*
X186880164Y-96291129I1079999J-1040960D01*
G01*
X186724485Y-93690001D02*
G75*
G03*
X186881392Y-96922334I1235515J-1559999D01*
G01*
%TO.C,C1*%
X115219775Y-90375000D02*
X114719775Y-90375000D01*
X114969775Y-90625000D02*
X114969775Y-90125000D01*
X112415000Y-91480000D02*
X112415000Y-86320000D01*
X112375000Y-91480000D02*
X112375000Y-86320000D01*
X112335000Y-91479000D02*
X112335000Y-86321000D01*
X112295000Y-91478000D02*
X112295000Y-86322000D01*
X112255000Y-91476000D02*
X112255000Y-86324000D01*
X112215000Y-91473000D02*
X112215000Y-86327000D01*
X112175000Y-91469000D02*
X112175000Y-89940000D01*
X112175000Y-87860000D02*
X112175000Y-86331000D01*
X112135000Y-91465000D02*
X112135000Y-89940000D01*
X112135000Y-87860000D02*
X112135000Y-86335000D01*
X112095000Y-91461000D02*
X112095000Y-89940000D01*
X112095000Y-87860000D02*
X112095000Y-86339000D01*
X112055000Y-91456000D02*
X112055000Y-89940000D01*
X112055000Y-87860000D02*
X112055000Y-86344000D01*
X112015000Y-91450000D02*
X112015000Y-89940000D01*
X112015000Y-87860000D02*
X112015000Y-86350000D01*
X111975000Y-91443000D02*
X111975000Y-89940000D01*
X111975000Y-87860000D02*
X111975000Y-86357000D01*
X111935000Y-91436000D02*
X111935000Y-89940000D01*
X111935000Y-87860000D02*
X111935000Y-86364000D01*
X111895000Y-91428000D02*
X111895000Y-89940000D01*
X111895000Y-87860000D02*
X111895000Y-86372000D01*
X111855000Y-91420000D02*
X111855000Y-89940000D01*
X111855000Y-87860000D02*
X111855000Y-86380000D01*
X111815000Y-91411000D02*
X111815000Y-89940000D01*
X111815000Y-87860000D02*
X111815000Y-86389000D01*
X111775000Y-91401000D02*
X111775000Y-89940000D01*
X111775000Y-87860000D02*
X111775000Y-86399000D01*
X111735000Y-91391000D02*
X111735000Y-89940000D01*
X111735000Y-87860000D02*
X111735000Y-86409000D01*
X111694000Y-91380000D02*
X111694000Y-89940000D01*
X111694000Y-87860000D02*
X111694000Y-86420000D01*
X111654000Y-91368000D02*
X111654000Y-89940000D01*
X111654000Y-87860000D02*
X111654000Y-86432000D01*
X111614000Y-91355000D02*
X111614000Y-89940000D01*
X111614000Y-87860000D02*
X111614000Y-86445000D01*
X111574000Y-91342000D02*
X111574000Y-89940000D01*
X111574000Y-87860000D02*
X111574000Y-86458000D01*
X111534000Y-91328000D02*
X111534000Y-89940000D01*
X111534000Y-87860000D02*
X111534000Y-86472000D01*
X111494000Y-91314000D02*
X111494000Y-89940000D01*
X111494000Y-87860000D02*
X111494000Y-86486000D01*
X111454000Y-91298000D02*
X111454000Y-89940000D01*
X111454000Y-87860000D02*
X111454000Y-86502000D01*
X111414000Y-91282000D02*
X111414000Y-89940000D01*
X111414000Y-87860000D02*
X111414000Y-86518000D01*
X111374000Y-91265000D02*
X111374000Y-89940000D01*
X111374000Y-87860000D02*
X111374000Y-86535000D01*
X111334000Y-91248000D02*
X111334000Y-89940000D01*
X111334000Y-87860000D02*
X111334000Y-86552000D01*
X111294000Y-91229000D02*
X111294000Y-89940000D01*
X111294000Y-87860000D02*
X111294000Y-86571000D01*
X111254000Y-91210000D02*
X111254000Y-89940000D01*
X111254000Y-87860000D02*
X111254000Y-86590000D01*
X111214000Y-91190000D02*
X111214000Y-89940000D01*
X111214000Y-87860000D02*
X111214000Y-86610000D01*
X111174000Y-91168000D02*
X111174000Y-89940000D01*
X111174000Y-87860000D02*
X111174000Y-86632000D01*
X111134000Y-91147000D02*
X111134000Y-89940000D01*
X111134000Y-87860000D02*
X111134000Y-86653000D01*
X111094000Y-91124000D02*
X111094000Y-89940000D01*
X111094000Y-87860000D02*
X111094000Y-86676000D01*
X111054000Y-91100000D02*
X111054000Y-89940000D01*
X111054000Y-87860000D02*
X111054000Y-86700000D01*
X111014000Y-91075000D02*
X111014000Y-89940000D01*
X111014000Y-87860000D02*
X111014000Y-86725000D01*
X110974000Y-91049000D02*
X110974000Y-89940000D01*
X110974000Y-87860000D02*
X110974000Y-86751000D01*
X110934000Y-91022000D02*
X110934000Y-89940000D01*
X110934000Y-87860000D02*
X110934000Y-86778000D01*
X110894000Y-90995000D02*
X110894000Y-89940000D01*
X110894000Y-87860000D02*
X110894000Y-86805000D01*
X110854000Y-90965000D02*
X110854000Y-89940000D01*
X110854000Y-87860000D02*
X110854000Y-86835000D01*
X110814000Y-90935000D02*
X110814000Y-89940000D01*
X110814000Y-87860000D02*
X110814000Y-86865000D01*
X110774000Y-90904000D02*
X110774000Y-89940000D01*
X110774000Y-87860000D02*
X110774000Y-86896000D01*
X110734000Y-90871000D02*
X110734000Y-89940000D01*
X110734000Y-87860000D02*
X110734000Y-86929000D01*
X110694000Y-90837000D02*
X110694000Y-89940000D01*
X110694000Y-87860000D02*
X110694000Y-86963000D01*
X110654000Y-90801000D02*
X110654000Y-89940000D01*
X110654000Y-87860000D02*
X110654000Y-86999000D01*
X110614000Y-90764000D02*
X110614000Y-89940000D01*
X110614000Y-87860000D02*
X110614000Y-87036000D01*
X110574000Y-90726000D02*
X110574000Y-89940000D01*
X110574000Y-87860000D02*
X110574000Y-87074000D01*
X110534000Y-90685000D02*
X110534000Y-89940000D01*
X110534000Y-87860000D02*
X110534000Y-87115000D01*
X110494000Y-90643000D02*
X110494000Y-89940000D01*
X110494000Y-87860000D02*
X110494000Y-87157000D01*
X110454000Y-90599000D02*
X110454000Y-89940000D01*
X110454000Y-87860000D02*
X110454000Y-87201000D01*
X110414000Y-90553000D02*
X110414000Y-89940000D01*
X110414000Y-87860000D02*
X110414000Y-87247000D01*
X110374000Y-90505000D02*
X110374000Y-89940000D01*
X110374000Y-87860000D02*
X110374000Y-87295000D01*
X110334000Y-90454000D02*
X110334000Y-89940000D01*
X110334000Y-87860000D02*
X110334000Y-87346000D01*
X110294000Y-90400000D02*
X110294000Y-89940000D01*
X110294000Y-87860000D02*
X110294000Y-87400000D01*
X110254000Y-90343000D02*
X110254000Y-89940000D01*
X110254000Y-87860000D02*
X110254000Y-87457000D01*
X110214000Y-90283000D02*
X110214000Y-89940000D01*
X110214000Y-87860000D02*
X110214000Y-87517000D01*
X110174000Y-90219000D02*
X110174000Y-89940000D01*
X110174000Y-87860000D02*
X110174000Y-87581000D01*
X110134000Y-90151000D02*
X110134000Y-89940000D01*
X110134000Y-87860000D02*
X110134000Y-87649000D01*
X110094000Y-90078000D02*
X110094000Y-87722000D01*
X110054000Y-89998000D02*
X110054000Y-87802000D01*
X110014000Y-89911000D02*
X110014000Y-87889000D01*
X109974000Y-89815000D02*
X109974000Y-87985000D01*
X109934000Y-89705000D02*
X109934000Y-88095000D01*
X109894000Y-89577000D02*
X109894000Y-88223000D01*
X109854000Y-89418000D02*
X109854000Y-88382000D01*
X109814000Y-89184000D02*
X109814000Y-88616000D01*
X115035000Y-88900000D02*
G75*
G03*
X115035000Y-88900000I-2620000J0D01*
G01*
%TO.C,C4*%
X103605000Y-111675000D02*
X103850000Y-111675000D01*
X103605000Y-111675000D02*
X103605000Y-108035000D01*
X105700000Y-111675000D02*
X105945000Y-111675000D01*
X105945000Y-111675000D02*
X105945000Y-108035000D01*
X103605000Y-108035000D02*
X103850000Y-108035000D01*
X105700000Y-108035000D02*
X105945000Y-108035000D01*
%TO.C,D1*%
X107655000Y-108619000D02*
X107655000Y-108775000D01*
X107655000Y-110935000D02*
X107655000Y-111091000D01*
X110887334Y-108776392D02*
G75*
G03*
X107655001Y-108619485I-1672334J-1078608D01*
G01*
X110256129Y-108775164D02*
G75*
G03*
X108174040Y-108775001I-1041129J-1079836D01*
G01*
X108174040Y-110934999D02*
G75*
G03*
X110256129Y-110934836I1040960J1079999D01*
G01*
X107655001Y-111090515D02*
G75*
G03*
X110887334Y-110933608I1559999J1235515D01*
G01*
%TO.C,D4*%
X141950000Y-108619000D02*
X141950000Y-108775000D01*
X141950000Y-110935000D02*
X141950000Y-111091000D01*
X145182334Y-108776392D02*
G75*
G03*
X141950001Y-108619485I-1672334J-1078608D01*
G01*
X144551129Y-108775164D02*
G75*
G03*
X142469040Y-108775001I-1041129J-1079836D01*
G01*
X142469040Y-110934999D02*
G75*
G03*
X144551129Y-110934836I1040960J1079999D01*
G01*
X141950001Y-111090515D02*
G75*
G03*
X145182334Y-110933608I1559999J1235515D01*
G01*
%TO.C,FB1*%
X115560000Y-95900000D02*
X105420000Y-95900000D01*
X115560000Y-95420000D02*
X115560000Y-95900000D01*
X115560000Y-92540000D02*
X115560000Y-92060000D01*
X115560000Y-92060000D02*
X105420000Y-92060000D01*
X105420000Y-95900000D02*
X105420000Y-95420000D01*
X105420000Y-92060000D02*
X105420000Y-92540000D01*
%TO.C,R6*%
X135255000Y-109625000D02*
X135255000Y-110395000D01*
X136625000Y-110395000D02*
X133885000Y-110395000D01*
X133885000Y-110395000D02*
X133885000Y-116935000D01*
X136625000Y-116935000D02*
X136625000Y-110395000D01*
X133885000Y-116935000D02*
X136625000Y-116935000D01*
X135255000Y-117705000D02*
X135255000Y-116935000D01*
%TO.C,R20*%
X132715000Y-117705000D02*
X132715000Y-116935000D01*
X131345000Y-116935000D02*
X134085000Y-116935000D01*
X134085000Y-116935000D02*
X134085000Y-110395000D01*
X131345000Y-110395000D02*
X131345000Y-116935000D01*
X134085000Y-110395000D02*
X131345000Y-110395000D01*
X132715000Y-109625000D02*
X132715000Y-110395000D01*
%TO.C,SW4*%
X142625000Y-115745000D02*
X142625000Y-117245000D01*
X143875000Y-119745000D02*
X148375000Y-119745000D01*
X148375000Y-113245000D02*
X143875000Y-113245000D01*
X149625000Y-117245000D02*
X149625000Y-115745000D01*
%TO.C,C2*%
X118195000Y-106780000D02*
X118195000Y-107025000D01*
X118195000Y-106780000D02*
X121835000Y-106780000D01*
X118195000Y-108875000D02*
X118195000Y-109120000D01*
X118195000Y-109120000D02*
X121835000Y-109120000D01*
X121835000Y-106780000D02*
X121835000Y-107025000D01*
X121835000Y-108875000D02*
X121835000Y-109120000D01*
%TO.C,C3*%
X122470000Y-96420000D02*
X122470000Y-96175000D01*
X122470000Y-96420000D02*
X118830000Y-96420000D01*
X122470000Y-94325000D02*
X122470000Y-94080000D01*
X122470000Y-94080000D02*
X118830000Y-94080000D01*
X118830000Y-96420000D02*
X118830000Y-96175000D01*
X118830000Y-94325000D02*
X118830000Y-94080000D01*
%TO.C,D3*%
X141950000Y-92109000D02*
X141950000Y-92265000D01*
X141950000Y-94425000D02*
X141950000Y-94581000D01*
X145182334Y-92266392D02*
G75*
G03*
X141950001Y-92109485I-1672334J-1078608D01*
G01*
X144551129Y-92265164D02*
G75*
G03*
X142469040Y-92265001I-1041129J-1079836D01*
G01*
X142469040Y-94424999D02*
G75*
G03*
X144551129Y-94424836I1040960J1079999D01*
G01*
X141950001Y-94580515D02*
G75*
G03*
X145182334Y-94423608I1559999J1235515D01*
G01*
%TO.C,SW3*%
X149625000Y-87455000D02*
X149625000Y-85955000D01*
X148375000Y-83455000D02*
X143875000Y-83455000D01*
X143875000Y-89955000D02*
X148375000Y-89955000D01*
X142625000Y-85955000D02*
X142625000Y-87455000D01*
%TO.C,R5*%
X137795000Y-109625000D02*
X137795000Y-110395000D01*
X139165000Y-110395000D02*
X136425000Y-110395000D01*
X136425000Y-110395000D02*
X136425000Y-116935000D01*
X139165000Y-116935000D02*
X139165000Y-110395000D01*
X136425000Y-116935000D02*
X139165000Y-116935000D01*
X137795000Y-117705000D02*
X137795000Y-116935000D01*
%TO.C,SW5*%
X119130000Y-115745000D02*
X119130000Y-117245000D01*
X120380000Y-119745000D02*
X124880000Y-119745000D01*
X124880000Y-113245000D02*
X120380000Y-113245000D01*
X126130000Y-117245000D02*
X126130000Y-115745000D01*
%TO.C,R19*%
X130175000Y-117705000D02*
X130175000Y-116935000D01*
X128805000Y-116935000D02*
X131545000Y-116935000D01*
X131545000Y-116935000D02*
X131545000Y-110395000D01*
X128805000Y-110395000D02*
X128805000Y-116935000D01*
X131545000Y-110395000D02*
X128805000Y-110395000D01*
X130175000Y-109625000D02*
X130175000Y-110395000D01*
%TO.C,R2*%
X115570000Y-109625000D02*
X115570000Y-110395000D01*
X116940000Y-110395000D02*
X114200000Y-110395000D01*
X114200000Y-110395000D02*
X114200000Y-116935000D01*
X116940000Y-116935000D02*
X116940000Y-110395000D01*
X114200000Y-116935000D02*
X116940000Y-116935000D01*
X115570000Y-117705000D02*
X115570000Y-116935000D01*
%TO.C,U1*%
X117355000Y-106740000D02*
X142995000Y-106740000D01*
X142995000Y-106740000D02*
X142995000Y-96460000D01*
X117415000Y-104250000D02*
X142935000Y-104250000D01*
X142935000Y-104250000D02*
X142935000Y-98950000D01*
X117415000Y-102600000D02*
X117415000Y-104250000D01*
X117415000Y-98950000D02*
X117415000Y-100600000D01*
X142935000Y-98950000D02*
X117415000Y-98950000D01*
X117355000Y-96460000D02*
X117355000Y-106740000D01*
X142995000Y-96460000D02*
X117355000Y-96460000D01*
X117415000Y-102600000D02*
G75*
G03*
X117415000Y-100600000I0J1000000D01*
G01*
%TO.C,R13*%
X159385000Y-93115000D02*
X159385000Y-93885000D01*
X160755000Y-93885000D02*
X158015000Y-93885000D01*
X158015000Y-93885000D02*
X158015000Y-100425000D01*
X160755000Y-100425000D02*
X160755000Y-93885000D01*
X158015000Y-100425000D02*
X160755000Y-100425000D01*
X159385000Y-101195000D02*
X159385000Y-100425000D01*
%TO.C,R9*%
X159385000Y-108355000D02*
X159385000Y-109125000D01*
X160755000Y-109125000D02*
X158015000Y-109125000D01*
X158015000Y-109125000D02*
X158015000Y-115665000D01*
X160755000Y-115665000D02*
X160755000Y-109125000D01*
X158015000Y-115665000D02*
X160755000Y-115665000D01*
X159385000Y-116435000D02*
X159385000Y-115665000D01*
%TO.C,R8*%
X156845000Y-108355000D02*
X156845000Y-109125000D01*
X158215000Y-109125000D02*
X155475000Y-109125000D01*
X155475000Y-109125000D02*
X155475000Y-115665000D01*
X158215000Y-115665000D02*
X158215000Y-109125000D01*
X155475000Y-115665000D02*
X158215000Y-115665000D01*
X156845000Y-116435000D02*
X156845000Y-115665000D01*
%TO.C,R14*%
X161925000Y-93115000D02*
X161925000Y-93885000D01*
X163295000Y-93885000D02*
X160555000Y-93885000D01*
X160555000Y-93885000D02*
X160555000Y-100425000D01*
X163295000Y-100425000D02*
X163295000Y-93885000D01*
X160555000Y-100425000D02*
X163295000Y-100425000D01*
X161925000Y-101195000D02*
X161925000Y-100425000D01*
%TO.C,R10*%
X161925000Y-108355000D02*
X161925000Y-109125000D01*
X163295000Y-109125000D02*
X160555000Y-109125000D01*
X160555000Y-109125000D02*
X160555000Y-115665000D01*
X163295000Y-115665000D02*
X163295000Y-109125000D01*
X160555000Y-115665000D02*
X163295000Y-115665000D01*
X161925000Y-116435000D02*
X161925000Y-115665000D01*
%TO.C,R12*%
X156845000Y-93115000D02*
X156845000Y-93885000D01*
X158215000Y-93885000D02*
X155475000Y-93885000D01*
X155475000Y-93885000D02*
X155475000Y-100425000D01*
X158215000Y-100425000D02*
X158215000Y-93885000D01*
X155475000Y-100425000D02*
X158215000Y-100425000D01*
X156845000Y-101195000D02*
X156845000Y-100425000D01*
%TO.C,C6*%
X175961000Y-89880241D02*
X175961000Y-89250241D01*
X175646000Y-89565241D02*
X176276000Y-89565241D01*
X174570000Y-86380000D02*
X181030000Y-86380000D01*
X174570000Y-86340000D02*
X181030000Y-86340000D01*
X174570000Y-86300000D02*
X181030000Y-86300000D01*
X174572000Y-86260000D02*
X181028000Y-86260000D01*
X174573000Y-86220000D02*
X181027000Y-86220000D01*
X174576000Y-86180000D02*
X181024000Y-86180000D01*
X174578000Y-86140000D02*
X176760000Y-86140000D01*
X178840000Y-86140000D02*
X181022000Y-86140000D01*
X174582000Y-86100000D02*
X176760000Y-86100000D01*
X178840000Y-86100000D02*
X181018000Y-86100000D01*
X174585000Y-86060000D02*
X176760000Y-86060000D01*
X178840000Y-86060000D02*
X181015000Y-86060000D01*
X174589000Y-86020000D02*
X176760000Y-86020000D01*
X178840000Y-86020000D02*
X181011000Y-86020000D01*
X174594000Y-85980000D02*
X176760000Y-85980000D01*
X178840000Y-85980000D02*
X181006000Y-85980000D01*
X174599000Y-85940000D02*
X176760000Y-85940000D01*
X178840000Y-85940000D02*
X181001000Y-85940000D01*
X174605000Y-85900000D02*
X176760000Y-85900000D01*
X178840000Y-85900000D02*
X180995000Y-85900000D01*
X174611000Y-85860000D02*
X176760000Y-85860000D01*
X178840000Y-85860000D02*
X180989000Y-85860000D01*
X174618000Y-85820000D02*
X176760000Y-85820000D01*
X178840000Y-85820000D02*
X180982000Y-85820000D01*
X174625000Y-85780000D02*
X176760000Y-85780000D01*
X178840000Y-85780000D02*
X180975000Y-85780000D01*
X174633000Y-85740000D02*
X176760000Y-85740000D01*
X178840000Y-85740000D02*
X180967000Y-85740000D01*
X174641000Y-85700000D02*
X176760000Y-85700000D01*
X178840000Y-85700000D02*
X180959000Y-85700000D01*
X174650000Y-85659000D02*
X176760000Y-85659000D01*
X178840000Y-85659000D02*
X180950000Y-85659000D01*
X174659000Y-85619000D02*
X176760000Y-85619000D01*
X178840000Y-85619000D02*
X180941000Y-85619000D01*
X174669000Y-85579000D02*
X176760000Y-85579000D01*
X178840000Y-85579000D02*
X180931000Y-85579000D01*
X174679000Y-85539000D02*
X176760000Y-85539000D01*
X178840000Y-85539000D02*
X180921000Y-85539000D01*
X174690000Y-85499000D02*
X176760000Y-85499000D01*
X178840000Y-85499000D02*
X180910000Y-85499000D01*
X174702000Y-85459000D02*
X176760000Y-85459000D01*
X178840000Y-85459000D02*
X180898000Y-85459000D01*
X174714000Y-85419000D02*
X176760000Y-85419000D01*
X178840000Y-85419000D02*
X180886000Y-85419000D01*
X174726000Y-85379000D02*
X176760000Y-85379000D01*
X178840000Y-85379000D02*
X180874000Y-85379000D01*
X174739000Y-85339000D02*
X176760000Y-85339000D01*
X178840000Y-85339000D02*
X180861000Y-85339000D01*
X174753000Y-85299000D02*
X176760000Y-85299000D01*
X178840000Y-85299000D02*
X180847000Y-85299000D01*
X174767000Y-85259000D02*
X176760000Y-85259000D01*
X178840000Y-85259000D02*
X180833000Y-85259000D01*
X174782000Y-85219000D02*
X176760000Y-85219000D01*
X178840000Y-85219000D02*
X180818000Y-85219000D01*
X174798000Y-85179000D02*
X176760000Y-85179000D01*
X178840000Y-85179000D02*
X180802000Y-85179000D01*
X174814000Y-85139000D02*
X176760000Y-85139000D01*
X178840000Y-85139000D02*
X180786000Y-85139000D01*
X174830000Y-85099000D02*
X176760000Y-85099000D01*
X178840000Y-85099000D02*
X180770000Y-85099000D01*
X174848000Y-85059000D02*
X176760000Y-85059000D01*
X178840000Y-85059000D02*
X180752000Y-85059000D01*
X174866000Y-85019000D02*
X176760000Y-85019000D01*
X178840000Y-85019000D02*
X180734000Y-85019000D01*
X174884000Y-84979000D02*
X176760000Y-84979000D01*
X178840000Y-84979000D02*
X180716000Y-84979000D01*
X174904000Y-84939000D02*
X176760000Y-84939000D01*
X178840000Y-84939000D02*
X180696000Y-84939000D01*
X174924000Y-84899000D02*
X176760000Y-84899000D01*
X178840000Y-84899000D02*
X180676000Y-84899000D01*
X174944000Y-84859000D02*
X176760000Y-84859000D01*
X178840000Y-84859000D02*
X180656000Y-84859000D01*
X174966000Y-84819000D02*
X176760000Y-84819000D01*
X178840000Y-84819000D02*
X180634000Y-84819000D01*
X174988000Y-84779000D02*
X176760000Y-84779000D01*
X178840000Y-84779000D02*
X180612000Y-84779000D01*
X175010000Y-84739000D02*
X176760000Y-84739000D01*
X178840000Y-84739000D02*
X180590000Y-84739000D01*
X175034000Y-84699000D02*
X176760000Y-84699000D01*
X178840000Y-84699000D02*
X180566000Y-84699000D01*
X175058000Y-84659000D02*
X176760000Y-84659000D01*
X178840000Y-84659000D02*
X180542000Y-84659000D01*
X175084000Y-84619000D02*
X176760000Y-84619000D01*
X178840000Y-84619000D02*
X180516000Y-84619000D01*
X175110000Y-84579000D02*
X176760000Y-84579000D01*
X178840000Y-84579000D02*
X180490000Y-84579000D01*
X175136000Y-84539000D02*
X176760000Y-84539000D01*
X178840000Y-84539000D02*
X180464000Y-84539000D01*
X175164000Y-84499000D02*
X176760000Y-84499000D01*
X178840000Y-84499000D02*
X180436000Y-84499000D01*
X175193000Y-84459000D02*
X176760000Y-84459000D01*
X178840000Y-84459000D02*
X180407000Y-84459000D01*
X175222000Y-84419000D02*
X176760000Y-84419000D01*
X178840000Y-84419000D02*
X180378000Y-84419000D01*
X175252000Y-84379000D02*
X176760000Y-84379000D01*
X178840000Y-84379000D02*
X180348000Y-84379000D01*
X175284000Y-84339000D02*
X176760000Y-84339000D01*
X178840000Y-84339000D02*
X180316000Y-84339000D01*
X175316000Y-84299000D02*
X176760000Y-84299000D01*
X178840000Y-84299000D02*
X180284000Y-84299000D01*
X175350000Y-84259000D02*
X176760000Y-84259000D01*
X178840000Y-84259000D02*
X180250000Y-84259000D01*
X175384000Y-84219000D02*
X176760000Y-84219000D01*
X178840000Y-84219000D02*
X180216000Y-84219000D01*
X175420000Y-84179000D02*
X176760000Y-84179000D01*
X178840000Y-84179000D02*
X180180000Y-84179000D01*
X175457000Y-84139000D02*
X176760000Y-84139000D01*
X178840000Y-84139000D02*
X180143000Y-84139000D01*
X175495000Y-84099000D02*
X176760000Y-84099000D01*
X178840000Y-84099000D02*
X180105000Y-84099000D01*
X175535000Y-84059000D02*
X180065000Y-84059000D01*
X175576000Y-84019000D02*
X180024000Y-84019000D01*
X175618000Y-83979000D02*
X179982000Y-83979000D01*
X175663000Y-83939000D02*
X179937000Y-83939000D01*
X175708000Y-83899000D02*
X179892000Y-83899000D01*
X175756000Y-83859000D02*
X179844000Y-83859000D01*
X175805000Y-83819000D02*
X179795000Y-83819000D01*
X175856000Y-83779000D02*
X179744000Y-83779000D01*
X175910000Y-83739000D02*
X179690000Y-83739000D01*
X175966000Y-83699000D02*
X179634000Y-83699000D01*
X176024000Y-83659000D02*
X179576000Y-83659000D01*
X176086000Y-83619000D02*
X179514000Y-83619000D01*
X176150000Y-83579000D02*
X179450000Y-83579000D01*
X176219000Y-83539000D02*
X179381000Y-83539000D01*
X176291000Y-83499000D02*
X179309000Y-83499000D01*
X176368000Y-83459000D02*
X179232000Y-83459000D01*
X176450000Y-83419000D02*
X179150000Y-83419000D01*
X176538000Y-83379000D02*
X179062000Y-83379000D01*
X176635000Y-83339000D02*
X178965000Y-83339000D01*
X176741000Y-83299000D02*
X178859000Y-83299000D01*
X176860000Y-83259000D02*
X178740000Y-83259000D01*
X176998000Y-83219000D02*
X178602000Y-83219000D01*
X177167000Y-83179000D02*
X178433000Y-83179000D01*
X177398000Y-83139000D02*
X178202000Y-83139000D01*
X181070000Y-86380000D02*
G75*
G03*
X181070000Y-86380000I-3270000J0D01*
G01*
%TO.C,H2*%
X158175000Y-90865000D02*
X156845000Y-90865000D01*
X158175000Y-89535000D02*
X158175000Y-90865000D01*
X158175000Y-88265000D02*
X158175000Y-83125000D01*
X158175000Y-88265000D02*
X155515000Y-88265000D01*
X158175000Y-83125000D02*
X155515000Y-83125000D01*
X155515000Y-88265000D02*
X155515000Y-83125000D01*
%TO.C,H4*%
X163255000Y-90865000D02*
X161925000Y-90865000D01*
X163255000Y-89535000D02*
X163255000Y-90865000D01*
X163255000Y-88265000D02*
X163255000Y-83125000D01*
X163255000Y-88265000D02*
X160595000Y-88265000D01*
X163255000Y-83125000D02*
X160595000Y-83125000D01*
X160595000Y-88265000D02*
X160595000Y-83125000D01*
%TO.C,H5*%
X165795000Y-90865000D02*
X164465000Y-90865000D01*
X165795000Y-89535000D02*
X165795000Y-90865000D01*
X165795000Y-88265000D02*
X165795000Y-83125000D01*
X165795000Y-88265000D02*
X163135000Y-88265000D01*
X165795000Y-83125000D02*
X163135000Y-83125000D01*
X163135000Y-88265000D02*
X163135000Y-83125000D01*
%TO.C,H6*%
X168335000Y-90865000D02*
X167005000Y-90865000D01*
X168335000Y-89535000D02*
X168335000Y-90865000D01*
X168335000Y-88265000D02*
X168335000Y-83125000D01*
X168335000Y-88265000D02*
X165675000Y-88265000D01*
X168335000Y-83125000D02*
X165675000Y-83125000D01*
X165675000Y-88265000D02*
X165675000Y-83125000D01*
%TO.C,H7*%
X170875000Y-90865000D02*
X169545000Y-90865000D01*
X170875000Y-89535000D02*
X170875000Y-90865000D01*
X170875000Y-88265000D02*
X170875000Y-83125000D01*
X170875000Y-88265000D02*
X168215000Y-88265000D01*
X170875000Y-83125000D02*
X168215000Y-83125000D01*
X168215000Y-88265000D02*
X168215000Y-83125000D01*
%TO.C,H8*%
X173415000Y-90865000D02*
X172085000Y-90865000D01*
X173415000Y-89535000D02*
X173415000Y-90865000D01*
X173415000Y-88265000D02*
X173415000Y-83125000D01*
X173415000Y-88265000D02*
X170755000Y-88265000D01*
X173415000Y-83125000D02*
X170755000Y-83125000D01*
X170755000Y-88265000D02*
X170755000Y-83125000D01*
%TO.C,Q2*%
X184890000Y-109165000D02*
X188490000Y-109165000D01*
X186690000Y-104715000D02*
G75*
G03*
X184851522Y-109153478I0J-2600000D01*
G01*
X188528478Y-109153478D02*
G75*
G03*
X186690000Y-104715000I-1838478J1838478D01*
G01*
%TO.C,R4*%
X137795000Y-93575000D02*
X137795000Y-92805000D01*
X136425000Y-92805000D02*
X139165000Y-92805000D01*
X139165000Y-92805000D02*
X139165000Y-86265000D01*
X136425000Y-86265000D02*
X136425000Y-92805000D01*
X139165000Y-86265000D02*
X136425000Y-86265000D01*
X137795000Y-85495000D02*
X137795000Y-86265000D01*
%TO.C,G1*%
D15*
X146177612Y-99557245D02*
X146202059Y-99589167D01*
X146246851Y-99672022D01*
X146239606Y-99737169D01*
X146202059Y-99800834D01*
X146105326Y-99887015D01*
X145991750Y-99901296D01*
X145886767Y-99842800D01*
X145861900Y-99812581D01*
X145813095Y-99735152D01*
X145796000Y-99695000D01*
X145817736Y-99646568D01*
X145861900Y-99577420D01*
X145959751Y-99497958D01*
X146073467Y-99491526D01*
X146177612Y-99557245D01*
G36*
X146177612Y-99557245D02*
G01*
X146202059Y-99589167D01*
X146246851Y-99672022D01*
X146239606Y-99737169D01*
X146202059Y-99800834D01*
X146105326Y-99887015D01*
X145991750Y-99901296D01*
X145886767Y-99842800D01*
X145861900Y-99812581D01*
X145813095Y-99735152D01*
X145796000Y-99695000D01*
X145817736Y-99646568D01*
X145861900Y-99577420D01*
X145959751Y-99497958D01*
X146073467Y-99491526D01*
X146177612Y-99557245D01*
G37*
X151733740Y-103788789D02*
X151946999Y-103877420D01*
X152131337Y-104025384D01*
X152272165Y-104232389D01*
X152292146Y-104276802D01*
X152350858Y-104520534D01*
X152337318Y-104774712D01*
X152255762Y-105014889D01*
X152133396Y-105192757D01*
X151946991Y-105336797D01*
X151722153Y-105420088D01*
X151479421Y-105442630D01*
X151239338Y-105404424D01*
X151022443Y-105305469D01*
X150888604Y-105192757D01*
X150751438Y-104984254D01*
X150679452Y-104741040D01*
X150676201Y-104486469D01*
X150744345Y-104245834D01*
X150883334Y-104033424D01*
X151066359Y-103881807D01*
X151278829Y-103790690D01*
X151506153Y-103759781D01*
X151733740Y-103788789D01*
G36*
X151733740Y-103788789D02*
G01*
X151946999Y-103877420D01*
X152131337Y-104025384D01*
X152272165Y-104232389D01*
X152292146Y-104276802D01*
X152350858Y-104520534D01*
X152337318Y-104774712D01*
X152255762Y-105014889D01*
X152133396Y-105192757D01*
X151946991Y-105336797D01*
X151722153Y-105420088D01*
X151479421Y-105442630D01*
X151239338Y-105404424D01*
X151022443Y-105305469D01*
X150888604Y-105192757D01*
X150751438Y-104984254D01*
X150679452Y-104741040D01*
X150676201Y-104486469D01*
X150744345Y-104245834D01*
X150883334Y-104033424D01*
X151066359Y-103881807D01*
X151278829Y-103790690D01*
X151506153Y-103759781D01*
X151733740Y-103788789D01*
G37*
X145567059Y-99589167D02*
X145611851Y-99672022D01*
X145604606Y-99737169D01*
X145567059Y-99800834D01*
X145497715Y-99906667D01*
X144760258Y-99906667D01*
X144493797Y-99906234D01*
X144299207Y-99903935D01*
X144163694Y-99898273D01*
X144074462Y-99887749D01*
X144018717Y-99870864D01*
X143983663Y-99846120D01*
X143956900Y-99812581D01*
X143908095Y-99735152D01*
X143891000Y-99695000D01*
X143912736Y-99646568D01*
X143956900Y-99577420D01*
X143984079Y-99543463D01*
X144019339Y-99518842D01*
X144075474Y-99502059D01*
X144165279Y-99491615D01*
X144301549Y-99486012D01*
X144497079Y-99483751D01*
X144760258Y-99483334D01*
X145497715Y-99483334D01*
X145567059Y-99589167D01*
G36*
X145567059Y-99589167D02*
G01*
X145611851Y-99672022D01*
X145604606Y-99737169D01*
X145567059Y-99800834D01*
X145497715Y-99906667D01*
X144760258Y-99906667D01*
X144493797Y-99906234D01*
X144299207Y-99903935D01*
X144163694Y-99898273D01*
X144074462Y-99887749D01*
X144018717Y-99870864D01*
X143983663Y-99846120D01*
X143956900Y-99812581D01*
X143908095Y-99735152D01*
X143891000Y-99695000D01*
X143912736Y-99646568D01*
X143956900Y-99577420D01*
X143984079Y-99543463D01*
X144019339Y-99518842D01*
X144075474Y-99502059D01*
X144165279Y-99491615D01*
X144301549Y-99486012D01*
X144497079Y-99483751D01*
X144760258Y-99483334D01*
X145497715Y-99483334D01*
X145567059Y-99589167D01*
G37*
X145026150Y-100118630D02*
X145220166Y-100120612D01*
X145355096Y-100125914D01*
X145443730Y-100136175D01*
X145498860Y-100153029D01*
X145533274Y-100178115D01*
X145559765Y-100213067D01*
X145565199Y-100221328D01*
X145608477Y-100322520D01*
X145589270Y-100405443D01*
X145569158Y-100493669D01*
X145563743Y-100640661D01*
X145571082Y-100787461D01*
X145582701Y-100944351D01*
X145581273Y-101038339D01*
X145561527Y-101090833D01*
X145518195Y-101123240D01*
X145484487Y-101139308D01*
X145352192Y-101166493D01*
X145240714Y-101131977D01*
X145172263Y-101046602D01*
X145161000Y-100981403D01*
X145148577Y-100865362D01*
X145118066Y-100726562D01*
X145111966Y-100705328D01*
X145062931Y-100541667D01*
X144542866Y-100541667D01*
X144323971Y-100540728D01*
X144173924Y-100536219D01*
X144076915Y-100525601D01*
X144017132Y-100506335D01*
X143978764Y-100475883D01*
X143956900Y-100447581D01*
X143908095Y-100370152D01*
X143891000Y-100330000D01*
X143912736Y-100281568D01*
X143956900Y-100212420D01*
X143984079Y-100178463D01*
X144019339Y-100153842D01*
X144075474Y-100137059D01*
X144165279Y-100126615D01*
X144301549Y-100121012D01*
X144497079Y-100118751D01*
X144760258Y-100118334D01*
X145026150Y-100118630D01*
G36*
X145026150Y-100118630D02*
G01*
X145220166Y-100120612D01*
X145355096Y-100125914D01*
X145443730Y-100136175D01*
X145498860Y-100153029D01*
X145533274Y-100178115D01*
X145559765Y-100213067D01*
X145565199Y-100221328D01*
X145608477Y-100322520D01*
X145589270Y-100405443D01*
X145569158Y-100493669D01*
X145563743Y-100640661D01*
X145571082Y-100787461D01*
X145582701Y-100944351D01*
X145581273Y-101038339D01*
X145561527Y-101090833D01*
X145518195Y-101123240D01*
X145484487Y-101139308D01*
X145352192Y-101166493D01*
X145240714Y-101131977D01*
X145172263Y-101046602D01*
X145161000Y-100981403D01*
X145148577Y-100865362D01*
X145118066Y-100726562D01*
X145111966Y-100705328D01*
X145062931Y-100541667D01*
X144542866Y-100541667D01*
X144323971Y-100540728D01*
X144173924Y-100536219D01*
X144076915Y-100525601D01*
X144017132Y-100506335D01*
X143978764Y-100475883D01*
X143956900Y-100447581D01*
X143908095Y-100370152D01*
X143891000Y-100330000D01*
X143912736Y-100281568D01*
X143956900Y-100212420D01*
X143984079Y-100178463D01*
X144019339Y-100153842D01*
X144075474Y-100137059D01*
X144165279Y-100126615D01*
X144301549Y-100121012D01*
X144497079Y-100118751D01*
X144760258Y-100118334D01*
X145026150Y-100118630D01*
G37*
X144758833Y-101177619D02*
X145010901Y-101214371D01*
X145234473Y-101319581D01*
X145414799Y-101480168D01*
X145542043Y-101683770D01*
X145606366Y-101918026D01*
X145597930Y-102170570D01*
X145586427Y-102223054D01*
X145499916Y-102454991D01*
X145365664Y-102626899D01*
X145169226Y-102756591D01*
X145144045Y-102768653D01*
X144887041Y-102849122D01*
X144631730Y-102857910D01*
X144393138Y-102799280D01*
X144186293Y-102677495D01*
X144026222Y-102496818D01*
X143995147Y-102442704D01*
X143941990Y-102282702D01*
X143915658Y-102080854D01*
X143916142Y-102053200D01*
X144352714Y-102053200D01*
X144384814Y-102210147D01*
X144453952Y-102311636D01*
X144600120Y-102400225D01*
X144766749Y-102427814D01*
X144929246Y-102397156D01*
X145063020Y-102311005D01*
X145117412Y-102237345D01*
X145160821Y-102075411D01*
X145141682Y-101899298D01*
X145064423Y-101746617D01*
X145058832Y-101739944D01*
X144975898Y-101662716D01*
X144880005Y-101628176D01*
X144758833Y-101621167D01*
X144621682Y-101631076D01*
X144529973Y-101670813D01*
X144458834Y-101739944D01*
X144377470Y-101886795D01*
X144352714Y-102053200D01*
X143916142Y-102053200D01*
X143919235Y-101876582D01*
X143941193Y-101753242D01*
X144038141Y-101552297D01*
X144199125Y-101381830D01*
X144405257Y-101255235D01*
X144637649Y-101185908D01*
X144753922Y-101176903D01*
X144758833Y-101177619D01*
G36*
X144758833Y-101177619D02*
G01*
X145010901Y-101214371D01*
X145234473Y-101319581D01*
X145414799Y-101480168D01*
X145542043Y-101683770D01*
X145606366Y-101918026D01*
X145597930Y-102170570D01*
X145586427Y-102223054D01*
X145499916Y-102454991D01*
X145365664Y-102626899D01*
X145169226Y-102756591D01*
X145144045Y-102768653D01*
X144887041Y-102849122D01*
X144631730Y-102857910D01*
X144393138Y-102799280D01*
X144186293Y-102677495D01*
X144026222Y-102496818D01*
X143995147Y-102442704D01*
X143941990Y-102282702D01*
X143915658Y-102080854D01*
X143916142Y-102053200D01*
X144352714Y-102053200D01*
X144384814Y-102210147D01*
X144453952Y-102311636D01*
X144600120Y-102400225D01*
X144766749Y-102427814D01*
X144929246Y-102397156D01*
X145063020Y-102311005D01*
X145117412Y-102237345D01*
X145160821Y-102075411D01*
X145141682Y-101899298D01*
X145064423Y-101746617D01*
X145058832Y-101739944D01*
X144975898Y-101662716D01*
X144880005Y-101628176D01*
X144758833Y-101621167D01*
X144621682Y-101631076D01*
X144529973Y-101670813D01*
X144458834Y-101739944D01*
X144377470Y-101886795D01*
X144352714Y-102053200D01*
X143916142Y-102053200D01*
X143919235Y-101876582D01*
X143941193Y-101753242D01*
X144038141Y-101552297D01*
X144199125Y-101381830D01*
X144405257Y-101255235D01*
X144637649Y-101185908D01*
X144753922Y-101176903D01*
X144758833Y-101177619D01*
G37*
X144758833Y-104775952D02*
X145010901Y-104812705D01*
X145234473Y-104917914D01*
X145414799Y-105078501D01*
X145542043Y-105282104D01*
X145606366Y-105516359D01*
X145597930Y-105768904D01*
X145586427Y-105821388D01*
X145499916Y-106053325D01*
X145365664Y-106225232D01*
X145169226Y-106354925D01*
X145144045Y-106366986D01*
X144887041Y-106447456D01*
X144631730Y-106456244D01*
X144393138Y-106397613D01*
X144186293Y-106275828D01*
X144026222Y-106095151D01*
X143995147Y-106041037D01*
X143941990Y-105881036D01*
X143915658Y-105679187D01*
X143916142Y-105651534D01*
X144352714Y-105651534D01*
X144384814Y-105808480D01*
X144453952Y-105909970D01*
X144600120Y-105998559D01*
X144766749Y-106026147D01*
X144929246Y-105995489D01*
X145063020Y-105909339D01*
X145117412Y-105835678D01*
X145160821Y-105673745D01*
X145141682Y-105497631D01*
X145064423Y-105344950D01*
X145058832Y-105338277D01*
X144975898Y-105261049D01*
X144880005Y-105226509D01*
X144758833Y-105219500D01*
X144621682Y-105229410D01*
X144529973Y-105269146D01*
X144458834Y-105338277D01*
X144377470Y-105485128D01*
X144352714Y-105651534D01*
X143916142Y-105651534D01*
X143919235Y-105474915D01*
X143941193Y-105351576D01*
X144038141Y-105150630D01*
X144199125Y-104980163D01*
X144405257Y-104853568D01*
X144637649Y-104784241D01*
X144753922Y-104775236D01*
X144758833Y-104775952D01*
G36*
X144758833Y-104775952D02*
G01*
X145010901Y-104812705D01*
X145234473Y-104917914D01*
X145414799Y-105078501D01*
X145542043Y-105282104D01*
X145606366Y-105516359D01*
X145597930Y-105768904D01*
X145586427Y-105821388D01*
X145499916Y-106053325D01*
X145365664Y-106225232D01*
X145169226Y-106354925D01*
X145144045Y-106366986D01*
X144887041Y-106447456D01*
X144631730Y-106456244D01*
X144393138Y-106397613D01*
X144186293Y-106275828D01*
X144026222Y-106095151D01*
X143995147Y-106041037D01*
X143941990Y-105881036D01*
X143915658Y-105679187D01*
X143916142Y-105651534D01*
X144352714Y-105651534D01*
X144384814Y-105808480D01*
X144453952Y-105909970D01*
X144600120Y-105998559D01*
X144766749Y-106026147D01*
X144929246Y-105995489D01*
X145063020Y-105909339D01*
X145117412Y-105835678D01*
X145160821Y-105673745D01*
X145141682Y-105497631D01*
X145064423Y-105344950D01*
X145058832Y-105338277D01*
X144975898Y-105261049D01*
X144880005Y-105226509D01*
X144758833Y-105219500D01*
X144621682Y-105229410D01*
X144529973Y-105269146D01*
X144458834Y-105338277D01*
X144377470Y-105485128D01*
X144352714Y-105651534D01*
X143916142Y-105651534D01*
X143919235Y-105474915D01*
X143941193Y-105351576D01*
X144038141Y-105150630D01*
X144199125Y-104980163D01*
X144405257Y-104853568D01*
X144637649Y-104784241D01*
X144753922Y-104775236D01*
X144758833Y-104775952D01*
G37*
X148720634Y-103759699D02*
X149030694Y-103762712D01*
X149276264Y-103769413D01*
X149467433Y-103781178D01*
X149614285Y-103799381D01*
X149726907Y-103825398D01*
X149815386Y-103860602D01*
X149889807Y-103906369D01*
X149960258Y-103964073D01*
X149981423Y-103983271D01*
X150125463Y-104169675D01*
X150208754Y-104394514D01*
X150231296Y-104637246D01*
X150193090Y-104877329D01*
X150094136Y-105094223D01*
X149981423Y-105228063D01*
X149910486Y-105289331D01*
X149838604Y-105338323D01*
X149755734Y-105376397D01*
X149651834Y-105404907D01*
X149516860Y-105425209D01*
X149340771Y-105438659D01*
X149113524Y-105446611D01*
X148825075Y-105450422D01*
X148465383Y-105451448D01*
X148326776Y-105451404D01*
X147964610Y-105450694D01*
X147676804Y-105448785D01*
X147453052Y-105445097D01*
X147283050Y-105439053D01*
X147156493Y-105430073D01*
X147063075Y-105417580D01*
X146992492Y-105400994D01*
X146934439Y-105379738D01*
X146917833Y-105372322D01*
X146704096Y-105230473D01*
X146548145Y-105037654D01*
X146455679Y-104809641D01*
X146432395Y-104562213D01*
X146483991Y-104311144D01*
X146511012Y-104245834D01*
X146647832Y-104031794D01*
X146837797Y-103878886D01*
X146948801Y-103824521D01*
X147009133Y-103804857D01*
X147091704Y-103789401D01*
X147206275Y-103777692D01*
X147362606Y-103769269D01*
X147570456Y-103763670D01*
X147839584Y-103760435D01*
X148179752Y-103759103D01*
X148336000Y-103759000D01*
X148720634Y-103759699D01*
G36*
X148720634Y-103759699D02*
G01*
X149030694Y-103762712D01*
X149276264Y-103769413D01*
X149467433Y-103781178D01*
X149614285Y-103799381D01*
X149726907Y-103825398D01*
X149815386Y-103860602D01*
X149889807Y-103906369D01*
X149960258Y-103964073D01*
X149981423Y-103983271D01*
X150125463Y-104169675D01*
X150208754Y-104394514D01*
X150231296Y-104637246D01*
X150193090Y-104877329D01*
X150094136Y-105094223D01*
X149981423Y-105228063D01*
X149910486Y-105289331D01*
X149838604Y-105338323D01*
X149755734Y-105376397D01*
X149651834Y-105404907D01*
X149516860Y-105425209D01*
X149340771Y-105438659D01*
X149113524Y-105446611D01*
X148825075Y-105450422D01*
X148465383Y-105451448D01*
X148326776Y-105451404D01*
X147964610Y-105450694D01*
X147676804Y-105448785D01*
X147453052Y-105445097D01*
X147283050Y-105439053D01*
X147156493Y-105430073D01*
X147063075Y-105417580D01*
X146992492Y-105400994D01*
X146934439Y-105379738D01*
X146917833Y-105372322D01*
X146704096Y-105230473D01*
X146548145Y-105037654D01*
X146455679Y-104809641D01*
X146432395Y-104562213D01*
X146483991Y-104311144D01*
X146511012Y-104245834D01*
X146647832Y-104031794D01*
X146837797Y-103878886D01*
X146948801Y-103824521D01*
X147009133Y-103804857D01*
X147091704Y-103789401D01*
X147206275Y-103777692D01*
X147362606Y-103769269D01*
X147570456Y-103763670D01*
X147839584Y-103760435D01*
X148179752Y-103759103D01*
X148336000Y-103759000D01*
X148720634Y-103759699D01*
G37*
X148980223Y-97409930D02*
X149430814Y-97410364D01*
X149804753Y-97411385D01*
X150110055Y-97413303D01*
X150354737Y-97416429D01*
X150546813Y-97421072D01*
X150694297Y-97427542D01*
X150805206Y-97436151D01*
X150887553Y-97447206D01*
X150949355Y-97461020D01*
X150998626Y-97477902D01*
X151024166Y-97489012D01*
X151236760Y-97628229D01*
X151388788Y-97811856D01*
X151480251Y-98025140D01*
X151511148Y-98253326D01*
X151481480Y-98481662D01*
X151391246Y-98695395D01*
X151240447Y-98879770D01*
X151029082Y-99020035D01*
X151024166Y-99022322D01*
X150978602Y-99041043D01*
X150925160Y-99056528D01*
X150855846Y-99069080D01*
X150762668Y-99079005D01*
X150637634Y-99086606D01*
X150472751Y-99092188D01*
X150260025Y-99096054D01*
X149991465Y-99098510D01*
X149659078Y-99099859D01*
X149254870Y-99100405D01*
X148971000Y-99100474D01*
X148519283Y-99100267D01*
X148144239Y-99099441D01*
X147837876Y-99097694D01*
X147592200Y-99094721D01*
X147399220Y-99090217D01*
X147250943Y-99083878D01*
X147139375Y-99075401D01*
X147056524Y-99064480D01*
X146994398Y-99050812D01*
X146945003Y-99034092D01*
X146917833Y-99022322D01*
X146704096Y-98880473D01*
X146548145Y-98687654D01*
X146455679Y-98459641D01*
X146432395Y-98212213D01*
X146483991Y-97961144D01*
X146511012Y-97895834D01*
X146647832Y-97681794D01*
X146837797Y-97528886D01*
X146948801Y-97474521D01*
X146997323Y-97458521D01*
X147064398Y-97445297D01*
X147157723Y-97434605D01*
X147284994Y-97426200D01*
X147453908Y-97419836D01*
X147672161Y-97415270D01*
X147947451Y-97412257D01*
X148287472Y-97410552D01*
X148699922Y-97409909D01*
X148980223Y-97409930D01*
G36*
X148980223Y-97409930D02*
G01*
X149430814Y-97410364D01*
X149804753Y-97411385D01*
X150110055Y-97413303D01*
X150354737Y-97416429D01*
X150546813Y-97421072D01*
X150694297Y-97427542D01*
X150805206Y-97436151D01*
X150887553Y-97447206D01*
X150949355Y-97461020D01*
X150998626Y-97477902D01*
X151024166Y-97489012D01*
X151236760Y-97628229D01*
X151388788Y-97811856D01*
X151480251Y-98025140D01*
X151511148Y-98253326D01*
X151481480Y-98481662D01*
X151391246Y-98695395D01*
X151240447Y-98879770D01*
X151029082Y-99020035D01*
X151024166Y-99022322D01*
X150978602Y-99041043D01*
X150925160Y-99056528D01*
X150855846Y-99069080D01*
X150762668Y-99079005D01*
X150637634Y-99086606D01*
X150472751Y-99092188D01*
X150260025Y-99096054D01*
X149991465Y-99098510D01*
X149659078Y-99099859D01*
X149254870Y-99100405D01*
X148971000Y-99100474D01*
X148519283Y-99100267D01*
X148144239Y-99099441D01*
X147837876Y-99097694D01*
X147592200Y-99094721D01*
X147399220Y-99090217D01*
X147250943Y-99083878D01*
X147139375Y-99075401D01*
X147056524Y-99064480D01*
X146994398Y-99050812D01*
X146945003Y-99034092D01*
X146917833Y-99022322D01*
X146704096Y-98880473D01*
X146548145Y-98687654D01*
X146455679Y-98459641D01*
X146432395Y-98212213D01*
X146483991Y-97961144D01*
X146511012Y-97895834D01*
X146647832Y-97681794D01*
X146837797Y-97528886D01*
X146948801Y-97474521D01*
X146997323Y-97458521D01*
X147064398Y-97445297D01*
X147157723Y-97434605D01*
X147284994Y-97426200D01*
X147453908Y-97419836D01*
X147672161Y-97415270D01*
X147947451Y-97412257D01*
X148287472Y-97410552D01*
X148699922Y-97409909D01*
X148980223Y-97409930D01*
G37*
X148980223Y-101643263D02*
X149430814Y-101643697D01*
X149804753Y-101644718D01*
X150110055Y-101646637D01*
X150354737Y-101649762D01*
X150546813Y-101654405D01*
X150694297Y-101660876D01*
X150805206Y-101669484D01*
X150887553Y-101680540D01*
X150949355Y-101694354D01*
X150998626Y-101711235D01*
X151024166Y-101722345D01*
X151236760Y-101861563D01*
X151388788Y-102045190D01*
X151480251Y-102258473D01*
X151511148Y-102486659D01*
X151481480Y-102714996D01*
X151391246Y-102928728D01*
X151240447Y-103113103D01*
X151029082Y-103253368D01*
X151024166Y-103255655D01*
X150978602Y-103274376D01*
X150925160Y-103289861D01*
X150855846Y-103302414D01*
X150762668Y-103312338D01*
X150637634Y-103319940D01*
X150472751Y-103325521D01*
X150260025Y-103329388D01*
X149991465Y-103331843D01*
X149659078Y-103333192D01*
X149254870Y-103333738D01*
X148971000Y-103333807D01*
X148519283Y-103333600D01*
X148144239Y-103332775D01*
X147837876Y-103331027D01*
X147592200Y-103328054D01*
X147399220Y-103323550D01*
X147250943Y-103317212D01*
X147139375Y-103308734D01*
X147056524Y-103297813D01*
X146994398Y-103284145D01*
X146945003Y-103267425D01*
X146917833Y-103255655D01*
X146704096Y-103113806D01*
X146548145Y-102920987D01*
X146455679Y-102692975D01*
X146432395Y-102445546D01*
X146483991Y-102194477D01*
X146511012Y-102129167D01*
X146647832Y-101915127D01*
X146837797Y-101762219D01*
X146948801Y-101707854D01*
X146997323Y-101691854D01*
X147064398Y-101678631D01*
X147157723Y-101667938D01*
X147284994Y-101659533D01*
X147453908Y-101653170D01*
X147672161Y-101648604D01*
X147947451Y-101645590D01*
X148287472Y-101643885D01*
X148699922Y-101643243D01*
X148980223Y-101643263D01*
G36*
X148980223Y-101643263D02*
G01*
X149430814Y-101643697D01*
X149804753Y-101644718D01*
X150110055Y-101646637D01*
X150354737Y-101649762D01*
X150546813Y-101654405D01*
X150694297Y-101660876D01*
X150805206Y-101669484D01*
X150887553Y-101680540D01*
X150949355Y-101694354D01*
X150998626Y-101711235D01*
X151024166Y-101722345D01*
X151236760Y-101861563D01*
X151388788Y-102045190D01*
X151480251Y-102258473D01*
X151511148Y-102486659D01*
X151481480Y-102714996D01*
X151391246Y-102928728D01*
X151240447Y-103113103D01*
X151029082Y-103253368D01*
X151024166Y-103255655D01*
X150978602Y-103274376D01*
X150925160Y-103289861D01*
X150855846Y-103302414D01*
X150762668Y-103312338D01*
X150637634Y-103319940D01*
X150472751Y-103325521D01*
X150260025Y-103329388D01*
X149991465Y-103331843D01*
X149659078Y-103333192D01*
X149254870Y-103333738D01*
X148971000Y-103333807D01*
X148519283Y-103333600D01*
X148144239Y-103332775D01*
X147837876Y-103331027D01*
X147592200Y-103328054D01*
X147399220Y-103323550D01*
X147250943Y-103317212D01*
X147139375Y-103308734D01*
X147056524Y-103297813D01*
X146994398Y-103284145D01*
X146945003Y-103267425D01*
X146917833Y-103255655D01*
X146704096Y-103113806D01*
X146548145Y-102920987D01*
X146455679Y-102692975D01*
X146432395Y-102445546D01*
X146483991Y-102194477D01*
X146511012Y-102129167D01*
X146647832Y-101915127D01*
X146837797Y-101762219D01*
X146948801Y-101707854D01*
X146997323Y-101691854D01*
X147064398Y-101678631D01*
X147157723Y-101667938D01*
X147284994Y-101659533D01*
X147453908Y-101653170D01*
X147672161Y-101648604D01*
X147947451Y-101645590D01*
X148287472Y-101643885D01*
X148699922Y-101643243D01*
X148980223Y-101643263D01*
G37*
X149403557Y-99526597D02*
X149905593Y-99526950D01*
X150330085Y-99527721D01*
X150684158Y-99529140D01*
X150974934Y-99531433D01*
X151209538Y-99534831D01*
X151395092Y-99539560D01*
X151538719Y-99545849D01*
X151647543Y-99553927D01*
X151728688Y-99564022D01*
X151789276Y-99576361D01*
X151836431Y-99591175D01*
X151870833Y-99605679D01*
X152083427Y-99744896D01*
X152235455Y-99928523D01*
X152326917Y-100141806D01*
X152357815Y-100369993D01*
X152328146Y-100598329D01*
X152237913Y-100812061D01*
X152087113Y-100996437D01*
X151875749Y-101136702D01*
X151870833Y-101138988D01*
X151829564Y-101156018D01*
X151780903Y-101170388D01*
X151717744Y-101182323D01*
X151632978Y-101192046D01*
X151519497Y-101199782D01*
X151370195Y-101205755D01*
X151177964Y-101210190D01*
X150935696Y-101213311D01*
X150636284Y-101215342D01*
X150272619Y-101216508D01*
X149837596Y-101217032D01*
X149394333Y-101217141D01*
X148891264Y-101216993D01*
X148465754Y-101216399D01*
X148110696Y-101215136D01*
X147818981Y-101212978D01*
X147583502Y-101209702D01*
X147397152Y-101205083D01*
X147252823Y-101198896D01*
X147143407Y-101190919D01*
X147061798Y-101180926D01*
X147000887Y-101168693D01*
X146953566Y-101153995D01*
X146917833Y-101138988D01*
X146704096Y-100997140D01*
X146548145Y-100804321D01*
X146455679Y-100576308D01*
X146432395Y-100328879D01*
X146483991Y-100077811D01*
X146511012Y-100012500D01*
X146647832Y-99798460D01*
X146837797Y-99645552D01*
X146948801Y-99591187D01*
X146992829Y-99576675D01*
X147054300Y-99564434D01*
X147140089Y-99554284D01*
X147257068Y-99546044D01*
X147412110Y-99539534D01*
X147612088Y-99534572D01*
X147863876Y-99530977D01*
X148174345Y-99528569D01*
X148550370Y-99527167D01*
X148998823Y-99526590D01*
X149403557Y-99526597D01*
G36*
X149403557Y-99526597D02*
G01*
X149905593Y-99526950D01*
X150330085Y-99527721D01*
X150684158Y-99529140D01*
X150974934Y-99531433D01*
X151209538Y-99534831D01*
X151395092Y-99539560D01*
X151538719Y-99545849D01*
X151647543Y-99553927D01*
X151728688Y-99564022D01*
X151789276Y-99576361D01*
X151836431Y-99591175D01*
X151870833Y-99605679D01*
X152083427Y-99744896D01*
X152235455Y-99928523D01*
X152326917Y-100141806D01*
X152357815Y-100369993D01*
X152328146Y-100598329D01*
X152237913Y-100812061D01*
X152087113Y-100996437D01*
X151875749Y-101136702D01*
X151870833Y-101138988D01*
X151829564Y-101156018D01*
X151780903Y-101170388D01*
X151717744Y-101182323D01*
X151632978Y-101192046D01*
X151519497Y-101199782D01*
X151370195Y-101205755D01*
X151177964Y-101210190D01*
X150935696Y-101213311D01*
X150636284Y-101215342D01*
X150272619Y-101216508D01*
X149837596Y-101217032D01*
X149394333Y-101217141D01*
X148891264Y-101216993D01*
X148465754Y-101216399D01*
X148110696Y-101215136D01*
X147818981Y-101212978D01*
X147583502Y-101209702D01*
X147397152Y-101205083D01*
X147252823Y-101198896D01*
X147143407Y-101190919D01*
X147061798Y-101180926D01*
X147000887Y-101168693D01*
X146953566Y-101153995D01*
X146917833Y-101138988D01*
X146704096Y-100997140D01*
X146548145Y-100804321D01*
X146455679Y-100576308D01*
X146432395Y-100328879D01*
X146483991Y-100077811D01*
X146511012Y-100012500D01*
X146647832Y-99798460D01*
X146837797Y-99645552D01*
X146948801Y-99591187D01*
X146992829Y-99576675D01*
X147054300Y-99564434D01*
X147140089Y-99554284D01*
X147257068Y-99546044D01*
X147412110Y-99539534D01*
X147612088Y-99534572D01*
X147863876Y-99530977D01*
X148174345Y-99528569D01*
X148550370Y-99527167D01*
X148998823Y-99526590D01*
X149403557Y-99526597D01*
G37*
X145660624Y-102955428D02*
X145848714Y-102958704D01*
X145979431Y-102965986D01*
X146066418Y-102978761D01*
X146123319Y-102998521D01*
X146163779Y-103026755D01*
X146177000Y-103039334D01*
X146239793Y-103123144D01*
X146261666Y-103187500D01*
X146223419Y-103299579D01*
X146111163Y-103376182D01*
X145928629Y-103415372D01*
X145812637Y-103420334D01*
X145662836Y-103423139D01*
X145581854Y-103434333D01*
X145553952Y-103458082D01*
X145558729Y-103487534D01*
X145611960Y-103730214D01*
X145597773Y-103980888D01*
X145520076Y-104213378D01*
X145429728Y-104351598D01*
X145243592Y-104515571D01*
X145024179Y-104618291D01*
X144788139Y-104660481D01*
X144552122Y-104642863D01*
X144332779Y-104566160D01*
X144146761Y-104431093D01*
X144038739Y-104291257D01*
X143975725Y-104152350D01*
X143927788Y-103989400D01*
X143901633Y-103833328D01*
X143901787Y-103825516D01*
X144349530Y-103825516D01*
X144379072Y-103991947D01*
X144460576Y-104120758D01*
X144599720Y-104203813D01*
X144772846Y-104223735D01*
X144955411Y-104178572D01*
X144988639Y-104162733D01*
X145092044Y-104089725D01*
X145144968Y-103990639D01*
X145160917Y-103838818D01*
X145161000Y-103822500D01*
X145147591Y-103664923D01*
X145098362Y-103562363D01*
X144999810Y-103488166D01*
X144988639Y-103482268D01*
X144802530Y-103424391D01*
X144623000Y-103437992D01*
X144471764Y-103521321D01*
X144468681Y-103524145D01*
X144379537Y-103659484D01*
X144349530Y-103825516D01*
X143901787Y-103825516D01*
X143903962Y-103715056D01*
X143909593Y-103695500D01*
X143930278Y-103625280D01*
X143951871Y-103535683D01*
X143995270Y-103436148D01*
X144076830Y-103313840D01*
X144129615Y-103250175D01*
X144230779Y-103152307D01*
X144342946Y-103077995D01*
X144479005Y-103024244D01*
X144651845Y-102988059D01*
X144802530Y-102973422D01*
X144874355Y-102966445D01*
X145159424Y-102956408D01*
X145401517Y-102954667D01*
X145660624Y-102955428D01*
G36*
X145660624Y-102955428D02*
G01*
X145848714Y-102958704D01*
X145979431Y-102965986D01*
X146066418Y-102978761D01*
X146123319Y-102998521D01*
X146163779Y-103026755D01*
X146177000Y-103039334D01*
X146239793Y-103123144D01*
X146261666Y-103187500D01*
X146223419Y-103299579D01*
X146111163Y-103376182D01*
X145928629Y-103415372D01*
X145812637Y-103420334D01*
X145662836Y-103423139D01*
X145581854Y-103434333D01*
X145553952Y-103458082D01*
X145558729Y-103487534D01*
X145611960Y-103730214D01*
X145597773Y-103980888D01*
X145520076Y-104213378D01*
X145429728Y-104351598D01*
X145243592Y-104515571D01*
X145024179Y-104618291D01*
X144788139Y-104660481D01*
X144552122Y-104642863D01*
X144332779Y-104566160D01*
X144146761Y-104431093D01*
X144038739Y-104291257D01*
X143975725Y-104152350D01*
X143927788Y-103989400D01*
X143901633Y-103833328D01*
X143901787Y-103825516D01*
X144349530Y-103825516D01*
X144379072Y-103991947D01*
X144460576Y-104120758D01*
X144599720Y-104203813D01*
X144772846Y-104223735D01*
X144955411Y-104178572D01*
X144988639Y-104162733D01*
X145092044Y-104089725D01*
X145144968Y-103990639D01*
X145160917Y-103838818D01*
X145161000Y-103822500D01*
X145147591Y-103664923D01*
X145098362Y-103562363D01*
X144999810Y-103488166D01*
X144988639Y-103482268D01*
X144802530Y-103424391D01*
X144623000Y-103437992D01*
X144471764Y-103521321D01*
X144468681Y-103524145D01*
X144379537Y-103659484D01*
X144349530Y-103825516D01*
X143901787Y-103825516D01*
X143903962Y-103715056D01*
X143909593Y-103695500D01*
X143930278Y-103625280D01*
X143951871Y-103535683D01*
X143995270Y-103436148D01*
X144076830Y-103313840D01*
X144129615Y-103250175D01*
X144230779Y-103152307D01*
X144342946Y-103077995D01*
X144479005Y-103024244D01*
X144651845Y-102988059D01*
X144802530Y-102973422D01*
X144874355Y-102966445D01*
X145159424Y-102956408D01*
X145401517Y-102954667D01*
X145660624Y-102955428D01*
G37*
X144549175Y-96737827D02*
X144604669Y-96739130D01*
X144841034Y-96745913D01*
X145009518Y-96754921D01*
X145126905Y-96768790D01*
X145209978Y-96790151D01*
X145275522Y-96821639D01*
X145320389Y-96851421D01*
X145432806Y-96953612D01*
X145523363Y-97071929D01*
X145530281Y-97084254D01*
X145581906Y-97243985D01*
X145601616Y-97445488D01*
X145589492Y-97652144D01*
X145545615Y-97827338D01*
X145528555Y-97864084D01*
X145482909Y-97961854D01*
X145480716Y-98033825D01*
X145521976Y-98126865D01*
X145528555Y-98139250D01*
X145580889Y-98299863D01*
X145601492Y-98501708D01*
X145590282Y-98708166D01*
X145547179Y-98882622D01*
X145530281Y-98919079D01*
X145445234Y-99035935D01*
X145332962Y-99142617D01*
X145320389Y-99151913D01*
X145257208Y-99192091D01*
X145188376Y-99220314D01*
X145097141Y-99239205D01*
X144966753Y-99251385D01*
X144780462Y-99259480D01*
X144603121Y-99264230D01*
X144024075Y-99277960D01*
X143952669Y-99168980D01*
X143906663Y-99085028D01*
X143911898Y-99020551D01*
X143950607Y-98954167D01*
X143984546Y-98908271D01*
X144025736Y-98878019D01*
X144090965Y-98860156D01*
X144197018Y-98851426D01*
X144360682Y-98848576D01*
X144496390Y-98848334D01*
X144749048Y-98844171D01*
X144929142Y-98827906D01*
X145048527Y-98793876D01*
X145119061Y-98736415D01*
X145152599Y-98649861D01*
X145161000Y-98530834D01*
X145152147Y-98409662D01*
X145117664Y-98323430D01*
X145045664Y-98266408D01*
X144924260Y-98232871D01*
X144741564Y-98217092D01*
X144501975Y-98213334D01*
X144289557Y-98211466D01*
X144145119Y-98204275D01*
X144052024Y-98189380D01*
X143993635Y-98164400D01*
X143961061Y-98135917D01*
X143897329Y-98024000D01*
X143917638Y-97919345D01*
X143968417Y-97860061D01*
X144021239Y-97827580D01*
X144104561Y-97806519D01*
X144234583Y-97794780D01*
X144427508Y-97790263D01*
X144509330Y-97790000D01*
X144759325Y-97785596D01*
X144936859Y-97768508D01*
X145053859Y-97732926D01*
X145122251Y-97673040D01*
X145153963Y-97583038D01*
X145161000Y-97472500D01*
X145152251Y-97351680D01*
X145118094Y-97265595D01*
X145046666Y-97208564D01*
X144926102Y-97174909D01*
X144744536Y-97158948D01*
X144497814Y-97155000D01*
X144289756Y-97153852D01*
X144149612Y-97148465D01*
X144060644Y-97135928D01*
X144006108Y-97113329D01*
X143969266Y-97077756D01*
X143956900Y-97060914D01*
X143904400Y-96977926D01*
X143900383Y-96919316D01*
X143945240Y-96842475D01*
X143959085Y-96822633D01*
X143989765Y-96783818D01*
X144027720Y-96757436D01*
X144087795Y-96741565D01*
X144184834Y-96734287D01*
X144333679Y-96733680D01*
X144549175Y-96737827D01*
G36*
X144549175Y-96737827D02*
G01*
X144604669Y-96739130D01*
X144841034Y-96745913D01*
X145009518Y-96754921D01*
X145126905Y-96768790D01*
X145209978Y-96790151D01*
X145275522Y-96821639D01*
X145320389Y-96851421D01*
X145432806Y-96953612D01*
X145523363Y-97071929D01*
X145530281Y-97084254D01*
X145581906Y-97243985D01*
X145601616Y-97445488D01*
X145589492Y-97652144D01*
X145545615Y-97827338D01*
X145528555Y-97864084D01*
X145482909Y-97961854D01*
X145480716Y-98033825D01*
X145521976Y-98126865D01*
X145528555Y-98139250D01*
X145580889Y-98299863D01*
X145601492Y-98501708D01*
X145590282Y-98708166D01*
X145547179Y-98882622D01*
X145530281Y-98919079D01*
X145445234Y-99035935D01*
X145332962Y-99142617D01*
X145320389Y-99151913D01*
X145257208Y-99192091D01*
X145188376Y-99220314D01*
X145097141Y-99239205D01*
X144966753Y-99251385D01*
X144780462Y-99259480D01*
X144603121Y-99264230D01*
X144024075Y-99277960D01*
X143952669Y-99168980D01*
X143906663Y-99085028D01*
X143911898Y-99020551D01*
X143950607Y-98954167D01*
X143984546Y-98908271D01*
X144025736Y-98878019D01*
X144090965Y-98860156D01*
X144197018Y-98851426D01*
X144360682Y-98848576D01*
X144496390Y-98848334D01*
X144749048Y-98844171D01*
X144929142Y-98827906D01*
X145048527Y-98793876D01*
X145119061Y-98736415D01*
X145152599Y-98649861D01*
X145161000Y-98530834D01*
X145152147Y-98409662D01*
X145117664Y-98323430D01*
X145045664Y-98266408D01*
X144924260Y-98232871D01*
X144741564Y-98217092D01*
X144501975Y-98213334D01*
X144289557Y-98211466D01*
X144145119Y-98204275D01*
X144052024Y-98189380D01*
X143993635Y-98164400D01*
X143961061Y-98135917D01*
X143897329Y-98024000D01*
X143917638Y-97919345D01*
X143968417Y-97860061D01*
X144021239Y-97827580D01*
X144104561Y-97806519D01*
X144234583Y-97794780D01*
X144427508Y-97790263D01*
X144509330Y-97790000D01*
X144759325Y-97785596D01*
X144936859Y-97768508D01*
X145053859Y-97732926D01*
X145122251Y-97673040D01*
X145153963Y-97583038D01*
X145161000Y-97472500D01*
X145152251Y-97351680D01*
X145118094Y-97265595D01*
X145046666Y-97208564D01*
X144926102Y-97174909D01*
X144744536Y-97158948D01*
X144497814Y-97155000D01*
X144289756Y-97153852D01*
X144149612Y-97148465D01*
X144060644Y-97135928D01*
X144006108Y-97113329D01*
X143969266Y-97077756D01*
X143956900Y-97060914D01*
X143904400Y-96977926D01*
X143900383Y-96919316D01*
X143945240Y-96842475D01*
X143959085Y-96822633D01*
X143989765Y-96783818D01*
X144027720Y-96757436D01*
X144087795Y-96741565D01*
X144184834Y-96734287D01*
X144333679Y-96733680D01*
X144549175Y-96737827D01*
G37*
D10*
%TO.C,H3*%
X160715000Y-90865000D02*
X159385000Y-90865000D01*
X160715000Y-89535000D02*
X160715000Y-90865000D01*
X160715000Y-88265000D02*
X160715000Y-83125000D01*
X160715000Y-88265000D02*
X158055000Y-88265000D01*
X160715000Y-83125000D02*
X158055000Y-83125000D01*
X158055000Y-88265000D02*
X158055000Y-83125000D01*
%TO.C,J1*%
X105296000Y-97008200D02*
X104396000Y-97008200D01*
X101696000Y-97008200D02*
X98966000Y-97008200D01*
X98966000Y-97008200D02*
X98966000Y-106198200D01*
X108376000Y-97128200D02*
X108376000Y-106078200D01*
X105296000Y-106198200D02*
X104396000Y-106198200D01*
X101696000Y-106198200D02*
X98966000Y-106198200D01*
%TO.C,R18*%
X172085000Y-93115000D02*
X172085000Y-93885000D01*
X173455000Y-93885000D02*
X170715000Y-93885000D01*
X170715000Y-93885000D02*
X170715000Y-100425000D01*
X173455000Y-100425000D02*
X173455000Y-93885000D01*
X170715000Y-100425000D02*
X173455000Y-100425000D01*
X172085000Y-101195000D02*
X172085000Y-100425000D01*
%TO.C,R15*%
X164465000Y-93115000D02*
X164465000Y-93885000D01*
X165835000Y-93885000D02*
X163095000Y-93885000D01*
X163095000Y-93885000D02*
X163095000Y-100425000D01*
X165835000Y-100425000D02*
X165835000Y-93885000D01*
X163095000Y-100425000D02*
X165835000Y-100425000D01*
X164465000Y-101195000D02*
X164465000Y-100425000D01*
%TO.C,R16*%
X167005000Y-93115000D02*
X167005000Y-93885000D01*
X168375000Y-93885000D02*
X165635000Y-93885000D01*
X165635000Y-93885000D02*
X165635000Y-100425000D01*
X168375000Y-100425000D02*
X168375000Y-93885000D01*
X165635000Y-100425000D02*
X168375000Y-100425000D01*
X167005000Y-101195000D02*
X167005000Y-100425000D01*
%TO.C,R11*%
X154305000Y-93115000D02*
X154305000Y-93885000D01*
X155675000Y-93885000D02*
X152935000Y-93885000D01*
X152935000Y-93885000D02*
X152935000Y-100425000D01*
X155675000Y-100425000D02*
X155675000Y-93885000D01*
X152935000Y-100425000D02*
X155675000Y-100425000D01*
X154305000Y-101195000D02*
X154305000Y-100425000D01*
%TO.C,R17*%
X169545000Y-93115000D02*
X169545000Y-93885000D01*
X170915000Y-93885000D02*
X168175000Y-93885000D01*
X168175000Y-93885000D02*
X168175000Y-100425000D01*
X170915000Y-100425000D02*
X170915000Y-93885000D01*
X168175000Y-100425000D02*
X170915000Y-100425000D01*
X169545000Y-101195000D02*
X169545000Y-100425000D01*
%TO.C,R1*%
X113030000Y-117705000D02*
X113030000Y-116935000D01*
X111660000Y-116935000D02*
X114400000Y-116935000D01*
X114400000Y-116935000D02*
X114400000Y-110395000D01*
X111660000Y-110395000D02*
X111660000Y-116935000D01*
X114400000Y-110395000D02*
X111660000Y-110395000D01*
X113030000Y-109625000D02*
X113030000Y-110395000D01*
%TO.C,D5*%
X123535000Y-108619000D02*
X123535000Y-108775000D01*
X123535000Y-110935000D02*
X123535000Y-111091000D01*
X126767334Y-108776392D02*
G75*
G03*
X123535001Y-108619485I-1672334J-1078608D01*
G01*
X126136129Y-108775164D02*
G75*
G03*
X124054040Y-108775001I-1041129J-1079836D01*
G01*
X124054040Y-110934999D02*
G75*
G03*
X126136129Y-110934836I1040960J1079999D01*
G01*
X123535001Y-111090515D02*
G75*
G03*
X126767334Y-110933608I1559999J1235515D01*
G01*
%TO.C,R22*%
X175665000Y-92075000D02*
X176435000Y-92075000D01*
X176435000Y-90705000D02*
X176435000Y-93445000D01*
X176435000Y-93445000D02*
X182975000Y-93445000D01*
X182975000Y-90705000D02*
X176435000Y-90705000D01*
X182975000Y-93445000D02*
X182975000Y-90705000D01*
X183745000Y-92075000D02*
X182975000Y-92075000D01*
%TO.C,LS1*%
X181840000Y-93890000D02*
G75*
G03*
X178840001Y-93890000I-1500000J-6400000D01*
G01*
X186570000Y-100290000D02*
G75*
G03*
X186570000Y-100290000I-6230000J0D01*
G01*
%TO.C,U2*%
X172480000Y-106620000D02*
X172480000Y-109220000D01*
X172830000Y-106620000D02*
X172480000Y-106620000D01*
X175150000Y-106620000D02*
X175490000Y-106620000D01*
X175490000Y-106620000D02*
X175490000Y-111710000D01*
X175491736Y-111319916D02*
G75*
G03*
X175490000Y-107120001I-101738J2099916D01*
G01*
%TO.C,R21*%
X179475000Y-111125000D02*
X180245000Y-111125000D01*
X180245000Y-109755000D02*
X180245000Y-112495000D01*
X180245000Y-112495000D02*
X186785000Y-112495000D01*
X186785000Y-109755000D02*
X180245000Y-109755000D01*
X186785000Y-112495000D02*
X186785000Y-109755000D01*
X187555000Y-111125000D02*
X186785000Y-111125000D01*
%TO.C,R7*%
X154305000Y-108355000D02*
X154305000Y-109125000D01*
X155675000Y-109125000D02*
X152935000Y-109125000D01*
X152935000Y-109125000D02*
X152935000Y-115665000D01*
X155675000Y-115665000D02*
X155675000Y-109125000D01*
X152935000Y-115665000D02*
X155675000Y-115665000D01*
X154305000Y-116435000D02*
X154305000Y-115665000D01*
%TO.C,H9*%
X165990000Y-125670000D02*
X166750000Y-125670000D01*
X166750000Y-125670000D02*
X166750000Y-119670000D01*
X168530000Y-125670000D02*
X169290000Y-125670000D01*
X169290000Y-125670000D02*
X169290000Y-119670000D01*
X171070000Y-125670000D02*
X171830000Y-125670000D01*
X171830000Y-125670000D02*
X171830000Y-119670000D01*
X173610000Y-125670000D02*
X174370000Y-125670000D01*
X174370000Y-125670000D02*
X174370000Y-119670000D01*
X176150000Y-125670000D02*
X176910000Y-125670000D01*
X176910000Y-125670000D02*
X176910000Y-119670000D01*
X178690000Y-125670000D02*
X179450000Y-125670000D01*
X179450000Y-125670000D02*
X179450000Y-119670000D01*
X165040000Y-119670000D02*
X165040000Y-117010000D01*
X165990000Y-119670000D02*
X165990000Y-125670000D01*
X166050000Y-119670000D02*
X166050000Y-125670000D01*
X166170000Y-119670000D02*
X166170000Y-125670000D01*
X166290000Y-119670000D02*
X166290000Y-125670000D01*
X166410000Y-119670000D02*
X166410000Y-125670000D01*
X166530000Y-119670000D02*
X166530000Y-125670000D01*
X166650000Y-119670000D02*
X166650000Y-125670000D01*
X168530000Y-119670000D02*
X168530000Y-125670000D01*
X171070000Y-119670000D02*
X171070000Y-125670000D01*
X173610000Y-119670000D02*
X173610000Y-125670000D01*
X176150000Y-119670000D02*
X176150000Y-125670000D01*
X178690000Y-119670000D02*
X178690000Y-125670000D01*
X180400000Y-119670000D02*
X165040000Y-119670000D01*
X165040000Y-117010000D02*
X180400000Y-117010000D01*
X167640000Y-117010000D02*
X167640000Y-119670000D01*
X170180000Y-117010000D02*
X170180000Y-119670000D01*
X172720000Y-117010000D02*
X172720000Y-119670000D01*
X175260000Y-117010000D02*
X175260000Y-119670000D01*
X177800000Y-117010000D02*
X177800000Y-119670000D01*
X180400000Y-117010000D02*
X180400000Y-119670000D01*
X165990000Y-116680000D02*
X165990000Y-117010000D01*
X166750000Y-116680000D02*
X166750000Y-117010000D01*
X168530000Y-116612929D02*
X168530000Y-117010000D01*
X169290000Y-116612929D02*
X169290000Y-117010000D01*
X171070000Y-116612929D02*
X171070000Y-117010000D01*
X171830000Y-116612929D02*
X171830000Y-117010000D01*
X173610000Y-116612929D02*
X173610000Y-117010000D01*
X174370000Y-116612929D02*
X174370000Y-117010000D01*
X176150000Y-116612929D02*
X176150000Y-117010000D01*
X176910000Y-116612929D02*
X176910000Y-117010000D01*
X178690000Y-116612929D02*
X178690000Y-117010000D01*
X179450000Y-116612929D02*
X179450000Y-117010000D01*
X165100000Y-114300000D02*
X165100000Y-115570000D01*
X166370000Y-114300000D02*
X165100000Y-114300000D01*
%TO.C,D6*%
X189170000Y-104160000D02*
X195330000Y-104160000D01*
X189170000Y-104160000D02*
X189170000Y-99040000D01*
X189040000Y-102870000D02*
X189040000Y-102870000D01*
X189040000Y-102870000D02*
X189170000Y-102870000D01*
X189170000Y-102870000D02*
X189040000Y-102870000D01*
X189170000Y-102870000D02*
X189170000Y-102870000D01*
X189040000Y-100330000D02*
X189040000Y-100330000D01*
X189040000Y-100330000D02*
X189170000Y-100330000D01*
X189170000Y-100330000D02*
X189040000Y-100330000D01*
X189170000Y-100330000D02*
X189170000Y-100330000D01*
X189170000Y-99040000D02*
X195330000Y-99040000D01*
X189170000Y-99040000D02*
X189170000Y-98640000D01*
X190290000Y-99040000D02*
X189170000Y-99040000D01*
X189170000Y-98640000D02*
X190290000Y-98640000D01*
X190290000Y-98640000D02*
X190290000Y-99040000D01*
X195330000Y-104160000D02*
G75*
G03*
X195330000Y-99040000I0J2560000D01*
G01*
%TO.C,H1*%
X155635000Y-90865000D02*
X154305000Y-90865000D01*
X155635000Y-89535000D02*
X155635000Y-90865000D01*
X155635000Y-88265000D02*
X155635000Y-83125000D01*
X155635000Y-88265000D02*
X152975000Y-88265000D01*
X155635000Y-83125000D02*
X152975000Y-83125000D01*
X152975000Y-88265000D02*
X152975000Y-83125000D01*
%TO.C,C5*%
X172615000Y-105945000D02*
X172615000Y-105700000D01*
X172615000Y-105945000D02*
X168975000Y-105945000D01*
X172615000Y-103850000D02*
X172615000Y-103605000D01*
X172615000Y-103605000D02*
X168975000Y-103605000D01*
X168975000Y-105945000D02*
X168975000Y-105700000D01*
X168975000Y-103850000D02*
X168975000Y-103605000D01*
%TO.C,R3*%
X135255000Y-93575000D02*
X135255000Y-92805000D01*
X133885000Y-92805000D02*
X136625000Y-92805000D01*
X136625000Y-92805000D02*
X136625000Y-86265000D01*
X133885000Y-86265000D02*
X133885000Y-92805000D01*
X136625000Y-86265000D02*
X133885000Y-86265000D01*
X135255000Y-85495000D02*
X135255000Y-86265000D01*
%TO.C,D2*%
X123535000Y-92109000D02*
X123535000Y-92265000D01*
X123535000Y-94425000D02*
X123535000Y-94581000D01*
X126767334Y-92266392D02*
G75*
G03*
X123535001Y-92109485I-1672334J-1078608D01*
G01*
X126136129Y-92265164D02*
G75*
G03*
X124054040Y-92265001I-1041129J-1079836D01*
G01*
X124054040Y-94424999D02*
G75*
G03*
X126136129Y-94424836I1040960J1079999D01*
G01*
X123535001Y-94580515D02*
G75*
G03*
X126767334Y-94423608I1559999J1235515D01*
G01*
%TO.C,SW2*%
X126130000Y-87455000D02*
X126130000Y-85955000D01*
X124880000Y-83455000D02*
X120380000Y-83455000D01*
X120380000Y-89955000D02*
X124880000Y-89955000D01*
X119130000Y-85955000D02*
X119130000Y-87455000D01*
%TO.C,SW1*%
X113435000Y-98175000D02*
X111935000Y-98175000D01*
X109435000Y-99425000D02*
X109435000Y-103925000D01*
X115935000Y-103925000D02*
X115935000Y-99425000D01*
X111935000Y-105175000D02*
X113435000Y-105175000D01*
%TO.C,BT1*%
X114995000Y-83125000D02*
X114995000Y-84455000D01*
X113665000Y-83125000D02*
X114995000Y-83125000D01*
X112395000Y-83125000D02*
X109795000Y-83125000D01*
X112395000Y-83125000D02*
X112395000Y-85785000D01*
X109795000Y-83125000D02*
X109795000Y-85785000D01*
X112395000Y-85785000D02*
X109795000Y-85785000D01*
%TO.C,R23*%
X130175000Y-85495000D02*
X130175000Y-86265000D01*
X131545000Y-86265000D02*
X128805000Y-86265000D01*
X128805000Y-86265000D02*
X128805000Y-92805000D01*
X131545000Y-92805000D02*
X131545000Y-86265000D01*
X128805000Y-92805000D02*
X131545000Y-92805000D01*
X130175000Y-93575000D02*
X130175000Y-92805000D01*
%TO.C,R24*%
X132715000Y-85495000D02*
X132715000Y-86265000D01*
X134085000Y-86265000D02*
X131345000Y-86265000D01*
X131345000Y-86265000D02*
X131345000Y-92805000D01*
X134085000Y-92805000D02*
X134085000Y-86265000D01*
X131345000Y-92805000D02*
X134085000Y-92805000D01*
X132715000Y-93575000D02*
X132715000Y-92805000D01*
%TD*%
%LPC*%
D16*
%TO.C,Q1*%
X187960000Y-93980000D03*
D17*
X187960000Y-96520000D03*
%TD*%
D18*
%TO.C,C1*%
X113665000Y-88900000D03*
D19*
X111165000Y-88900000D03*
%TD*%
%TO.C,C4*%
X104775000Y-111105000D03*
X104775000Y-108605000D03*
%TD*%
D16*
%TO.C,D1*%
X107945000Y-109855000D03*
D20*
X110485000Y-109855000D03*
%TD*%
D16*
%TO.C,D4*%
X142240000Y-109855000D03*
D20*
X144780000Y-109855000D03*
%TD*%
D21*
%TO.C,FB1*%
X116840000Y-93980000D03*
D22*
X104140000Y-93980000D03*
%TD*%
D23*
%TO.C,MH1*%
X105410000Y-86360000D03*
%TD*%
D19*
%TO.C,R6*%
X135255000Y-108585000D03*
D24*
X135255000Y-118745000D03*
%TD*%
D19*
%TO.C,R20*%
X132715000Y-118745000D03*
D24*
X132715000Y-108585000D03*
%TD*%
D25*
%TO.C,SW4*%
X142875000Y-114245000D03*
X149375000Y-114245000D03*
X142875000Y-118745000D03*
X149375000Y-118745000D03*
%TD*%
D19*
%TO.C,C2*%
X118765000Y-107950000D03*
X121265000Y-107950000D03*
%TD*%
%TO.C,C3*%
X121900000Y-95250000D03*
X119400000Y-95250000D03*
%TD*%
D16*
%TO.C,D3*%
X142240000Y-93345000D03*
D20*
X144780000Y-93345000D03*
%TD*%
D25*
%TO.C,SW3*%
X149375000Y-88955000D03*
X142875000Y-88955000D03*
X149375000Y-84455000D03*
X142875000Y-84455000D03*
%TD*%
D19*
%TO.C,R5*%
X137795000Y-108585000D03*
D24*
X137795000Y-118745000D03*
%TD*%
D23*
%TO.C,MH4*%
X105410000Y-116840000D03*
%TD*%
D25*
%TO.C,SW5*%
X119380000Y-114245000D03*
X125880000Y-114245000D03*
X119380000Y-118745000D03*
X125880000Y-118745000D03*
%TD*%
D19*
%TO.C,R19*%
X130175000Y-118745000D03*
D24*
X130175000Y-108585000D03*
%TD*%
D19*
%TO.C,R2*%
X115570000Y-108585000D03*
D24*
X115570000Y-118745000D03*
%TD*%
D26*
%TO.C,U1*%
X118745000Y-105410000D03*
D24*
X121285000Y-105410000D03*
X123825000Y-105410000D03*
X126365000Y-105410000D03*
X128905000Y-105410000D03*
X131445000Y-105410000D03*
X133985000Y-105410000D03*
X136525000Y-105410000D03*
X139065000Y-105410000D03*
X141605000Y-105410000D03*
X141605000Y-97790000D03*
X139065000Y-97790000D03*
X136525000Y-97790000D03*
X133985000Y-97790000D03*
X131445000Y-97790000D03*
X128905000Y-97790000D03*
X126365000Y-97790000D03*
X123825000Y-97790000D03*
X121285000Y-97790000D03*
X118745000Y-97790000D03*
%TD*%
D19*
%TO.C,R13*%
X159385000Y-92075000D03*
D24*
X159385000Y-102235000D03*
%TD*%
D19*
%TO.C,R9*%
X159385000Y-107315000D03*
D24*
X159385000Y-117475000D03*
%TD*%
D19*
%TO.C,R8*%
X156845000Y-107315000D03*
D24*
X156845000Y-117475000D03*
%TD*%
D19*
%TO.C,R14*%
X161925000Y-92075000D03*
D24*
X161925000Y-102235000D03*
%TD*%
D19*
%TO.C,R10*%
X161925000Y-107315000D03*
D24*
X161925000Y-117475000D03*
%TD*%
D19*
%TO.C,R12*%
X156845000Y-92075000D03*
D24*
X156845000Y-102235000D03*
%TD*%
D26*
%TO.C,C6*%
X177800000Y-87630000D03*
D19*
X177800000Y-85130000D03*
%TD*%
D27*
%TO.C,H2*%
X156845000Y-89535000D03*
D28*
X156845000Y-86995000D03*
X156845000Y-84455000D03*
%TD*%
D27*
%TO.C,H4*%
X161925000Y-89535000D03*
D28*
X161925000Y-86995000D03*
X161925000Y-84455000D03*
%TD*%
D27*
%TO.C,H5*%
X164465000Y-89535000D03*
D28*
X164465000Y-86995000D03*
X164465000Y-84455000D03*
%TD*%
D27*
%TO.C,H6*%
X167005000Y-89535000D03*
D28*
X167005000Y-86995000D03*
X167005000Y-84455000D03*
%TD*%
D27*
%TO.C,H7*%
X169545000Y-89535000D03*
D28*
X169545000Y-86995000D03*
X169545000Y-84455000D03*
%TD*%
D27*
%TO.C,H8*%
X172085000Y-89535000D03*
D28*
X172085000Y-86995000D03*
X172085000Y-84455000D03*
%TD*%
D29*
%TO.C,Q2*%
X185420000Y-107315000D03*
D30*
X186690000Y-106045000D03*
X187960000Y-107315000D03*
%TD*%
D23*
%TO.C,MH2*%
X186690000Y-86360000D03*
%TD*%
D19*
%TO.C,R4*%
X137795000Y-94615000D03*
D24*
X137795000Y-84455000D03*
%TD*%
D27*
%TO.C,H3*%
X159385000Y-89535000D03*
D28*
X159385000Y-86995000D03*
X159385000Y-84455000D03*
%TD*%
D31*
%TO.C,J1*%
X107696000Y-98628200D03*
X107696000Y-99478200D03*
X107696000Y-100328200D03*
X107696000Y-101178200D03*
X107696000Y-102028200D03*
X107696000Y-102878200D03*
X107696000Y-103728200D03*
X107696000Y-104578200D03*
X106346000Y-104578200D03*
X106346000Y-103728200D03*
X106346000Y-102878200D03*
X106346000Y-102028200D03*
X106346000Y-101178200D03*
X106346000Y-100328200D03*
X106346000Y-99478200D03*
X106346000Y-98628200D03*
D32*
X106716000Y-97278200D03*
D33*
X103336000Y-97278200D03*
D32*
X106716000Y-105928200D03*
D33*
X103336000Y-105928200D03*
%TD*%
D23*
%TO.C,MH3*%
X186690000Y-116840000D03*
%TD*%
D19*
%TO.C,R18*%
X172085000Y-92075000D03*
D24*
X172085000Y-102235000D03*
%TD*%
D19*
%TO.C,R15*%
X164465000Y-92075000D03*
D24*
X164465000Y-102235000D03*
%TD*%
D19*
%TO.C,R16*%
X167005000Y-92075000D03*
D24*
X167005000Y-102235000D03*
%TD*%
D19*
%TO.C,R11*%
X154305000Y-92075000D03*
D24*
X154305000Y-102235000D03*
%TD*%
D19*
%TO.C,R17*%
X169545000Y-92075000D03*
D24*
X169545000Y-102235000D03*
%TD*%
D19*
%TO.C,R1*%
X113030000Y-118745000D03*
D24*
X113030000Y-108585000D03*
%TD*%
D16*
%TO.C,D5*%
X123825000Y-109855000D03*
D20*
X126365000Y-109855000D03*
%TD*%
D19*
%TO.C,R22*%
X174625000Y-92075000D03*
D24*
X184785000Y-92075000D03*
%TD*%
D34*
%TO.C,LS1*%
X180340000Y-97790000D03*
D25*
X180340000Y-102790000D03*
%TD*%
D35*
%TO.C,U2*%
X173990000Y-111760000D03*
D16*
X173990000Y-109220000D03*
X173990000Y-106680000D03*
%TD*%
D19*
%TO.C,R21*%
X178435000Y-111125000D03*
D24*
X188595000Y-111125000D03*
%TD*%
D19*
%TO.C,R7*%
X154305000Y-107315000D03*
D24*
X154305000Y-117475000D03*
%TD*%
D36*
%TO.C,H9*%
X166370000Y-115570000D03*
D28*
X168910000Y-115570000D03*
X171450000Y-115570000D03*
X173990000Y-115570000D03*
X176530000Y-115570000D03*
X179070000Y-115570000D03*
%TD*%
D16*
%TO.C,D6*%
X187960000Y-102870000D03*
D37*
X187960000Y-100330000D03*
%TD*%
D27*
%TO.C,H1*%
X154305000Y-89535000D03*
D28*
X154305000Y-86995000D03*
X154305000Y-84455000D03*
%TD*%
D19*
%TO.C,C5*%
X172045000Y-104775000D03*
X169545000Y-104775000D03*
%TD*%
%TO.C,R3*%
X135255000Y-94615000D03*
D24*
X135255000Y-84455000D03*
%TD*%
D16*
%TO.C,D2*%
X123825000Y-93345000D03*
D20*
X126365000Y-93345000D03*
%TD*%
D25*
%TO.C,SW2*%
X125880000Y-88955000D03*
X119380000Y-88955000D03*
X125880000Y-84455000D03*
X119380000Y-84455000D03*
%TD*%
%TO.C,SW1*%
X114935000Y-98425000D03*
X114935000Y-104925000D03*
X110435000Y-98425000D03*
X110435000Y-104925000D03*
%TD*%
D38*
%TO.C,BT1*%
X113665000Y-84455000D03*
D28*
X111125000Y-84455000D03*
%TD*%
D19*
%TO.C,R23*%
X130175000Y-84455000D03*
D24*
X130175000Y-94615000D03*
%TD*%
D19*
%TO.C,R24*%
X132715000Y-84455000D03*
D24*
X132715000Y-94615000D03*
%TD*%
%LPD*%
M02*
