%TF.GenerationSoftware,KiCad,Pcbnew,7.0.2-0*%
%TF.CreationDate,2023-04-26T13:01:35-04:00*%
%TF.ProjectId,UBMP430,55424d50-3433-4302-9e6b-696361645f70,3*%
%TF.SameCoordinates,Original*%
%TF.FileFunction,Legend,Bot*%
%TF.FilePolarity,Positive*%
%FSLAX46Y46*%
G04 Gerber Fmt 4.6, Leading zero omitted, Abs format (unit mm)*
G04 Created by KiCad (PCBNEW 7.0.2-0) date 2023-04-26 13:01:35*
%MOMM*%
%LPD*%
G01*
G04 APERTURE LIST*
G04 Aperture macros list*
%AMRoundRect*
0 Rectangle with rounded corners*
0 $1 Rounding radius*
0 $2 $3 $4 $5 $6 $7 $8 $9 X,Y pos of 4 corners*
0 Add a 4 corners polygon primitive as box body*
4,1,4,$2,$3,$4,$5,$6,$7,$8,$9,$2,$3,0*
0 Add four circle primitives for the rounded corners*
1,1,$1+$1,$2,$3*
1,1,$1+$1,$4,$5*
1,1,$1+$1,$6,$7*
1,1,$1+$1,$8,$9*
0 Add four rect primitives between the rounded corners*
20,1,$1+$1,$2,$3,$4,$5,0*
20,1,$1+$1,$4,$5,$6,$7,0*
20,1,$1+$1,$6,$7,$8,$9,0*
20,1,$1+$1,$8,$9,$2,$3,0*%
G04 Aperture macros list end*
%ADD10C,0.152400*%
%ADD11C,0.150000*%
%ADD12C,0.010000*%
%ADD13C,1.901600*%
%ADD14RoundRect,0.050800X-0.900000X0.900000X-0.900000X-0.900000X0.900000X-0.900000X0.900000X0.900000X0*%
%ADD15RoundRect,0.050800X0.800000X0.800000X-0.800000X0.800000X-0.800000X-0.800000X0.800000X-0.800000X0*%
%ADD16C,1.701600*%
%ADD17RoundRect,0.050800X-0.900000X-0.900000X0.900000X-0.900000X0.900000X0.900000X-0.900000X0.900000X0*%
%ADD18C,2.501600*%
%ADD19O,2.501600X2.501600*%
%ADD20C,6.501600*%
%ADD21O,1.701600X1.701600*%
%ADD22C,2.101600*%
%ADD23RoundRect,0.050800X0.800000X-0.800000X0.800000X0.800000X-0.800000X0.800000X-0.800000X-0.800000X0*%
%ADD24RoundRect,0.050800X0.850000X0.850000X-0.850000X0.850000X-0.850000X-0.850000X0.850000X-0.850000X0*%
%ADD25O,1.801600X1.801600*%
%ADD26RoundRect,0.050800X-0.650000X-0.650000X0.650000X-0.650000X0.650000X0.650000X-0.650000X0.650000X0*%
%ADD27C,1.401600*%
%ADD28C,0.801600*%
%ADD29O,2.501600X1.001600*%
%ADD30O,1.801600X1.001600*%
%ADD31RoundRect,0.050800X-1.000000X1.000000X-1.000000X-1.000000X1.000000X-1.000000X1.000000X1.000000X0*%
%ADD32RoundRect,0.301000X0.649800X-0.649800X0.649800X0.649800X-0.649800X0.649800X-0.649800X-0.649800X0*%
%ADD33RoundRect,0.050800X0.850000X-0.850000X0.850000X0.850000X-0.850000X0.850000X-0.850000X-0.850000X0*%
%ADD34RoundRect,0.050800X0.900000X-0.900000X0.900000X0.900000X-0.900000X0.900000X-0.900000X-0.900000X0*%
%ADD35RoundRect,0.050800X-0.850000X0.850000X-0.850000X-0.850000X0.850000X-0.850000X0.850000X0.850000X0*%
G04 APERTURE END LIST*
D10*
X151384000Y-90424000D02*
X151384000Y-91059000D01*
D11*
X113030000Y-86995000D02*
X114300000Y-86995000D01*
X175895000Y-113030000D02*
X174625000Y-114300000D01*
D10*
X110744000Y-86614000D02*
X110744000Y-87376000D01*
D11*
X185674000Y-100203000D02*
X185674000Y-102997000D01*
X110363000Y-86868000D02*
X110363000Y-87122000D01*
D10*
X151384000Y-88392000D02*
X151384000Y-89662000D01*
D11*
X114046000Y-115443000D02*
X114046000Y-111633000D01*
X185928000Y-94361000D02*
X185928000Y-96139000D01*
D10*
X151765000Y-86360000D02*
X151765000Y-87630000D01*
D11*
X184912000Y-102235000D02*
X186436000Y-102235000D01*
D10*
X151384000Y-84074000D02*
X151384000Y-84836000D01*
D11*
X151003000Y-84328000D02*
X151003000Y-84582000D01*
X185166000Y-96139000D02*
X185166000Y-96647000D01*
X179705000Y-113030000D02*
X177419000Y-114300000D01*
X185674000Y-102235000D02*
X184912000Y-100965000D01*
X186436000Y-100965000D01*
X185674000Y-102235000D01*
G36*
X185674000Y-102235000D02*
G01*
X184912000Y-100965000D01*
X186436000Y-100965000D01*
X185674000Y-102235000D01*
G37*
D10*
X151765000Y-84455000D02*
X152400000Y-84455000D01*
D11*
X113665000Y-86360000D02*
X113665000Y-87630000D01*
X185674000Y-96139000D02*
X185166000Y-96139000D01*
X185420000Y-95631000D01*
X185674000Y-96139000D01*
G36*
X185674000Y-96139000D02*
G01*
X185166000Y-96139000D01*
X185420000Y-95631000D01*
X185674000Y-96139000D01*
G37*
D10*
X152654000Y-89725500D02*
X152654000Y-90360500D01*
X111125000Y-86995000D02*
X111760000Y-86995000D01*
D11*
X185166000Y-93853000D02*
X185166000Y-94361000D01*
X185928000Y-95631000D02*
X185166000Y-96139000D01*
D10*
X111125000Y-86360000D02*
X111125000Y-87630000D01*
D11*
X185166000Y-94361000D02*
X185928000Y-94869000D01*
D10*
X152400000Y-86995000D02*
X151130000Y-86995000D01*
X152654000Y-89662000D02*
X151384000Y-89662000D01*
X151384000Y-90424000D02*
X152654000Y-90424000D01*
X151765000Y-83820000D02*
X151765000Y-85090000D01*
D11*
X129662380Y-116284476D02*
X130138571Y-116617809D01*
X129662380Y-116855904D02*
X130662380Y-116855904D01*
X130662380Y-116855904D02*
X130662380Y-116474952D01*
X130662380Y-116474952D02*
X130614761Y-116379714D01*
X130614761Y-116379714D02*
X130567142Y-116332095D01*
X130567142Y-116332095D02*
X130471904Y-116284476D01*
X130471904Y-116284476D02*
X130329047Y-116284476D01*
X130329047Y-116284476D02*
X130233809Y-116332095D01*
X130233809Y-116332095D02*
X130186190Y-116379714D01*
X130186190Y-116379714D02*
X130138571Y-116474952D01*
X130138571Y-116474952D02*
X130138571Y-116855904D01*
X129948095Y-115903523D02*
X129948095Y-115427333D01*
X129662380Y-115998761D02*
X130662380Y-115665428D01*
X130662380Y-115665428D02*
X129662380Y-115332095D01*
X130329047Y-114570190D02*
X129662380Y-114570190D01*
X130710000Y-114808285D02*
X129995714Y-115046380D01*
X129995714Y-115046380D02*
X129995714Y-114427333D01*
X130710000Y-113332095D02*
X129424285Y-114189237D01*
X129948095Y-113046380D02*
X129948095Y-112570190D01*
X129662380Y-113141618D02*
X130662380Y-112808285D01*
X130662380Y-112808285D02*
X129662380Y-112474952D01*
X129662380Y-112141618D02*
X130662380Y-112141618D01*
X130662380Y-112141618D02*
X129662380Y-111570190D01*
X129662380Y-111570190D02*
X130662380Y-111570190D01*
X130662380Y-111189237D02*
X130662380Y-110570190D01*
X130662380Y-110570190D02*
X130281428Y-110903523D01*
X130281428Y-110903523D02*
X130281428Y-110760666D01*
X130281428Y-110760666D02*
X130233809Y-110665428D01*
X130233809Y-110665428D02*
X130186190Y-110617809D01*
X130186190Y-110617809D02*
X130090952Y-110570190D01*
X130090952Y-110570190D02*
X129852857Y-110570190D01*
X129852857Y-110570190D02*
X129757619Y-110617809D01*
X129757619Y-110617809D02*
X129710000Y-110665428D01*
X129710000Y-110665428D02*
X129662380Y-110760666D01*
X129662380Y-110760666D02*
X129662380Y-111046380D01*
X129662380Y-111046380D02*
X129710000Y-111141618D01*
X129710000Y-111141618D02*
X129757619Y-111189237D01*
X166857380Y-114077761D02*
X165857380Y-113744428D01*
X165857380Y-113744428D02*
X166857380Y-113411095D01*
X166524047Y-113077761D02*
X165524047Y-113077761D01*
X166476428Y-113077761D02*
X166524047Y-112982523D01*
X166524047Y-112982523D02*
X166524047Y-112792047D01*
X166524047Y-112792047D02*
X166476428Y-112696809D01*
X166476428Y-112696809D02*
X166428809Y-112649190D01*
X166428809Y-112649190D02*
X166333571Y-112601571D01*
X166333571Y-112601571D02*
X166047857Y-112601571D01*
X166047857Y-112601571D02*
X165952619Y-112649190D01*
X165952619Y-112649190D02*
X165905000Y-112696809D01*
X165905000Y-112696809D02*
X165857380Y-112792047D01*
X165857380Y-112792047D02*
X165857380Y-112982523D01*
X165857380Y-112982523D02*
X165905000Y-113077761D01*
X166524047Y-112172999D02*
X165524047Y-112172999D01*
X166476428Y-112172999D02*
X166524047Y-112077761D01*
X166524047Y-112077761D02*
X166524047Y-111887285D01*
X166524047Y-111887285D02*
X166476428Y-111792047D01*
X166476428Y-111792047D02*
X166428809Y-111744428D01*
X166428809Y-111744428D02*
X166333571Y-111696809D01*
X166333571Y-111696809D02*
X166047857Y-111696809D01*
X166047857Y-111696809D02*
X165952619Y-111744428D01*
X165952619Y-111744428D02*
X165905000Y-111792047D01*
X165905000Y-111792047D02*
X165857380Y-111887285D01*
X165857380Y-111887285D02*
X165857380Y-112077761D01*
X165857380Y-112077761D02*
X165905000Y-112172999D01*
X145585000Y-117919523D02*
X145537380Y-117776666D01*
X145537380Y-117776666D02*
X145537380Y-117538571D01*
X145537380Y-117538571D02*
X145585000Y-117443333D01*
X145585000Y-117443333D02*
X145632619Y-117395714D01*
X145632619Y-117395714D02*
X145727857Y-117348095D01*
X145727857Y-117348095D02*
X145823095Y-117348095D01*
X145823095Y-117348095D02*
X145918333Y-117395714D01*
X145918333Y-117395714D02*
X145965952Y-117443333D01*
X145965952Y-117443333D02*
X146013571Y-117538571D01*
X146013571Y-117538571D02*
X146061190Y-117729047D01*
X146061190Y-117729047D02*
X146108809Y-117824285D01*
X146108809Y-117824285D02*
X146156428Y-117871904D01*
X146156428Y-117871904D02*
X146251666Y-117919523D01*
X146251666Y-117919523D02*
X146346904Y-117919523D01*
X146346904Y-117919523D02*
X146442142Y-117871904D01*
X146442142Y-117871904D02*
X146489761Y-117824285D01*
X146489761Y-117824285D02*
X146537380Y-117729047D01*
X146537380Y-117729047D02*
X146537380Y-117490952D01*
X146537380Y-117490952D02*
X146489761Y-117348095D01*
X146537380Y-117014761D02*
X145537380Y-116776666D01*
X145537380Y-116776666D02*
X146251666Y-116586190D01*
X146251666Y-116586190D02*
X145537380Y-116395714D01*
X145537380Y-116395714D02*
X146537380Y-116157619D01*
X146204047Y-115348095D02*
X145537380Y-115348095D01*
X146585000Y-115586190D02*
X145870714Y-115824285D01*
X145870714Y-115824285D02*
X145870714Y-115205238D01*
X133393000Y-89344523D02*
X133345380Y-89201666D01*
X133345380Y-89201666D02*
X133345380Y-88963571D01*
X133345380Y-88963571D02*
X133393000Y-88868333D01*
X133393000Y-88868333D02*
X133440619Y-88820714D01*
X133440619Y-88820714D02*
X133535857Y-88773095D01*
X133535857Y-88773095D02*
X133631095Y-88773095D01*
X133631095Y-88773095D02*
X133726333Y-88820714D01*
X133726333Y-88820714D02*
X133773952Y-88868333D01*
X133773952Y-88868333D02*
X133821571Y-88963571D01*
X133821571Y-88963571D02*
X133869190Y-89154047D01*
X133869190Y-89154047D02*
X133916809Y-89249285D01*
X133916809Y-89249285D02*
X133964428Y-89296904D01*
X133964428Y-89296904D02*
X134059666Y-89344523D01*
X134059666Y-89344523D02*
X134154904Y-89344523D01*
X134154904Y-89344523D02*
X134250142Y-89296904D01*
X134250142Y-89296904D02*
X134297761Y-89249285D01*
X134297761Y-89249285D02*
X134345380Y-89154047D01*
X134345380Y-89154047D02*
X134345380Y-88915952D01*
X134345380Y-88915952D02*
X134297761Y-88773095D01*
X133345380Y-88344523D02*
X134345380Y-88344523D01*
X134345380Y-88344523D02*
X134345380Y-88106428D01*
X134345380Y-88106428D02*
X134297761Y-87963571D01*
X134297761Y-87963571D02*
X134202523Y-87868333D01*
X134202523Y-87868333D02*
X134107285Y-87820714D01*
X134107285Y-87820714D02*
X133916809Y-87773095D01*
X133916809Y-87773095D02*
X133773952Y-87773095D01*
X133773952Y-87773095D02*
X133583476Y-87820714D01*
X133583476Y-87820714D02*
X133488238Y-87868333D01*
X133488238Y-87868333D02*
X133393000Y-87963571D01*
X133393000Y-87963571D02*
X133345380Y-88106428D01*
X133345380Y-88106428D02*
X133345380Y-88344523D01*
X133631095Y-87392142D02*
X133631095Y-86915952D01*
X133345380Y-87487380D02*
X134345380Y-87154047D01*
X134345380Y-87154047D02*
X133345380Y-86820714D01*
X137332380Y-92630238D02*
X137808571Y-92963571D01*
X137332380Y-93201666D02*
X138332380Y-93201666D01*
X138332380Y-93201666D02*
X138332380Y-92820714D01*
X138332380Y-92820714D02*
X138284761Y-92725476D01*
X138284761Y-92725476D02*
X138237142Y-92677857D01*
X138237142Y-92677857D02*
X138141904Y-92630238D01*
X138141904Y-92630238D02*
X137999047Y-92630238D01*
X137999047Y-92630238D02*
X137903809Y-92677857D01*
X137903809Y-92677857D02*
X137856190Y-92725476D01*
X137856190Y-92725476D02*
X137808571Y-92820714D01*
X137808571Y-92820714D02*
X137808571Y-93201666D01*
X137856190Y-91868333D02*
X137808571Y-91725476D01*
X137808571Y-91725476D02*
X137760952Y-91677857D01*
X137760952Y-91677857D02*
X137665714Y-91630238D01*
X137665714Y-91630238D02*
X137522857Y-91630238D01*
X137522857Y-91630238D02*
X137427619Y-91677857D01*
X137427619Y-91677857D02*
X137380000Y-91725476D01*
X137380000Y-91725476D02*
X137332380Y-91820714D01*
X137332380Y-91820714D02*
X137332380Y-92201666D01*
X137332380Y-92201666D02*
X138332380Y-92201666D01*
X138332380Y-92201666D02*
X138332380Y-91868333D01*
X138332380Y-91868333D02*
X138284761Y-91773095D01*
X138284761Y-91773095D02*
X138237142Y-91725476D01*
X138237142Y-91725476D02*
X138141904Y-91677857D01*
X138141904Y-91677857D02*
X138046666Y-91677857D01*
X138046666Y-91677857D02*
X137951428Y-91725476D01*
X137951428Y-91725476D02*
X137903809Y-91773095D01*
X137903809Y-91773095D02*
X137856190Y-91868333D01*
X137856190Y-91868333D02*
X137856190Y-92201666D01*
X138332380Y-90725476D02*
X138332380Y-91201666D01*
X138332380Y-91201666D02*
X137856190Y-91249285D01*
X137856190Y-91249285D02*
X137903809Y-91201666D01*
X137903809Y-91201666D02*
X137951428Y-91106428D01*
X137951428Y-91106428D02*
X137951428Y-90868333D01*
X137951428Y-90868333D02*
X137903809Y-90773095D01*
X137903809Y-90773095D02*
X137856190Y-90725476D01*
X137856190Y-90725476D02*
X137760952Y-90677857D01*
X137760952Y-90677857D02*
X137522857Y-90677857D01*
X137522857Y-90677857D02*
X137427619Y-90725476D01*
X137427619Y-90725476D02*
X137380000Y-90773095D01*
X137380000Y-90773095D02*
X137332380Y-90868333D01*
X137332380Y-90868333D02*
X137332380Y-91106428D01*
X137332380Y-91106428D02*
X137380000Y-91201666D01*
X137380000Y-91201666D02*
X137427619Y-91249285D01*
X138380000Y-89535000D02*
X137094285Y-90392142D01*
X137618095Y-89249285D02*
X137618095Y-88773095D01*
X137332380Y-89344523D02*
X138332380Y-89011190D01*
X138332380Y-89011190D02*
X137332380Y-88677857D01*
X137332380Y-88344523D02*
X138332380Y-88344523D01*
X138332380Y-88344523D02*
X137332380Y-87773095D01*
X137332380Y-87773095D02*
X138332380Y-87773095D01*
X137332380Y-86773095D02*
X137332380Y-87344523D01*
X137332380Y-87058809D02*
X138332380Y-87058809D01*
X138332380Y-87058809D02*
X138189523Y-87154047D01*
X138189523Y-87154047D02*
X138094285Y-87249285D01*
X138094285Y-87249285D02*
X138046666Y-87344523D01*
X137332380Y-85820714D02*
X137332380Y-86392142D01*
X137332380Y-86106428D02*
X138332380Y-86106428D01*
X138332380Y-86106428D02*
X138189523Y-86201666D01*
X138189523Y-86201666D02*
X138094285Y-86296904D01*
X138094285Y-86296904D02*
X138046666Y-86392142D01*
X171889761Y-113538095D02*
X171937380Y-113633333D01*
X171937380Y-113633333D02*
X171937380Y-113776190D01*
X171937380Y-113776190D02*
X171889761Y-113919047D01*
X171889761Y-113919047D02*
X171794523Y-114014285D01*
X171794523Y-114014285D02*
X171699285Y-114061904D01*
X171699285Y-114061904D02*
X171508809Y-114109523D01*
X171508809Y-114109523D02*
X171365952Y-114109523D01*
X171365952Y-114109523D02*
X171175476Y-114061904D01*
X171175476Y-114061904D02*
X171080238Y-114014285D01*
X171080238Y-114014285D02*
X170985000Y-113919047D01*
X170985000Y-113919047D02*
X170937380Y-113776190D01*
X170937380Y-113776190D02*
X170937380Y-113680952D01*
X170937380Y-113680952D02*
X170985000Y-113538095D01*
X170985000Y-113538095D02*
X171032619Y-113490476D01*
X171032619Y-113490476D02*
X171365952Y-113490476D01*
X171365952Y-113490476D02*
X171365952Y-113680952D01*
X170937380Y-113061904D02*
X171937380Y-113061904D01*
X171937380Y-113061904D02*
X170937380Y-112490476D01*
X170937380Y-112490476D02*
X171937380Y-112490476D01*
X170937380Y-112014285D02*
X171937380Y-112014285D01*
X171937380Y-112014285D02*
X171937380Y-111776190D01*
X171937380Y-111776190D02*
X171889761Y-111633333D01*
X171889761Y-111633333D02*
X171794523Y-111538095D01*
X171794523Y-111538095D02*
X171699285Y-111490476D01*
X171699285Y-111490476D02*
X171508809Y-111442857D01*
X171508809Y-111442857D02*
X171365952Y-111442857D01*
X171365952Y-111442857D02*
X171175476Y-111490476D01*
X171175476Y-111490476D02*
X171080238Y-111538095D01*
X171080238Y-111538095D02*
X170985000Y-111633333D01*
X170985000Y-111633333D02*
X170937380Y-111776190D01*
X170937380Y-111776190D02*
X170937380Y-112014285D01*
X169082380Y-99774047D02*
X169558571Y-100107380D01*
X169082380Y-100345475D02*
X170082380Y-100345475D01*
X170082380Y-100345475D02*
X170082380Y-99964523D01*
X170082380Y-99964523D02*
X170034761Y-99869285D01*
X170034761Y-99869285D02*
X169987142Y-99821666D01*
X169987142Y-99821666D02*
X169891904Y-99774047D01*
X169891904Y-99774047D02*
X169749047Y-99774047D01*
X169749047Y-99774047D02*
X169653809Y-99821666D01*
X169653809Y-99821666D02*
X169606190Y-99869285D01*
X169606190Y-99869285D02*
X169558571Y-99964523D01*
X169558571Y-99964523D02*
X169558571Y-100345475D01*
X169177619Y-98774047D02*
X169130000Y-98821666D01*
X169130000Y-98821666D02*
X169082380Y-98964523D01*
X169082380Y-98964523D02*
X169082380Y-99059761D01*
X169082380Y-99059761D02*
X169130000Y-99202618D01*
X169130000Y-99202618D02*
X169225238Y-99297856D01*
X169225238Y-99297856D02*
X169320476Y-99345475D01*
X169320476Y-99345475D02*
X169510952Y-99393094D01*
X169510952Y-99393094D02*
X169653809Y-99393094D01*
X169653809Y-99393094D02*
X169844285Y-99345475D01*
X169844285Y-99345475D02*
X169939523Y-99297856D01*
X169939523Y-99297856D02*
X170034761Y-99202618D01*
X170034761Y-99202618D02*
X170082380Y-99059761D01*
X170082380Y-99059761D02*
X170082380Y-98964523D01*
X170082380Y-98964523D02*
X170034761Y-98821666D01*
X170034761Y-98821666D02*
X169987142Y-98774047D01*
X170082380Y-97916904D02*
X170082380Y-98107380D01*
X170082380Y-98107380D02*
X170034761Y-98202618D01*
X170034761Y-98202618D02*
X169987142Y-98250237D01*
X169987142Y-98250237D02*
X169844285Y-98345475D01*
X169844285Y-98345475D02*
X169653809Y-98393094D01*
X169653809Y-98393094D02*
X169272857Y-98393094D01*
X169272857Y-98393094D02*
X169177619Y-98345475D01*
X169177619Y-98345475D02*
X169130000Y-98297856D01*
X169130000Y-98297856D02*
X169082380Y-98202618D01*
X169082380Y-98202618D02*
X169082380Y-98012142D01*
X169082380Y-98012142D02*
X169130000Y-97916904D01*
X169130000Y-97916904D02*
X169177619Y-97869285D01*
X169177619Y-97869285D02*
X169272857Y-97821666D01*
X169272857Y-97821666D02*
X169510952Y-97821666D01*
X169510952Y-97821666D02*
X169606190Y-97869285D01*
X169606190Y-97869285D02*
X169653809Y-97916904D01*
X169653809Y-97916904D02*
X169701428Y-98012142D01*
X169701428Y-98012142D02*
X169701428Y-98202618D01*
X169701428Y-98202618D02*
X169653809Y-98297856D01*
X169653809Y-98297856D02*
X169606190Y-98345475D01*
X169606190Y-98345475D02*
X169510952Y-98393094D01*
X170130000Y-96678809D02*
X168844285Y-97535951D01*
X169368095Y-96393094D02*
X169368095Y-95916904D01*
X169082380Y-96488332D02*
X170082380Y-96154999D01*
X170082380Y-96154999D02*
X169082380Y-95821666D01*
X169082380Y-95488332D02*
X170082380Y-95488332D01*
X170082380Y-95488332D02*
X169082380Y-94916904D01*
X169082380Y-94916904D02*
X170082380Y-94916904D01*
X169653809Y-94297856D02*
X169701428Y-94393094D01*
X169701428Y-94393094D02*
X169749047Y-94440713D01*
X169749047Y-94440713D02*
X169844285Y-94488332D01*
X169844285Y-94488332D02*
X169891904Y-94488332D01*
X169891904Y-94488332D02*
X169987142Y-94440713D01*
X169987142Y-94440713D02*
X170034761Y-94393094D01*
X170034761Y-94393094D02*
X170082380Y-94297856D01*
X170082380Y-94297856D02*
X170082380Y-94107380D01*
X170082380Y-94107380D02*
X170034761Y-94012142D01*
X170034761Y-94012142D02*
X169987142Y-93964523D01*
X169987142Y-93964523D02*
X169891904Y-93916904D01*
X169891904Y-93916904D02*
X169844285Y-93916904D01*
X169844285Y-93916904D02*
X169749047Y-93964523D01*
X169749047Y-93964523D02*
X169701428Y-94012142D01*
X169701428Y-94012142D02*
X169653809Y-94107380D01*
X169653809Y-94107380D02*
X169653809Y-94297856D01*
X169653809Y-94297856D02*
X169606190Y-94393094D01*
X169606190Y-94393094D02*
X169558571Y-94440713D01*
X169558571Y-94440713D02*
X169463333Y-94488332D01*
X169463333Y-94488332D02*
X169272857Y-94488332D01*
X169272857Y-94488332D02*
X169177619Y-94440713D01*
X169177619Y-94440713D02*
X169130000Y-94393094D01*
X169130000Y-94393094D02*
X169082380Y-94297856D01*
X169082380Y-94297856D02*
X169082380Y-94107380D01*
X169082380Y-94107380D02*
X169130000Y-94012142D01*
X169130000Y-94012142D02*
X169177619Y-93964523D01*
X169177619Y-93964523D02*
X169272857Y-93916904D01*
X169272857Y-93916904D02*
X169463333Y-93916904D01*
X169463333Y-93916904D02*
X169558571Y-93964523D01*
X169558571Y-93964523D02*
X169606190Y-94012142D01*
X169606190Y-94012142D02*
X169653809Y-94107380D01*
X122090000Y-88074523D02*
X122042380Y-87931666D01*
X122042380Y-87931666D02*
X122042380Y-87693571D01*
X122042380Y-87693571D02*
X122090000Y-87598333D01*
X122090000Y-87598333D02*
X122137619Y-87550714D01*
X122137619Y-87550714D02*
X122232857Y-87503095D01*
X122232857Y-87503095D02*
X122328095Y-87503095D01*
X122328095Y-87503095D02*
X122423333Y-87550714D01*
X122423333Y-87550714D02*
X122470952Y-87598333D01*
X122470952Y-87598333D02*
X122518571Y-87693571D01*
X122518571Y-87693571D02*
X122566190Y-87884047D01*
X122566190Y-87884047D02*
X122613809Y-87979285D01*
X122613809Y-87979285D02*
X122661428Y-88026904D01*
X122661428Y-88026904D02*
X122756666Y-88074523D01*
X122756666Y-88074523D02*
X122851904Y-88074523D01*
X122851904Y-88074523D02*
X122947142Y-88026904D01*
X122947142Y-88026904D02*
X122994761Y-87979285D01*
X122994761Y-87979285D02*
X123042380Y-87884047D01*
X123042380Y-87884047D02*
X123042380Y-87645952D01*
X123042380Y-87645952D02*
X122994761Y-87503095D01*
X123042380Y-87169761D02*
X122042380Y-86931666D01*
X122042380Y-86931666D02*
X122756666Y-86741190D01*
X122756666Y-86741190D02*
X122042380Y-86550714D01*
X122042380Y-86550714D02*
X123042380Y-86312619D01*
X122947142Y-85979285D02*
X122994761Y-85931666D01*
X122994761Y-85931666D02*
X123042380Y-85836428D01*
X123042380Y-85836428D02*
X123042380Y-85598333D01*
X123042380Y-85598333D02*
X122994761Y-85503095D01*
X122994761Y-85503095D02*
X122947142Y-85455476D01*
X122947142Y-85455476D02*
X122851904Y-85407857D01*
X122851904Y-85407857D02*
X122756666Y-85407857D01*
X122756666Y-85407857D02*
X122613809Y-85455476D01*
X122613809Y-85455476D02*
X122042380Y-86026904D01*
X122042380Y-86026904D02*
X122042380Y-85407857D01*
D10*
X151294979Y-108905523D02*
X151972312Y-108905523D01*
X151875550Y-108905523D02*
X151923931Y-108857142D01*
X151923931Y-108857142D02*
X151972312Y-108760380D01*
X151972312Y-108760380D02*
X151972312Y-108615237D01*
X151972312Y-108615237D02*
X151923931Y-108518475D01*
X151923931Y-108518475D02*
X151827169Y-108470094D01*
X151827169Y-108470094D02*
X151294979Y-108470094D01*
X151827169Y-108470094D02*
X151923931Y-108421713D01*
X151923931Y-108421713D02*
X151972312Y-108324951D01*
X151972312Y-108324951D02*
X151972312Y-108179808D01*
X151972312Y-108179808D02*
X151923931Y-108083047D01*
X151923931Y-108083047D02*
X151827169Y-108034666D01*
X151827169Y-108034666D02*
X151294979Y-108034666D01*
X151294979Y-107550856D02*
X151972312Y-107550856D01*
X152310979Y-107550856D02*
X152262598Y-107599237D01*
X152262598Y-107599237D02*
X152214217Y-107550856D01*
X152214217Y-107550856D02*
X152262598Y-107502475D01*
X152262598Y-107502475D02*
X152310979Y-107550856D01*
X152310979Y-107550856D02*
X152214217Y-107550856D01*
X151294979Y-107067046D02*
X151972312Y-107067046D01*
X151778788Y-107067046D02*
X151875550Y-107018665D01*
X151875550Y-107018665D02*
X151923931Y-106970284D01*
X151923931Y-106970284D02*
X151972312Y-106873522D01*
X151972312Y-106873522D02*
X151972312Y-106776760D01*
X151294979Y-106292951D02*
X151343360Y-106389713D01*
X151343360Y-106389713D02*
X151391740Y-106438094D01*
X151391740Y-106438094D02*
X151488502Y-106486475D01*
X151488502Y-106486475D02*
X151778788Y-106486475D01*
X151778788Y-106486475D02*
X151875550Y-106438094D01*
X151875550Y-106438094D02*
X151923931Y-106389713D01*
X151923931Y-106389713D02*
X151972312Y-106292951D01*
X151972312Y-106292951D02*
X151972312Y-106147808D01*
X151972312Y-106147808D02*
X151923931Y-106051046D01*
X151923931Y-106051046D02*
X151875550Y-106002665D01*
X151875550Y-106002665D02*
X151778788Y-105954284D01*
X151778788Y-105954284D02*
X151488502Y-105954284D01*
X151488502Y-105954284D02*
X151391740Y-106002665D01*
X151391740Y-106002665D02*
X151343360Y-106051046D01*
X151343360Y-106051046D02*
X151294979Y-106147808D01*
X151294979Y-106147808D02*
X151294979Y-106292951D01*
X151294979Y-105518856D02*
X152310979Y-105518856D01*
X151923931Y-105518856D02*
X151972312Y-105422094D01*
X151972312Y-105422094D02*
X151972312Y-105228570D01*
X151972312Y-105228570D02*
X151923931Y-105131808D01*
X151923931Y-105131808D02*
X151875550Y-105083427D01*
X151875550Y-105083427D02*
X151778788Y-105035046D01*
X151778788Y-105035046D02*
X151488502Y-105035046D01*
X151488502Y-105035046D02*
X151391740Y-105083427D01*
X151391740Y-105083427D02*
X151343360Y-105131808D01*
X151343360Y-105131808D02*
X151294979Y-105228570D01*
X151294979Y-105228570D02*
X151294979Y-105422094D01*
X151294979Y-105422094D02*
X151343360Y-105518856D01*
X151294979Y-104454475D02*
X151343360Y-104551237D01*
X151343360Y-104551237D02*
X151391740Y-104599618D01*
X151391740Y-104599618D02*
X151488502Y-104647999D01*
X151488502Y-104647999D02*
X151778788Y-104647999D01*
X151778788Y-104647999D02*
X151875550Y-104599618D01*
X151875550Y-104599618D02*
X151923931Y-104551237D01*
X151923931Y-104551237D02*
X151972312Y-104454475D01*
X151972312Y-104454475D02*
X151972312Y-104309332D01*
X151972312Y-104309332D02*
X151923931Y-104212570D01*
X151923931Y-104212570D02*
X151875550Y-104164189D01*
X151875550Y-104164189D02*
X151778788Y-104115808D01*
X151778788Y-104115808D02*
X151488502Y-104115808D01*
X151488502Y-104115808D02*
X151391740Y-104164189D01*
X151391740Y-104164189D02*
X151343360Y-104212570D01*
X151343360Y-104212570D02*
X151294979Y-104309332D01*
X151294979Y-104309332D02*
X151294979Y-104454475D01*
X151391740Y-103680380D02*
X151343360Y-103631999D01*
X151343360Y-103631999D02*
X151294979Y-103680380D01*
X151294979Y-103680380D02*
X151343360Y-103728761D01*
X151343360Y-103728761D02*
X151391740Y-103680380D01*
X151391740Y-103680380D02*
X151294979Y-103680380D01*
X151972312Y-103341713D02*
X151972312Y-102954665D01*
X152310979Y-103196570D02*
X151440121Y-103196570D01*
X151440121Y-103196570D02*
X151343360Y-103148189D01*
X151343360Y-103148189D02*
X151294979Y-103051427D01*
X151294979Y-103051427D02*
X151294979Y-102954665D01*
X151343360Y-102228951D02*
X151294979Y-102325713D01*
X151294979Y-102325713D02*
X151294979Y-102519237D01*
X151294979Y-102519237D02*
X151343360Y-102615999D01*
X151343360Y-102615999D02*
X151440121Y-102664380D01*
X151440121Y-102664380D02*
X151827169Y-102664380D01*
X151827169Y-102664380D02*
X151923931Y-102615999D01*
X151923931Y-102615999D02*
X151972312Y-102519237D01*
X151972312Y-102519237D02*
X151972312Y-102325713D01*
X151972312Y-102325713D02*
X151923931Y-102228951D01*
X151923931Y-102228951D02*
X151827169Y-102180570D01*
X151827169Y-102180570D02*
X151730407Y-102180570D01*
X151730407Y-102180570D02*
X151633645Y-102664380D01*
X151343360Y-101309713D02*
X151294979Y-101406475D01*
X151294979Y-101406475D02*
X151294979Y-101599999D01*
X151294979Y-101599999D02*
X151343360Y-101696761D01*
X151343360Y-101696761D02*
X151391740Y-101745142D01*
X151391740Y-101745142D02*
X151488502Y-101793523D01*
X151488502Y-101793523D02*
X151778788Y-101793523D01*
X151778788Y-101793523D02*
X151875550Y-101745142D01*
X151875550Y-101745142D02*
X151923931Y-101696761D01*
X151923931Y-101696761D02*
X151972312Y-101599999D01*
X151972312Y-101599999D02*
X151972312Y-101406475D01*
X151972312Y-101406475D02*
X151923931Y-101309713D01*
X151294979Y-100874285D02*
X152310979Y-100874285D01*
X151294979Y-100438856D02*
X151827169Y-100438856D01*
X151827169Y-100438856D02*
X151923931Y-100487237D01*
X151923931Y-100487237D02*
X151972312Y-100583999D01*
X151972312Y-100583999D02*
X151972312Y-100729142D01*
X151972312Y-100729142D02*
X151923931Y-100825904D01*
X151923931Y-100825904D02*
X151875550Y-100874285D01*
X152359360Y-99229332D02*
X151053074Y-100100190D01*
X151972312Y-98455237D02*
X151294979Y-98455237D01*
X151972312Y-98890666D02*
X151440121Y-98890666D01*
X151440121Y-98890666D02*
X151343360Y-98842285D01*
X151343360Y-98842285D02*
X151294979Y-98745523D01*
X151294979Y-98745523D02*
X151294979Y-98600380D01*
X151294979Y-98600380D02*
X151343360Y-98503618D01*
X151343360Y-98503618D02*
X151391740Y-98455237D01*
X151294979Y-97971428D02*
X152310979Y-97971428D01*
X151923931Y-97971428D02*
X151972312Y-97874666D01*
X151972312Y-97874666D02*
X151972312Y-97681142D01*
X151972312Y-97681142D02*
X151923931Y-97584380D01*
X151923931Y-97584380D02*
X151875550Y-97535999D01*
X151875550Y-97535999D02*
X151778788Y-97487618D01*
X151778788Y-97487618D02*
X151488502Y-97487618D01*
X151488502Y-97487618D02*
X151391740Y-97535999D01*
X151391740Y-97535999D02*
X151343360Y-97584380D01*
X151343360Y-97584380D02*
X151294979Y-97681142D01*
X151294979Y-97681142D02*
X151294979Y-97874666D01*
X151294979Y-97874666D02*
X151343360Y-97971428D01*
X151294979Y-97052190D02*
X151972312Y-97052190D01*
X151875550Y-97052190D02*
X151923931Y-97003809D01*
X151923931Y-97003809D02*
X151972312Y-96907047D01*
X151972312Y-96907047D02*
X151972312Y-96761904D01*
X151972312Y-96761904D02*
X151923931Y-96665142D01*
X151923931Y-96665142D02*
X151827169Y-96616761D01*
X151827169Y-96616761D02*
X151294979Y-96616761D01*
X151827169Y-96616761D02*
X151923931Y-96568380D01*
X151923931Y-96568380D02*
X151972312Y-96471618D01*
X151972312Y-96471618D02*
X151972312Y-96326475D01*
X151972312Y-96326475D02*
X151923931Y-96229714D01*
X151923931Y-96229714D02*
X151827169Y-96181333D01*
X151827169Y-96181333D02*
X151294979Y-96181333D01*
X151972312Y-95697523D02*
X150956312Y-95697523D01*
X151923931Y-95697523D02*
X151972312Y-95600761D01*
X151972312Y-95600761D02*
X151972312Y-95407237D01*
X151972312Y-95407237D02*
X151923931Y-95310475D01*
X151923931Y-95310475D02*
X151875550Y-95262094D01*
X151875550Y-95262094D02*
X151778788Y-95213713D01*
X151778788Y-95213713D02*
X151488502Y-95213713D01*
X151488502Y-95213713D02*
X151391740Y-95262094D01*
X151391740Y-95262094D02*
X151343360Y-95310475D01*
X151343360Y-95310475D02*
X151294979Y-95407237D01*
X151294979Y-95407237D02*
X151294979Y-95600761D01*
X151294979Y-95600761D02*
X151343360Y-95697523D01*
X151972312Y-94342856D02*
X151294979Y-94342856D01*
X152359360Y-94584761D02*
X151633645Y-94826666D01*
X151633645Y-94826666D02*
X151633645Y-94197713D01*
D11*
X175382380Y-112791904D02*
X176382380Y-112791904D01*
X175477619Y-111744286D02*
X175430000Y-111791905D01*
X175430000Y-111791905D02*
X175382380Y-111934762D01*
X175382380Y-111934762D02*
X175382380Y-112030000D01*
X175382380Y-112030000D02*
X175430000Y-112172857D01*
X175430000Y-112172857D02*
X175525238Y-112268095D01*
X175525238Y-112268095D02*
X175620476Y-112315714D01*
X175620476Y-112315714D02*
X175810952Y-112363333D01*
X175810952Y-112363333D02*
X175953809Y-112363333D01*
X175953809Y-112363333D02*
X176144285Y-112315714D01*
X176144285Y-112315714D02*
X176239523Y-112268095D01*
X176239523Y-112268095D02*
X176334761Y-112172857D01*
X176334761Y-112172857D02*
X176382380Y-112030000D01*
X176382380Y-112030000D02*
X176382380Y-111934762D01*
X176382380Y-111934762D02*
X176334761Y-111791905D01*
X176334761Y-111791905D02*
X176287142Y-111744286D01*
X175430000Y-111363333D02*
X175382380Y-111220476D01*
X175382380Y-111220476D02*
X175382380Y-110982381D01*
X175382380Y-110982381D02*
X175430000Y-110887143D01*
X175430000Y-110887143D02*
X175477619Y-110839524D01*
X175477619Y-110839524D02*
X175572857Y-110791905D01*
X175572857Y-110791905D02*
X175668095Y-110791905D01*
X175668095Y-110791905D02*
X175763333Y-110839524D01*
X175763333Y-110839524D02*
X175810952Y-110887143D01*
X175810952Y-110887143D02*
X175858571Y-110982381D01*
X175858571Y-110982381D02*
X175906190Y-111172857D01*
X175906190Y-111172857D02*
X175953809Y-111268095D01*
X175953809Y-111268095D02*
X176001428Y-111315714D01*
X176001428Y-111315714D02*
X176096666Y-111363333D01*
X176096666Y-111363333D02*
X176191904Y-111363333D01*
X176191904Y-111363333D02*
X176287142Y-111315714D01*
X176287142Y-111315714D02*
X176334761Y-111268095D01*
X176334761Y-111268095D02*
X176382380Y-111172857D01*
X176382380Y-111172857D02*
X176382380Y-110934762D01*
X176382380Y-110934762D02*
X176334761Y-110791905D01*
X175382380Y-110363333D02*
X176382380Y-110363333D01*
X176382380Y-110363333D02*
X176382380Y-109982381D01*
X176382380Y-109982381D02*
X176334761Y-109887143D01*
X176334761Y-109887143D02*
X176287142Y-109839524D01*
X176287142Y-109839524D02*
X176191904Y-109791905D01*
X176191904Y-109791905D02*
X176049047Y-109791905D01*
X176049047Y-109791905D02*
X175953809Y-109839524D01*
X175953809Y-109839524D02*
X175906190Y-109887143D01*
X175906190Y-109887143D02*
X175858571Y-109982381D01*
X175858571Y-109982381D02*
X175858571Y-110363333D01*
X175382380Y-109363333D02*
X176382380Y-109363333D01*
X176382380Y-109363333D02*
X176382380Y-109125238D01*
X176382380Y-109125238D02*
X176334761Y-108982381D01*
X176334761Y-108982381D02*
X176239523Y-108887143D01*
X176239523Y-108887143D02*
X176144285Y-108839524D01*
X176144285Y-108839524D02*
X175953809Y-108791905D01*
X175953809Y-108791905D02*
X175810952Y-108791905D01*
X175810952Y-108791905D02*
X175620476Y-108839524D01*
X175620476Y-108839524D02*
X175525238Y-108887143D01*
X175525238Y-108887143D02*
X175430000Y-108982381D01*
X175430000Y-108982381D02*
X175382380Y-109125238D01*
X175382380Y-109125238D02*
X175382380Y-109363333D01*
X175668095Y-108410952D02*
X175668095Y-107934762D01*
X175382380Y-108506190D02*
X176382380Y-108172857D01*
X176382380Y-108172857D02*
X175382380Y-107839524D01*
X176382380Y-107649047D02*
X176382380Y-107077619D01*
X175382380Y-107363333D02*
X176382380Y-107363333D01*
X168778333Y-114061904D02*
X168778333Y-113300000D01*
X168397380Y-113680952D02*
X169159285Y-113680952D01*
X169397380Y-112347619D02*
X169397380Y-112823809D01*
X169397380Y-112823809D02*
X168921190Y-112871428D01*
X168921190Y-112871428D02*
X168968809Y-112823809D01*
X168968809Y-112823809D02*
X169016428Y-112728571D01*
X169016428Y-112728571D02*
X169016428Y-112490476D01*
X169016428Y-112490476D02*
X168968809Y-112395238D01*
X168968809Y-112395238D02*
X168921190Y-112347619D01*
X168921190Y-112347619D02*
X168825952Y-112300000D01*
X168825952Y-112300000D02*
X168587857Y-112300000D01*
X168587857Y-112300000D02*
X168492619Y-112347619D01*
X168492619Y-112347619D02*
X168445000Y-112395238D01*
X168445000Y-112395238D02*
X168397380Y-112490476D01*
X168397380Y-112490476D02*
X168397380Y-112728571D01*
X168397380Y-112728571D02*
X168445000Y-112823809D01*
X168445000Y-112823809D02*
X168492619Y-112871428D01*
X169397380Y-112014285D02*
X168397380Y-111680952D01*
X168397380Y-111680952D02*
X169397380Y-111347619D01*
X166542380Y-99916904D02*
X167018571Y-100250237D01*
X166542380Y-100488332D02*
X167542380Y-100488332D01*
X167542380Y-100488332D02*
X167542380Y-100107380D01*
X167542380Y-100107380D02*
X167494761Y-100012142D01*
X167494761Y-100012142D02*
X167447142Y-99964523D01*
X167447142Y-99964523D02*
X167351904Y-99916904D01*
X167351904Y-99916904D02*
X167209047Y-99916904D01*
X167209047Y-99916904D02*
X167113809Y-99964523D01*
X167113809Y-99964523D02*
X167066190Y-100012142D01*
X167066190Y-100012142D02*
X167018571Y-100107380D01*
X167018571Y-100107380D02*
X167018571Y-100488332D01*
X166637619Y-98916904D02*
X166590000Y-98964523D01*
X166590000Y-98964523D02*
X166542380Y-99107380D01*
X166542380Y-99107380D02*
X166542380Y-99202618D01*
X166542380Y-99202618D02*
X166590000Y-99345475D01*
X166590000Y-99345475D02*
X166685238Y-99440713D01*
X166685238Y-99440713D02*
X166780476Y-99488332D01*
X166780476Y-99488332D02*
X166970952Y-99535951D01*
X166970952Y-99535951D02*
X167113809Y-99535951D01*
X167113809Y-99535951D02*
X167304285Y-99488332D01*
X167304285Y-99488332D02*
X167399523Y-99440713D01*
X167399523Y-99440713D02*
X167494761Y-99345475D01*
X167494761Y-99345475D02*
X167542380Y-99202618D01*
X167542380Y-99202618D02*
X167542380Y-99107380D01*
X167542380Y-99107380D02*
X167494761Y-98964523D01*
X167494761Y-98964523D02*
X167447142Y-98916904D01*
X167542380Y-98012142D02*
X167542380Y-98488332D01*
X167542380Y-98488332D02*
X167066190Y-98535951D01*
X167066190Y-98535951D02*
X167113809Y-98488332D01*
X167113809Y-98488332D02*
X167161428Y-98393094D01*
X167161428Y-98393094D02*
X167161428Y-98154999D01*
X167161428Y-98154999D02*
X167113809Y-98059761D01*
X167113809Y-98059761D02*
X167066190Y-98012142D01*
X167066190Y-98012142D02*
X166970952Y-97964523D01*
X166970952Y-97964523D02*
X166732857Y-97964523D01*
X166732857Y-97964523D02*
X166637619Y-98012142D01*
X166637619Y-98012142D02*
X166590000Y-98059761D01*
X166590000Y-98059761D02*
X166542380Y-98154999D01*
X166542380Y-98154999D02*
X166542380Y-98393094D01*
X166542380Y-98393094D02*
X166590000Y-98488332D01*
X166590000Y-98488332D02*
X166637619Y-98535951D01*
X167590000Y-96821666D02*
X166304285Y-97678808D01*
X166637619Y-95916904D02*
X166590000Y-95964523D01*
X166590000Y-95964523D02*
X166542380Y-96107380D01*
X166542380Y-96107380D02*
X166542380Y-96202618D01*
X166542380Y-96202618D02*
X166590000Y-96345475D01*
X166590000Y-96345475D02*
X166685238Y-96440713D01*
X166685238Y-96440713D02*
X166780476Y-96488332D01*
X166780476Y-96488332D02*
X166970952Y-96535951D01*
X166970952Y-96535951D02*
X167113809Y-96535951D01*
X167113809Y-96535951D02*
X167304285Y-96488332D01*
X167304285Y-96488332D02*
X167399523Y-96440713D01*
X167399523Y-96440713D02*
X167494761Y-96345475D01*
X167494761Y-96345475D02*
X167542380Y-96202618D01*
X167542380Y-96202618D02*
X167542380Y-96107380D01*
X167542380Y-96107380D02*
X167494761Y-95964523D01*
X167494761Y-95964523D02*
X167447142Y-95916904D01*
X167542380Y-95583570D02*
X166542380Y-95345475D01*
X166542380Y-95345475D02*
X167256666Y-95154999D01*
X167256666Y-95154999D02*
X166542380Y-94964523D01*
X166542380Y-94964523D02*
X167542380Y-94726428D01*
X167494761Y-93821666D02*
X167542380Y-93916904D01*
X167542380Y-93916904D02*
X167542380Y-94059761D01*
X167542380Y-94059761D02*
X167494761Y-94202618D01*
X167494761Y-94202618D02*
X167399523Y-94297856D01*
X167399523Y-94297856D02*
X167304285Y-94345475D01*
X167304285Y-94345475D02*
X167113809Y-94393094D01*
X167113809Y-94393094D02*
X166970952Y-94393094D01*
X166970952Y-94393094D02*
X166780476Y-94345475D01*
X166780476Y-94345475D02*
X166685238Y-94297856D01*
X166685238Y-94297856D02*
X166590000Y-94202618D01*
X166590000Y-94202618D02*
X166542380Y-94059761D01*
X166542380Y-94059761D02*
X166542380Y-93964523D01*
X166542380Y-93964523D02*
X166590000Y-93821666D01*
X166590000Y-93821666D02*
X166637619Y-93774047D01*
X166637619Y-93774047D02*
X166970952Y-93774047D01*
X166970952Y-93774047D02*
X166970952Y-93964523D01*
X161367142Y-99202619D02*
X161414761Y-99297857D01*
X161414761Y-99297857D02*
X161510000Y-99393095D01*
X161510000Y-99393095D02*
X161652857Y-99535952D01*
X161652857Y-99535952D02*
X161700476Y-99631190D01*
X161700476Y-99631190D02*
X161700476Y-99726428D01*
X161462380Y-99678809D02*
X161510000Y-99774047D01*
X161510000Y-99774047D02*
X161605238Y-99869285D01*
X161605238Y-99869285D02*
X161795714Y-99916904D01*
X161795714Y-99916904D02*
X162129047Y-99916904D01*
X162129047Y-99916904D02*
X162319523Y-99869285D01*
X162319523Y-99869285D02*
X162414761Y-99774047D01*
X162414761Y-99774047D02*
X162462380Y-99678809D01*
X162462380Y-99678809D02*
X162462380Y-99488333D01*
X162462380Y-99488333D02*
X162414761Y-99393095D01*
X162414761Y-99393095D02*
X162319523Y-99297857D01*
X162319523Y-99297857D02*
X162129047Y-99250238D01*
X162129047Y-99250238D02*
X161795714Y-99250238D01*
X161795714Y-99250238D02*
X161605238Y-99297857D01*
X161605238Y-99297857D02*
X161510000Y-99393095D01*
X161510000Y-99393095D02*
X161462380Y-99488333D01*
X161462380Y-99488333D02*
X161462380Y-99678809D01*
X161462380Y-98297857D02*
X161462380Y-98869285D01*
X161462380Y-98583571D02*
X162462380Y-98583571D01*
X162462380Y-98583571D02*
X162319523Y-98678809D01*
X162319523Y-98678809D02*
X162224285Y-98774047D01*
X162224285Y-98774047D02*
X162176666Y-98869285D01*
X162510000Y-97155000D02*
X161224285Y-98012142D01*
X161748095Y-96869285D02*
X161748095Y-96393095D01*
X161462380Y-96964523D02*
X162462380Y-96631190D01*
X162462380Y-96631190D02*
X161462380Y-96297857D01*
X161462380Y-95964523D02*
X162462380Y-95964523D01*
X162462380Y-95964523D02*
X161462380Y-95393095D01*
X161462380Y-95393095D02*
X162462380Y-95393095D01*
X162462380Y-95012142D02*
X162462380Y-94345476D01*
X162462380Y-94345476D02*
X161462380Y-94774047D01*
X167635333Y-93503761D02*
X167682952Y-93456142D01*
X167682952Y-93456142D02*
X167730571Y-93360904D01*
X167730571Y-93360904D02*
X167635333Y-93170428D01*
X167635333Y-93170428D02*
X167682952Y-93075190D01*
X167682952Y-93075190D02*
X167730571Y-93027571D01*
X159922380Y-99869285D02*
X159112857Y-99869285D01*
X159112857Y-99869285D02*
X159017619Y-99821666D01*
X159017619Y-99821666D02*
X158970000Y-99774047D01*
X158970000Y-99774047D02*
X158922380Y-99678809D01*
X158922380Y-99678809D02*
X158922380Y-99488333D01*
X158922380Y-99488333D02*
X158970000Y-99393095D01*
X158970000Y-99393095D02*
X159017619Y-99345476D01*
X159017619Y-99345476D02*
X159112857Y-99297857D01*
X159112857Y-99297857D02*
X159922380Y-99297857D01*
X159827142Y-98869285D02*
X159874761Y-98821666D01*
X159874761Y-98821666D02*
X159922380Y-98726428D01*
X159922380Y-98726428D02*
X159922380Y-98488333D01*
X159922380Y-98488333D02*
X159874761Y-98393095D01*
X159874761Y-98393095D02*
X159827142Y-98345476D01*
X159827142Y-98345476D02*
X159731904Y-98297857D01*
X159731904Y-98297857D02*
X159636666Y-98297857D01*
X159636666Y-98297857D02*
X159493809Y-98345476D01*
X159493809Y-98345476D02*
X158922380Y-98916904D01*
X158922380Y-98916904D02*
X158922380Y-98297857D01*
X159970000Y-97155000D02*
X158684285Y-98012142D01*
X159208095Y-96869285D02*
X159208095Y-96393095D01*
X158922380Y-96964523D02*
X159922380Y-96631190D01*
X159922380Y-96631190D02*
X158922380Y-96297857D01*
X158922380Y-95964523D02*
X159922380Y-95964523D01*
X159922380Y-95964523D02*
X158922380Y-95393095D01*
X158922380Y-95393095D02*
X159922380Y-95393095D01*
X159922380Y-94488333D02*
X159922380Y-94678809D01*
X159922380Y-94678809D02*
X159874761Y-94774047D01*
X159874761Y-94774047D02*
X159827142Y-94821666D01*
X159827142Y-94821666D02*
X159684285Y-94916904D01*
X159684285Y-94916904D02*
X159493809Y-94964523D01*
X159493809Y-94964523D02*
X159112857Y-94964523D01*
X159112857Y-94964523D02*
X159017619Y-94916904D01*
X159017619Y-94916904D02*
X158970000Y-94869285D01*
X158970000Y-94869285D02*
X158922380Y-94774047D01*
X158922380Y-94774047D02*
X158922380Y-94583571D01*
X158922380Y-94583571D02*
X158970000Y-94488333D01*
X158970000Y-94488333D02*
X159017619Y-94440714D01*
X159017619Y-94440714D02*
X159112857Y-94393095D01*
X159112857Y-94393095D02*
X159350952Y-94393095D01*
X159350952Y-94393095D02*
X159446190Y-94440714D01*
X159446190Y-94440714D02*
X159493809Y-94488333D01*
X159493809Y-94488333D02*
X159541428Y-94583571D01*
X159541428Y-94583571D02*
X159541428Y-94774047D01*
X159541428Y-94774047D02*
X159493809Y-94869285D01*
X159493809Y-94869285D02*
X159446190Y-94916904D01*
X159446190Y-94916904D02*
X159350952Y-94964523D01*
X112565000Y-102679523D02*
X112517380Y-102536666D01*
X112517380Y-102536666D02*
X112517380Y-102298571D01*
X112517380Y-102298571D02*
X112565000Y-102203333D01*
X112565000Y-102203333D02*
X112612619Y-102155714D01*
X112612619Y-102155714D02*
X112707857Y-102108095D01*
X112707857Y-102108095D02*
X112803095Y-102108095D01*
X112803095Y-102108095D02*
X112898333Y-102155714D01*
X112898333Y-102155714D02*
X112945952Y-102203333D01*
X112945952Y-102203333D02*
X112993571Y-102298571D01*
X112993571Y-102298571D02*
X113041190Y-102489047D01*
X113041190Y-102489047D02*
X113088809Y-102584285D01*
X113088809Y-102584285D02*
X113136428Y-102631904D01*
X113136428Y-102631904D02*
X113231666Y-102679523D01*
X113231666Y-102679523D02*
X113326904Y-102679523D01*
X113326904Y-102679523D02*
X113422142Y-102631904D01*
X113422142Y-102631904D02*
X113469761Y-102584285D01*
X113469761Y-102584285D02*
X113517380Y-102489047D01*
X113517380Y-102489047D02*
X113517380Y-102250952D01*
X113517380Y-102250952D02*
X113469761Y-102108095D01*
X113517380Y-101774761D02*
X112517380Y-101536666D01*
X112517380Y-101536666D02*
X113231666Y-101346190D01*
X113231666Y-101346190D02*
X112517380Y-101155714D01*
X112517380Y-101155714D02*
X113517380Y-100917619D01*
X112517380Y-100012857D02*
X112517380Y-100584285D01*
X112517380Y-100298571D02*
X113517380Y-100298571D01*
X113517380Y-100298571D02*
X113374523Y-100393809D01*
X113374523Y-100393809D02*
X113279285Y-100489047D01*
X113279285Y-100489047D02*
X113231666Y-100584285D01*
X179827380Y-112791904D02*
X180827380Y-112791904D01*
X179922619Y-111744286D02*
X179875000Y-111791905D01*
X179875000Y-111791905D02*
X179827380Y-111934762D01*
X179827380Y-111934762D02*
X179827380Y-112030000D01*
X179827380Y-112030000D02*
X179875000Y-112172857D01*
X179875000Y-112172857D02*
X179970238Y-112268095D01*
X179970238Y-112268095D02*
X180065476Y-112315714D01*
X180065476Y-112315714D02*
X180255952Y-112363333D01*
X180255952Y-112363333D02*
X180398809Y-112363333D01*
X180398809Y-112363333D02*
X180589285Y-112315714D01*
X180589285Y-112315714D02*
X180684523Y-112268095D01*
X180684523Y-112268095D02*
X180779761Y-112172857D01*
X180779761Y-112172857D02*
X180827380Y-112030000D01*
X180827380Y-112030000D02*
X180827380Y-111934762D01*
X180827380Y-111934762D02*
X180779761Y-111791905D01*
X180779761Y-111791905D02*
X180732142Y-111744286D01*
X179875000Y-111363333D02*
X179827380Y-111220476D01*
X179827380Y-111220476D02*
X179827380Y-110982381D01*
X179827380Y-110982381D02*
X179875000Y-110887143D01*
X179875000Y-110887143D02*
X179922619Y-110839524D01*
X179922619Y-110839524D02*
X180017857Y-110791905D01*
X180017857Y-110791905D02*
X180113095Y-110791905D01*
X180113095Y-110791905D02*
X180208333Y-110839524D01*
X180208333Y-110839524D02*
X180255952Y-110887143D01*
X180255952Y-110887143D02*
X180303571Y-110982381D01*
X180303571Y-110982381D02*
X180351190Y-111172857D01*
X180351190Y-111172857D02*
X180398809Y-111268095D01*
X180398809Y-111268095D02*
X180446428Y-111315714D01*
X180446428Y-111315714D02*
X180541666Y-111363333D01*
X180541666Y-111363333D02*
X180636904Y-111363333D01*
X180636904Y-111363333D02*
X180732142Y-111315714D01*
X180732142Y-111315714D02*
X180779761Y-111268095D01*
X180779761Y-111268095D02*
X180827380Y-111172857D01*
X180827380Y-111172857D02*
X180827380Y-110934762D01*
X180827380Y-110934762D02*
X180779761Y-110791905D01*
X179827380Y-110363333D02*
X180827380Y-110363333D01*
X180827380Y-110363333D02*
X180827380Y-109982381D01*
X180827380Y-109982381D02*
X180779761Y-109887143D01*
X180779761Y-109887143D02*
X180732142Y-109839524D01*
X180732142Y-109839524D02*
X180636904Y-109791905D01*
X180636904Y-109791905D02*
X180494047Y-109791905D01*
X180494047Y-109791905D02*
X180398809Y-109839524D01*
X180398809Y-109839524D02*
X180351190Y-109887143D01*
X180351190Y-109887143D02*
X180303571Y-109982381D01*
X180303571Y-109982381D02*
X180303571Y-110363333D01*
X179922619Y-108791905D02*
X179875000Y-108839524D01*
X179875000Y-108839524D02*
X179827380Y-108982381D01*
X179827380Y-108982381D02*
X179827380Y-109077619D01*
X179827380Y-109077619D02*
X179875000Y-109220476D01*
X179875000Y-109220476D02*
X179970238Y-109315714D01*
X179970238Y-109315714D02*
X180065476Y-109363333D01*
X180065476Y-109363333D02*
X180255952Y-109410952D01*
X180255952Y-109410952D02*
X180398809Y-109410952D01*
X180398809Y-109410952D02*
X180589285Y-109363333D01*
X180589285Y-109363333D02*
X180684523Y-109315714D01*
X180684523Y-109315714D02*
X180779761Y-109220476D01*
X180779761Y-109220476D02*
X180827380Y-109077619D01*
X180827380Y-109077619D02*
X180827380Y-108982381D01*
X180827380Y-108982381D02*
X180779761Y-108839524D01*
X180779761Y-108839524D02*
X180732142Y-108791905D01*
X179827380Y-107887143D02*
X179827380Y-108363333D01*
X179827380Y-108363333D02*
X180827380Y-108363333D01*
X179827380Y-107553809D02*
X180827380Y-107553809D01*
X179827380Y-106982381D02*
X180398809Y-107410952D01*
X180827380Y-106982381D02*
X180255952Y-107553809D01*
X134792380Y-92630238D02*
X135268571Y-92963571D01*
X134792380Y-93201666D02*
X135792380Y-93201666D01*
X135792380Y-93201666D02*
X135792380Y-92820714D01*
X135792380Y-92820714D02*
X135744761Y-92725476D01*
X135744761Y-92725476D02*
X135697142Y-92677857D01*
X135697142Y-92677857D02*
X135601904Y-92630238D01*
X135601904Y-92630238D02*
X135459047Y-92630238D01*
X135459047Y-92630238D02*
X135363809Y-92677857D01*
X135363809Y-92677857D02*
X135316190Y-92725476D01*
X135316190Y-92725476D02*
X135268571Y-92820714D01*
X135268571Y-92820714D02*
X135268571Y-93201666D01*
X135316190Y-91868333D02*
X135268571Y-91725476D01*
X135268571Y-91725476D02*
X135220952Y-91677857D01*
X135220952Y-91677857D02*
X135125714Y-91630238D01*
X135125714Y-91630238D02*
X134982857Y-91630238D01*
X134982857Y-91630238D02*
X134887619Y-91677857D01*
X134887619Y-91677857D02*
X134840000Y-91725476D01*
X134840000Y-91725476D02*
X134792380Y-91820714D01*
X134792380Y-91820714D02*
X134792380Y-92201666D01*
X134792380Y-92201666D02*
X135792380Y-92201666D01*
X135792380Y-92201666D02*
X135792380Y-91868333D01*
X135792380Y-91868333D02*
X135744761Y-91773095D01*
X135744761Y-91773095D02*
X135697142Y-91725476D01*
X135697142Y-91725476D02*
X135601904Y-91677857D01*
X135601904Y-91677857D02*
X135506666Y-91677857D01*
X135506666Y-91677857D02*
X135411428Y-91725476D01*
X135411428Y-91725476D02*
X135363809Y-91773095D01*
X135363809Y-91773095D02*
X135316190Y-91868333D01*
X135316190Y-91868333D02*
X135316190Y-92201666D01*
X135459047Y-90773095D02*
X134792380Y-90773095D01*
X135840000Y-91011190D02*
X135125714Y-91249285D01*
X135125714Y-91249285D02*
X135125714Y-90630238D01*
X135840000Y-89535000D02*
X134554285Y-90392142D01*
X135078095Y-89249285D02*
X135078095Y-88773095D01*
X134792380Y-89344523D02*
X135792380Y-89011190D01*
X135792380Y-89011190D02*
X134792380Y-88677857D01*
X134792380Y-88344523D02*
X135792380Y-88344523D01*
X135792380Y-88344523D02*
X134792380Y-87773095D01*
X134792380Y-87773095D02*
X135792380Y-87773095D01*
X134792380Y-86773095D02*
X134792380Y-87344523D01*
X134792380Y-87058809D02*
X135792380Y-87058809D01*
X135792380Y-87058809D02*
X135649523Y-87154047D01*
X135649523Y-87154047D02*
X135554285Y-87249285D01*
X135554285Y-87249285D02*
X135506666Y-87344523D01*
X135792380Y-86154047D02*
X135792380Y-86058809D01*
X135792380Y-86058809D02*
X135744761Y-85963571D01*
X135744761Y-85963571D02*
X135697142Y-85915952D01*
X135697142Y-85915952D02*
X135601904Y-85868333D01*
X135601904Y-85868333D02*
X135411428Y-85820714D01*
X135411428Y-85820714D02*
X135173333Y-85820714D01*
X135173333Y-85820714D02*
X134982857Y-85868333D01*
X134982857Y-85868333D02*
X134887619Y-85915952D01*
X134887619Y-85915952D02*
X134840000Y-85963571D01*
X134840000Y-85963571D02*
X134792380Y-86058809D01*
X134792380Y-86058809D02*
X134792380Y-86154047D01*
X134792380Y-86154047D02*
X134840000Y-86249285D01*
X134840000Y-86249285D02*
X134887619Y-86296904D01*
X134887619Y-86296904D02*
X134982857Y-86344523D01*
X134982857Y-86344523D02*
X135173333Y-86392142D01*
X135173333Y-86392142D02*
X135411428Y-86392142D01*
X135411428Y-86392142D02*
X135601904Y-86344523D01*
X135601904Y-86344523D02*
X135697142Y-86296904D01*
X135697142Y-86296904D02*
X135744761Y-86249285D01*
X135744761Y-86249285D02*
X135792380Y-86154047D01*
X134742380Y-116284476D02*
X135218571Y-116617809D01*
X134742380Y-116855904D02*
X135742380Y-116855904D01*
X135742380Y-116855904D02*
X135742380Y-116474952D01*
X135742380Y-116474952D02*
X135694761Y-116379714D01*
X135694761Y-116379714D02*
X135647142Y-116332095D01*
X135647142Y-116332095D02*
X135551904Y-116284476D01*
X135551904Y-116284476D02*
X135409047Y-116284476D01*
X135409047Y-116284476D02*
X135313809Y-116332095D01*
X135313809Y-116332095D02*
X135266190Y-116379714D01*
X135266190Y-116379714D02*
X135218571Y-116474952D01*
X135218571Y-116474952D02*
X135218571Y-116855904D01*
X135266190Y-115522571D02*
X135218571Y-115379714D01*
X135218571Y-115379714D02*
X135170952Y-115332095D01*
X135170952Y-115332095D02*
X135075714Y-115284476D01*
X135075714Y-115284476D02*
X134932857Y-115284476D01*
X134932857Y-115284476D02*
X134837619Y-115332095D01*
X134837619Y-115332095D02*
X134790000Y-115379714D01*
X134790000Y-115379714D02*
X134742380Y-115474952D01*
X134742380Y-115474952D02*
X134742380Y-115855904D01*
X134742380Y-115855904D02*
X135742380Y-115855904D01*
X135742380Y-115855904D02*
X135742380Y-115522571D01*
X135742380Y-115522571D02*
X135694761Y-115427333D01*
X135694761Y-115427333D02*
X135647142Y-115379714D01*
X135647142Y-115379714D02*
X135551904Y-115332095D01*
X135551904Y-115332095D02*
X135456666Y-115332095D01*
X135456666Y-115332095D02*
X135361428Y-115379714D01*
X135361428Y-115379714D02*
X135313809Y-115427333D01*
X135313809Y-115427333D02*
X135266190Y-115522571D01*
X135266190Y-115522571D02*
X135266190Y-115855904D01*
X135742380Y-114951142D02*
X135742380Y-114284476D01*
X135742380Y-114284476D02*
X134742380Y-114713047D01*
X135790000Y-113189238D02*
X134504285Y-114046380D01*
X135742380Y-112998761D02*
X135742380Y-112427333D01*
X134742380Y-112713047D02*
X135742380Y-112713047D01*
X134742380Y-112189237D02*
X135409047Y-111665428D01*
X135409047Y-112189237D02*
X134742380Y-111665428D01*
X112517380Y-115331904D02*
X113517380Y-115331904D01*
X113517380Y-115331904D02*
X112803095Y-114998571D01*
X112803095Y-114998571D02*
X113517380Y-114665238D01*
X113517380Y-114665238D02*
X112517380Y-114665238D01*
X112612619Y-113617619D02*
X112565000Y-113665238D01*
X112565000Y-113665238D02*
X112517380Y-113808095D01*
X112517380Y-113808095D02*
X112517380Y-113903333D01*
X112517380Y-113903333D02*
X112565000Y-114046190D01*
X112565000Y-114046190D02*
X112660238Y-114141428D01*
X112660238Y-114141428D02*
X112755476Y-114189047D01*
X112755476Y-114189047D02*
X112945952Y-114236666D01*
X112945952Y-114236666D02*
X113088809Y-114236666D01*
X113088809Y-114236666D02*
X113279285Y-114189047D01*
X113279285Y-114189047D02*
X113374523Y-114141428D01*
X113374523Y-114141428D02*
X113469761Y-114046190D01*
X113469761Y-114046190D02*
X113517380Y-113903333D01*
X113517380Y-113903333D02*
X113517380Y-113808095D01*
X113517380Y-113808095D02*
X113469761Y-113665238D01*
X113469761Y-113665238D02*
X113422142Y-113617619D01*
X112517380Y-112712857D02*
X112517380Y-113189047D01*
X112517380Y-113189047D02*
X113517380Y-113189047D01*
X112517380Y-111808095D02*
X112993571Y-112141428D01*
X112517380Y-112379523D02*
X113517380Y-112379523D01*
X113517380Y-112379523D02*
X113517380Y-111998571D01*
X113517380Y-111998571D02*
X113469761Y-111903333D01*
X113469761Y-111903333D02*
X113422142Y-111855714D01*
X113422142Y-111855714D02*
X113326904Y-111808095D01*
X113326904Y-111808095D02*
X113184047Y-111808095D01*
X113184047Y-111808095D02*
X113088809Y-111855714D01*
X113088809Y-111855714D02*
X113041190Y-111903333D01*
X113041190Y-111903333D02*
X112993571Y-111998571D01*
X112993571Y-111998571D02*
X112993571Y-112379523D01*
X171622380Y-99774047D02*
X172098571Y-100107380D01*
X171622380Y-100345475D02*
X172622380Y-100345475D01*
X172622380Y-100345475D02*
X172622380Y-99964523D01*
X172622380Y-99964523D02*
X172574761Y-99869285D01*
X172574761Y-99869285D02*
X172527142Y-99821666D01*
X172527142Y-99821666D02*
X172431904Y-99774047D01*
X172431904Y-99774047D02*
X172289047Y-99774047D01*
X172289047Y-99774047D02*
X172193809Y-99821666D01*
X172193809Y-99821666D02*
X172146190Y-99869285D01*
X172146190Y-99869285D02*
X172098571Y-99964523D01*
X172098571Y-99964523D02*
X172098571Y-100345475D01*
X171717619Y-98774047D02*
X171670000Y-98821666D01*
X171670000Y-98821666D02*
X171622380Y-98964523D01*
X171622380Y-98964523D02*
X171622380Y-99059761D01*
X171622380Y-99059761D02*
X171670000Y-99202618D01*
X171670000Y-99202618D02*
X171765238Y-99297856D01*
X171765238Y-99297856D02*
X171860476Y-99345475D01*
X171860476Y-99345475D02*
X172050952Y-99393094D01*
X172050952Y-99393094D02*
X172193809Y-99393094D01*
X172193809Y-99393094D02*
X172384285Y-99345475D01*
X172384285Y-99345475D02*
X172479523Y-99297856D01*
X172479523Y-99297856D02*
X172574761Y-99202618D01*
X172574761Y-99202618D02*
X172622380Y-99059761D01*
X172622380Y-99059761D02*
X172622380Y-98964523D01*
X172622380Y-98964523D02*
X172574761Y-98821666D01*
X172574761Y-98821666D02*
X172527142Y-98774047D01*
X172622380Y-98440713D02*
X172622380Y-97774047D01*
X172622380Y-97774047D02*
X171622380Y-98202618D01*
X172670000Y-96678809D02*
X171384285Y-97535951D01*
X171908095Y-96393094D02*
X171908095Y-95916904D01*
X171622380Y-96488332D02*
X172622380Y-96154999D01*
X172622380Y-96154999D02*
X171622380Y-95821666D01*
X171622380Y-95488332D02*
X172622380Y-95488332D01*
X172622380Y-95488332D02*
X171622380Y-94916904D01*
X171622380Y-94916904D02*
X172622380Y-94916904D01*
X171622380Y-94393094D02*
X171622380Y-94202618D01*
X171622380Y-94202618D02*
X171670000Y-94107380D01*
X171670000Y-94107380D02*
X171717619Y-94059761D01*
X171717619Y-94059761D02*
X171860476Y-93964523D01*
X171860476Y-93964523D02*
X172050952Y-93916904D01*
X172050952Y-93916904D02*
X172431904Y-93916904D01*
X172431904Y-93916904D02*
X172527142Y-93964523D01*
X172527142Y-93964523D02*
X172574761Y-94012142D01*
X172574761Y-94012142D02*
X172622380Y-94107380D01*
X172622380Y-94107380D02*
X172622380Y-94297856D01*
X172622380Y-94297856D02*
X172574761Y-94393094D01*
X172574761Y-94393094D02*
X172527142Y-94440713D01*
X172527142Y-94440713D02*
X172431904Y-94488332D01*
X172431904Y-94488332D02*
X172193809Y-94488332D01*
X172193809Y-94488332D02*
X172098571Y-94440713D01*
X172098571Y-94440713D02*
X172050952Y-94393094D01*
X172050952Y-94393094D02*
X172003333Y-94297856D01*
X172003333Y-94297856D02*
X172003333Y-94107380D01*
X172003333Y-94107380D02*
X172050952Y-94012142D01*
X172050952Y-94012142D02*
X172098571Y-93964523D01*
X172098571Y-93964523D02*
X172193809Y-93916904D01*
X132202380Y-116284476D02*
X132678571Y-116617809D01*
X132202380Y-116855904D02*
X133202380Y-116855904D01*
X133202380Y-116855904D02*
X133202380Y-116474952D01*
X133202380Y-116474952D02*
X133154761Y-116379714D01*
X133154761Y-116379714D02*
X133107142Y-116332095D01*
X133107142Y-116332095D02*
X133011904Y-116284476D01*
X133011904Y-116284476D02*
X132869047Y-116284476D01*
X132869047Y-116284476D02*
X132773809Y-116332095D01*
X132773809Y-116332095D02*
X132726190Y-116379714D01*
X132726190Y-116379714D02*
X132678571Y-116474952D01*
X132678571Y-116474952D02*
X132678571Y-116855904D01*
X132297619Y-115284476D02*
X132250000Y-115332095D01*
X132250000Y-115332095D02*
X132202380Y-115474952D01*
X132202380Y-115474952D02*
X132202380Y-115570190D01*
X132202380Y-115570190D02*
X132250000Y-115713047D01*
X132250000Y-115713047D02*
X132345238Y-115808285D01*
X132345238Y-115808285D02*
X132440476Y-115855904D01*
X132440476Y-115855904D02*
X132630952Y-115903523D01*
X132630952Y-115903523D02*
X132773809Y-115903523D01*
X132773809Y-115903523D02*
X132964285Y-115855904D01*
X132964285Y-115855904D02*
X133059523Y-115808285D01*
X133059523Y-115808285D02*
X133154761Y-115713047D01*
X133154761Y-115713047D02*
X133202380Y-115570190D01*
X133202380Y-115570190D02*
X133202380Y-115474952D01*
X133202380Y-115474952D02*
X133154761Y-115332095D01*
X133154761Y-115332095D02*
X133107142Y-115284476D01*
X133202380Y-114951142D02*
X133202380Y-114332095D01*
X133202380Y-114332095D02*
X132821428Y-114665428D01*
X132821428Y-114665428D02*
X132821428Y-114522571D01*
X132821428Y-114522571D02*
X132773809Y-114427333D01*
X132773809Y-114427333D02*
X132726190Y-114379714D01*
X132726190Y-114379714D02*
X132630952Y-114332095D01*
X132630952Y-114332095D02*
X132392857Y-114332095D01*
X132392857Y-114332095D02*
X132297619Y-114379714D01*
X132297619Y-114379714D02*
X132250000Y-114427333D01*
X132250000Y-114427333D02*
X132202380Y-114522571D01*
X132202380Y-114522571D02*
X132202380Y-114808285D01*
X132202380Y-114808285D02*
X132250000Y-114903523D01*
X132250000Y-114903523D02*
X132297619Y-114951142D01*
X133250000Y-113189238D02*
X131964285Y-114046380D01*
X132488095Y-112903523D02*
X132488095Y-112427333D01*
X132202380Y-112998761D02*
X133202380Y-112665428D01*
X133202380Y-112665428D02*
X132202380Y-112332095D01*
X132202380Y-111998761D02*
X133202380Y-111998761D01*
X133202380Y-111998761D02*
X132202380Y-111427333D01*
X132202380Y-111427333D02*
X133202380Y-111427333D01*
X133202380Y-111046380D02*
X133202380Y-110379714D01*
X133202380Y-110379714D02*
X132202380Y-110808285D01*
X137282380Y-116284476D02*
X137758571Y-116617809D01*
X137282380Y-116855904D02*
X138282380Y-116855904D01*
X138282380Y-116855904D02*
X138282380Y-116474952D01*
X138282380Y-116474952D02*
X138234761Y-116379714D01*
X138234761Y-116379714D02*
X138187142Y-116332095D01*
X138187142Y-116332095D02*
X138091904Y-116284476D01*
X138091904Y-116284476D02*
X137949047Y-116284476D01*
X137949047Y-116284476D02*
X137853809Y-116332095D01*
X137853809Y-116332095D02*
X137806190Y-116379714D01*
X137806190Y-116379714D02*
X137758571Y-116474952D01*
X137758571Y-116474952D02*
X137758571Y-116855904D01*
X137806190Y-115522571D02*
X137758571Y-115379714D01*
X137758571Y-115379714D02*
X137710952Y-115332095D01*
X137710952Y-115332095D02*
X137615714Y-115284476D01*
X137615714Y-115284476D02*
X137472857Y-115284476D01*
X137472857Y-115284476D02*
X137377619Y-115332095D01*
X137377619Y-115332095D02*
X137330000Y-115379714D01*
X137330000Y-115379714D02*
X137282380Y-115474952D01*
X137282380Y-115474952D02*
X137282380Y-115855904D01*
X137282380Y-115855904D02*
X138282380Y-115855904D01*
X138282380Y-115855904D02*
X138282380Y-115522571D01*
X138282380Y-115522571D02*
X138234761Y-115427333D01*
X138234761Y-115427333D02*
X138187142Y-115379714D01*
X138187142Y-115379714D02*
X138091904Y-115332095D01*
X138091904Y-115332095D02*
X137996666Y-115332095D01*
X137996666Y-115332095D02*
X137901428Y-115379714D01*
X137901428Y-115379714D02*
X137853809Y-115427333D01*
X137853809Y-115427333D02*
X137806190Y-115522571D01*
X137806190Y-115522571D02*
X137806190Y-115855904D01*
X138282380Y-114427333D02*
X138282380Y-114617809D01*
X138282380Y-114617809D02*
X138234761Y-114713047D01*
X138234761Y-114713047D02*
X138187142Y-114760666D01*
X138187142Y-114760666D02*
X138044285Y-114855904D01*
X138044285Y-114855904D02*
X137853809Y-114903523D01*
X137853809Y-114903523D02*
X137472857Y-114903523D01*
X137472857Y-114903523D02*
X137377619Y-114855904D01*
X137377619Y-114855904D02*
X137330000Y-114808285D01*
X137330000Y-114808285D02*
X137282380Y-114713047D01*
X137282380Y-114713047D02*
X137282380Y-114522571D01*
X137282380Y-114522571D02*
X137330000Y-114427333D01*
X137330000Y-114427333D02*
X137377619Y-114379714D01*
X137377619Y-114379714D02*
X137472857Y-114332095D01*
X137472857Y-114332095D02*
X137710952Y-114332095D01*
X137710952Y-114332095D02*
X137806190Y-114379714D01*
X137806190Y-114379714D02*
X137853809Y-114427333D01*
X137853809Y-114427333D02*
X137901428Y-114522571D01*
X137901428Y-114522571D02*
X137901428Y-114713047D01*
X137901428Y-114713047D02*
X137853809Y-114808285D01*
X137853809Y-114808285D02*
X137806190Y-114855904D01*
X137806190Y-114855904D02*
X137710952Y-114903523D01*
X138330000Y-113189238D02*
X137044285Y-114046380D01*
X137330000Y-112903523D02*
X137282380Y-112760666D01*
X137282380Y-112760666D02*
X137282380Y-112522571D01*
X137282380Y-112522571D02*
X137330000Y-112427333D01*
X137330000Y-112427333D02*
X137377619Y-112379714D01*
X137377619Y-112379714D02*
X137472857Y-112332095D01*
X137472857Y-112332095D02*
X137568095Y-112332095D01*
X137568095Y-112332095D02*
X137663333Y-112379714D01*
X137663333Y-112379714D02*
X137710952Y-112427333D01*
X137710952Y-112427333D02*
X137758571Y-112522571D01*
X137758571Y-112522571D02*
X137806190Y-112713047D01*
X137806190Y-112713047D02*
X137853809Y-112808285D01*
X137853809Y-112808285D02*
X137901428Y-112855904D01*
X137901428Y-112855904D02*
X137996666Y-112903523D01*
X137996666Y-112903523D02*
X138091904Y-112903523D01*
X138091904Y-112903523D02*
X138187142Y-112855904D01*
X138187142Y-112855904D02*
X138234761Y-112808285D01*
X138234761Y-112808285D02*
X138282380Y-112713047D01*
X138282380Y-112713047D02*
X138282380Y-112474952D01*
X138282380Y-112474952D02*
X138234761Y-112332095D01*
X137377619Y-111332095D02*
X137330000Y-111379714D01*
X137330000Y-111379714D02*
X137282380Y-111522571D01*
X137282380Y-111522571D02*
X137282380Y-111617809D01*
X137282380Y-111617809D02*
X137330000Y-111760666D01*
X137330000Y-111760666D02*
X137425238Y-111855904D01*
X137425238Y-111855904D02*
X137520476Y-111903523D01*
X137520476Y-111903523D02*
X137710952Y-111951142D01*
X137710952Y-111951142D02*
X137853809Y-111951142D01*
X137853809Y-111951142D02*
X138044285Y-111903523D01*
X138044285Y-111903523D02*
X138139523Y-111855904D01*
X138139523Y-111855904D02*
X138234761Y-111760666D01*
X138234761Y-111760666D02*
X138282380Y-111617809D01*
X138282380Y-111617809D02*
X138282380Y-111522571D01*
X138282380Y-111522571D02*
X138234761Y-111379714D01*
X138234761Y-111379714D02*
X138187142Y-111332095D01*
X137282380Y-110427333D02*
X137282380Y-110903523D01*
X137282380Y-110903523D02*
X138282380Y-110903523D01*
X163952380Y-99901476D02*
X164428571Y-100234809D01*
X163952380Y-100472904D02*
X164952380Y-100472904D01*
X164952380Y-100472904D02*
X164952380Y-100091952D01*
X164952380Y-100091952D02*
X164904761Y-99996714D01*
X164904761Y-99996714D02*
X164857142Y-99949095D01*
X164857142Y-99949095D02*
X164761904Y-99901476D01*
X164761904Y-99901476D02*
X164619047Y-99901476D01*
X164619047Y-99901476D02*
X164523809Y-99949095D01*
X164523809Y-99949095D02*
X164476190Y-99996714D01*
X164476190Y-99996714D02*
X164428571Y-100091952D01*
X164428571Y-100091952D02*
X164428571Y-100472904D01*
X164047619Y-98901476D02*
X164000000Y-98949095D01*
X164000000Y-98949095D02*
X163952380Y-99091952D01*
X163952380Y-99091952D02*
X163952380Y-99187190D01*
X163952380Y-99187190D02*
X164000000Y-99330047D01*
X164000000Y-99330047D02*
X164095238Y-99425285D01*
X164095238Y-99425285D02*
X164190476Y-99472904D01*
X164190476Y-99472904D02*
X164380952Y-99520523D01*
X164380952Y-99520523D02*
X164523809Y-99520523D01*
X164523809Y-99520523D02*
X164714285Y-99472904D01*
X164714285Y-99472904D02*
X164809523Y-99425285D01*
X164809523Y-99425285D02*
X164904761Y-99330047D01*
X164904761Y-99330047D02*
X164952380Y-99187190D01*
X164952380Y-99187190D02*
X164952380Y-99091952D01*
X164952380Y-99091952D02*
X164904761Y-98949095D01*
X164904761Y-98949095D02*
X164857142Y-98901476D01*
X164619047Y-98044333D02*
X163952380Y-98044333D01*
X165000000Y-98282428D02*
X164285714Y-98520523D01*
X164285714Y-98520523D02*
X164285714Y-97901476D01*
X165000000Y-96806238D02*
X163714285Y-97663380D01*
X164047619Y-95901476D02*
X164000000Y-95949095D01*
X164000000Y-95949095D02*
X163952380Y-96091952D01*
X163952380Y-96091952D02*
X163952380Y-96187190D01*
X163952380Y-96187190D02*
X164000000Y-96330047D01*
X164000000Y-96330047D02*
X164095238Y-96425285D01*
X164095238Y-96425285D02*
X164190476Y-96472904D01*
X164190476Y-96472904D02*
X164380952Y-96520523D01*
X164380952Y-96520523D02*
X164523809Y-96520523D01*
X164523809Y-96520523D02*
X164714285Y-96472904D01*
X164714285Y-96472904D02*
X164809523Y-96425285D01*
X164809523Y-96425285D02*
X164904761Y-96330047D01*
X164904761Y-96330047D02*
X164952380Y-96187190D01*
X164952380Y-96187190D02*
X164952380Y-96091952D01*
X164952380Y-96091952D02*
X164904761Y-95949095D01*
X164904761Y-95949095D02*
X164857142Y-95901476D01*
X164952380Y-95568142D02*
X163952380Y-95330047D01*
X163952380Y-95330047D02*
X164666666Y-95139571D01*
X164666666Y-95139571D02*
X163952380Y-94949095D01*
X163952380Y-94949095D02*
X164952380Y-94711000D01*
X164904761Y-93806238D02*
X164952380Y-93901476D01*
X164952380Y-93901476D02*
X164952380Y-94044333D01*
X164952380Y-94044333D02*
X164904761Y-94187190D01*
X164904761Y-94187190D02*
X164809523Y-94282428D01*
X164809523Y-94282428D02*
X164714285Y-94330047D01*
X164714285Y-94330047D02*
X164523809Y-94377666D01*
X164523809Y-94377666D02*
X164380952Y-94377666D01*
X164380952Y-94377666D02*
X164190476Y-94330047D01*
X164190476Y-94330047D02*
X164095238Y-94282428D01*
X164095238Y-94282428D02*
X164000000Y-94187190D01*
X164000000Y-94187190D02*
X163952380Y-94044333D01*
X163952380Y-94044333D02*
X163952380Y-93949095D01*
X163952380Y-93949095D02*
X164000000Y-93806238D01*
X164000000Y-93806238D02*
X164047619Y-93758619D01*
X164047619Y-93758619D02*
X164380952Y-93758619D01*
X164380952Y-93758619D02*
X164380952Y-93949095D01*
X138806380Y-88725476D02*
X139282571Y-89058809D01*
X138806380Y-89296904D02*
X139806380Y-89296904D01*
X139806380Y-89296904D02*
X139806380Y-88915952D01*
X139806380Y-88915952D02*
X139758761Y-88820714D01*
X139758761Y-88820714D02*
X139711142Y-88773095D01*
X139711142Y-88773095D02*
X139615904Y-88725476D01*
X139615904Y-88725476D02*
X139473047Y-88725476D01*
X139473047Y-88725476D02*
X139377809Y-88773095D01*
X139377809Y-88773095D02*
X139330190Y-88820714D01*
X139330190Y-88820714D02*
X139282571Y-88915952D01*
X139282571Y-88915952D02*
X139282571Y-89296904D01*
X138806380Y-88392142D02*
X139473047Y-87868333D01*
X139473047Y-88392142D02*
X138806380Y-87868333D01*
X153842380Y-99774047D02*
X154318571Y-100107380D01*
X153842380Y-100345475D02*
X154842380Y-100345475D01*
X154842380Y-100345475D02*
X154842380Y-99964523D01*
X154842380Y-99964523D02*
X154794761Y-99869285D01*
X154794761Y-99869285D02*
X154747142Y-99821666D01*
X154747142Y-99821666D02*
X154651904Y-99774047D01*
X154651904Y-99774047D02*
X154509047Y-99774047D01*
X154509047Y-99774047D02*
X154413809Y-99821666D01*
X154413809Y-99821666D02*
X154366190Y-99869285D01*
X154366190Y-99869285D02*
X154318571Y-99964523D01*
X154318571Y-99964523D02*
X154318571Y-100345475D01*
X153937619Y-98774047D02*
X153890000Y-98821666D01*
X153890000Y-98821666D02*
X153842380Y-98964523D01*
X153842380Y-98964523D02*
X153842380Y-99059761D01*
X153842380Y-99059761D02*
X153890000Y-99202618D01*
X153890000Y-99202618D02*
X153985238Y-99297856D01*
X153985238Y-99297856D02*
X154080476Y-99345475D01*
X154080476Y-99345475D02*
X154270952Y-99393094D01*
X154270952Y-99393094D02*
X154413809Y-99393094D01*
X154413809Y-99393094D02*
X154604285Y-99345475D01*
X154604285Y-99345475D02*
X154699523Y-99297856D01*
X154699523Y-99297856D02*
X154794761Y-99202618D01*
X154794761Y-99202618D02*
X154842380Y-99059761D01*
X154842380Y-99059761D02*
X154842380Y-98964523D01*
X154842380Y-98964523D02*
X154794761Y-98821666D01*
X154794761Y-98821666D02*
X154747142Y-98774047D01*
X154842380Y-98154999D02*
X154842380Y-98059761D01*
X154842380Y-98059761D02*
X154794761Y-97964523D01*
X154794761Y-97964523D02*
X154747142Y-97916904D01*
X154747142Y-97916904D02*
X154651904Y-97869285D01*
X154651904Y-97869285D02*
X154461428Y-97821666D01*
X154461428Y-97821666D02*
X154223333Y-97821666D01*
X154223333Y-97821666D02*
X154032857Y-97869285D01*
X154032857Y-97869285D02*
X153937619Y-97916904D01*
X153937619Y-97916904D02*
X153890000Y-97964523D01*
X153890000Y-97964523D02*
X153842380Y-98059761D01*
X153842380Y-98059761D02*
X153842380Y-98154999D01*
X153842380Y-98154999D02*
X153890000Y-98250237D01*
X153890000Y-98250237D02*
X153937619Y-98297856D01*
X153937619Y-98297856D02*
X154032857Y-98345475D01*
X154032857Y-98345475D02*
X154223333Y-98393094D01*
X154223333Y-98393094D02*
X154461428Y-98393094D01*
X154461428Y-98393094D02*
X154651904Y-98345475D01*
X154651904Y-98345475D02*
X154747142Y-98297856D01*
X154747142Y-98297856D02*
X154794761Y-98250237D01*
X154794761Y-98250237D02*
X154842380Y-98154999D01*
X154890000Y-96678809D02*
X153604285Y-97535951D01*
X154128095Y-96393094D02*
X154128095Y-95916904D01*
X153842380Y-96488332D02*
X154842380Y-96154999D01*
X154842380Y-96154999D02*
X153842380Y-95821666D01*
X153842380Y-95488332D02*
X154842380Y-95488332D01*
X154842380Y-95488332D02*
X153842380Y-94916904D01*
X153842380Y-94916904D02*
X154842380Y-94916904D01*
X154509047Y-94012142D02*
X153842380Y-94012142D01*
X154890000Y-94250237D02*
X154175714Y-94488332D01*
X154175714Y-94488332D02*
X154175714Y-93869285D01*
X156382380Y-99774047D02*
X156858571Y-100107380D01*
X156382380Y-100345475D02*
X157382380Y-100345475D01*
X157382380Y-100345475D02*
X157382380Y-99964523D01*
X157382380Y-99964523D02*
X157334761Y-99869285D01*
X157334761Y-99869285D02*
X157287142Y-99821666D01*
X157287142Y-99821666D02*
X157191904Y-99774047D01*
X157191904Y-99774047D02*
X157049047Y-99774047D01*
X157049047Y-99774047D02*
X156953809Y-99821666D01*
X156953809Y-99821666D02*
X156906190Y-99869285D01*
X156906190Y-99869285D02*
X156858571Y-99964523D01*
X156858571Y-99964523D02*
X156858571Y-100345475D01*
X156477619Y-98774047D02*
X156430000Y-98821666D01*
X156430000Y-98821666D02*
X156382380Y-98964523D01*
X156382380Y-98964523D02*
X156382380Y-99059761D01*
X156382380Y-99059761D02*
X156430000Y-99202618D01*
X156430000Y-99202618D02*
X156525238Y-99297856D01*
X156525238Y-99297856D02*
X156620476Y-99345475D01*
X156620476Y-99345475D02*
X156810952Y-99393094D01*
X156810952Y-99393094D02*
X156953809Y-99393094D01*
X156953809Y-99393094D02*
X157144285Y-99345475D01*
X157144285Y-99345475D02*
X157239523Y-99297856D01*
X157239523Y-99297856D02*
X157334761Y-99202618D01*
X157334761Y-99202618D02*
X157382380Y-99059761D01*
X157382380Y-99059761D02*
X157382380Y-98964523D01*
X157382380Y-98964523D02*
X157334761Y-98821666D01*
X157334761Y-98821666D02*
X157287142Y-98774047D01*
X156382380Y-97821666D02*
X156382380Y-98393094D01*
X156382380Y-98107380D02*
X157382380Y-98107380D01*
X157382380Y-98107380D02*
X157239523Y-98202618D01*
X157239523Y-98202618D02*
X157144285Y-98297856D01*
X157144285Y-98297856D02*
X157096666Y-98393094D01*
X157430000Y-96678809D02*
X156144285Y-97535951D01*
X156668095Y-96393094D02*
X156668095Y-95916904D01*
X156382380Y-96488332D02*
X157382380Y-96154999D01*
X157382380Y-96154999D02*
X156382380Y-95821666D01*
X156382380Y-95488332D02*
X157382380Y-95488332D01*
X157382380Y-95488332D02*
X156382380Y-94916904D01*
X156382380Y-94916904D02*
X157382380Y-94916904D01*
X157382380Y-93964523D02*
X157382380Y-94440713D01*
X157382380Y-94440713D02*
X156906190Y-94488332D01*
X156906190Y-94488332D02*
X156953809Y-94440713D01*
X156953809Y-94440713D02*
X157001428Y-94345475D01*
X157001428Y-94345475D02*
X157001428Y-94107380D01*
X157001428Y-94107380D02*
X156953809Y-94012142D01*
X156953809Y-94012142D02*
X156906190Y-93964523D01*
X156906190Y-93964523D02*
X156810952Y-93916904D01*
X156810952Y-93916904D02*
X156572857Y-93916904D01*
X156572857Y-93916904D02*
X156477619Y-93964523D01*
X156477619Y-93964523D02*
X156430000Y-94012142D01*
X156430000Y-94012142D02*
X156382380Y-94107380D01*
X156382380Y-94107380D02*
X156382380Y-94345475D01*
X156382380Y-94345475D02*
X156430000Y-94440713D01*
X156430000Y-94440713D02*
X156477619Y-94488332D01*
X145585000Y-88074523D02*
X145537380Y-87931666D01*
X145537380Y-87931666D02*
X145537380Y-87693571D01*
X145537380Y-87693571D02*
X145585000Y-87598333D01*
X145585000Y-87598333D02*
X145632619Y-87550714D01*
X145632619Y-87550714D02*
X145727857Y-87503095D01*
X145727857Y-87503095D02*
X145823095Y-87503095D01*
X145823095Y-87503095D02*
X145918333Y-87550714D01*
X145918333Y-87550714D02*
X145965952Y-87598333D01*
X145965952Y-87598333D02*
X146013571Y-87693571D01*
X146013571Y-87693571D02*
X146061190Y-87884047D01*
X146061190Y-87884047D02*
X146108809Y-87979285D01*
X146108809Y-87979285D02*
X146156428Y-88026904D01*
X146156428Y-88026904D02*
X146251666Y-88074523D01*
X146251666Y-88074523D02*
X146346904Y-88074523D01*
X146346904Y-88074523D02*
X146442142Y-88026904D01*
X146442142Y-88026904D02*
X146489761Y-87979285D01*
X146489761Y-87979285D02*
X146537380Y-87884047D01*
X146537380Y-87884047D02*
X146537380Y-87645952D01*
X146537380Y-87645952D02*
X146489761Y-87503095D01*
X146537380Y-87169761D02*
X145537380Y-86931666D01*
X145537380Y-86931666D02*
X146251666Y-86741190D01*
X146251666Y-86741190D02*
X145537380Y-86550714D01*
X145537380Y-86550714D02*
X146537380Y-86312619D01*
X146537380Y-86026904D02*
X146537380Y-85407857D01*
X146537380Y-85407857D02*
X146156428Y-85741190D01*
X146156428Y-85741190D02*
X146156428Y-85598333D01*
X146156428Y-85598333D02*
X146108809Y-85503095D01*
X146108809Y-85503095D02*
X146061190Y-85455476D01*
X146061190Y-85455476D02*
X145965952Y-85407857D01*
X145965952Y-85407857D02*
X145727857Y-85407857D01*
X145727857Y-85407857D02*
X145632619Y-85455476D01*
X145632619Y-85455476D02*
X145585000Y-85503095D01*
X145585000Y-85503095D02*
X145537380Y-85598333D01*
X145537380Y-85598333D02*
X145537380Y-85884047D01*
X145537380Y-85884047D02*
X145585000Y-85979285D01*
X145585000Y-85979285D02*
X145632619Y-86026904D01*
X170048333Y-93503761D02*
X170095952Y-93456142D01*
X170095952Y-93456142D02*
X170143571Y-93360904D01*
X170143571Y-93360904D02*
X170048333Y-93170428D01*
X170048333Y-93170428D02*
X170095952Y-93075190D01*
X170095952Y-93075190D02*
X170143571Y-93027571D01*
X122090000Y-117919523D02*
X122042380Y-117776666D01*
X122042380Y-117776666D02*
X122042380Y-117538571D01*
X122042380Y-117538571D02*
X122090000Y-117443333D01*
X122090000Y-117443333D02*
X122137619Y-117395714D01*
X122137619Y-117395714D02*
X122232857Y-117348095D01*
X122232857Y-117348095D02*
X122328095Y-117348095D01*
X122328095Y-117348095D02*
X122423333Y-117395714D01*
X122423333Y-117395714D02*
X122470952Y-117443333D01*
X122470952Y-117443333D02*
X122518571Y-117538571D01*
X122518571Y-117538571D02*
X122566190Y-117729047D01*
X122566190Y-117729047D02*
X122613809Y-117824285D01*
X122613809Y-117824285D02*
X122661428Y-117871904D01*
X122661428Y-117871904D02*
X122756666Y-117919523D01*
X122756666Y-117919523D02*
X122851904Y-117919523D01*
X122851904Y-117919523D02*
X122947142Y-117871904D01*
X122947142Y-117871904D02*
X122994761Y-117824285D01*
X122994761Y-117824285D02*
X123042380Y-117729047D01*
X123042380Y-117729047D02*
X123042380Y-117490952D01*
X123042380Y-117490952D02*
X122994761Y-117348095D01*
X123042380Y-117014761D02*
X122042380Y-116776666D01*
X122042380Y-116776666D02*
X122756666Y-116586190D01*
X122756666Y-116586190D02*
X122042380Y-116395714D01*
X122042380Y-116395714D02*
X123042380Y-116157619D01*
X123042380Y-115300476D02*
X123042380Y-115776666D01*
X123042380Y-115776666D02*
X122566190Y-115824285D01*
X122566190Y-115824285D02*
X122613809Y-115776666D01*
X122613809Y-115776666D02*
X122661428Y-115681428D01*
X122661428Y-115681428D02*
X122661428Y-115443333D01*
X122661428Y-115443333D02*
X122613809Y-115348095D01*
X122613809Y-115348095D02*
X122566190Y-115300476D01*
X122566190Y-115300476D02*
X122470952Y-115252857D01*
X122470952Y-115252857D02*
X122232857Y-115252857D01*
X122232857Y-115252857D02*
X122137619Y-115300476D01*
X122137619Y-115300476D02*
X122090000Y-115348095D01*
X122090000Y-115348095D02*
X122042380Y-115443333D01*
X122042380Y-115443333D02*
X122042380Y-115681428D01*
X122042380Y-115681428D02*
X122090000Y-115776666D01*
X122090000Y-115776666D02*
X122137619Y-115824285D01*
%TO.C,G2*%
D12*
X146464713Y-98279782D02*
X146572974Y-98281636D01*
X146669892Y-98285030D01*
X146749041Y-98289967D01*
X146803994Y-98296452D01*
X146828326Y-98304489D01*
X146831921Y-98312696D01*
X146843252Y-98353519D01*
X146859278Y-98422524D01*
X146878805Y-98514203D01*
X146900638Y-98623050D01*
X146923582Y-98743558D01*
X146935841Y-98809357D01*
X146957099Y-98922135D01*
X146975713Y-99019207D01*
X146990672Y-99095382D01*
X147000964Y-99145469D01*
X147005578Y-99164276D01*
X147006529Y-99164983D01*
X147030690Y-99176961D01*
X147081306Y-99199794D01*
X147151662Y-99230630D01*
X147235042Y-99266613D01*
X147324730Y-99304891D01*
X147414011Y-99342609D01*
X147496168Y-99376913D01*
X147564487Y-99404949D01*
X147612252Y-99423864D01*
X147632746Y-99430803D01*
X147639957Y-99427742D01*
X147674272Y-99407372D01*
X147732030Y-99370422D01*
X147808701Y-99319860D01*
X147899752Y-99258657D01*
X148000650Y-99189781D01*
X148055907Y-99151994D01*
X148152785Y-99086782D01*
X148237807Y-99030871D01*
X148306338Y-98987241D01*
X148353740Y-98958877D01*
X148375377Y-98948759D01*
X148387113Y-98955790D01*
X148422182Y-98985197D01*
X148475255Y-99033441D01*
X148541836Y-99096093D01*
X148617426Y-99168725D01*
X148697528Y-99246908D01*
X148777646Y-99326214D01*
X148853282Y-99402213D01*
X148919938Y-99470478D01*
X148973118Y-99526580D01*
X149008324Y-99566090D01*
X149021058Y-99584579D01*
X149016107Y-99594843D01*
X148993143Y-99632530D01*
X148954062Y-99693348D01*
X148901728Y-99772913D01*
X148839004Y-99866843D01*
X148768754Y-99970754D01*
X148516449Y-100341794D01*
X148643947Y-100651080D01*
X148771445Y-100960365D01*
X149216069Y-101044186D01*
X149660693Y-101128006D01*
X149660693Y-102053454D01*
X149216069Y-102137275D01*
X148771445Y-102221095D01*
X148516449Y-102839667D01*
X148768754Y-103210707D01*
X148818494Y-103284144D01*
X148883782Y-103381499D01*
X148939546Y-103465787D01*
X148982922Y-103532631D01*
X149011047Y-103577654D01*
X149021058Y-103596478D01*
X149013939Y-103608039D01*
X148984106Y-103642596D01*
X148935148Y-103694894D01*
X148871560Y-103760500D01*
X148797837Y-103834983D01*
X148718475Y-103913913D01*
X148637969Y-103992856D01*
X148560815Y-104067384D01*
X148491507Y-104133063D01*
X148434543Y-104185463D01*
X148394416Y-104220153D01*
X148375623Y-104232701D01*
X148367549Y-104229782D01*
X148331531Y-104209571D01*
X148272256Y-104172663D01*
X148194370Y-104122050D01*
X148102519Y-104060725D01*
X148001350Y-103991679D01*
X147946174Y-103953787D01*
X147850116Y-103888606D01*
X147766283Y-103832723D01*
X147699223Y-103789117D01*
X147653481Y-103760769D01*
X147633604Y-103750657D01*
X147632503Y-103750823D01*
X147607306Y-103759743D01*
X147555853Y-103780206D01*
X147484865Y-103809360D01*
X147401065Y-103844353D01*
X147311172Y-103882332D01*
X147221909Y-103920445D01*
X147139997Y-103955839D01*
X147072157Y-103985662D01*
X147025110Y-104007061D01*
X147005578Y-104017184D01*
X147003845Y-104023174D01*
X146996031Y-104059566D01*
X146983085Y-104124427D01*
X146966021Y-104212565D01*
X146945849Y-104318787D01*
X146923582Y-104437902D01*
X146911777Y-104500683D01*
X146889252Y-104615912D01*
X146868450Y-104716662D01*
X146850565Y-104797426D01*
X146836792Y-104852698D01*
X146828326Y-104876971D01*
X146819934Y-104881331D01*
X146778928Y-104888563D01*
X146710632Y-104894246D01*
X146621471Y-104898382D01*
X146517872Y-104900977D01*
X146406260Y-104902036D01*
X146293062Y-104901561D01*
X146184704Y-104899559D01*
X146087611Y-104896033D01*
X146008210Y-104890987D01*
X145952928Y-104884427D01*
X145928190Y-104876356D01*
X145925400Y-104871458D01*
X145913431Y-104834930D01*
X145897595Y-104771565D01*
X145879626Y-104688686D01*
X145861259Y-104593618D01*
X145855409Y-104561542D01*
X145828202Y-104413393D01*
X145806337Y-104296961D01*
X145788907Y-104208209D01*
X145775004Y-104143103D01*
X145763723Y-104097606D01*
X145754157Y-104067682D01*
X145745399Y-104049294D01*
X145736543Y-104038407D01*
X145735057Y-104037142D01*
X145704069Y-104019338D01*
X145647366Y-103992994D01*
X145571601Y-103960661D01*
X145483426Y-103924893D01*
X145389493Y-103888244D01*
X145296453Y-103853266D01*
X145210959Y-103822513D01*
X145139664Y-103798538D01*
X145089218Y-103783895D01*
X145066274Y-103781136D01*
X145063297Y-103782981D01*
X145034507Y-103802075D01*
X144981405Y-103837984D01*
X144908883Y-103887378D01*
X144821833Y-103946927D01*
X144725146Y-104013303D01*
X144698544Y-104031520D01*
X144603125Y-104095577D01*
X144517788Y-104150937D01*
X144447595Y-104194439D01*
X144397606Y-104222924D01*
X144372884Y-104233232D01*
X144366384Y-104231011D01*
X144334356Y-104207858D01*
X144282055Y-104162177D01*
X144213001Y-104097241D01*
X144130714Y-104016319D01*
X144038714Y-103922685D01*
X143987219Y-103869165D01*
X143907017Y-103784542D01*
X143838322Y-103710475D01*
X143784748Y-103650941D01*
X143749915Y-103609917D01*
X143737437Y-103591381D01*
X143742062Y-103578646D01*
X143763943Y-103539436D01*
X143799727Y-103482495D01*
X143844883Y-103415250D01*
X143877835Y-103367438D01*
X143943273Y-103271985D01*
X144012772Y-103170125D01*
X144075925Y-103077088D01*
X144199200Y-102894832D01*
X144116480Y-102741841D01*
X144097387Y-102705817D01*
X144064728Y-102640303D01*
X144042181Y-102589640D01*
X144033774Y-102562564D01*
X144044570Y-102553703D01*
X144085677Y-102531699D01*
X144153451Y-102499199D01*
X144243591Y-102458010D01*
X144351795Y-102409942D01*
X144473763Y-102356802D01*
X144605192Y-102300399D01*
X144741782Y-102242542D01*
X144879233Y-102185038D01*
X145013242Y-102129697D01*
X145139509Y-102078326D01*
X145253732Y-102032735D01*
X145351610Y-101994732D01*
X145428843Y-101966124D01*
X145481129Y-101948721D01*
X145504167Y-101944331D01*
X145504840Y-101944628D01*
X145526137Y-101965077D01*
X145559492Y-102007850D01*
X145597989Y-102064117D01*
X145609744Y-102081877D01*
X145721265Y-102217014D01*
X145854094Y-102328856D01*
X146002702Y-102414755D01*
X146161560Y-102472062D01*
X146325140Y-102498131D01*
X146487912Y-102490313D01*
X146632685Y-102458644D01*
X146778876Y-102401782D01*
X146909297Y-102318888D01*
X147033187Y-102205131D01*
X147072765Y-102160433D01*
X147170277Y-102015935D01*
X147235950Y-101859838D01*
X147270370Y-101696667D01*
X147274126Y-101530943D01*
X147247806Y-101367192D01*
X147191997Y-101209936D01*
X147107286Y-101063698D01*
X146994263Y-100933004D01*
X146853513Y-100822374D01*
X146818658Y-100801105D01*
X146659345Y-100728810D01*
X146493448Y-100690415D01*
X146325263Y-100684914D01*
X146159087Y-100711301D01*
X145999216Y-100768570D01*
X145849947Y-100855717D01*
X145715577Y-100971736D01*
X145600401Y-101115622D01*
X145597298Y-101120294D01*
X145558067Y-101175964D01*
X145524714Y-101217689D01*
X145504167Y-101236746D01*
X145488059Y-101234342D01*
X145441156Y-101219391D01*
X145368461Y-101192881D01*
X145274275Y-101156620D01*
X145162902Y-101112416D01*
X145038642Y-101062076D01*
X144905798Y-101007407D01*
X144768673Y-100950218D01*
X144631568Y-100892316D01*
X144498785Y-100835510D01*
X144374626Y-100781606D01*
X144263394Y-100732412D01*
X144169391Y-100689737D01*
X144096918Y-100655387D01*
X144050278Y-100631171D01*
X144033774Y-100618897D01*
X144036009Y-100608689D01*
X144052074Y-100568586D01*
X144080241Y-100509318D01*
X144116480Y-100439619D01*
X144199200Y-100286629D01*
X144075925Y-100104373D01*
X144039421Y-100050527D01*
X143971216Y-99950374D01*
X143902902Y-99850525D01*
X143844883Y-99766211D01*
X143813264Y-99719679D01*
X143773980Y-99659200D01*
X143747088Y-99614357D01*
X143737117Y-99592455D01*
X143741350Y-99583045D01*
X143767279Y-99549031D01*
X143812930Y-99496595D01*
X143873814Y-99430301D01*
X143945439Y-99354713D01*
X144023317Y-99274396D01*
X144102955Y-99193913D01*
X144179865Y-99117829D01*
X144249555Y-99050707D01*
X144307536Y-98997112D01*
X144349316Y-98961608D01*
X144370407Y-98948759D01*
X144374419Y-98949500D01*
X144407080Y-98964793D01*
X144463588Y-98997462D01*
X144538837Y-99044350D01*
X144627725Y-99102301D01*
X144725146Y-99168157D01*
X144752018Y-99186627D01*
X144846577Y-99251482D01*
X144930173Y-99308609D01*
X144997916Y-99354678D01*
X145044914Y-99386359D01*
X145066274Y-99400324D01*
X145067189Y-99400668D01*
X145093322Y-99396546D01*
X145146260Y-99380807D01*
X145219353Y-99356004D01*
X145305948Y-99324689D01*
X145399392Y-99289417D01*
X145493035Y-99252740D01*
X145580223Y-99217212D01*
X145654305Y-99185386D01*
X145708629Y-99159816D01*
X145736543Y-99143053D01*
X145738276Y-99141374D01*
X145747044Y-99129372D01*
X145755885Y-99109103D01*
X145765708Y-99076529D01*
X145777417Y-99027616D01*
X145791920Y-98958327D01*
X145810124Y-98864625D01*
X145832934Y-98742476D01*
X145861259Y-98587842D01*
X145867220Y-98555770D01*
X145885648Y-98463893D01*
X145903108Y-98386607D01*
X145917867Y-98331236D01*
X145928190Y-98305105D01*
X145936803Y-98300733D01*
X145978174Y-98293445D01*
X146046759Y-98287669D01*
X146136132Y-98283410D01*
X146239865Y-98280673D01*
X146351535Y-98279462D01*
X146464713Y-98279782D01*
G36*
X146464713Y-98279782D02*
G01*
X146572974Y-98281636D01*
X146669892Y-98285030D01*
X146749041Y-98289967D01*
X146803994Y-98296452D01*
X146828326Y-98304489D01*
X146831921Y-98312696D01*
X146843252Y-98353519D01*
X146859278Y-98422524D01*
X146878805Y-98514203D01*
X146900638Y-98623050D01*
X146923582Y-98743558D01*
X146935841Y-98809357D01*
X146957099Y-98922135D01*
X146975713Y-99019207D01*
X146990672Y-99095382D01*
X147000964Y-99145469D01*
X147005578Y-99164276D01*
X147006529Y-99164983D01*
X147030690Y-99176961D01*
X147081306Y-99199794D01*
X147151662Y-99230630D01*
X147235042Y-99266613D01*
X147324730Y-99304891D01*
X147414011Y-99342609D01*
X147496168Y-99376913D01*
X147564487Y-99404949D01*
X147612252Y-99423864D01*
X147632746Y-99430803D01*
X147639957Y-99427742D01*
X147674272Y-99407372D01*
X147732030Y-99370422D01*
X147808701Y-99319860D01*
X147899752Y-99258657D01*
X148000650Y-99189781D01*
X148055907Y-99151994D01*
X148152785Y-99086782D01*
X148237807Y-99030871D01*
X148306338Y-98987241D01*
X148353740Y-98958877D01*
X148375377Y-98948759D01*
X148387113Y-98955790D01*
X148422182Y-98985197D01*
X148475255Y-99033441D01*
X148541836Y-99096093D01*
X148617426Y-99168725D01*
X148697528Y-99246908D01*
X148777646Y-99326214D01*
X148853282Y-99402213D01*
X148919938Y-99470478D01*
X148973118Y-99526580D01*
X149008324Y-99566090D01*
X149021058Y-99584579D01*
X149016107Y-99594843D01*
X148993143Y-99632530D01*
X148954062Y-99693348D01*
X148901728Y-99772913D01*
X148839004Y-99866843D01*
X148768754Y-99970754D01*
X148516449Y-100341794D01*
X148643947Y-100651080D01*
X148771445Y-100960365D01*
X149216069Y-101044186D01*
X149660693Y-101128006D01*
X149660693Y-102053454D01*
X149216069Y-102137275D01*
X148771445Y-102221095D01*
X148516449Y-102839667D01*
X148768754Y-103210707D01*
X148818494Y-103284144D01*
X148883782Y-103381499D01*
X148939546Y-103465787D01*
X148982922Y-103532631D01*
X149011047Y-103577654D01*
X149021058Y-103596478D01*
X149013939Y-103608039D01*
X148984106Y-103642596D01*
X148935148Y-103694894D01*
X148871560Y-103760500D01*
X148797837Y-103834983D01*
X148718475Y-103913913D01*
X148637969Y-103992856D01*
X148560815Y-104067384D01*
X148491507Y-104133063D01*
X148434543Y-104185463D01*
X148394416Y-104220153D01*
X148375623Y-104232701D01*
X148367549Y-104229782D01*
X148331531Y-104209571D01*
X148272256Y-104172663D01*
X148194370Y-104122050D01*
X148102519Y-104060725D01*
X148001350Y-103991679D01*
X147946174Y-103953787D01*
X147850116Y-103888606D01*
X147766283Y-103832723D01*
X147699223Y-103789117D01*
X147653481Y-103760769D01*
X147633604Y-103750657D01*
X147632503Y-103750823D01*
X147607306Y-103759743D01*
X147555853Y-103780206D01*
X147484865Y-103809360D01*
X147401065Y-103844353D01*
X147311172Y-103882332D01*
X147221909Y-103920445D01*
X147139997Y-103955839D01*
X147072157Y-103985662D01*
X147025110Y-104007061D01*
X147005578Y-104017184D01*
X147003845Y-104023174D01*
X146996031Y-104059566D01*
X146983085Y-104124427D01*
X146966021Y-104212565D01*
X146945849Y-104318787D01*
X146923582Y-104437902D01*
X146911777Y-104500683D01*
X146889252Y-104615912D01*
X146868450Y-104716662D01*
X146850565Y-104797426D01*
X146836792Y-104852698D01*
X146828326Y-104876971D01*
X146819934Y-104881331D01*
X146778928Y-104888563D01*
X146710632Y-104894246D01*
X146621471Y-104898382D01*
X146517872Y-104900977D01*
X146406260Y-104902036D01*
X146293062Y-104901561D01*
X146184704Y-104899559D01*
X146087611Y-104896033D01*
X146008210Y-104890987D01*
X145952928Y-104884427D01*
X145928190Y-104876356D01*
X145925400Y-104871458D01*
X145913431Y-104834930D01*
X145897595Y-104771565D01*
X145879626Y-104688686D01*
X145861259Y-104593618D01*
X145855409Y-104561542D01*
X145828202Y-104413393D01*
X145806337Y-104296961D01*
X145788907Y-104208209D01*
X145775004Y-104143103D01*
X145763723Y-104097606D01*
X145754157Y-104067682D01*
X145745399Y-104049294D01*
X145736543Y-104038407D01*
X145735057Y-104037142D01*
X145704069Y-104019338D01*
X145647366Y-103992994D01*
X145571601Y-103960661D01*
X145483426Y-103924893D01*
X145389493Y-103888244D01*
X145296453Y-103853266D01*
X145210959Y-103822513D01*
X145139664Y-103798538D01*
X145089218Y-103783895D01*
X145066274Y-103781136D01*
X145063297Y-103782981D01*
X145034507Y-103802075D01*
X144981405Y-103837984D01*
X144908883Y-103887378D01*
X144821833Y-103946927D01*
X144725146Y-104013303D01*
X144698544Y-104031520D01*
X144603125Y-104095577D01*
X144517788Y-104150937D01*
X144447595Y-104194439D01*
X144397606Y-104222924D01*
X144372884Y-104233232D01*
X144366384Y-104231011D01*
X144334356Y-104207858D01*
X144282055Y-104162177D01*
X144213001Y-104097241D01*
X144130714Y-104016319D01*
X144038714Y-103922685D01*
X143987219Y-103869165D01*
X143907017Y-103784542D01*
X143838322Y-103710475D01*
X143784748Y-103650941D01*
X143749915Y-103609917D01*
X143737437Y-103591381D01*
X143742062Y-103578646D01*
X143763943Y-103539436D01*
X143799727Y-103482495D01*
X143844883Y-103415250D01*
X143877835Y-103367438D01*
X143943273Y-103271985D01*
X144012772Y-103170125D01*
X144075925Y-103077088D01*
X144199200Y-102894832D01*
X144116480Y-102741841D01*
X144097387Y-102705817D01*
X144064728Y-102640303D01*
X144042181Y-102589640D01*
X144033774Y-102562564D01*
X144044570Y-102553703D01*
X144085677Y-102531699D01*
X144153451Y-102499199D01*
X144243591Y-102458010D01*
X144351795Y-102409942D01*
X144473763Y-102356802D01*
X144605192Y-102300399D01*
X144741782Y-102242542D01*
X144879233Y-102185038D01*
X145013242Y-102129697D01*
X145139509Y-102078326D01*
X145253732Y-102032735D01*
X145351610Y-101994732D01*
X145428843Y-101966124D01*
X145481129Y-101948721D01*
X145504167Y-101944331D01*
X145504840Y-101944628D01*
X145526137Y-101965077D01*
X145559492Y-102007850D01*
X145597989Y-102064117D01*
X145609744Y-102081877D01*
X145721265Y-102217014D01*
X145854094Y-102328856D01*
X146002702Y-102414755D01*
X146161560Y-102472062D01*
X146325140Y-102498131D01*
X146487912Y-102490313D01*
X146632685Y-102458644D01*
X146778876Y-102401782D01*
X146909297Y-102318888D01*
X147033187Y-102205131D01*
X147072765Y-102160433D01*
X147170277Y-102015935D01*
X147235950Y-101859838D01*
X147270370Y-101696667D01*
X147274126Y-101530943D01*
X147247806Y-101367192D01*
X147191997Y-101209936D01*
X147107286Y-101063698D01*
X146994263Y-100933004D01*
X146853513Y-100822374D01*
X146818658Y-100801105D01*
X146659345Y-100728810D01*
X146493448Y-100690415D01*
X146325263Y-100684914D01*
X146159087Y-100711301D01*
X145999216Y-100768570D01*
X145849947Y-100855717D01*
X145715577Y-100971736D01*
X145600401Y-101115622D01*
X145597298Y-101120294D01*
X145558067Y-101175964D01*
X145524714Y-101217689D01*
X145504167Y-101236746D01*
X145488059Y-101234342D01*
X145441156Y-101219391D01*
X145368461Y-101192881D01*
X145274275Y-101156620D01*
X145162902Y-101112416D01*
X145038642Y-101062076D01*
X144905798Y-101007407D01*
X144768673Y-100950218D01*
X144631568Y-100892316D01*
X144498785Y-100835510D01*
X144374626Y-100781606D01*
X144263394Y-100732412D01*
X144169391Y-100689737D01*
X144096918Y-100655387D01*
X144050278Y-100631171D01*
X144033774Y-100618897D01*
X144036009Y-100608689D01*
X144052074Y-100568586D01*
X144080241Y-100509318D01*
X144116480Y-100439619D01*
X144199200Y-100286629D01*
X144075925Y-100104373D01*
X144039421Y-100050527D01*
X143971216Y-99950374D01*
X143902902Y-99850525D01*
X143844883Y-99766211D01*
X143813264Y-99719679D01*
X143773980Y-99659200D01*
X143747088Y-99614357D01*
X143737117Y-99592455D01*
X143741350Y-99583045D01*
X143767279Y-99549031D01*
X143812930Y-99496595D01*
X143873814Y-99430301D01*
X143945439Y-99354713D01*
X144023317Y-99274396D01*
X144102955Y-99193913D01*
X144179865Y-99117829D01*
X144249555Y-99050707D01*
X144307536Y-98997112D01*
X144349316Y-98961608D01*
X144370407Y-98948759D01*
X144374419Y-98949500D01*
X144407080Y-98964793D01*
X144463588Y-98997462D01*
X144538837Y-99044350D01*
X144627725Y-99102301D01*
X144725146Y-99168157D01*
X144752018Y-99186627D01*
X144846577Y-99251482D01*
X144930173Y-99308609D01*
X144997916Y-99354678D01*
X145044914Y-99386359D01*
X145066274Y-99400324D01*
X145067189Y-99400668D01*
X145093322Y-99396546D01*
X145146260Y-99380807D01*
X145219353Y-99356004D01*
X145305948Y-99324689D01*
X145399392Y-99289417D01*
X145493035Y-99252740D01*
X145580223Y-99217212D01*
X145654305Y-99185386D01*
X145708629Y-99159816D01*
X145736543Y-99143053D01*
X145738276Y-99141374D01*
X145747044Y-99129372D01*
X145755885Y-99109103D01*
X145765708Y-99076529D01*
X145777417Y-99027616D01*
X145791920Y-98958327D01*
X145810124Y-98864625D01*
X145832934Y-98742476D01*
X145861259Y-98587842D01*
X145867220Y-98555770D01*
X145885648Y-98463893D01*
X145903108Y-98386607D01*
X145917867Y-98331236D01*
X145928190Y-98305105D01*
X145936803Y-98300733D01*
X145978174Y-98293445D01*
X146046759Y-98287669D01*
X146136132Y-98283410D01*
X146239865Y-98280673D01*
X146351535Y-98279462D01*
X146464713Y-98279782D01*
G37*
%TD*%
%LPC*%
D13*
%TO.C,Q1*%
X187960000Y-93980000D03*
D14*
X187960000Y-96520000D03*
%TD*%
D15*
%TO.C,C1*%
X113665000Y-88900000D03*
D16*
X111165000Y-88900000D03*
%TD*%
%TO.C,C4*%
X104775000Y-111105000D03*
X104775000Y-108605000D03*
%TD*%
D13*
%TO.C,D1*%
X107945000Y-109855000D03*
D17*
X110485000Y-109855000D03*
%TD*%
D13*
%TO.C,D4*%
X142240000Y-109855000D03*
D17*
X144780000Y-109855000D03*
%TD*%
D18*
%TO.C,FB1*%
X116840000Y-93980000D03*
D19*
X104140000Y-93980000D03*
%TD*%
D20*
%TO.C,MH1*%
X105410000Y-86360000D03*
%TD*%
D16*
%TO.C,R6*%
X135255000Y-108585000D03*
D21*
X135255000Y-118745000D03*
%TD*%
D16*
%TO.C,R20*%
X132715000Y-118745000D03*
D21*
X132715000Y-108585000D03*
%TD*%
D22*
%TO.C,SW4*%
X142875000Y-114245000D03*
X149375000Y-114245000D03*
X142875000Y-118745000D03*
X149375000Y-118745000D03*
%TD*%
D16*
%TO.C,C2*%
X118765000Y-107950000D03*
X121265000Y-107950000D03*
%TD*%
%TO.C,C3*%
X121900000Y-95250000D03*
X119400000Y-95250000D03*
%TD*%
D13*
%TO.C,D3*%
X142240000Y-93345000D03*
D17*
X144780000Y-93345000D03*
%TD*%
D22*
%TO.C,SW3*%
X149375000Y-88955000D03*
X142875000Y-88955000D03*
X149375000Y-84455000D03*
X142875000Y-84455000D03*
%TD*%
D16*
%TO.C,R5*%
X137795000Y-108585000D03*
D21*
X137795000Y-118745000D03*
%TD*%
D20*
%TO.C,MH4*%
X105410000Y-116840000D03*
%TD*%
D22*
%TO.C,SW5*%
X119380000Y-114245000D03*
X125880000Y-114245000D03*
X119380000Y-118745000D03*
X125880000Y-118745000D03*
%TD*%
D16*
%TO.C,R19*%
X130175000Y-118745000D03*
D21*
X130175000Y-108585000D03*
%TD*%
D16*
%TO.C,R2*%
X115570000Y-108585000D03*
D21*
X115570000Y-118745000D03*
%TD*%
D23*
%TO.C,U1*%
X118745000Y-105410000D03*
D21*
X121285000Y-105410000D03*
X123825000Y-105410000D03*
X126365000Y-105410000D03*
X128905000Y-105410000D03*
X131445000Y-105410000D03*
X133985000Y-105410000D03*
X136525000Y-105410000D03*
X139065000Y-105410000D03*
X141605000Y-105410000D03*
X141605000Y-97790000D03*
X139065000Y-97790000D03*
X136525000Y-97790000D03*
X133985000Y-97790000D03*
X131445000Y-97790000D03*
X128905000Y-97790000D03*
X126365000Y-97790000D03*
X123825000Y-97790000D03*
X121285000Y-97790000D03*
X118745000Y-97790000D03*
%TD*%
D16*
%TO.C,R13*%
X159385000Y-92075000D03*
D21*
X159385000Y-102235000D03*
%TD*%
D16*
%TO.C,R9*%
X159385000Y-107315000D03*
D21*
X159385000Y-117475000D03*
%TD*%
D16*
%TO.C,R8*%
X156845000Y-107315000D03*
D21*
X156845000Y-117475000D03*
%TD*%
D16*
%TO.C,R14*%
X161925000Y-92075000D03*
D21*
X161925000Y-102235000D03*
%TD*%
D16*
%TO.C,R10*%
X161925000Y-107315000D03*
D21*
X161925000Y-117475000D03*
%TD*%
D16*
%TO.C,R12*%
X156845000Y-92075000D03*
D21*
X156845000Y-102235000D03*
%TD*%
D23*
%TO.C,C6*%
X177800000Y-87630000D03*
D16*
X177800000Y-85130000D03*
%TD*%
D24*
%TO.C,H2*%
X156845000Y-89535000D03*
D25*
X156845000Y-86995000D03*
X156845000Y-84455000D03*
%TD*%
D24*
%TO.C,H4*%
X161925000Y-89535000D03*
D25*
X161925000Y-86995000D03*
X161925000Y-84455000D03*
%TD*%
D24*
%TO.C,H5*%
X164465000Y-89535000D03*
D25*
X164465000Y-86995000D03*
X164465000Y-84455000D03*
%TD*%
D24*
%TO.C,H6*%
X167005000Y-89535000D03*
D25*
X167005000Y-86995000D03*
X167005000Y-84455000D03*
%TD*%
D24*
%TO.C,H7*%
X169545000Y-89535000D03*
D25*
X169545000Y-86995000D03*
X169545000Y-84455000D03*
%TD*%
D24*
%TO.C,H8*%
X172085000Y-89535000D03*
D25*
X172085000Y-86995000D03*
X172085000Y-84455000D03*
%TD*%
D26*
%TO.C,Q2*%
X185420000Y-107315000D03*
D27*
X186690000Y-106045000D03*
X187960000Y-107315000D03*
%TD*%
D20*
%TO.C,MH2*%
X186690000Y-86360000D03*
%TD*%
D16*
%TO.C,R4*%
X137795000Y-94615000D03*
D21*
X137795000Y-84455000D03*
%TD*%
D24*
%TO.C,H3*%
X159385000Y-89535000D03*
D25*
X159385000Y-86995000D03*
X159385000Y-84455000D03*
%TD*%
D28*
%TO.C,J1*%
X107696000Y-98628200D03*
X107696000Y-99478200D03*
X107696000Y-100328200D03*
X107696000Y-101178200D03*
X107696000Y-102028200D03*
X107696000Y-102878200D03*
X107696000Y-103728200D03*
X107696000Y-104578200D03*
X106346000Y-104578200D03*
X106346000Y-103728200D03*
X106346000Y-102878200D03*
X106346000Y-102028200D03*
X106346000Y-101178200D03*
X106346000Y-100328200D03*
X106346000Y-99478200D03*
X106346000Y-98628200D03*
D29*
X106716000Y-97278200D03*
D30*
X103336000Y-97278200D03*
D29*
X106716000Y-105928200D03*
D30*
X103336000Y-105928200D03*
%TD*%
D20*
%TO.C,MH3*%
X186690000Y-116840000D03*
%TD*%
D16*
%TO.C,R18*%
X172085000Y-92075000D03*
D21*
X172085000Y-102235000D03*
%TD*%
D16*
%TO.C,R15*%
X164465000Y-92075000D03*
D21*
X164465000Y-102235000D03*
%TD*%
D16*
%TO.C,R16*%
X167005000Y-92075000D03*
D21*
X167005000Y-102235000D03*
%TD*%
D16*
%TO.C,R11*%
X154305000Y-92075000D03*
D21*
X154305000Y-102235000D03*
%TD*%
D16*
%TO.C,R17*%
X169545000Y-92075000D03*
D21*
X169545000Y-102235000D03*
%TD*%
D16*
%TO.C,R1*%
X113030000Y-118745000D03*
D21*
X113030000Y-108585000D03*
%TD*%
D13*
%TO.C,D5*%
X123825000Y-109855000D03*
D17*
X126365000Y-109855000D03*
%TD*%
D16*
%TO.C,R22*%
X174625000Y-92075000D03*
D21*
X184785000Y-92075000D03*
%TD*%
D31*
%TO.C,LS1*%
X180340000Y-97790000D03*
D22*
X180340000Y-102790000D03*
%TD*%
D32*
%TO.C,U2*%
X173990000Y-111760000D03*
D13*
X173990000Y-109220000D03*
X173990000Y-106680000D03*
%TD*%
D16*
%TO.C,R21*%
X178435000Y-111125000D03*
D21*
X188595000Y-111125000D03*
%TD*%
D16*
%TO.C,R7*%
X154305000Y-107315000D03*
D21*
X154305000Y-117475000D03*
%TD*%
D33*
%TO.C,H9*%
X166370000Y-115570000D03*
D25*
X168910000Y-115570000D03*
X171450000Y-115570000D03*
X173990000Y-115570000D03*
X176530000Y-115570000D03*
X179070000Y-115570000D03*
%TD*%
D13*
%TO.C,D6*%
X187960000Y-102870000D03*
D34*
X187960000Y-100330000D03*
%TD*%
D24*
%TO.C,H1*%
X154305000Y-89535000D03*
D25*
X154305000Y-86995000D03*
X154305000Y-84455000D03*
%TD*%
D16*
%TO.C,C5*%
X172045000Y-104775000D03*
X169545000Y-104775000D03*
%TD*%
%TO.C,R3*%
X135255000Y-94615000D03*
D21*
X135255000Y-84455000D03*
%TD*%
D13*
%TO.C,D2*%
X123825000Y-93345000D03*
D17*
X126365000Y-93345000D03*
%TD*%
D22*
%TO.C,SW2*%
X125880000Y-88955000D03*
X119380000Y-88955000D03*
X125880000Y-84455000D03*
X119380000Y-84455000D03*
%TD*%
%TO.C,SW1*%
X114935000Y-98425000D03*
X114935000Y-104925000D03*
X110435000Y-98425000D03*
X110435000Y-104925000D03*
%TD*%
D35*
%TO.C,BT1*%
X113665000Y-84455000D03*
D25*
X111125000Y-84455000D03*
%TD*%
D16*
%TO.C,R23*%
X130175000Y-84455000D03*
D21*
X130175000Y-94615000D03*
%TD*%
D16*
%TO.C,R24*%
X132715000Y-84455000D03*
D21*
X132715000Y-94615000D03*
%TD*%
%LPD*%
M02*
