%TF.GenerationSoftware,KiCad,Pcbnew,7.0.1-0*%
%TF.CreationDate,2023-03-30T00:24:29-04:00*%
%TF.ProjectId,UBMP430,55424d50-3433-4302-9e6b-696361645f70,3*%
%TF.SameCoordinates,Original*%
%TF.FileFunction,Drillmap*%
%TF.FilePolarity,Positive*%
%FSLAX45Y45*%
G04 Gerber Fmt 4.5, Leading zero omitted, Abs format (unit mm)*
G04 Created by KiCad (PCBNEW 7.0.1-0) date 2023-03-30 00:24:29*
%MOMM*%
%LPD*%
G01*
G04 APERTURE LIST*
%ADD10C,0.050800*%
%ADD11C,0.200000*%
%ADD12C,0.038100*%
%ADD13C,0.040000*%
%ADD14C,0.060000*%
%ADD15C,0.075000*%
%ADD16C,0.080000*%
%ADD17C,0.090000*%
%ADD18C,0.100000*%
%ADD19C,0.110000*%
%ADD20C,0.120000*%
%ADD21C,0.320000*%
G04 APERTURE END LIST*
D10*
X10160000Y-8636000D02*
X10160000Y-11684000D01*
X10541000Y-12065000D02*
X18669000Y-12065000D01*
X19050000Y-11684000D02*
X19050000Y-8636000D01*
X10541000Y-8255000D02*
G75*
G03*
X10160000Y-8636000I0J-381000D01*
G01*
X19050000Y-8636000D02*
G75*
G03*
X18669000Y-8255000I-381000J0D01*
G01*
X10160000Y-11684000D02*
G75*
G03*
X10541000Y-12065000I381000J0D01*
G01*
X18669000Y-12065000D02*
G75*
G03*
X19050000Y-11684000I0J381000D01*
G01*
X18669000Y-8255000D02*
X10541000Y-8255000D01*
D11*
D12*
X10356850Y-10267950D02*
X10394950Y-10306050D01*
X10394950Y-10267950D02*
X10356850Y-10306050D01*
X13125450Y-11220450D02*
X13163550Y-11258550D01*
X13163550Y-11220450D02*
X13125450Y-11258550D01*
X16300450Y-9632950D02*
X16338550Y-9671050D01*
X16338550Y-9632950D02*
X16300450Y-9671050D01*
D13*
X10654600Y-9862820D02*
G75*
G03*
X10654600Y-9862820I-20000J0D01*
G01*
X10654600Y-9947820D02*
G75*
G03*
X10654600Y-9947820I-20000J0D01*
G01*
X10654600Y-10032820D02*
G75*
G03*
X10654600Y-10032820I-20000J0D01*
G01*
X10654600Y-10117820D02*
G75*
G03*
X10654600Y-10117820I-20000J0D01*
G01*
X10654600Y-10202820D02*
G75*
G03*
X10654600Y-10202820I-20000J0D01*
G01*
X10654600Y-10287820D02*
G75*
G03*
X10654600Y-10287820I-20000J0D01*
G01*
X10654600Y-10372820D02*
G75*
G03*
X10654600Y-10372820I-20000J0D01*
G01*
X10654600Y-10457820D02*
G75*
G03*
X10654600Y-10457820I-20000J0D01*
G01*
X10789600Y-9862820D02*
G75*
G03*
X10789600Y-9862820I-20000J0D01*
G01*
X10789600Y-9947820D02*
G75*
G03*
X10789600Y-9947820I-20000J0D01*
G01*
X10789600Y-10032820D02*
G75*
G03*
X10789600Y-10032820I-20000J0D01*
G01*
X10789600Y-10117820D02*
G75*
G03*
X10789600Y-10117820I-20000J0D01*
G01*
X10789600Y-10202820D02*
G75*
G03*
X10789600Y-10202820I-20000J0D01*
G01*
X10789600Y-10287820D02*
G75*
G03*
X10789600Y-10287820I-20000J0D01*
G01*
X10789600Y-10372820D02*
G75*
G03*
X10789600Y-10372820I-20000J0D01*
G01*
X10789600Y-10457820D02*
G75*
G03*
X10789600Y-10457820I-20000J0D01*
G01*
D14*
X10333600Y-9697820D02*
X10333600Y-9757820D01*
X10303600Y-9727820D02*
X10363600Y-9727820D01*
D11*
X10373600Y-9697820D02*
X10293600Y-9697820D01*
X10293600Y-9697820D02*
G75*
G03*
X10293600Y-9757820I0J-30000D01*
G01*
X10293600Y-9757820D02*
X10373600Y-9757820D01*
X10373600Y-9757820D02*
G75*
G03*
X10373600Y-9697820I0J30000D01*
G01*
D14*
X10333600Y-10562820D02*
X10333600Y-10622820D01*
X10303600Y-10592820D02*
X10363600Y-10592820D01*
D11*
X10373600Y-10562820D02*
X10293600Y-10562820D01*
X10293600Y-10562820D02*
G75*
G03*
X10293600Y-10622820I0J-30000D01*
G01*
X10293600Y-10622820D02*
X10373600Y-10622820D01*
X10373600Y-10622820D02*
G75*
G03*
X10373600Y-10562820I0J30000D01*
G01*
D14*
X10671600Y-9697820D02*
X10671600Y-9757820D01*
X10641600Y-9727820D02*
X10701600Y-9727820D01*
D11*
X10746600Y-9697820D02*
X10596600Y-9697820D01*
X10596600Y-9697820D02*
G75*
G03*
X10596600Y-9757820I0J-30000D01*
G01*
X10596600Y-9757820D02*
X10746600Y-9757820D01*
X10746600Y-9757820D02*
G75*
G03*
X10746600Y-9697820I0J30000D01*
G01*
D14*
X10671600Y-10562820D02*
X10671600Y-10622820D01*
X10641600Y-10592820D02*
X10701600Y-10592820D01*
D11*
X10746600Y-10562820D02*
X10596600Y-10562820D01*
X10596600Y-10562820D02*
G75*
G03*
X10596600Y-10622820I0J-30000D01*
G01*
X10596600Y-10622820D02*
X10746600Y-10622820D01*
X10746600Y-10622820D02*
G75*
G03*
X10746600Y-10562820I0J30000D01*
G01*
D15*
X18568517Y-10758017D02*
X18568517Y-10704983D01*
X18515483Y-10704983D01*
X18515483Y-10758017D01*
X18568517Y-10758017D01*
X18695517Y-10631017D02*
X18695517Y-10577983D01*
X18642483Y-10577983D01*
X18642483Y-10631017D01*
X18695517Y-10631017D01*
X18822517Y-10758017D02*
X18822517Y-10704983D01*
X18769483Y-10704983D01*
X18769483Y-10758017D01*
X18822517Y-10758017D01*
D16*
X10477500Y-10900500D02*
X10517500Y-10860500D01*
X10477500Y-10820500D01*
X10437500Y-10860500D01*
X10477500Y-10900500D01*
X10477500Y-11150500D02*
X10517500Y-11110500D01*
X10477500Y-11070500D01*
X10437500Y-11110500D01*
X10477500Y-11150500D01*
X11116500Y-8930000D02*
X11156500Y-8890000D01*
X11116500Y-8850000D01*
X11076500Y-8890000D01*
X11116500Y-8930000D01*
X11303000Y-10898500D02*
X11343000Y-10858500D01*
X11303000Y-10818500D01*
X11263000Y-10858500D01*
X11303000Y-10898500D01*
X11303000Y-11914500D02*
X11343000Y-11874500D01*
X11303000Y-11834500D01*
X11263000Y-11874500D01*
X11303000Y-11914500D01*
X11366500Y-8930000D02*
X11406500Y-8890000D01*
X11366500Y-8850000D01*
X11326500Y-8890000D01*
X11366500Y-8930000D01*
X11557000Y-10898500D02*
X11597000Y-10858500D01*
X11557000Y-10818500D01*
X11517000Y-10858500D01*
X11557000Y-10898500D01*
X11557000Y-11914500D02*
X11597000Y-11874500D01*
X11557000Y-11834500D01*
X11517000Y-11874500D01*
X11557000Y-11914500D01*
X11874500Y-9819000D02*
X11914500Y-9779000D01*
X11874500Y-9739000D01*
X11834500Y-9779000D01*
X11874500Y-9819000D01*
X11874500Y-10581000D02*
X11914500Y-10541000D01*
X11874500Y-10501000D01*
X11834500Y-10541000D01*
X11874500Y-10581000D01*
X11876500Y-10835000D02*
X11916500Y-10795000D01*
X11876500Y-10755000D01*
X11836500Y-10795000D01*
X11876500Y-10835000D01*
X11940000Y-9565000D02*
X11980000Y-9525000D01*
X11940000Y-9485000D01*
X11900000Y-9525000D01*
X11940000Y-9565000D01*
X12126500Y-10835000D02*
X12166500Y-10795000D01*
X12126500Y-10755000D01*
X12086500Y-10795000D01*
X12126500Y-10835000D01*
X12128500Y-9819000D02*
X12168500Y-9779000D01*
X12128500Y-9739000D01*
X12088500Y-9779000D01*
X12128500Y-9819000D01*
X12128500Y-10581000D02*
X12168500Y-10541000D01*
X12128500Y-10501000D01*
X12088500Y-10541000D01*
X12128500Y-10581000D01*
X12190000Y-9565000D02*
X12230000Y-9525000D01*
X12190000Y-9485000D01*
X12150000Y-9525000D01*
X12190000Y-9565000D01*
X12382500Y-9819000D02*
X12422500Y-9779000D01*
X12382500Y-9739000D01*
X12342500Y-9779000D01*
X12382500Y-9819000D01*
X12382500Y-10581000D02*
X12422500Y-10541000D01*
X12382500Y-10501000D01*
X12342500Y-10541000D01*
X12382500Y-10581000D01*
X12636500Y-9819000D02*
X12676500Y-9779000D01*
X12636500Y-9739000D01*
X12596500Y-9779000D01*
X12636500Y-9819000D01*
X12636500Y-10581000D02*
X12676500Y-10541000D01*
X12636500Y-10501000D01*
X12596500Y-10541000D01*
X12636500Y-10581000D01*
X12890500Y-9819000D02*
X12930500Y-9779000D01*
X12890500Y-9739000D01*
X12850500Y-9779000D01*
X12890500Y-9819000D01*
X12890500Y-10581000D02*
X12930500Y-10541000D01*
X12890500Y-10501000D01*
X12850500Y-10541000D01*
X12890500Y-10581000D01*
X13017500Y-8485500D02*
X13057500Y-8445500D01*
X13017500Y-8405500D01*
X12977500Y-8445500D01*
X13017500Y-8485500D01*
X13017500Y-9501500D02*
X13057500Y-9461500D01*
X13017500Y-9421500D01*
X12977500Y-9461500D01*
X13017500Y-9501500D01*
X13017500Y-10898500D02*
X13057500Y-10858500D01*
X13017500Y-10818500D01*
X12977500Y-10858500D01*
X13017500Y-10898500D01*
X13017500Y-11914500D02*
X13057500Y-11874500D01*
X13017500Y-11834500D01*
X12977500Y-11874500D01*
X13017500Y-11914500D01*
X13144500Y-9819000D02*
X13184500Y-9779000D01*
X13144500Y-9739000D01*
X13104500Y-9779000D01*
X13144500Y-9819000D01*
X13144500Y-10581000D02*
X13184500Y-10541000D01*
X13144500Y-10501000D01*
X13104500Y-10541000D01*
X13144500Y-10581000D01*
X13271500Y-8485500D02*
X13311500Y-8445500D01*
X13271500Y-8405500D01*
X13231500Y-8445500D01*
X13271500Y-8485500D01*
X13271500Y-9501500D02*
X13311500Y-9461500D01*
X13271500Y-9421500D01*
X13231500Y-9461500D01*
X13271500Y-9501500D01*
X13271500Y-10898500D02*
X13311500Y-10858500D01*
X13271500Y-10818500D01*
X13231500Y-10858500D01*
X13271500Y-10898500D01*
X13271500Y-11914500D02*
X13311500Y-11874500D01*
X13271500Y-11834500D01*
X13231500Y-11874500D01*
X13271500Y-11914500D01*
X13398500Y-9819000D02*
X13438500Y-9779000D01*
X13398500Y-9739000D01*
X13358500Y-9779000D01*
X13398500Y-9819000D01*
X13398500Y-10581000D02*
X13438500Y-10541000D01*
X13398500Y-10501000D01*
X13358500Y-10541000D01*
X13398500Y-10581000D01*
X13525500Y-8485500D02*
X13565500Y-8445500D01*
X13525500Y-8405500D01*
X13485500Y-8445500D01*
X13525500Y-8485500D01*
X13525500Y-9501500D02*
X13565500Y-9461500D01*
X13525500Y-9421500D01*
X13485500Y-9461500D01*
X13525500Y-9501500D01*
X13525500Y-10898500D02*
X13565500Y-10858500D01*
X13525500Y-10818500D01*
X13485500Y-10858500D01*
X13525500Y-10898500D01*
X13525500Y-11914500D02*
X13565500Y-11874500D01*
X13525500Y-11834500D01*
X13485500Y-11874500D01*
X13525500Y-11914500D01*
X13652500Y-9819000D02*
X13692500Y-9779000D01*
X13652500Y-9739000D01*
X13612500Y-9779000D01*
X13652500Y-9819000D01*
X13652500Y-10581000D02*
X13692500Y-10541000D01*
X13652500Y-10501000D01*
X13612500Y-10541000D01*
X13652500Y-10581000D01*
X13779500Y-8485500D02*
X13819500Y-8445500D01*
X13779500Y-8405500D01*
X13739500Y-8445500D01*
X13779500Y-8485500D01*
X13779500Y-9501500D02*
X13819500Y-9461500D01*
X13779500Y-9421500D01*
X13739500Y-9461500D01*
X13779500Y-9501500D01*
X13779500Y-10898500D02*
X13819500Y-10858500D01*
X13779500Y-10818500D01*
X13739500Y-10858500D01*
X13779500Y-10898500D01*
X13779500Y-11914500D02*
X13819500Y-11874500D01*
X13779500Y-11834500D01*
X13739500Y-11874500D01*
X13779500Y-11914500D01*
X13906500Y-9819000D02*
X13946500Y-9779000D01*
X13906500Y-9739000D01*
X13866500Y-9779000D01*
X13906500Y-9819000D01*
X13906500Y-10581000D02*
X13946500Y-10541000D01*
X13906500Y-10501000D01*
X13866500Y-10541000D01*
X13906500Y-10581000D01*
X14160500Y-9819000D02*
X14200500Y-9779000D01*
X14160500Y-9739000D01*
X14120500Y-9779000D01*
X14160500Y-9819000D01*
X14160500Y-10581000D02*
X14200500Y-10541000D01*
X14160500Y-10501000D01*
X14120500Y-10541000D01*
X14160500Y-10581000D01*
X15430500Y-9247500D02*
X15470500Y-9207500D01*
X15430500Y-9167500D01*
X15390500Y-9207500D01*
X15430500Y-9247500D01*
X15430500Y-10263500D02*
X15470500Y-10223500D01*
X15430500Y-10183500D01*
X15390500Y-10223500D01*
X15430500Y-10263500D01*
X15430500Y-10771500D02*
X15470500Y-10731500D01*
X15430500Y-10691500D01*
X15390500Y-10731500D01*
X15430500Y-10771500D01*
X15430500Y-11787500D02*
X15470500Y-11747500D01*
X15430500Y-11707500D01*
X15390500Y-11747500D01*
X15430500Y-11787500D01*
X15684500Y-9247500D02*
X15724500Y-9207500D01*
X15684500Y-9167500D01*
X15644500Y-9207500D01*
X15684500Y-9247500D01*
X15684500Y-10263500D02*
X15724500Y-10223500D01*
X15684500Y-10183500D01*
X15644500Y-10223500D01*
X15684500Y-10263500D01*
X15684500Y-10771500D02*
X15724500Y-10731500D01*
X15684500Y-10691500D01*
X15644500Y-10731500D01*
X15684500Y-10771500D01*
X15684500Y-11787500D02*
X15724500Y-11747500D01*
X15684500Y-11707500D01*
X15644500Y-11747500D01*
X15684500Y-11787500D01*
X15938500Y-9247500D02*
X15978500Y-9207500D01*
X15938500Y-9167500D01*
X15898500Y-9207500D01*
X15938500Y-9247500D01*
X15938500Y-10263500D02*
X15978500Y-10223500D01*
X15938500Y-10183500D01*
X15898500Y-10223500D01*
X15938500Y-10263500D01*
X15938500Y-10771500D02*
X15978500Y-10731500D01*
X15938500Y-10691500D01*
X15898500Y-10731500D01*
X15938500Y-10771500D01*
X15938500Y-11787500D02*
X15978500Y-11747500D01*
X15938500Y-11707500D01*
X15898500Y-11747500D01*
X15938500Y-11787500D01*
X16192500Y-9247500D02*
X16232500Y-9207500D01*
X16192500Y-9167500D01*
X16152500Y-9207500D01*
X16192500Y-9247500D01*
X16192500Y-10263500D02*
X16232500Y-10223500D01*
X16192500Y-10183500D01*
X16152500Y-10223500D01*
X16192500Y-10263500D01*
X16192500Y-10771500D02*
X16232500Y-10731500D01*
X16192500Y-10691500D01*
X16152500Y-10731500D01*
X16192500Y-10771500D01*
X16192500Y-11787500D02*
X16232500Y-11747500D01*
X16192500Y-11707500D01*
X16152500Y-11747500D01*
X16192500Y-11787500D01*
X16446500Y-9247500D02*
X16486500Y-9207500D01*
X16446500Y-9167500D01*
X16406500Y-9207500D01*
X16446500Y-9247500D01*
X16446500Y-10263500D02*
X16486500Y-10223500D01*
X16446500Y-10183500D01*
X16406500Y-10223500D01*
X16446500Y-10263500D01*
X16700500Y-9247500D02*
X16740500Y-9207500D01*
X16700500Y-9167500D01*
X16660500Y-9207500D01*
X16700500Y-9247500D01*
X16700500Y-10263500D02*
X16740500Y-10223500D01*
X16700500Y-10183500D01*
X16660500Y-10223500D01*
X16700500Y-10263500D01*
X16954500Y-9247500D02*
X16994500Y-9207500D01*
X16954500Y-9167500D01*
X16914500Y-9207500D01*
X16954500Y-9247500D01*
X16954500Y-10263500D02*
X16994500Y-10223500D01*
X16954500Y-10183500D01*
X16914500Y-10223500D01*
X16954500Y-10263500D01*
X16954500Y-10517500D02*
X16994500Y-10477500D01*
X16954500Y-10437500D01*
X16914500Y-10477500D01*
X16954500Y-10517500D01*
X17204500Y-10517500D02*
X17244500Y-10477500D01*
X17204500Y-10437500D01*
X17164500Y-10477500D01*
X17204500Y-10517500D01*
X17208500Y-9247500D02*
X17248500Y-9207500D01*
X17208500Y-9167500D01*
X17168500Y-9207500D01*
X17208500Y-9247500D01*
X17208500Y-10263500D02*
X17248500Y-10223500D01*
X17208500Y-10183500D01*
X17168500Y-10223500D01*
X17208500Y-10263500D01*
X17462500Y-9247500D02*
X17502500Y-9207500D01*
X17462500Y-9167500D01*
X17422500Y-9207500D01*
X17462500Y-9247500D01*
X17780000Y-8553000D02*
X17820000Y-8513000D01*
X17780000Y-8473000D01*
X17740000Y-8513000D01*
X17780000Y-8553000D01*
X17780000Y-8803000D02*
X17820000Y-8763000D01*
X17780000Y-8723000D01*
X17740000Y-8763000D01*
X17780000Y-8803000D01*
X17843500Y-11152500D02*
X17883500Y-11112500D01*
X17843500Y-11072500D01*
X17803500Y-11112500D01*
X17843500Y-11152500D01*
X18478500Y-9247500D02*
X18518500Y-9207500D01*
X18478500Y-9167500D01*
X18438500Y-9207500D01*
X18478500Y-9247500D01*
X18859500Y-11152500D02*
X18899500Y-11112500D01*
X18859500Y-11072500D01*
X18819500Y-11112500D01*
X18859500Y-11152500D01*
D17*
X10749500Y-10940500D02*
X10839500Y-11030500D01*
X10839500Y-10940500D02*
X10749500Y-11030500D01*
X10839500Y-10985500D02*
G75*
G03*
X10839500Y-10985500I-45000J0D01*
G01*
X11003500Y-10940500D02*
X11093500Y-11030500D01*
X11093500Y-10940500D02*
X11003500Y-11030500D01*
X11093500Y-10985500D02*
G75*
G03*
X11093500Y-10985500I-45000J0D01*
G01*
X12337500Y-9289500D02*
X12427500Y-9379500D01*
X12427500Y-9289500D02*
X12337500Y-9379500D01*
X12427500Y-9334500D02*
G75*
G03*
X12427500Y-9334500I-45000J0D01*
G01*
X12337500Y-10940500D02*
X12427500Y-11030500D01*
X12427500Y-10940500D02*
X12337500Y-11030500D01*
X12427500Y-10985500D02*
G75*
G03*
X12427500Y-10985500I-45000J0D01*
G01*
X12591500Y-9289500D02*
X12681500Y-9379500D01*
X12681500Y-9289500D02*
X12591500Y-9379500D01*
X12681500Y-9334500D02*
G75*
G03*
X12681500Y-9334500I-45000J0D01*
G01*
X12591500Y-10940500D02*
X12681500Y-11030500D01*
X12681500Y-10940500D02*
X12591500Y-11030500D01*
X12681500Y-10985500D02*
G75*
G03*
X12681500Y-10985500I-45000J0D01*
G01*
X14179000Y-9289500D02*
X14269000Y-9379500D01*
X14269000Y-9289500D02*
X14179000Y-9379500D01*
X14269000Y-9334500D02*
G75*
G03*
X14269000Y-9334500I-45000J0D01*
G01*
X14179000Y-10940500D02*
X14269000Y-11030500D01*
X14269000Y-10940500D02*
X14179000Y-11030500D01*
X14269000Y-10985500D02*
G75*
G03*
X14269000Y-10985500I-45000J0D01*
G01*
X14433000Y-9289500D02*
X14523000Y-9379500D01*
X14523000Y-9289500D02*
X14433000Y-9379500D01*
X14523000Y-9334500D02*
G75*
G03*
X14523000Y-9334500I-45000J0D01*
G01*
X14433000Y-10940500D02*
X14523000Y-11030500D01*
X14523000Y-10940500D02*
X14433000Y-11030500D01*
X14523000Y-10985500D02*
G75*
G03*
X14523000Y-10985500I-45000J0D01*
G01*
X17354000Y-10623000D02*
X17444000Y-10713000D01*
X17444000Y-10623000D02*
X17354000Y-10713000D01*
X17444000Y-10668000D02*
G75*
G03*
X17444000Y-10668000I-45000J0D01*
G01*
X17354000Y-10877000D02*
X17444000Y-10967000D01*
X17444000Y-10877000D02*
X17354000Y-10967000D01*
X17444000Y-10922000D02*
G75*
G03*
X17444000Y-10922000I-45000J0D01*
G01*
X17354000Y-11131000D02*
X17444000Y-11221000D01*
X17444000Y-11131000D02*
X17354000Y-11221000D01*
X17444000Y-11176000D02*
G75*
G03*
X17444000Y-11176000I-45000J0D01*
G01*
X18751000Y-9353000D02*
X18841000Y-9443000D01*
X18841000Y-9353000D02*
X18751000Y-9443000D01*
X18841000Y-9398000D02*
G75*
G03*
X18841000Y-9398000I-45000J0D01*
G01*
X18751000Y-9607000D02*
X18841000Y-9697000D01*
X18841000Y-9607000D02*
X18751000Y-9697000D01*
X18841000Y-9652000D02*
G75*
G03*
X18841000Y-9652000I-45000J0D01*
G01*
X18751000Y-9988000D02*
X18841000Y-10078000D01*
X18841000Y-9988000D02*
X18751000Y-10078000D01*
X18841000Y-10033000D02*
G75*
G03*
X18841000Y-10033000I-45000J0D01*
G01*
X18751000Y-10242000D02*
X18841000Y-10332000D01*
X18841000Y-10242000D02*
X18751000Y-10332000D01*
X18841000Y-10287000D02*
G75*
G03*
X18841000Y-10287000I-45000J0D01*
G01*
D18*
X11062500Y-8395500D02*
X11162500Y-8495500D01*
X11162500Y-8395500D02*
X11062500Y-8495500D01*
X11112500Y-8395500D02*
X11112500Y-8495500D01*
X11062500Y-8445500D02*
X11162500Y-8445500D01*
X11316500Y-8395500D02*
X11416500Y-8495500D01*
X11416500Y-8395500D02*
X11316500Y-8495500D01*
X11366500Y-8395500D02*
X11366500Y-8495500D01*
X11316500Y-8445500D02*
X11416500Y-8445500D01*
X15380500Y-8395500D02*
X15480500Y-8495500D01*
X15480500Y-8395500D02*
X15380500Y-8495500D01*
X15430500Y-8395500D02*
X15430500Y-8495500D01*
X15380500Y-8445500D02*
X15480500Y-8445500D01*
X15380500Y-8649500D02*
X15480500Y-8749500D01*
X15480500Y-8649500D02*
X15380500Y-8749500D01*
X15430500Y-8649500D02*
X15430500Y-8749500D01*
X15380500Y-8699500D02*
X15480500Y-8699500D01*
X15380500Y-8903500D02*
X15480500Y-9003500D01*
X15480500Y-8903500D02*
X15380500Y-9003500D01*
X15430500Y-8903500D02*
X15430500Y-9003500D01*
X15380500Y-8953500D02*
X15480500Y-8953500D01*
X15634500Y-8395500D02*
X15734500Y-8495500D01*
X15734500Y-8395500D02*
X15634500Y-8495500D01*
X15684500Y-8395500D02*
X15684500Y-8495500D01*
X15634500Y-8445500D02*
X15734500Y-8445500D01*
X15634500Y-8649500D02*
X15734500Y-8749500D01*
X15734500Y-8649500D02*
X15634500Y-8749500D01*
X15684500Y-8649500D02*
X15684500Y-8749500D01*
X15634500Y-8699500D02*
X15734500Y-8699500D01*
X15634500Y-8903500D02*
X15734500Y-9003500D01*
X15734500Y-8903500D02*
X15634500Y-9003500D01*
X15684500Y-8903500D02*
X15684500Y-9003500D01*
X15634500Y-8953500D02*
X15734500Y-8953500D01*
X15888500Y-8395500D02*
X15988500Y-8495500D01*
X15988500Y-8395500D02*
X15888500Y-8495500D01*
X15938500Y-8395500D02*
X15938500Y-8495500D01*
X15888500Y-8445500D02*
X15988500Y-8445500D01*
X15888500Y-8649500D02*
X15988500Y-8749500D01*
X15988500Y-8649500D02*
X15888500Y-8749500D01*
X15938500Y-8649500D02*
X15938500Y-8749500D01*
X15888500Y-8699500D02*
X15988500Y-8699500D01*
X15888500Y-8903500D02*
X15988500Y-9003500D01*
X15988500Y-8903500D02*
X15888500Y-9003500D01*
X15938500Y-8903500D02*
X15938500Y-9003500D01*
X15888500Y-8953500D02*
X15988500Y-8953500D01*
X16142500Y-8395500D02*
X16242500Y-8495500D01*
X16242500Y-8395500D02*
X16142500Y-8495500D01*
X16192500Y-8395500D02*
X16192500Y-8495500D01*
X16142500Y-8445500D02*
X16242500Y-8445500D01*
X16142500Y-8649500D02*
X16242500Y-8749500D01*
X16242500Y-8649500D02*
X16142500Y-8749500D01*
X16192500Y-8649500D02*
X16192500Y-8749500D01*
X16142500Y-8699500D02*
X16242500Y-8699500D01*
X16142500Y-8903500D02*
X16242500Y-9003500D01*
X16242500Y-8903500D02*
X16142500Y-9003500D01*
X16192500Y-8903500D02*
X16192500Y-9003500D01*
X16142500Y-8953500D02*
X16242500Y-8953500D01*
X16396500Y-8395500D02*
X16496500Y-8495500D01*
X16496500Y-8395500D02*
X16396500Y-8495500D01*
X16446500Y-8395500D02*
X16446500Y-8495500D01*
X16396500Y-8445500D02*
X16496500Y-8445500D01*
X16396500Y-8649500D02*
X16496500Y-8749500D01*
X16496500Y-8649500D02*
X16396500Y-8749500D01*
X16446500Y-8649500D02*
X16446500Y-8749500D01*
X16396500Y-8699500D02*
X16496500Y-8699500D01*
X16396500Y-8903500D02*
X16496500Y-9003500D01*
X16496500Y-8903500D02*
X16396500Y-9003500D01*
X16446500Y-8903500D02*
X16446500Y-9003500D01*
X16396500Y-8953500D02*
X16496500Y-8953500D01*
X16587000Y-11507000D02*
X16687000Y-11607000D01*
X16687000Y-11507000D02*
X16587000Y-11607000D01*
X16637000Y-11507000D02*
X16637000Y-11607000D01*
X16587000Y-11557000D02*
X16687000Y-11557000D01*
X16650500Y-8395500D02*
X16750500Y-8495500D01*
X16750500Y-8395500D02*
X16650500Y-8495500D01*
X16700500Y-8395500D02*
X16700500Y-8495500D01*
X16650500Y-8445500D02*
X16750500Y-8445500D01*
X16650500Y-8649500D02*
X16750500Y-8749500D01*
X16750500Y-8649500D02*
X16650500Y-8749500D01*
X16700500Y-8649500D02*
X16700500Y-8749500D01*
X16650500Y-8699500D02*
X16750500Y-8699500D01*
X16650500Y-8903500D02*
X16750500Y-9003500D01*
X16750500Y-8903500D02*
X16650500Y-9003500D01*
X16700500Y-8903500D02*
X16700500Y-9003500D01*
X16650500Y-8953500D02*
X16750500Y-8953500D01*
X16841000Y-11507000D02*
X16941000Y-11607000D01*
X16941000Y-11507000D02*
X16841000Y-11607000D01*
X16891000Y-11507000D02*
X16891000Y-11607000D01*
X16841000Y-11557000D02*
X16941000Y-11557000D01*
X16904500Y-8395500D02*
X17004500Y-8495500D01*
X17004500Y-8395500D02*
X16904500Y-8495500D01*
X16954500Y-8395500D02*
X16954500Y-8495500D01*
X16904500Y-8445500D02*
X17004500Y-8445500D01*
X16904500Y-8649500D02*
X17004500Y-8749500D01*
X17004500Y-8649500D02*
X16904500Y-8749500D01*
X16954500Y-8649500D02*
X16954500Y-8749500D01*
X16904500Y-8699500D02*
X17004500Y-8699500D01*
X16904500Y-8903500D02*
X17004500Y-9003500D01*
X17004500Y-8903500D02*
X16904500Y-9003500D01*
X16954500Y-8903500D02*
X16954500Y-9003500D01*
X16904500Y-8953500D02*
X17004500Y-8953500D01*
X17095000Y-11507000D02*
X17195000Y-11607000D01*
X17195000Y-11507000D02*
X17095000Y-11607000D01*
X17145000Y-11507000D02*
X17145000Y-11607000D01*
X17095000Y-11557000D02*
X17195000Y-11557000D01*
X17158500Y-8395500D02*
X17258500Y-8495500D01*
X17258500Y-8395500D02*
X17158500Y-8495500D01*
X17208500Y-8395500D02*
X17208500Y-8495500D01*
X17158500Y-8445500D02*
X17258500Y-8445500D01*
X17158500Y-8649500D02*
X17258500Y-8749500D01*
X17258500Y-8649500D02*
X17158500Y-8749500D01*
X17208500Y-8649500D02*
X17208500Y-8749500D01*
X17158500Y-8699500D02*
X17258500Y-8699500D01*
X17158500Y-8903500D02*
X17258500Y-9003500D01*
X17258500Y-8903500D02*
X17158500Y-9003500D01*
X17208500Y-8903500D02*
X17208500Y-9003500D01*
X17158500Y-8953500D02*
X17258500Y-8953500D01*
X17349000Y-11507000D02*
X17449000Y-11607000D01*
X17449000Y-11507000D02*
X17349000Y-11607000D01*
X17399000Y-11507000D02*
X17399000Y-11607000D01*
X17349000Y-11557000D02*
X17449000Y-11557000D01*
X17603000Y-11507000D02*
X17703000Y-11607000D01*
X17703000Y-11507000D02*
X17603000Y-11607000D01*
X17653000Y-11507000D02*
X17653000Y-11607000D01*
X17603000Y-11557000D02*
X17703000Y-11557000D01*
X17857000Y-11507000D02*
X17957000Y-11607000D01*
X17957000Y-11507000D02*
X17857000Y-11607000D01*
X17907000Y-11507000D02*
X17907000Y-11607000D01*
X17857000Y-11557000D02*
X17957000Y-11557000D01*
X17984000Y-9729000D02*
X18084000Y-9829000D01*
X18084000Y-9729000D02*
X17984000Y-9829000D01*
X18034000Y-9729000D02*
X18034000Y-9829000D01*
X17984000Y-9779000D02*
X18084000Y-9779000D01*
X17984000Y-10229000D02*
X18084000Y-10329000D01*
X18084000Y-10229000D02*
X17984000Y-10329000D01*
X18034000Y-10229000D02*
X18034000Y-10329000D01*
X17984000Y-10279000D02*
X18084000Y-10279000D01*
D19*
X10988500Y-9787500D02*
X11098500Y-9897500D01*
X11098500Y-9787500D02*
X10988500Y-9897500D01*
X11082391Y-9881391D02*
X11082391Y-9803609D01*
X11004609Y-9803609D01*
X11004609Y-9881391D01*
X11082391Y-9881391D01*
X10988500Y-10437500D02*
X11098500Y-10547500D01*
X11098500Y-10437500D02*
X10988500Y-10547500D01*
X11082391Y-10531391D02*
X11082391Y-10453609D01*
X11004609Y-10453609D01*
X11004609Y-10531391D01*
X11082391Y-10531391D01*
X11438500Y-9787500D02*
X11548500Y-9897500D01*
X11548500Y-9787500D02*
X11438500Y-9897500D01*
X11532391Y-9881391D02*
X11532391Y-9803609D01*
X11454609Y-9803609D01*
X11454609Y-9881391D01*
X11532391Y-9881391D01*
X11438500Y-10437500D02*
X11548500Y-10547500D01*
X11548500Y-10437500D02*
X11438500Y-10547500D01*
X11532391Y-10531391D02*
X11532391Y-10453609D01*
X11454609Y-10453609D01*
X11454609Y-10531391D01*
X11532391Y-10531391D01*
X11883000Y-8390500D02*
X11993000Y-8500500D01*
X11993000Y-8390500D02*
X11883000Y-8500500D01*
X11976891Y-8484391D02*
X11976891Y-8406609D01*
X11899109Y-8406609D01*
X11899109Y-8484391D01*
X11976891Y-8484391D01*
X11883000Y-8840500D02*
X11993000Y-8950500D01*
X11993000Y-8840500D02*
X11883000Y-8950500D01*
X11976891Y-8934391D02*
X11976891Y-8856609D01*
X11899109Y-8856609D01*
X11899109Y-8934391D01*
X11976891Y-8934391D01*
X11883000Y-11369500D02*
X11993000Y-11479500D01*
X11993000Y-11369500D02*
X11883000Y-11479500D01*
X11976891Y-11463391D02*
X11976891Y-11385609D01*
X11899109Y-11385609D01*
X11899109Y-11463391D01*
X11976891Y-11463391D01*
X11883000Y-11819500D02*
X11993000Y-11929500D01*
X11993000Y-11819500D02*
X11883000Y-11929500D01*
X11976891Y-11913391D02*
X11976891Y-11835609D01*
X11899109Y-11835609D01*
X11899109Y-11913391D01*
X11976891Y-11913391D01*
X12533000Y-8390500D02*
X12643000Y-8500500D01*
X12643000Y-8390500D02*
X12533000Y-8500500D01*
X12626891Y-8484391D02*
X12626891Y-8406609D01*
X12549109Y-8406609D01*
X12549109Y-8484391D01*
X12626891Y-8484391D01*
X12533000Y-8840500D02*
X12643000Y-8950500D01*
X12643000Y-8840500D02*
X12533000Y-8950500D01*
X12626891Y-8934391D02*
X12626891Y-8856609D01*
X12549109Y-8856609D01*
X12549109Y-8934391D01*
X12626891Y-8934391D01*
X12533000Y-11369500D02*
X12643000Y-11479500D01*
X12643000Y-11369500D02*
X12533000Y-11479500D01*
X12626891Y-11463391D02*
X12626891Y-11385609D01*
X12549109Y-11385609D01*
X12549109Y-11463391D01*
X12626891Y-11463391D01*
X12533000Y-11819500D02*
X12643000Y-11929500D01*
X12643000Y-11819500D02*
X12533000Y-11929500D01*
X12626891Y-11913391D02*
X12626891Y-11835609D01*
X12549109Y-11835609D01*
X12549109Y-11913391D01*
X12626891Y-11913391D01*
X14232500Y-8390500D02*
X14342500Y-8500500D01*
X14342500Y-8390500D02*
X14232500Y-8500500D01*
X14326391Y-8484391D02*
X14326391Y-8406609D01*
X14248609Y-8406609D01*
X14248609Y-8484391D01*
X14326391Y-8484391D01*
X14232500Y-8840500D02*
X14342500Y-8950500D01*
X14342500Y-8840500D02*
X14232500Y-8950500D01*
X14326391Y-8934391D02*
X14326391Y-8856609D01*
X14248609Y-8856609D01*
X14248609Y-8934391D01*
X14326391Y-8934391D01*
X14232500Y-11369500D02*
X14342500Y-11479500D01*
X14342500Y-11369500D02*
X14232500Y-11479500D01*
X14326391Y-11463391D02*
X14326391Y-11385609D01*
X14248609Y-11385609D01*
X14248609Y-11463391D01*
X14326391Y-11463391D01*
X14232500Y-11819500D02*
X14342500Y-11929500D01*
X14342500Y-11819500D02*
X14232500Y-11929500D01*
X14326391Y-11913391D02*
X14326391Y-11835609D01*
X14248609Y-11835609D01*
X14248609Y-11913391D01*
X14326391Y-11913391D01*
X14882500Y-8390500D02*
X14992500Y-8500500D01*
X14992500Y-8390500D02*
X14882500Y-8500500D01*
X14976391Y-8484391D02*
X14976391Y-8406609D01*
X14898609Y-8406609D01*
X14898609Y-8484391D01*
X14976391Y-8484391D01*
X14882500Y-8840500D02*
X14992500Y-8950500D01*
X14992500Y-8840500D02*
X14882500Y-8950500D01*
X14976391Y-8934391D02*
X14976391Y-8856609D01*
X14898609Y-8856609D01*
X14898609Y-8934391D01*
X14976391Y-8934391D01*
X14882500Y-11369500D02*
X14992500Y-11479500D01*
X14992500Y-11369500D02*
X14882500Y-11479500D01*
X14976391Y-11463391D02*
X14976391Y-11385609D01*
X14898609Y-11385609D01*
X14898609Y-11463391D01*
X14976391Y-11463391D01*
X14882500Y-11819500D02*
X14992500Y-11929500D01*
X14992500Y-11819500D02*
X14882500Y-11929500D01*
X14976391Y-11913391D02*
X14976391Y-11835609D01*
X14898609Y-11835609D01*
X14898609Y-11913391D01*
X14976391Y-11913391D01*
D20*
X10354000Y-9338000D02*
X10474000Y-9458000D01*
X10474000Y-9338000D02*
X10354000Y-9458000D01*
X10414000Y-9458000D02*
X10474000Y-9398000D01*
X10414000Y-9338000D01*
X10354000Y-9398000D01*
X10414000Y-9458000D01*
X11624000Y-9338000D02*
X11744000Y-9458000D01*
X11744000Y-9338000D02*
X11624000Y-9458000D01*
X11684000Y-9458000D02*
X11744000Y-9398000D01*
X11684000Y-9338000D01*
X11624000Y-9398000D01*
X11684000Y-9458000D01*
D21*
X10541000Y-8476000D02*
X10541000Y-8796000D01*
X10381000Y-8636000D02*
X10701000Y-8636000D01*
X10701000Y-8636000D02*
G75*
G03*
X10701000Y-8636000I-160000J0D01*
G01*
X10541000Y-11524000D02*
X10541000Y-11844000D01*
X10381000Y-11684000D02*
X10701000Y-11684000D01*
X10701000Y-11684000D02*
G75*
G03*
X10701000Y-11684000I-160000J0D01*
G01*
X18669000Y-8476000D02*
X18669000Y-8796000D01*
X18509000Y-8636000D02*
X18829000Y-8636000D01*
X18829000Y-8636000D02*
G75*
G03*
X18829000Y-8636000I-160000J0D01*
G01*
X18669000Y-11524000D02*
X18669000Y-11844000D01*
X18509000Y-11684000D02*
X18829000Y-11684000D01*
X18829000Y-11684000D02*
G75*
G03*
X18829000Y-11684000I-160000J0D01*
G01*
D11*
X10405079Y-12380064D02*
X10405079Y-12180064D01*
X10405079Y-12180064D02*
X10452698Y-12180064D01*
X10452698Y-12180064D02*
X10481270Y-12189588D01*
X10481270Y-12189588D02*
X10500317Y-12208635D01*
X10500317Y-12208635D02*
X10509841Y-12227683D01*
X10509841Y-12227683D02*
X10519365Y-12265778D01*
X10519365Y-12265778D02*
X10519365Y-12294349D01*
X10519365Y-12294349D02*
X10509841Y-12332445D01*
X10509841Y-12332445D02*
X10500317Y-12351492D01*
X10500317Y-12351492D02*
X10481270Y-12370540D01*
X10481270Y-12370540D02*
X10452698Y-12380064D01*
X10452698Y-12380064D02*
X10405079Y-12380064D01*
X10605079Y-12380064D02*
X10605079Y-12246730D01*
X10605079Y-12284826D02*
X10614603Y-12265778D01*
X10614603Y-12265778D02*
X10624127Y-12256254D01*
X10624127Y-12256254D02*
X10643174Y-12246730D01*
X10643174Y-12246730D02*
X10662222Y-12246730D01*
X10728889Y-12380064D02*
X10728889Y-12246730D01*
X10728889Y-12180064D02*
X10719365Y-12189588D01*
X10719365Y-12189588D02*
X10728889Y-12199111D01*
X10728889Y-12199111D02*
X10738412Y-12189588D01*
X10738412Y-12189588D02*
X10728889Y-12180064D01*
X10728889Y-12180064D02*
X10728889Y-12199111D01*
X10852698Y-12380064D02*
X10833650Y-12370540D01*
X10833650Y-12370540D02*
X10824127Y-12351492D01*
X10824127Y-12351492D02*
X10824127Y-12180064D01*
X10957460Y-12380064D02*
X10938412Y-12370540D01*
X10938412Y-12370540D02*
X10928889Y-12351492D01*
X10928889Y-12351492D02*
X10928889Y-12180064D01*
X11186031Y-12380064D02*
X11186031Y-12180064D01*
X11186031Y-12180064D02*
X11252698Y-12322921D01*
X11252698Y-12322921D02*
X11319365Y-12180064D01*
X11319365Y-12180064D02*
X11319365Y-12380064D01*
X11500317Y-12380064D02*
X11500317Y-12275302D01*
X11500317Y-12275302D02*
X11490793Y-12256254D01*
X11490793Y-12256254D02*
X11471746Y-12246730D01*
X11471746Y-12246730D02*
X11433650Y-12246730D01*
X11433650Y-12246730D02*
X11414603Y-12256254D01*
X11500317Y-12370540D02*
X11481269Y-12380064D01*
X11481269Y-12380064D02*
X11433650Y-12380064D01*
X11433650Y-12380064D02*
X11414603Y-12370540D01*
X11414603Y-12370540D02*
X11405079Y-12351492D01*
X11405079Y-12351492D02*
X11405079Y-12332445D01*
X11405079Y-12332445D02*
X11414603Y-12313397D01*
X11414603Y-12313397D02*
X11433650Y-12303873D01*
X11433650Y-12303873D02*
X11481269Y-12303873D01*
X11481269Y-12303873D02*
X11500317Y-12294349D01*
X11595555Y-12246730D02*
X11595555Y-12446730D01*
X11595555Y-12256254D02*
X11614603Y-12246730D01*
X11614603Y-12246730D02*
X11652698Y-12246730D01*
X11652698Y-12246730D02*
X11671746Y-12256254D01*
X11671746Y-12256254D02*
X11681269Y-12265778D01*
X11681269Y-12265778D02*
X11690793Y-12284826D01*
X11690793Y-12284826D02*
X11690793Y-12341968D01*
X11690793Y-12341968D02*
X11681269Y-12361016D01*
X11681269Y-12361016D02*
X11671746Y-12370540D01*
X11671746Y-12370540D02*
X11652698Y-12380064D01*
X11652698Y-12380064D02*
X11614603Y-12380064D01*
X11614603Y-12380064D02*
X11595555Y-12370540D01*
X11776508Y-12361016D02*
X11786031Y-12370540D01*
X11786031Y-12370540D02*
X11776508Y-12380064D01*
X11776508Y-12380064D02*
X11766984Y-12370540D01*
X11766984Y-12370540D02*
X11776508Y-12361016D01*
X11776508Y-12361016D02*
X11776508Y-12380064D01*
X11776508Y-12256254D02*
X11786031Y-12265778D01*
X11786031Y-12265778D02*
X11776508Y-12275302D01*
X11776508Y-12275302D02*
X11766984Y-12265778D01*
X11766984Y-12265778D02*
X11776508Y-12256254D01*
X11776508Y-12256254D02*
X11776508Y-12275302D01*
D12*
X10119360Y-12688490D02*
X10157460Y-12726590D01*
X10157460Y-12688490D02*
X10119360Y-12726590D01*
D11*
X10443174Y-12600064D02*
X10462222Y-12600064D01*
X10462222Y-12600064D02*
X10481270Y-12609588D01*
X10481270Y-12609588D02*
X10490793Y-12619111D01*
X10490793Y-12619111D02*
X10500317Y-12638159D01*
X10500317Y-12638159D02*
X10509841Y-12676254D01*
X10509841Y-12676254D02*
X10509841Y-12723873D01*
X10509841Y-12723873D02*
X10500317Y-12761968D01*
X10500317Y-12761968D02*
X10490793Y-12781016D01*
X10490793Y-12781016D02*
X10481270Y-12790540D01*
X10481270Y-12790540D02*
X10462222Y-12800064D01*
X10462222Y-12800064D02*
X10443174Y-12800064D01*
X10443174Y-12800064D02*
X10424127Y-12790540D01*
X10424127Y-12790540D02*
X10414603Y-12781016D01*
X10414603Y-12781016D02*
X10405079Y-12761968D01*
X10405079Y-12761968D02*
X10395555Y-12723873D01*
X10395555Y-12723873D02*
X10395555Y-12676254D01*
X10395555Y-12676254D02*
X10405079Y-12638159D01*
X10405079Y-12638159D02*
X10414603Y-12619111D01*
X10414603Y-12619111D02*
X10424127Y-12609588D01*
X10424127Y-12609588D02*
X10443174Y-12600064D01*
X10595555Y-12781016D02*
X10605079Y-12790540D01*
X10605079Y-12790540D02*
X10595555Y-12800064D01*
X10595555Y-12800064D02*
X10586031Y-12790540D01*
X10586031Y-12790540D02*
X10595555Y-12781016D01*
X10595555Y-12781016D02*
X10595555Y-12800064D01*
X10671746Y-12600064D02*
X10795555Y-12600064D01*
X10795555Y-12600064D02*
X10728889Y-12676254D01*
X10728889Y-12676254D02*
X10757460Y-12676254D01*
X10757460Y-12676254D02*
X10776508Y-12685778D01*
X10776508Y-12685778D02*
X10786031Y-12695302D01*
X10786031Y-12695302D02*
X10795555Y-12714349D01*
X10795555Y-12714349D02*
X10795555Y-12761968D01*
X10795555Y-12761968D02*
X10786031Y-12781016D01*
X10786031Y-12781016D02*
X10776508Y-12790540D01*
X10776508Y-12790540D02*
X10757460Y-12800064D01*
X10757460Y-12800064D02*
X10700317Y-12800064D01*
X10700317Y-12800064D02*
X10681270Y-12790540D01*
X10681270Y-12790540D02*
X10671746Y-12781016D01*
X10909841Y-12685778D02*
X10890793Y-12676254D01*
X10890793Y-12676254D02*
X10881270Y-12666730D01*
X10881270Y-12666730D02*
X10871746Y-12647683D01*
X10871746Y-12647683D02*
X10871746Y-12638159D01*
X10871746Y-12638159D02*
X10881270Y-12619111D01*
X10881270Y-12619111D02*
X10890793Y-12609588D01*
X10890793Y-12609588D02*
X10909841Y-12600064D01*
X10909841Y-12600064D02*
X10947936Y-12600064D01*
X10947936Y-12600064D02*
X10966984Y-12609588D01*
X10966984Y-12609588D02*
X10976508Y-12619111D01*
X10976508Y-12619111D02*
X10986031Y-12638159D01*
X10986031Y-12638159D02*
X10986031Y-12647683D01*
X10986031Y-12647683D02*
X10976508Y-12666730D01*
X10976508Y-12666730D02*
X10966984Y-12676254D01*
X10966984Y-12676254D02*
X10947936Y-12685778D01*
X10947936Y-12685778D02*
X10909841Y-12685778D01*
X10909841Y-12685778D02*
X10890793Y-12695302D01*
X10890793Y-12695302D02*
X10881270Y-12704826D01*
X10881270Y-12704826D02*
X10871746Y-12723873D01*
X10871746Y-12723873D02*
X10871746Y-12761968D01*
X10871746Y-12761968D02*
X10881270Y-12781016D01*
X10881270Y-12781016D02*
X10890793Y-12790540D01*
X10890793Y-12790540D02*
X10909841Y-12800064D01*
X10909841Y-12800064D02*
X10947936Y-12800064D01*
X10947936Y-12800064D02*
X10966984Y-12790540D01*
X10966984Y-12790540D02*
X10976508Y-12781016D01*
X10976508Y-12781016D02*
X10986031Y-12761968D01*
X10986031Y-12761968D02*
X10986031Y-12723873D01*
X10986031Y-12723873D02*
X10976508Y-12704826D01*
X10976508Y-12704826D02*
X10966984Y-12695302D01*
X10966984Y-12695302D02*
X10947936Y-12685778D01*
X11176508Y-12800064D02*
X11062222Y-12800064D01*
X11119365Y-12800064D02*
X11119365Y-12600064D01*
X11119365Y-12600064D02*
X11100317Y-12628635D01*
X11100317Y-12628635D02*
X11081270Y-12647683D01*
X11081270Y-12647683D02*
X11062222Y-12657207D01*
X11262222Y-12800064D02*
X11262222Y-12666730D01*
X11262222Y-12685778D02*
X11271746Y-12676254D01*
X11271746Y-12676254D02*
X11290793Y-12666730D01*
X11290793Y-12666730D02*
X11319365Y-12666730D01*
X11319365Y-12666730D02*
X11338412Y-12676254D01*
X11338412Y-12676254D02*
X11347936Y-12695302D01*
X11347936Y-12695302D02*
X11347936Y-12800064D01*
X11347936Y-12695302D02*
X11357460Y-12676254D01*
X11357460Y-12676254D02*
X11376508Y-12666730D01*
X11376508Y-12666730D02*
X11405079Y-12666730D01*
X11405079Y-12666730D02*
X11424127Y-12676254D01*
X11424127Y-12676254D02*
X11433650Y-12695302D01*
X11433650Y-12695302D02*
X11433650Y-12800064D01*
X11528889Y-12800064D02*
X11528889Y-12666730D01*
X11528889Y-12685778D02*
X11538412Y-12676254D01*
X11538412Y-12676254D02*
X11557460Y-12666730D01*
X11557460Y-12666730D02*
X11586031Y-12666730D01*
X11586031Y-12666730D02*
X11605079Y-12676254D01*
X11605079Y-12676254D02*
X11614603Y-12695302D01*
X11614603Y-12695302D02*
X11614603Y-12800064D01*
X11614603Y-12695302D02*
X11624127Y-12676254D01*
X11624127Y-12676254D02*
X11643174Y-12666730D01*
X11643174Y-12666730D02*
X11671746Y-12666730D01*
X11671746Y-12666730D02*
X11690793Y-12676254D01*
X11690793Y-12676254D02*
X11700317Y-12695302D01*
X11700317Y-12695302D02*
X11700317Y-12800064D01*
X12090793Y-12590540D02*
X11919365Y-12847683D01*
X12347936Y-12600064D02*
X12366984Y-12600064D01*
X12366984Y-12600064D02*
X12386032Y-12609588D01*
X12386032Y-12609588D02*
X12395555Y-12619111D01*
X12395555Y-12619111D02*
X12405079Y-12638159D01*
X12405079Y-12638159D02*
X12414603Y-12676254D01*
X12414603Y-12676254D02*
X12414603Y-12723873D01*
X12414603Y-12723873D02*
X12405079Y-12761968D01*
X12405079Y-12761968D02*
X12395555Y-12781016D01*
X12395555Y-12781016D02*
X12386032Y-12790540D01*
X12386032Y-12790540D02*
X12366984Y-12800064D01*
X12366984Y-12800064D02*
X12347936Y-12800064D01*
X12347936Y-12800064D02*
X12328889Y-12790540D01*
X12328889Y-12790540D02*
X12319365Y-12781016D01*
X12319365Y-12781016D02*
X12309841Y-12761968D01*
X12309841Y-12761968D02*
X12300317Y-12723873D01*
X12300317Y-12723873D02*
X12300317Y-12676254D01*
X12300317Y-12676254D02*
X12309841Y-12638159D01*
X12309841Y-12638159D02*
X12319365Y-12619111D01*
X12319365Y-12619111D02*
X12328889Y-12609588D01*
X12328889Y-12609588D02*
X12347936Y-12600064D01*
X12500317Y-12781016D02*
X12509841Y-12790540D01*
X12509841Y-12790540D02*
X12500317Y-12800064D01*
X12500317Y-12800064D02*
X12490793Y-12790540D01*
X12490793Y-12790540D02*
X12500317Y-12781016D01*
X12500317Y-12781016D02*
X12500317Y-12800064D01*
X12633651Y-12600064D02*
X12652698Y-12600064D01*
X12652698Y-12600064D02*
X12671746Y-12609588D01*
X12671746Y-12609588D02*
X12681270Y-12619111D01*
X12681270Y-12619111D02*
X12690793Y-12638159D01*
X12690793Y-12638159D02*
X12700317Y-12676254D01*
X12700317Y-12676254D02*
X12700317Y-12723873D01*
X12700317Y-12723873D02*
X12690793Y-12761968D01*
X12690793Y-12761968D02*
X12681270Y-12781016D01*
X12681270Y-12781016D02*
X12671746Y-12790540D01*
X12671746Y-12790540D02*
X12652698Y-12800064D01*
X12652698Y-12800064D02*
X12633651Y-12800064D01*
X12633651Y-12800064D02*
X12614603Y-12790540D01*
X12614603Y-12790540D02*
X12605079Y-12781016D01*
X12605079Y-12781016D02*
X12595555Y-12761968D01*
X12595555Y-12761968D02*
X12586032Y-12723873D01*
X12586032Y-12723873D02*
X12586032Y-12676254D01*
X12586032Y-12676254D02*
X12595555Y-12638159D01*
X12595555Y-12638159D02*
X12605079Y-12619111D01*
X12605079Y-12619111D02*
X12614603Y-12609588D01*
X12614603Y-12609588D02*
X12633651Y-12600064D01*
X12890793Y-12800064D02*
X12776508Y-12800064D01*
X12833651Y-12800064D02*
X12833651Y-12600064D01*
X12833651Y-12600064D02*
X12814603Y-12628635D01*
X12814603Y-12628635D02*
X12795555Y-12647683D01*
X12795555Y-12647683D02*
X12776508Y-12657207D01*
X13071746Y-12600064D02*
X12976508Y-12600064D01*
X12976508Y-12600064D02*
X12966984Y-12695302D01*
X12966984Y-12695302D02*
X12976508Y-12685778D01*
X12976508Y-12685778D02*
X12995555Y-12676254D01*
X12995555Y-12676254D02*
X13043174Y-12676254D01*
X13043174Y-12676254D02*
X13062222Y-12685778D01*
X13062222Y-12685778D02*
X13071746Y-12695302D01*
X13071746Y-12695302D02*
X13081270Y-12714349D01*
X13081270Y-12714349D02*
X13081270Y-12761968D01*
X13081270Y-12761968D02*
X13071746Y-12781016D01*
X13071746Y-12781016D02*
X13062222Y-12790540D01*
X13062222Y-12790540D02*
X13043174Y-12800064D01*
X13043174Y-12800064D02*
X12995555Y-12800064D01*
X12995555Y-12800064D02*
X12976508Y-12790540D01*
X12976508Y-12790540D02*
X12966984Y-12781016D01*
X13205079Y-12600064D02*
X13224127Y-12600064D01*
X13224127Y-12600064D02*
X13243174Y-12609588D01*
X13243174Y-12609588D02*
X13252698Y-12619111D01*
X13252698Y-12619111D02*
X13262222Y-12638159D01*
X13262222Y-12638159D02*
X13271746Y-12676254D01*
X13271746Y-12676254D02*
X13271746Y-12723873D01*
X13271746Y-12723873D02*
X13262222Y-12761968D01*
X13262222Y-12761968D02*
X13252698Y-12781016D01*
X13252698Y-12781016D02*
X13243174Y-12790540D01*
X13243174Y-12790540D02*
X13224127Y-12800064D01*
X13224127Y-12800064D02*
X13205079Y-12800064D01*
X13205079Y-12800064D02*
X13186032Y-12790540D01*
X13186032Y-12790540D02*
X13176508Y-12781016D01*
X13176508Y-12781016D02*
X13166984Y-12761968D01*
X13166984Y-12761968D02*
X13157460Y-12723873D01*
X13157460Y-12723873D02*
X13157460Y-12676254D01*
X13157460Y-12676254D02*
X13166984Y-12638159D01*
X13166984Y-12638159D02*
X13176508Y-12619111D01*
X13176508Y-12619111D02*
X13186032Y-12609588D01*
X13186032Y-12609588D02*
X13205079Y-12600064D01*
X13347936Y-12600064D02*
X13347936Y-12638159D01*
X13424127Y-12600064D02*
X13424127Y-12638159D01*
X13719365Y-12876254D02*
X13709841Y-12866730D01*
X13709841Y-12866730D02*
X13690794Y-12838159D01*
X13690794Y-12838159D02*
X13681270Y-12819111D01*
X13681270Y-12819111D02*
X13671746Y-12790540D01*
X13671746Y-12790540D02*
X13662222Y-12742921D01*
X13662222Y-12742921D02*
X13662222Y-12704826D01*
X13662222Y-12704826D02*
X13671746Y-12657207D01*
X13671746Y-12657207D02*
X13681270Y-12628635D01*
X13681270Y-12628635D02*
X13690794Y-12609588D01*
X13690794Y-12609588D02*
X13709841Y-12581016D01*
X13709841Y-12581016D02*
X13719365Y-12571492D01*
X13776508Y-12600064D02*
X13900317Y-12600064D01*
X13900317Y-12600064D02*
X13833651Y-12676254D01*
X13833651Y-12676254D02*
X13862222Y-12676254D01*
X13862222Y-12676254D02*
X13881270Y-12685778D01*
X13881270Y-12685778D02*
X13890794Y-12695302D01*
X13890794Y-12695302D02*
X13900317Y-12714349D01*
X13900317Y-12714349D02*
X13900317Y-12761968D01*
X13900317Y-12761968D02*
X13890794Y-12781016D01*
X13890794Y-12781016D02*
X13881270Y-12790540D01*
X13881270Y-12790540D02*
X13862222Y-12800064D01*
X13862222Y-12800064D02*
X13805079Y-12800064D01*
X13805079Y-12800064D02*
X13786032Y-12790540D01*
X13786032Y-12790540D02*
X13776508Y-12781016D01*
X14138413Y-12800064D02*
X14138413Y-12600064D01*
X14224127Y-12800064D02*
X14224127Y-12695302D01*
X14224127Y-12695302D02*
X14214603Y-12676254D01*
X14214603Y-12676254D02*
X14195556Y-12666730D01*
X14195556Y-12666730D02*
X14166984Y-12666730D01*
X14166984Y-12666730D02*
X14147936Y-12676254D01*
X14147936Y-12676254D02*
X14138413Y-12685778D01*
X14347936Y-12800064D02*
X14328889Y-12790540D01*
X14328889Y-12790540D02*
X14319365Y-12781016D01*
X14319365Y-12781016D02*
X14309841Y-12761968D01*
X14309841Y-12761968D02*
X14309841Y-12704826D01*
X14309841Y-12704826D02*
X14319365Y-12685778D01*
X14319365Y-12685778D02*
X14328889Y-12676254D01*
X14328889Y-12676254D02*
X14347936Y-12666730D01*
X14347936Y-12666730D02*
X14376508Y-12666730D01*
X14376508Y-12666730D02*
X14395556Y-12676254D01*
X14395556Y-12676254D02*
X14405079Y-12685778D01*
X14405079Y-12685778D02*
X14414603Y-12704826D01*
X14414603Y-12704826D02*
X14414603Y-12761968D01*
X14414603Y-12761968D02*
X14405079Y-12781016D01*
X14405079Y-12781016D02*
X14395556Y-12790540D01*
X14395556Y-12790540D02*
X14376508Y-12800064D01*
X14376508Y-12800064D02*
X14347936Y-12800064D01*
X14528889Y-12800064D02*
X14509841Y-12790540D01*
X14509841Y-12790540D02*
X14500317Y-12771492D01*
X14500317Y-12771492D02*
X14500317Y-12600064D01*
X14681270Y-12790540D02*
X14662222Y-12800064D01*
X14662222Y-12800064D02*
X14624127Y-12800064D01*
X14624127Y-12800064D02*
X14605079Y-12790540D01*
X14605079Y-12790540D02*
X14595556Y-12771492D01*
X14595556Y-12771492D02*
X14595556Y-12695302D01*
X14595556Y-12695302D02*
X14605079Y-12676254D01*
X14605079Y-12676254D02*
X14624127Y-12666730D01*
X14624127Y-12666730D02*
X14662222Y-12666730D01*
X14662222Y-12666730D02*
X14681270Y-12676254D01*
X14681270Y-12676254D02*
X14690794Y-12695302D01*
X14690794Y-12695302D02*
X14690794Y-12714349D01*
X14690794Y-12714349D02*
X14595556Y-12733397D01*
X14766984Y-12790540D02*
X14786032Y-12800064D01*
X14786032Y-12800064D02*
X14824127Y-12800064D01*
X14824127Y-12800064D02*
X14843175Y-12790540D01*
X14843175Y-12790540D02*
X14852698Y-12771492D01*
X14852698Y-12771492D02*
X14852698Y-12761968D01*
X14852698Y-12761968D02*
X14843175Y-12742921D01*
X14843175Y-12742921D02*
X14824127Y-12733397D01*
X14824127Y-12733397D02*
X14795556Y-12733397D01*
X14795556Y-12733397D02*
X14776508Y-12723873D01*
X14776508Y-12723873D02*
X14766984Y-12704826D01*
X14766984Y-12704826D02*
X14766984Y-12695302D01*
X14766984Y-12695302D02*
X14776508Y-12676254D01*
X14776508Y-12676254D02*
X14795556Y-12666730D01*
X14795556Y-12666730D02*
X14824127Y-12666730D01*
X14824127Y-12666730D02*
X14843175Y-12676254D01*
X14919365Y-12876254D02*
X14928889Y-12866730D01*
X14928889Y-12866730D02*
X14947937Y-12838159D01*
X14947937Y-12838159D02*
X14957460Y-12819111D01*
X14957460Y-12819111D02*
X14966984Y-12790540D01*
X14966984Y-12790540D02*
X14976508Y-12742921D01*
X14976508Y-12742921D02*
X14976508Y-12704826D01*
X14976508Y-12704826D02*
X14966984Y-12657207D01*
X14966984Y-12657207D02*
X14957460Y-12628635D01*
X14957460Y-12628635D02*
X14947937Y-12609588D01*
X14947937Y-12609588D02*
X14928889Y-12581016D01*
X14928889Y-12581016D02*
X14919365Y-12571492D01*
D13*
X10157460Y-12971540D02*
G75*
G03*
X10157460Y-12971540I-20000J0D01*
G01*
D11*
X10443174Y-12864064D02*
X10462222Y-12864064D01*
X10462222Y-12864064D02*
X10481270Y-12873588D01*
X10481270Y-12873588D02*
X10490793Y-12883111D01*
X10490793Y-12883111D02*
X10500317Y-12902159D01*
X10500317Y-12902159D02*
X10509841Y-12940254D01*
X10509841Y-12940254D02*
X10509841Y-12987873D01*
X10509841Y-12987873D02*
X10500317Y-13025968D01*
X10500317Y-13025968D02*
X10490793Y-13045016D01*
X10490793Y-13045016D02*
X10481270Y-13054540D01*
X10481270Y-13054540D02*
X10462222Y-13064064D01*
X10462222Y-13064064D02*
X10443174Y-13064064D01*
X10443174Y-13064064D02*
X10424127Y-13054540D01*
X10424127Y-13054540D02*
X10414603Y-13045016D01*
X10414603Y-13045016D02*
X10405079Y-13025968D01*
X10405079Y-13025968D02*
X10395555Y-12987873D01*
X10395555Y-12987873D02*
X10395555Y-12940254D01*
X10395555Y-12940254D02*
X10405079Y-12902159D01*
X10405079Y-12902159D02*
X10414603Y-12883111D01*
X10414603Y-12883111D02*
X10424127Y-12873588D01*
X10424127Y-12873588D02*
X10443174Y-12864064D01*
X10595555Y-13045016D02*
X10605079Y-13054540D01*
X10605079Y-13054540D02*
X10595555Y-13064064D01*
X10595555Y-13064064D02*
X10586031Y-13054540D01*
X10586031Y-13054540D02*
X10595555Y-13045016D01*
X10595555Y-13045016D02*
X10595555Y-13064064D01*
X10776508Y-12930730D02*
X10776508Y-13064064D01*
X10728889Y-12854540D02*
X10681270Y-12997397D01*
X10681270Y-12997397D02*
X10805079Y-12997397D01*
X10919365Y-12864064D02*
X10938412Y-12864064D01*
X10938412Y-12864064D02*
X10957460Y-12873588D01*
X10957460Y-12873588D02*
X10966984Y-12883111D01*
X10966984Y-12883111D02*
X10976508Y-12902159D01*
X10976508Y-12902159D02*
X10986031Y-12940254D01*
X10986031Y-12940254D02*
X10986031Y-12987873D01*
X10986031Y-12987873D02*
X10976508Y-13025968D01*
X10976508Y-13025968D02*
X10966984Y-13045016D01*
X10966984Y-13045016D02*
X10957460Y-13054540D01*
X10957460Y-13054540D02*
X10938412Y-13064064D01*
X10938412Y-13064064D02*
X10919365Y-13064064D01*
X10919365Y-13064064D02*
X10900317Y-13054540D01*
X10900317Y-13054540D02*
X10890793Y-13045016D01*
X10890793Y-13045016D02*
X10881270Y-13025968D01*
X10881270Y-13025968D02*
X10871746Y-12987873D01*
X10871746Y-12987873D02*
X10871746Y-12940254D01*
X10871746Y-12940254D02*
X10881270Y-12902159D01*
X10881270Y-12902159D02*
X10890793Y-12883111D01*
X10890793Y-12883111D02*
X10900317Y-12873588D01*
X10900317Y-12873588D02*
X10919365Y-12864064D01*
X11109841Y-12864064D02*
X11128889Y-12864064D01*
X11128889Y-12864064D02*
X11147936Y-12873588D01*
X11147936Y-12873588D02*
X11157460Y-12883111D01*
X11157460Y-12883111D02*
X11166984Y-12902159D01*
X11166984Y-12902159D02*
X11176508Y-12940254D01*
X11176508Y-12940254D02*
X11176508Y-12987873D01*
X11176508Y-12987873D02*
X11166984Y-13025968D01*
X11166984Y-13025968D02*
X11157460Y-13045016D01*
X11157460Y-13045016D02*
X11147936Y-13054540D01*
X11147936Y-13054540D02*
X11128889Y-13064064D01*
X11128889Y-13064064D02*
X11109841Y-13064064D01*
X11109841Y-13064064D02*
X11090793Y-13054540D01*
X11090793Y-13054540D02*
X11081270Y-13045016D01*
X11081270Y-13045016D02*
X11071746Y-13025968D01*
X11071746Y-13025968D02*
X11062222Y-12987873D01*
X11062222Y-12987873D02*
X11062222Y-12940254D01*
X11062222Y-12940254D02*
X11071746Y-12902159D01*
X11071746Y-12902159D02*
X11081270Y-12883111D01*
X11081270Y-12883111D02*
X11090793Y-12873588D01*
X11090793Y-12873588D02*
X11109841Y-12864064D01*
X11262222Y-13064064D02*
X11262222Y-12930730D01*
X11262222Y-12949778D02*
X11271746Y-12940254D01*
X11271746Y-12940254D02*
X11290793Y-12930730D01*
X11290793Y-12930730D02*
X11319365Y-12930730D01*
X11319365Y-12930730D02*
X11338412Y-12940254D01*
X11338412Y-12940254D02*
X11347936Y-12959302D01*
X11347936Y-12959302D02*
X11347936Y-13064064D01*
X11347936Y-12959302D02*
X11357460Y-12940254D01*
X11357460Y-12940254D02*
X11376508Y-12930730D01*
X11376508Y-12930730D02*
X11405079Y-12930730D01*
X11405079Y-12930730D02*
X11424127Y-12940254D01*
X11424127Y-12940254D02*
X11433650Y-12959302D01*
X11433650Y-12959302D02*
X11433650Y-13064064D01*
X11528889Y-13064064D02*
X11528889Y-12930730D01*
X11528889Y-12949778D02*
X11538412Y-12940254D01*
X11538412Y-12940254D02*
X11557460Y-12930730D01*
X11557460Y-12930730D02*
X11586031Y-12930730D01*
X11586031Y-12930730D02*
X11605079Y-12940254D01*
X11605079Y-12940254D02*
X11614603Y-12959302D01*
X11614603Y-12959302D02*
X11614603Y-13064064D01*
X11614603Y-12959302D02*
X11624127Y-12940254D01*
X11624127Y-12940254D02*
X11643174Y-12930730D01*
X11643174Y-12930730D02*
X11671746Y-12930730D01*
X11671746Y-12930730D02*
X11690793Y-12940254D01*
X11690793Y-12940254D02*
X11700317Y-12959302D01*
X11700317Y-12959302D02*
X11700317Y-13064064D01*
X12090793Y-12854540D02*
X11919365Y-13111683D01*
X12347936Y-12864064D02*
X12366984Y-12864064D01*
X12366984Y-12864064D02*
X12386032Y-12873588D01*
X12386032Y-12873588D02*
X12395555Y-12883111D01*
X12395555Y-12883111D02*
X12405079Y-12902159D01*
X12405079Y-12902159D02*
X12414603Y-12940254D01*
X12414603Y-12940254D02*
X12414603Y-12987873D01*
X12414603Y-12987873D02*
X12405079Y-13025968D01*
X12405079Y-13025968D02*
X12395555Y-13045016D01*
X12395555Y-13045016D02*
X12386032Y-13054540D01*
X12386032Y-13054540D02*
X12366984Y-13064064D01*
X12366984Y-13064064D02*
X12347936Y-13064064D01*
X12347936Y-13064064D02*
X12328889Y-13054540D01*
X12328889Y-13054540D02*
X12319365Y-13045016D01*
X12319365Y-13045016D02*
X12309841Y-13025968D01*
X12309841Y-13025968D02*
X12300317Y-12987873D01*
X12300317Y-12987873D02*
X12300317Y-12940254D01*
X12300317Y-12940254D02*
X12309841Y-12902159D01*
X12309841Y-12902159D02*
X12319365Y-12883111D01*
X12319365Y-12883111D02*
X12328889Y-12873588D01*
X12328889Y-12873588D02*
X12347936Y-12864064D01*
X12500317Y-13045016D02*
X12509841Y-13054540D01*
X12509841Y-13054540D02*
X12500317Y-13064064D01*
X12500317Y-13064064D02*
X12490793Y-13054540D01*
X12490793Y-13054540D02*
X12500317Y-13045016D01*
X12500317Y-13045016D02*
X12500317Y-13064064D01*
X12633651Y-12864064D02*
X12652698Y-12864064D01*
X12652698Y-12864064D02*
X12671746Y-12873588D01*
X12671746Y-12873588D02*
X12681270Y-12883111D01*
X12681270Y-12883111D02*
X12690793Y-12902159D01*
X12690793Y-12902159D02*
X12700317Y-12940254D01*
X12700317Y-12940254D02*
X12700317Y-12987873D01*
X12700317Y-12987873D02*
X12690793Y-13025968D01*
X12690793Y-13025968D02*
X12681270Y-13045016D01*
X12681270Y-13045016D02*
X12671746Y-13054540D01*
X12671746Y-13054540D02*
X12652698Y-13064064D01*
X12652698Y-13064064D02*
X12633651Y-13064064D01*
X12633651Y-13064064D02*
X12614603Y-13054540D01*
X12614603Y-13054540D02*
X12605079Y-13045016D01*
X12605079Y-13045016D02*
X12595555Y-13025968D01*
X12595555Y-13025968D02*
X12586032Y-12987873D01*
X12586032Y-12987873D02*
X12586032Y-12940254D01*
X12586032Y-12940254D02*
X12595555Y-12902159D01*
X12595555Y-12902159D02*
X12605079Y-12883111D01*
X12605079Y-12883111D02*
X12614603Y-12873588D01*
X12614603Y-12873588D02*
X12633651Y-12864064D01*
X12890793Y-13064064D02*
X12776508Y-13064064D01*
X12833651Y-13064064D02*
X12833651Y-12864064D01*
X12833651Y-12864064D02*
X12814603Y-12892635D01*
X12814603Y-12892635D02*
X12795555Y-12911683D01*
X12795555Y-12911683D02*
X12776508Y-12921207D01*
X13071746Y-12864064D02*
X12976508Y-12864064D01*
X12976508Y-12864064D02*
X12966984Y-12959302D01*
X12966984Y-12959302D02*
X12976508Y-12949778D01*
X12976508Y-12949778D02*
X12995555Y-12940254D01*
X12995555Y-12940254D02*
X13043174Y-12940254D01*
X13043174Y-12940254D02*
X13062222Y-12949778D01*
X13062222Y-12949778D02*
X13071746Y-12959302D01*
X13071746Y-12959302D02*
X13081270Y-12978349D01*
X13081270Y-12978349D02*
X13081270Y-13025968D01*
X13081270Y-13025968D02*
X13071746Y-13045016D01*
X13071746Y-13045016D02*
X13062222Y-13054540D01*
X13062222Y-13054540D02*
X13043174Y-13064064D01*
X13043174Y-13064064D02*
X12995555Y-13064064D01*
X12995555Y-13064064D02*
X12976508Y-13054540D01*
X12976508Y-13054540D02*
X12966984Y-13045016D01*
X13147936Y-12864064D02*
X13281270Y-12864064D01*
X13281270Y-12864064D02*
X13195555Y-13064064D01*
X13347936Y-12864064D02*
X13347936Y-12902159D01*
X13424127Y-12864064D02*
X13424127Y-12902159D01*
X13719365Y-13140254D02*
X13709841Y-13130730D01*
X13709841Y-13130730D02*
X13690794Y-13102159D01*
X13690794Y-13102159D02*
X13681270Y-13083111D01*
X13681270Y-13083111D02*
X13671746Y-13054540D01*
X13671746Y-13054540D02*
X13662222Y-13006921D01*
X13662222Y-13006921D02*
X13662222Y-12968826D01*
X13662222Y-12968826D02*
X13671746Y-12921207D01*
X13671746Y-12921207D02*
X13681270Y-12892635D01*
X13681270Y-12892635D02*
X13690794Y-12873588D01*
X13690794Y-12873588D02*
X13709841Y-12845016D01*
X13709841Y-12845016D02*
X13719365Y-12835492D01*
X13900317Y-13064064D02*
X13786032Y-13064064D01*
X13843174Y-13064064D02*
X13843174Y-12864064D01*
X13843174Y-12864064D02*
X13824127Y-12892635D01*
X13824127Y-12892635D02*
X13805079Y-12911683D01*
X13805079Y-12911683D02*
X13786032Y-12921207D01*
X14071746Y-12864064D02*
X14033651Y-12864064D01*
X14033651Y-12864064D02*
X14014603Y-12873588D01*
X14014603Y-12873588D02*
X14005079Y-12883111D01*
X14005079Y-12883111D02*
X13986032Y-12911683D01*
X13986032Y-12911683D02*
X13976508Y-12949778D01*
X13976508Y-12949778D02*
X13976508Y-13025968D01*
X13976508Y-13025968D02*
X13986032Y-13045016D01*
X13986032Y-13045016D02*
X13995555Y-13054540D01*
X13995555Y-13054540D02*
X14014603Y-13064064D01*
X14014603Y-13064064D02*
X14052698Y-13064064D01*
X14052698Y-13064064D02*
X14071746Y-13054540D01*
X14071746Y-13054540D02*
X14081270Y-13045016D01*
X14081270Y-13045016D02*
X14090794Y-13025968D01*
X14090794Y-13025968D02*
X14090794Y-12978349D01*
X14090794Y-12978349D02*
X14081270Y-12959302D01*
X14081270Y-12959302D02*
X14071746Y-12949778D01*
X14071746Y-12949778D02*
X14052698Y-12940254D01*
X14052698Y-12940254D02*
X14014603Y-12940254D01*
X14014603Y-12940254D02*
X13995555Y-12949778D01*
X13995555Y-12949778D02*
X13986032Y-12959302D01*
X13986032Y-12959302D02*
X13976508Y-12978349D01*
X14328889Y-13064064D02*
X14328889Y-12864064D01*
X14414603Y-13064064D02*
X14414603Y-12959302D01*
X14414603Y-12959302D02*
X14405079Y-12940254D01*
X14405079Y-12940254D02*
X14386032Y-12930730D01*
X14386032Y-12930730D02*
X14357460Y-12930730D01*
X14357460Y-12930730D02*
X14338413Y-12940254D01*
X14338413Y-12940254D02*
X14328889Y-12949778D01*
X14538413Y-13064064D02*
X14519365Y-13054540D01*
X14519365Y-13054540D02*
X14509841Y-13045016D01*
X14509841Y-13045016D02*
X14500317Y-13025968D01*
X14500317Y-13025968D02*
X14500317Y-12968826D01*
X14500317Y-12968826D02*
X14509841Y-12949778D01*
X14509841Y-12949778D02*
X14519365Y-12940254D01*
X14519365Y-12940254D02*
X14538413Y-12930730D01*
X14538413Y-12930730D02*
X14566984Y-12930730D01*
X14566984Y-12930730D02*
X14586032Y-12940254D01*
X14586032Y-12940254D02*
X14595556Y-12949778D01*
X14595556Y-12949778D02*
X14605079Y-12968826D01*
X14605079Y-12968826D02*
X14605079Y-13025968D01*
X14605079Y-13025968D02*
X14595556Y-13045016D01*
X14595556Y-13045016D02*
X14586032Y-13054540D01*
X14586032Y-13054540D02*
X14566984Y-13064064D01*
X14566984Y-13064064D02*
X14538413Y-13064064D01*
X14719365Y-13064064D02*
X14700317Y-13054540D01*
X14700317Y-13054540D02*
X14690794Y-13035492D01*
X14690794Y-13035492D02*
X14690794Y-12864064D01*
X14871746Y-13054540D02*
X14852698Y-13064064D01*
X14852698Y-13064064D02*
X14814603Y-13064064D01*
X14814603Y-13064064D02*
X14795556Y-13054540D01*
X14795556Y-13054540D02*
X14786032Y-13035492D01*
X14786032Y-13035492D02*
X14786032Y-12959302D01*
X14786032Y-12959302D02*
X14795556Y-12940254D01*
X14795556Y-12940254D02*
X14814603Y-12930730D01*
X14814603Y-12930730D02*
X14852698Y-12930730D01*
X14852698Y-12930730D02*
X14871746Y-12940254D01*
X14871746Y-12940254D02*
X14881270Y-12959302D01*
X14881270Y-12959302D02*
X14881270Y-12978349D01*
X14881270Y-12978349D02*
X14786032Y-12997397D01*
X14957460Y-13054540D02*
X14976508Y-13064064D01*
X14976508Y-13064064D02*
X15014603Y-13064064D01*
X15014603Y-13064064D02*
X15033651Y-13054540D01*
X15033651Y-13054540D02*
X15043175Y-13035492D01*
X15043175Y-13035492D02*
X15043175Y-13025968D01*
X15043175Y-13025968D02*
X15033651Y-13006921D01*
X15033651Y-13006921D02*
X15014603Y-12997397D01*
X15014603Y-12997397D02*
X14986032Y-12997397D01*
X14986032Y-12997397D02*
X14966984Y-12987873D01*
X14966984Y-12987873D02*
X14957460Y-12968826D01*
X14957460Y-12968826D02*
X14957460Y-12959302D01*
X14957460Y-12959302D02*
X14966984Y-12940254D01*
X14966984Y-12940254D02*
X14986032Y-12930730D01*
X14986032Y-12930730D02*
X15014603Y-12930730D01*
X15014603Y-12930730D02*
X15033651Y-12940254D01*
X15109841Y-13140254D02*
X15119365Y-13130730D01*
X15119365Y-13130730D02*
X15138413Y-13102159D01*
X15138413Y-13102159D02*
X15147937Y-13083111D01*
X15147937Y-13083111D02*
X15157460Y-13054540D01*
X15157460Y-13054540D02*
X15166984Y-13006921D01*
X15166984Y-13006921D02*
X15166984Y-12968826D01*
X15166984Y-12968826D02*
X15157460Y-12921207D01*
X15157460Y-12921207D02*
X15147937Y-12892635D01*
X15147937Y-12892635D02*
X15138413Y-12873588D01*
X15138413Y-12873588D02*
X15119365Y-12845016D01*
X15119365Y-12845016D02*
X15109841Y-12835492D01*
D14*
X10127460Y-13205540D02*
X10127460Y-13265540D01*
X10097460Y-13235540D02*
X10157460Y-13235540D01*
D11*
X10443174Y-13128064D02*
X10462222Y-13128064D01*
X10462222Y-13128064D02*
X10481270Y-13137588D01*
X10481270Y-13137588D02*
X10490793Y-13147111D01*
X10490793Y-13147111D02*
X10500317Y-13166159D01*
X10500317Y-13166159D02*
X10509841Y-13204254D01*
X10509841Y-13204254D02*
X10509841Y-13251873D01*
X10509841Y-13251873D02*
X10500317Y-13289968D01*
X10500317Y-13289968D02*
X10490793Y-13309016D01*
X10490793Y-13309016D02*
X10481270Y-13318540D01*
X10481270Y-13318540D02*
X10462222Y-13328064D01*
X10462222Y-13328064D02*
X10443174Y-13328064D01*
X10443174Y-13328064D02*
X10424127Y-13318540D01*
X10424127Y-13318540D02*
X10414603Y-13309016D01*
X10414603Y-13309016D02*
X10405079Y-13289968D01*
X10405079Y-13289968D02*
X10395555Y-13251873D01*
X10395555Y-13251873D02*
X10395555Y-13204254D01*
X10395555Y-13204254D02*
X10405079Y-13166159D01*
X10405079Y-13166159D02*
X10414603Y-13147111D01*
X10414603Y-13147111D02*
X10424127Y-13137588D01*
X10424127Y-13137588D02*
X10443174Y-13128064D01*
X10595555Y-13309016D02*
X10605079Y-13318540D01*
X10605079Y-13318540D02*
X10595555Y-13328064D01*
X10595555Y-13328064D02*
X10586031Y-13318540D01*
X10586031Y-13318540D02*
X10595555Y-13309016D01*
X10595555Y-13309016D02*
X10595555Y-13328064D01*
X10776508Y-13128064D02*
X10738412Y-13128064D01*
X10738412Y-13128064D02*
X10719365Y-13137588D01*
X10719365Y-13137588D02*
X10709841Y-13147111D01*
X10709841Y-13147111D02*
X10690793Y-13175683D01*
X10690793Y-13175683D02*
X10681270Y-13213778D01*
X10681270Y-13213778D02*
X10681270Y-13289968D01*
X10681270Y-13289968D02*
X10690793Y-13309016D01*
X10690793Y-13309016D02*
X10700317Y-13318540D01*
X10700317Y-13318540D02*
X10719365Y-13328064D01*
X10719365Y-13328064D02*
X10757460Y-13328064D01*
X10757460Y-13328064D02*
X10776508Y-13318540D01*
X10776508Y-13318540D02*
X10786031Y-13309016D01*
X10786031Y-13309016D02*
X10795555Y-13289968D01*
X10795555Y-13289968D02*
X10795555Y-13242349D01*
X10795555Y-13242349D02*
X10786031Y-13223302D01*
X10786031Y-13223302D02*
X10776508Y-13213778D01*
X10776508Y-13213778D02*
X10757460Y-13204254D01*
X10757460Y-13204254D02*
X10719365Y-13204254D01*
X10719365Y-13204254D02*
X10700317Y-13213778D01*
X10700317Y-13213778D02*
X10690793Y-13223302D01*
X10690793Y-13223302D02*
X10681270Y-13242349D01*
X10919365Y-13128064D02*
X10938412Y-13128064D01*
X10938412Y-13128064D02*
X10957460Y-13137588D01*
X10957460Y-13137588D02*
X10966984Y-13147111D01*
X10966984Y-13147111D02*
X10976508Y-13166159D01*
X10976508Y-13166159D02*
X10986031Y-13204254D01*
X10986031Y-13204254D02*
X10986031Y-13251873D01*
X10986031Y-13251873D02*
X10976508Y-13289968D01*
X10976508Y-13289968D02*
X10966984Y-13309016D01*
X10966984Y-13309016D02*
X10957460Y-13318540D01*
X10957460Y-13318540D02*
X10938412Y-13328064D01*
X10938412Y-13328064D02*
X10919365Y-13328064D01*
X10919365Y-13328064D02*
X10900317Y-13318540D01*
X10900317Y-13318540D02*
X10890793Y-13309016D01*
X10890793Y-13309016D02*
X10881270Y-13289968D01*
X10881270Y-13289968D02*
X10871746Y-13251873D01*
X10871746Y-13251873D02*
X10871746Y-13204254D01*
X10871746Y-13204254D02*
X10881270Y-13166159D01*
X10881270Y-13166159D02*
X10890793Y-13147111D01*
X10890793Y-13147111D02*
X10900317Y-13137588D01*
X10900317Y-13137588D02*
X10919365Y-13128064D01*
X11109841Y-13128064D02*
X11128889Y-13128064D01*
X11128889Y-13128064D02*
X11147936Y-13137588D01*
X11147936Y-13137588D02*
X11157460Y-13147111D01*
X11157460Y-13147111D02*
X11166984Y-13166159D01*
X11166984Y-13166159D02*
X11176508Y-13204254D01*
X11176508Y-13204254D02*
X11176508Y-13251873D01*
X11176508Y-13251873D02*
X11166984Y-13289968D01*
X11166984Y-13289968D02*
X11157460Y-13309016D01*
X11157460Y-13309016D02*
X11147936Y-13318540D01*
X11147936Y-13318540D02*
X11128889Y-13328064D01*
X11128889Y-13328064D02*
X11109841Y-13328064D01*
X11109841Y-13328064D02*
X11090793Y-13318540D01*
X11090793Y-13318540D02*
X11081270Y-13309016D01*
X11081270Y-13309016D02*
X11071746Y-13289968D01*
X11071746Y-13289968D02*
X11062222Y-13251873D01*
X11062222Y-13251873D02*
X11062222Y-13204254D01*
X11062222Y-13204254D02*
X11071746Y-13166159D01*
X11071746Y-13166159D02*
X11081270Y-13147111D01*
X11081270Y-13147111D02*
X11090793Y-13137588D01*
X11090793Y-13137588D02*
X11109841Y-13128064D01*
X11262222Y-13328064D02*
X11262222Y-13194730D01*
X11262222Y-13213778D02*
X11271746Y-13204254D01*
X11271746Y-13204254D02*
X11290793Y-13194730D01*
X11290793Y-13194730D02*
X11319365Y-13194730D01*
X11319365Y-13194730D02*
X11338412Y-13204254D01*
X11338412Y-13204254D02*
X11347936Y-13223302D01*
X11347936Y-13223302D02*
X11347936Y-13328064D01*
X11347936Y-13223302D02*
X11357460Y-13204254D01*
X11357460Y-13204254D02*
X11376508Y-13194730D01*
X11376508Y-13194730D02*
X11405079Y-13194730D01*
X11405079Y-13194730D02*
X11424127Y-13204254D01*
X11424127Y-13204254D02*
X11433650Y-13223302D01*
X11433650Y-13223302D02*
X11433650Y-13328064D01*
X11528889Y-13328064D02*
X11528889Y-13194730D01*
X11528889Y-13213778D02*
X11538412Y-13204254D01*
X11538412Y-13204254D02*
X11557460Y-13194730D01*
X11557460Y-13194730D02*
X11586031Y-13194730D01*
X11586031Y-13194730D02*
X11605079Y-13204254D01*
X11605079Y-13204254D02*
X11614603Y-13223302D01*
X11614603Y-13223302D02*
X11614603Y-13328064D01*
X11614603Y-13223302D02*
X11624127Y-13204254D01*
X11624127Y-13204254D02*
X11643174Y-13194730D01*
X11643174Y-13194730D02*
X11671746Y-13194730D01*
X11671746Y-13194730D02*
X11690793Y-13204254D01*
X11690793Y-13204254D02*
X11700317Y-13223302D01*
X11700317Y-13223302D02*
X11700317Y-13328064D01*
X12090793Y-13118540D02*
X11919365Y-13375683D01*
X12347936Y-13128064D02*
X12366984Y-13128064D01*
X12366984Y-13128064D02*
X12386032Y-13137588D01*
X12386032Y-13137588D02*
X12395555Y-13147111D01*
X12395555Y-13147111D02*
X12405079Y-13166159D01*
X12405079Y-13166159D02*
X12414603Y-13204254D01*
X12414603Y-13204254D02*
X12414603Y-13251873D01*
X12414603Y-13251873D02*
X12405079Y-13289968D01*
X12405079Y-13289968D02*
X12395555Y-13309016D01*
X12395555Y-13309016D02*
X12386032Y-13318540D01*
X12386032Y-13318540D02*
X12366984Y-13328064D01*
X12366984Y-13328064D02*
X12347936Y-13328064D01*
X12347936Y-13328064D02*
X12328889Y-13318540D01*
X12328889Y-13318540D02*
X12319365Y-13309016D01*
X12319365Y-13309016D02*
X12309841Y-13289968D01*
X12309841Y-13289968D02*
X12300317Y-13251873D01*
X12300317Y-13251873D02*
X12300317Y-13204254D01*
X12300317Y-13204254D02*
X12309841Y-13166159D01*
X12309841Y-13166159D02*
X12319365Y-13147111D01*
X12319365Y-13147111D02*
X12328889Y-13137588D01*
X12328889Y-13137588D02*
X12347936Y-13128064D01*
X12500317Y-13309016D02*
X12509841Y-13318540D01*
X12509841Y-13318540D02*
X12500317Y-13328064D01*
X12500317Y-13328064D02*
X12490793Y-13318540D01*
X12490793Y-13318540D02*
X12500317Y-13309016D01*
X12500317Y-13309016D02*
X12500317Y-13328064D01*
X12633651Y-13128064D02*
X12652698Y-13128064D01*
X12652698Y-13128064D02*
X12671746Y-13137588D01*
X12671746Y-13137588D02*
X12681270Y-13147111D01*
X12681270Y-13147111D02*
X12690793Y-13166159D01*
X12690793Y-13166159D02*
X12700317Y-13204254D01*
X12700317Y-13204254D02*
X12700317Y-13251873D01*
X12700317Y-13251873D02*
X12690793Y-13289968D01*
X12690793Y-13289968D02*
X12681270Y-13309016D01*
X12681270Y-13309016D02*
X12671746Y-13318540D01*
X12671746Y-13318540D02*
X12652698Y-13328064D01*
X12652698Y-13328064D02*
X12633651Y-13328064D01*
X12633651Y-13328064D02*
X12614603Y-13318540D01*
X12614603Y-13318540D02*
X12605079Y-13309016D01*
X12605079Y-13309016D02*
X12595555Y-13289968D01*
X12595555Y-13289968D02*
X12586032Y-13251873D01*
X12586032Y-13251873D02*
X12586032Y-13204254D01*
X12586032Y-13204254D02*
X12595555Y-13166159D01*
X12595555Y-13166159D02*
X12605079Y-13147111D01*
X12605079Y-13147111D02*
X12614603Y-13137588D01*
X12614603Y-13137588D02*
X12633651Y-13128064D01*
X12776508Y-13147111D02*
X12786032Y-13137588D01*
X12786032Y-13137588D02*
X12805079Y-13128064D01*
X12805079Y-13128064D02*
X12852698Y-13128064D01*
X12852698Y-13128064D02*
X12871746Y-13137588D01*
X12871746Y-13137588D02*
X12881270Y-13147111D01*
X12881270Y-13147111D02*
X12890793Y-13166159D01*
X12890793Y-13166159D02*
X12890793Y-13185207D01*
X12890793Y-13185207D02*
X12881270Y-13213778D01*
X12881270Y-13213778D02*
X12766984Y-13328064D01*
X12766984Y-13328064D02*
X12890793Y-13328064D01*
X12957460Y-13128064D02*
X13081270Y-13128064D01*
X13081270Y-13128064D02*
X13014603Y-13204254D01*
X13014603Y-13204254D02*
X13043174Y-13204254D01*
X13043174Y-13204254D02*
X13062222Y-13213778D01*
X13062222Y-13213778D02*
X13071746Y-13223302D01*
X13071746Y-13223302D02*
X13081270Y-13242349D01*
X13081270Y-13242349D02*
X13081270Y-13289968D01*
X13081270Y-13289968D02*
X13071746Y-13309016D01*
X13071746Y-13309016D02*
X13062222Y-13318540D01*
X13062222Y-13318540D02*
X13043174Y-13328064D01*
X13043174Y-13328064D02*
X12986032Y-13328064D01*
X12986032Y-13328064D02*
X12966984Y-13318540D01*
X12966984Y-13318540D02*
X12957460Y-13309016D01*
X13252698Y-13128064D02*
X13214603Y-13128064D01*
X13214603Y-13128064D02*
X13195555Y-13137588D01*
X13195555Y-13137588D02*
X13186032Y-13147111D01*
X13186032Y-13147111D02*
X13166984Y-13175683D01*
X13166984Y-13175683D02*
X13157460Y-13213778D01*
X13157460Y-13213778D02*
X13157460Y-13289968D01*
X13157460Y-13289968D02*
X13166984Y-13309016D01*
X13166984Y-13309016D02*
X13176508Y-13318540D01*
X13176508Y-13318540D02*
X13195555Y-13328064D01*
X13195555Y-13328064D02*
X13233651Y-13328064D01*
X13233651Y-13328064D02*
X13252698Y-13318540D01*
X13252698Y-13318540D02*
X13262222Y-13309016D01*
X13262222Y-13309016D02*
X13271746Y-13289968D01*
X13271746Y-13289968D02*
X13271746Y-13242349D01*
X13271746Y-13242349D02*
X13262222Y-13223302D01*
X13262222Y-13223302D02*
X13252698Y-13213778D01*
X13252698Y-13213778D02*
X13233651Y-13204254D01*
X13233651Y-13204254D02*
X13195555Y-13204254D01*
X13195555Y-13204254D02*
X13176508Y-13213778D01*
X13176508Y-13213778D02*
X13166984Y-13223302D01*
X13166984Y-13223302D02*
X13157460Y-13242349D01*
X13347936Y-13128064D02*
X13347936Y-13166159D01*
X13424127Y-13128064D02*
X13424127Y-13166159D01*
X13719365Y-13404254D02*
X13709841Y-13394730D01*
X13709841Y-13394730D02*
X13690794Y-13366159D01*
X13690794Y-13366159D02*
X13681270Y-13347111D01*
X13681270Y-13347111D02*
X13671746Y-13318540D01*
X13671746Y-13318540D02*
X13662222Y-13270921D01*
X13662222Y-13270921D02*
X13662222Y-13232826D01*
X13662222Y-13232826D02*
X13671746Y-13185207D01*
X13671746Y-13185207D02*
X13681270Y-13156635D01*
X13681270Y-13156635D02*
X13690794Y-13137588D01*
X13690794Y-13137588D02*
X13709841Y-13109016D01*
X13709841Y-13109016D02*
X13719365Y-13099492D01*
X13833651Y-13128064D02*
X13852698Y-13128064D01*
X13852698Y-13128064D02*
X13871746Y-13137588D01*
X13871746Y-13137588D02*
X13881270Y-13147111D01*
X13881270Y-13147111D02*
X13890794Y-13166159D01*
X13890794Y-13166159D02*
X13900317Y-13204254D01*
X13900317Y-13204254D02*
X13900317Y-13251873D01*
X13900317Y-13251873D02*
X13890794Y-13289968D01*
X13890794Y-13289968D02*
X13881270Y-13309016D01*
X13881270Y-13309016D02*
X13871746Y-13318540D01*
X13871746Y-13318540D02*
X13852698Y-13328064D01*
X13852698Y-13328064D02*
X13833651Y-13328064D01*
X13833651Y-13328064D02*
X13814603Y-13318540D01*
X13814603Y-13318540D02*
X13805079Y-13309016D01*
X13805079Y-13309016D02*
X13795555Y-13289968D01*
X13795555Y-13289968D02*
X13786032Y-13251873D01*
X13786032Y-13251873D02*
X13786032Y-13204254D01*
X13786032Y-13204254D02*
X13795555Y-13166159D01*
X13795555Y-13166159D02*
X13805079Y-13147111D01*
X13805079Y-13147111D02*
X13814603Y-13137588D01*
X13814603Y-13137588D02*
X13833651Y-13128064D01*
X14138413Y-13328064D02*
X14138413Y-13128064D01*
X14224127Y-13328064D02*
X14224127Y-13223302D01*
X14224127Y-13223302D02*
X14214603Y-13204254D01*
X14214603Y-13204254D02*
X14195556Y-13194730D01*
X14195556Y-13194730D02*
X14166984Y-13194730D01*
X14166984Y-13194730D02*
X14147936Y-13204254D01*
X14147936Y-13204254D02*
X14138413Y-13213778D01*
X14347936Y-13328064D02*
X14328889Y-13318540D01*
X14328889Y-13318540D02*
X14319365Y-13309016D01*
X14319365Y-13309016D02*
X14309841Y-13289968D01*
X14309841Y-13289968D02*
X14309841Y-13232826D01*
X14309841Y-13232826D02*
X14319365Y-13213778D01*
X14319365Y-13213778D02*
X14328889Y-13204254D01*
X14328889Y-13204254D02*
X14347936Y-13194730D01*
X14347936Y-13194730D02*
X14376508Y-13194730D01*
X14376508Y-13194730D02*
X14395556Y-13204254D01*
X14395556Y-13204254D02*
X14405079Y-13213778D01*
X14405079Y-13213778D02*
X14414603Y-13232826D01*
X14414603Y-13232826D02*
X14414603Y-13289968D01*
X14414603Y-13289968D02*
X14405079Y-13309016D01*
X14405079Y-13309016D02*
X14395556Y-13318540D01*
X14395556Y-13318540D02*
X14376508Y-13328064D01*
X14376508Y-13328064D02*
X14347936Y-13328064D01*
X14528889Y-13328064D02*
X14509841Y-13318540D01*
X14509841Y-13318540D02*
X14500317Y-13299492D01*
X14500317Y-13299492D02*
X14500317Y-13128064D01*
X14681270Y-13318540D02*
X14662222Y-13328064D01*
X14662222Y-13328064D02*
X14624127Y-13328064D01*
X14624127Y-13328064D02*
X14605079Y-13318540D01*
X14605079Y-13318540D02*
X14595556Y-13299492D01*
X14595556Y-13299492D02*
X14595556Y-13223302D01*
X14595556Y-13223302D02*
X14605079Y-13204254D01*
X14605079Y-13204254D02*
X14624127Y-13194730D01*
X14624127Y-13194730D02*
X14662222Y-13194730D01*
X14662222Y-13194730D02*
X14681270Y-13204254D01*
X14681270Y-13204254D02*
X14690794Y-13223302D01*
X14690794Y-13223302D02*
X14690794Y-13242349D01*
X14690794Y-13242349D02*
X14595556Y-13261397D01*
X14766984Y-13318540D02*
X14786032Y-13328064D01*
X14786032Y-13328064D02*
X14824127Y-13328064D01*
X14824127Y-13328064D02*
X14843175Y-13318540D01*
X14843175Y-13318540D02*
X14852698Y-13299492D01*
X14852698Y-13299492D02*
X14852698Y-13289968D01*
X14852698Y-13289968D02*
X14843175Y-13270921D01*
X14843175Y-13270921D02*
X14824127Y-13261397D01*
X14824127Y-13261397D02*
X14795556Y-13261397D01*
X14795556Y-13261397D02*
X14776508Y-13251873D01*
X14776508Y-13251873D02*
X14766984Y-13232826D01*
X14766984Y-13232826D02*
X14766984Y-13223302D01*
X14766984Y-13223302D02*
X14776508Y-13204254D01*
X14776508Y-13204254D02*
X14795556Y-13194730D01*
X14795556Y-13194730D02*
X14824127Y-13194730D01*
X14824127Y-13194730D02*
X14843175Y-13204254D01*
X15090794Y-13251873D02*
X15243175Y-13251873D01*
X15166984Y-13328064D02*
X15166984Y-13175683D01*
X15576508Y-13194730D02*
X15576508Y-13328064D01*
X15528889Y-13118540D02*
X15481270Y-13261397D01*
X15481270Y-13261397D02*
X15605079Y-13261397D01*
X15824127Y-13318540D02*
X15843175Y-13328064D01*
X15843175Y-13328064D02*
X15881270Y-13328064D01*
X15881270Y-13328064D02*
X15900318Y-13318540D01*
X15900318Y-13318540D02*
X15909841Y-13299492D01*
X15909841Y-13299492D02*
X15909841Y-13289968D01*
X15909841Y-13289968D02*
X15900318Y-13270921D01*
X15900318Y-13270921D02*
X15881270Y-13261397D01*
X15881270Y-13261397D02*
X15852699Y-13261397D01*
X15852699Y-13261397D02*
X15833651Y-13251873D01*
X15833651Y-13251873D02*
X15824127Y-13232826D01*
X15824127Y-13232826D02*
X15824127Y-13223302D01*
X15824127Y-13223302D02*
X15833651Y-13204254D01*
X15833651Y-13204254D02*
X15852699Y-13194730D01*
X15852699Y-13194730D02*
X15881270Y-13194730D01*
X15881270Y-13194730D02*
X15900318Y-13204254D01*
X16024127Y-13328064D02*
X16005080Y-13318540D01*
X16005080Y-13318540D02*
X15995556Y-13299492D01*
X15995556Y-13299492D02*
X15995556Y-13128064D01*
X16128889Y-13328064D02*
X16109841Y-13318540D01*
X16109841Y-13318540D02*
X16100318Y-13309016D01*
X16100318Y-13309016D02*
X16090794Y-13289968D01*
X16090794Y-13289968D02*
X16090794Y-13232826D01*
X16090794Y-13232826D02*
X16100318Y-13213778D01*
X16100318Y-13213778D02*
X16109841Y-13204254D01*
X16109841Y-13204254D02*
X16128889Y-13194730D01*
X16128889Y-13194730D02*
X16157461Y-13194730D01*
X16157461Y-13194730D02*
X16176508Y-13204254D01*
X16176508Y-13204254D02*
X16186032Y-13213778D01*
X16186032Y-13213778D02*
X16195556Y-13232826D01*
X16195556Y-13232826D02*
X16195556Y-13289968D01*
X16195556Y-13289968D02*
X16186032Y-13309016D01*
X16186032Y-13309016D02*
X16176508Y-13318540D01*
X16176508Y-13318540D02*
X16157461Y-13328064D01*
X16157461Y-13328064D02*
X16128889Y-13328064D01*
X16252699Y-13194730D02*
X16328889Y-13194730D01*
X16281270Y-13128064D02*
X16281270Y-13299492D01*
X16281270Y-13299492D02*
X16290794Y-13318540D01*
X16290794Y-13318540D02*
X16309841Y-13328064D01*
X16309841Y-13328064D02*
X16328889Y-13328064D01*
X16386032Y-13318540D02*
X16405080Y-13328064D01*
X16405080Y-13328064D02*
X16443175Y-13328064D01*
X16443175Y-13328064D02*
X16462222Y-13318540D01*
X16462222Y-13318540D02*
X16471746Y-13299492D01*
X16471746Y-13299492D02*
X16471746Y-13289968D01*
X16471746Y-13289968D02*
X16462222Y-13270921D01*
X16462222Y-13270921D02*
X16443175Y-13261397D01*
X16443175Y-13261397D02*
X16414603Y-13261397D01*
X16414603Y-13261397D02*
X16395556Y-13251873D01*
X16395556Y-13251873D02*
X16386032Y-13232826D01*
X16386032Y-13232826D02*
X16386032Y-13223302D01*
X16386032Y-13223302D02*
X16395556Y-13204254D01*
X16395556Y-13204254D02*
X16414603Y-13194730D01*
X16414603Y-13194730D02*
X16443175Y-13194730D01*
X16443175Y-13194730D02*
X16462222Y-13204254D01*
X16538413Y-13404254D02*
X16547937Y-13394730D01*
X16547937Y-13394730D02*
X16566984Y-13366159D01*
X16566984Y-13366159D02*
X16576508Y-13347111D01*
X16576508Y-13347111D02*
X16586032Y-13318540D01*
X16586032Y-13318540D02*
X16595556Y-13270921D01*
X16595556Y-13270921D02*
X16595556Y-13232826D01*
X16595556Y-13232826D02*
X16586032Y-13185207D01*
X16586032Y-13185207D02*
X16576508Y-13156635D01*
X16576508Y-13156635D02*
X16566984Y-13137588D01*
X16566984Y-13137588D02*
X16547937Y-13109016D01*
X16547937Y-13109016D02*
X16538413Y-13099492D01*
D15*
X10146477Y-13526057D02*
X10146477Y-13473023D01*
X10093443Y-13473023D01*
X10093443Y-13526057D01*
X10146477Y-13526057D01*
D11*
X10443174Y-13392064D02*
X10462222Y-13392064D01*
X10462222Y-13392064D02*
X10481270Y-13401588D01*
X10481270Y-13401588D02*
X10490793Y-13411111D01*
X10490793Y-13411111D02*
X10500317Y-13430159D01*
X10500317Y-13430159D02*
X10509841Y-13468254D01*
X10509841Y-13468254D02*
X10509841Y-13515873D01*
X10509841Y-13515873D02*
X10500317Y-13553968D01*
X10500317Y-13553968D02*
X10490793Y-13573016D01*
X10490793Y-13573016D02*
X10481270Y-13582540D01*
X10481270Y-13582540D02*
X10462222Y-13592064D01*
X10462222Y-13592064D02*
X10443174Y-13592064D01*
X10443174Y-13592064D02*
X10424127Y-13582540D01*
X10424127Y-13582540D02*
X10414603Y-13573016D01*
X10414603Y-13573016D02*
X10405079Y-13553968D01*
X10405079Y-13553968D02*
X10395555Y-13515873D01*
X10395555Y-13515873D02*
X10395555Y-13468254D01*
X10395555Y-13468254D02*
X10405079Y-13430159D01*
X10405079Y-13430159D02*
X10414603Y-13411111D01*
X10414603Y-13411111D02*
X10424127Y-13401588D01*
X10424127Y-13401588D02*
X10443174Y-13392064D01*
X10595555Y-13573016D02*
X10605079Y-13582540D01*
X10605079Y-13582540D02*
X10595555Y-13592064D01*
X10595555Y-13592064D02*
X10586031Y-13582540D01*
X10586031Y-13582540D02*
X10595555Y-13573016D01*
X10595555Y-13573016D02*
X10595555Y-13592064D01*
X10671746Y-13392064D02*
X10805079Y-13392064D01*
X10805079Y-13392064D02*
X10719365Y-13592064D01*
X10976508Y-13392064D02*
X10881270Y-13392064D01*
X10881270Y-13392064D02*
X10871746Y-13487302D01*
X10871746Y-13487302D02*
X10881270Y-13477778D01*
X10881270Y-13477778D02*
X10900317Y-13468254D01*
X10900317Y-13468254D02*
X10947936Y-13468254D01*
X10947936Y-13468254D02*
X10966984Y-13477778D01*
X10966984Y-13477778D02*
X10976508Y-13487302D01*
X10976508Y-13487302D02*
X10986031Y-13506349D01*
X10986031Y-13506349D02*
X10986031Y-13553968D01*
X10986031Y-13553968D02*
X10976508Y-13573016D01*
X10976508Y-13573016D02*
X10966984Y-13582540D01*
X10966984Y-13582540D02*
X10947936Y-13592064D01*
X10947936Y-13592064D02*
X10900317Y-13592064D01*
X10900317Y-13592064D02*
X10881270Y-13582540D01*
X10881270Y-13582540D02*
X10871746Y-13573016D01*
X11109841Y-13392064D02*
X11128889Y-13392064D01*
X11128889Y-13392064D02*
X11147936Y-13401588D01*
X11147936Y-13401588D02*
X11157460Y-13411111D01*
X11157460Y-13411111D02*
X11166984Y-13430159D01*
X11166984Y-13430159D02*
X11176508Y-13468254D01*
X11176508Y-13468254D02*
X11176508Y-13515873D01*
X11176508Y-13515873D02*
X11166984Y-13553968D01*
X11166984Y-13553968D02*
X11157460Y-13573016D01*
X11157460Y-13573016D02*
X11147936Y-13582540D01*
X11147936Y-13582540D02*
X11128889Y-13592064D01*
X11128889Y-13592064D02*
X11109841Y-13592064D01*
X11109841Y-13592064D02*
X11090793Y-13582540D01*
X11090793Y-13582540D02*
X11081270Y-13573016D01*
X11081270Y-13573016D02*
X11071746Y-13553968D01*
X11071746Y-13553968D02*
X11062222Y-13515873D01*
X11062222Y-13515873D02*
X11062222Y-13468254D01*
X11062222Y-13468254D02*
X11071746Y-13430159D01*
X11071746Y-13430159D02*
X11081270Y-13411111D01*
X11081270Y-13411111D02*
X11090793Y-13401588D01*
X11090793Y-13401588D02*
X11109841Y-13392064D01*
X11262222Y-13592064D02*
X11262222Y-13458730D01*
X11262222Y-13477778D02*
X11271746Y-13468254D01*
X11271746Y-13468254D02*
X11290793Y-13458730D01*
X11290793Y-13458730D02*
X11319365Y-13458730D01*
X11319365Y-13458730D02*
X11338412Y-13468254D01*
X11338412Y-13468254D02*
X11347936Y-13487302D01*
X11347936Y-13487302D02*
X11347936Y-13592064D01*
X11347936Y-13487302D02*
X11357460Y-13468254D01*
X11357460Y-13468254D02*
X11376508Y-13458730D01*
X11376508Y-13458730D02*
X11405079Y-13458730D01*
X11405079Y-13458730D02*
X11424127Y-13468254D01*
X11424127Y-13468254D02*
X11433650Y-13487302D01*
X11433650Y-13487302D02*
X11433650Y-13592064D01*
X11528889Y-13592064D02*
X11528889Y-13458730D01*
X11528889Y-13477778D02*
X11538412Y-13468254D01*
X11538412Y-13468254D02*
X11557460Y-13458730D01*
X11557460Y-13458730D02*
X11586031Y-13458730D01*
X11586031Y-13458730D02*
X11605079Y-13468254D01*
X11605079Y-13468254D02*
X11614603Y-13487302D01*
X11614603Y-13487302D02*
X11614603Y-13592064D01*
X11614603Y-13487302D02*
X11624127Y-13468254D01*
X11624127Y-13468254D02*
X11643174Y-13458730D01*
X11643174Y-13458730D02*
X11671746Y-13458730D01*
X11671746Y-13458730D02*
X11690793Y-13468254D01*
X11690793Y-13468254D02*
X11700317Y-13487302D01*
X11700317Y-13487302D02*
X11700317Y-13592064D01*
X12090793Y-13382540D02*
X11919365Y-13639683D01*
X12347936Y-13392064D02*
X12366984Y-13392064D01*
X12366984Y-13392064D02*
X12386032Y-13401588D01*
X12386032Y-13401588D02*
X12395555Y-13411111D01*
X12395555Y-13411111D02*
X12405079Y-13430159D01*
X12405079Y-13430159D02*
X12414603Y-13468254D01*
X12414603Y-13468254D02*
X12414603Y-13515873D01*
X12414603Y-13515873D02*
X12405079Y-13553968D01*
X12405079Y-13553968D02*
X12395555Y-13573016D01*
X12395555Y-13573016D02*
X12386032Y-13582540D01*
X12386032Y-13582540D02*
X12366984Y-13592064D01*
X12366984Y-13592064D02*
X12347936Y-13592064D01*
X12347936Y-13592064D02*
X12328889Y-13582540D01*
X12328889Y-13582540D02*
X12319365Y-13573016D01*
X12319365Y-13573016D02*
X12309841Y-13553968D01*
X12309841Y-13553968D02*
X12300317Y-13515873D01*
X12300317Y-13515873D02*
X12300317Y-13468254D01*
X12300317Y-13468254D02*
X12309841Y-13430159D01*
X12309841Y-13430159D02*
X12319365Y-13411111D01*
X12319365Y-13411111D02*
X12328889Y-13401588D01*
X12328889Y-13401588D02*
X12347936Y-13392064D01*
X12500317Y-13573016D02*
X12509841Y-13582540D01*
X12509841Y-13582540D02*
X12500317Y-13592064D01*
X12500317Y-13592064D02*
X12490793Y-13582540D01*
X12490793Y-13582540D02*
X12500317Y-13573016D01*
X12500317Y-13573016D02*
X12500317Y-13592064D01*
X12633651Y-13392064D02*
X12652698Y-13392064D01*
X12652698Y-13392064D02*
X12671746Y-13401588D01*
X12671746Y-13401588D02*
X12681270Y-13411111D01*
X12681270Y-13411111D02*
X12690793Y-13430159D01*
X12690793Y-13430159D02*
X12700317Y-13468254D01*
X12700317Y-13468254D02*
X12700317Y-13515873D01*
X12700317Y-13515873D02*
X12690793Y-13553968D01*
X12690793Y-13553968D02*
X12681270Y-13573016D01*
X12681270Y-13573016D02*
X12671746Y-13582540D01*
X12671746Y-13582540D02*
X12652698Y-13592064D01*
X12652698Y-13592064D02*
X12633651Y-13592064D01*
X12633651Y-13592064D02*
X12614603Y-13582540D01*
X12614603Y-13582540D02*
X12605079Y-13573016D01*
X12605079Y-13573016D02*
X12595555Y-13553968D01*
X12595555Y-13553968D02*
X12586032Y-13515873D01*
X12586032Y-13515873D02*
X12586032Y-13468254D01*
X12586032Y-13468254D02*
X12595555Y-13430159D01*
X12595555Y-13430159D02*
X12605079Y-13411111D01*
X12605079Y-13411111D02*
X12614603Y-13401588D01*
X12614603Y-13401588D02*
X12633651Y-13392064D01*
X12776508Y-13411111D02*
X12786032Y-13401588D01*
X12786032Y-13401588D02*
X12805079Y-13392064D01*
X12805079Y-13392064D02*
X12852698Y-13392064D01*
X12852698Y-13392064D02*
X12871746Y-13401588D01*
X12871746Y-13401588D02*
X12881270Y-13411111D01*
X12881270Y-13411111D02*
X12890793Y-13430159D01*
X12890793Y-13430159D02*
X12890793Y-13449207D01*
X12890793Y-13449207D02*
X12881270Y-13477778D01*
X12881270Y-13477778D02*
X12766984Y-13592064D01*
X12766984Y-13592064D02*
X12890793Y-13592064D01*
X12986032Y-13592064D02*
X13024127Y-13592064D01*
X13024127Y-13592064D02*
X13043174Y-13582540D01*
X13043174Y-13582540D02*
X13052698Y-13573016D01*
X13052698Y-13573016D02*
X13071746Y-13544445D01*
X13071746Y-13544445D02*
X13081270Y-13506349D01*
X13081270Y-13506349D02*
X13081270Y-13430159D01*
X13081270Y-13430159D02*
X13071746Y-13411111D01*
X13071746Y-13411111D02*
X13062222Y-13401588D01*
X13062222Y-13401588D02*
X13043174Y-13392064D01*
X13043174Y-13392064D02*
X13005079Y-13392064D01*
X13005079Y-13392064D02*
X12986032Y-13401588D01*
X12986032Y-13401588D02*
X12976508Y-13411111D01*
X12976508Y-13411111D02*
X12966984Y-13430159D01*
X12966984Y-13430159D02*
X12966984Y-13477778D01*
X12966984Y-13477778D02*
X12976508Y-13496826D01*
X12976508Y-13496826D02*
X12986032Y-13506349D01*
X12986032Y-13506349D02*
X13005079Y-13515873D01*
X13005079Y-13515873D02*
X13043174Y-13515873D01*
X13043174Y-13515873D02*
X13062222Y-13506349D01*
X13062222Y-13506349D02*
X13071746Y-13496826D01*
X13071746Y-13496826D02*
X13081270Y-13477778D01*
X13262222Y-13392064D02*
X13166984Y-13392064D01*
X13166984Y-13392064D02*
X13157460Y-13487302D01*
X13157460Y-13487302D02*
X13166984Y-13477778D01*
X13166984Y-13477778D02*
X13186032Y-13468254D01*
X13186032Y-13468254D02*
X13233651Y-13468254D01*
X13233651Y-13468254D02*
X13252698Y-13477778D01*
X13252698Y-13477778D02*
X13262222Y-13487302D01*
X13262222Y-13487302D02*
X13271746Y-13506349D01*
X13271746Y-13506349D02*
X13271746Y-13553968D01*
X13271746Y-13553968D02*
X13262222Y-13573016D01*
X13262222Y-13573016D02*
X13252698Y-13582540D01*
X13252698Y-13582540D02*
X13233651Y-13592064D01*
X13233651Y-13592064D02*
X13186032Y-13592064D01*
X13186032Y-13592064D02*
X13166984Y-13582540D01*
X13166984Y-13582540D02*
X13157460Y-13573016D01*
X13347936Y-13392064D02*
X13347936Y-13430159D01*
X13424127Y-13392064D02*
X13424127Y-13430159D01*
X13719365Y-13668254D02*
X13709841Y-13658730D01*
X13709841Y-13658730D02*
X13690794Y-13630159D01*
X13690794Y-13630159D02*
X13681270Y-13611111D01*
X13681270Y-13611111D02*
X13671746Y-13582540D01*
X13671746Y-13582540D02*
X13662222Y-13534921D01*
X13662222Y-13534921D02*
X13662222Y-13496826D01*
X13662222Y-13496826D02*
X13671746Y-13449207D01*
X13671746Y-13449207D02*
X13681270Y-13420635D01*
X13681270Y-13420635D02*
X13690794Y-13401588D01*
X13690794Y-13401588D02*
X13709841Y-13373016D01*
X13709841Y-13373016D02*
X13719365Y-13363492D01*
X13776508Y-13392064D02*
X13900317Y-13392064D01*
X13900317Y-13392064D02*
X13833651Y-13468254D01*
X13833651Y-13468254D02*
X13862222Y-13468254D01*
X13862222Y-13468254D02*
X13881270Y-13477778D01*
X13881270Y-13477778D02*
X13890794Y-13487302D01*
X13890794Y-13487302D02*
X13900317Y-13506349D01*
X13900317Y-13506349D02*
X13900317Y-13553968D01*
X13900317Y-13553968D02*
X13890794Y-13573016D01*
X13890794Y-13573016D02*
X13881270Y-13582540D01*
X13881270Y-13582540D02*
X13862222Y-13592064D01*
X13862222Y-13592064D02*
X13805079Y-13592064D01*
X13805079Y-13592064D02*
X13786032Y-13582540D01*
X13786032Y-13582540D02*
X13776508Y-13573016D01*
X14138413Y-13592064D02*
X14138413Y-13392064D01*
X14224127Y-13592064D02*
X14224127Y-13487302D01*
X14224127Y-13487302D02*
X14214603Y-13468254D01*
X14214603Y-13468254D02*
X14195556Y-13458730D01*
X14195556Y-13458730D02*
X14166984Y-13458730D01*
X14166984Y-13458730D02*
X14147936Y-13468254D01*
X14147936Y-13468254D02*
X14138413Y-13477778D01*
X14347936Y-13592064D02*
X14328889Y-13582540D01*
X14328889Y-13582540D02*
X14319365Y-13573016D01*
X14319365Y-13573016D02*
X14309841Y-13553968D01*
X14309841Y-13553968D02*
X14309841Y-13496826D01*
X14309841Y-13496826D02*
X14319365Y-13477778D01*
X14319365Y-13477778D02*
X14328889Y-13468254D01*
X14328889Y-13468254D02*
X14347936Y-13458730D01*
X14347936Y-13458730D02*
X14376508Y-13458730D01*
X14376508Y-13458730D02*
X14395556Y-13468254D01*
X14395556Y-13468254D02*
X14405079Y-13477778D01*
X14405079Y-13477778D02*
X14414603Y-13496826D01*
X14414603Y-13496826D02*
X14414603Y-13553968D01*
X14414603Y-13553968D02*
X14405079Y-13573016D01*
X14405079Y-13573016D02*
X14395556Y-13582540D01*
X14395556Y-13582540D02*
X14376508Y-13592064D01*
X14376508Y-13592064D02*
X14347936Y-13592064D01*
X14528889Y-13592064D02*
X14509841Y-13582540D01*
X14509841Y-13582540D02*
X14500317Y-13563492D01*
X14500317Y-13563492D02*
X14500317Y-13392064D01*
X14681270Y-13582540D02*
X14662222Y-13592064D01*
X14662222Y-13592064D02*
X14624127Y-13592064D01*
X14624127Y-13592064D02*
X14605079Y-13582540D01*
X14605079Y-13582540D02*
X14595556Y-13563492D01*
X14595556Y-13563492D02*
X14595556Y-13487302D01*
X14595556Y-13487302D02*
X14605079Y-13468254D01*
X14605079Y-13468254D02*
X14624127Y-13458730D01*
X14624127Y-13458730D02*
X14662222Y-13458730D01*
X14662222Y-13458730D02*
X14681270Y-13468254D01*
X14681270Y-13468254D02*
X14690794Y-13487302D01*
X14690794Y-13487302D02*
X14690794Y-13506349D01*
X14690794Y-13506349D02*
X14595556Y-13525397D01*
X14766984Y-13582540D02*
X14786032Y-13592064D01*
X14786032Y-13592064D02*
X14824127Y-13592064D01*
X14824127Y-13592064D02*
X14843175Y-13582540D01*
X14843175Y-13582540D02*
X14852698Y-13563492D01*
X14852698Y-13563492D02*
X14852698Y-13553968D01*
X14852698Y-13553968D02*
X14843175Y-13534921D01*
X14843175Y-13534921D02*
X14824127Y-13525397D01*
X14824127Y-13525397D02*
X14795556Y-13525397D01*
X14795556Y-13525397D02*
X14776508Y-13515873D01*
X14776508Y-13515873D02*
X14766984Y-13496826D01*
X14766984Y-13496826D02*
X14766984Y-13487302D01*
X14766984Y-13487302D02*
X14776508Y-13468254D01*
X14776508Y-13468254D02*
X14795556Y-13458730D01*
X14795556Y-13458730D02*
X14824127Y-13458730D01*
X14824127Y-13458730D02*
X14843175Y-13468254D01*
X14919365Y-13668254D02*
X14928889Y-13658730D01*
X14928889Y-13658730D02*
X14947937Y-13630159D01*
X14947937Y-13630159D02*
X14957460Y-13611111D01*
X14957460Y-13611111D02*
X14966984Y-13582540D01*
X14966984Y-13582540D02*
X14976508Y-13534921D01*
X14976508Y-13534921D02*
X14976508Y-13496826D01*
X14976508Y-13496826D02*
X14966984Y-13449207D01*
X14966984Y-13449207D02*
X14957460Y-13420635D01*
X14957460Y-13420635D02*
X14947937Y-13401588D01*
X14947937Y-13401588D02*
X14928889Y-13373016D01*
X14928889Y-13373016D02*
X14919365Y-13363492D01*
D16*
X10117460Y-13803540D02*
X10157460Y-13763540D01*
X10117460Y-13723540D01*
X10077460Y-13763540D01*
X10117460Y-13803540D01*
D11*
X10443174Y-13656064D02*
X10462222Y-13656064D01*
X10462222Y-13656064D02*
X10481270Y-13665588D01*
X10481270Y-13665588D02*
X10490793Y-13675111D01*
X10490793Y-13675111D02*
X10500317Y-13694159D01*
X10500317Y-13694159D02*
X10509841Y-13732254D01*
X10509841Y-13732254D02*
X10509841Y-13779873D01*
X10509841Y-13779873D02*
X10500317Y-13817968D01*
X10500317Y-13817968D02*
X10490793Y-13837016D01*
X10490793Y-13837016D02*
X10481270Y-13846540D01*
X10481270Y-13846540D02*
X10462222Y-13856064D01*
X10462222Y-13856064D02*
X10443174Y-13856064D01*
X10443174Y-13856064D02*
X10424127Y-13846540D01*
X10424127Y-13846540D02*
X10414603Y-13837016D01*
X10414603Y-13837016D02*
X10405079Y-13817968D01*
X10405079Y-13817968D02*
X10395555Y-13779873D01*
X10395555Y-13779873D02*
X10395555Y-13732254D01*
X10395555Y-13732254D02*
X10405079Y-13694159D01*
X10405079Y-13694159D02*
X10414603Y-13675111D01*
X10414603Y-13675111D02*
X10424127Y-13665588D01*
X10424127Y-13665588D02*
X10443174Y-13656064D01*
X10595555Y-13837016D02*
X10605079Y-13846540D01*
X10605079Y-13846540D02*
X10595555Y-13856064D01*
X10595555Y-13856064D02*
X10586031Y-13846540D01*
X10586031Y-13846540D02*
X10595555Y-13837016D01*
X10595555Y-13837016D02*
X10595555Y-13856064D01*
X10719365Y-13741778D02*
X10700317Y-13732254D01*
X10700317Y-13732254D02*
X10690793Y-13722730D01*
X10690793Y-13722730D02*
X10681270Y-13703683D01*
X10681270Y-13703683D02*
X10681270Y-13694159D01*
X10681270Y-13694159D02*
X10690793Y-13675111D01*
X10690793Y-13675111D02*
X10700317Y-13665588D01*
X10700317Y-13665588D02*
X10719365Y-13656064D01*
X10719365Y-13656064D02*
X10757460Y-13656064D01*
X10757460Y-13656064D02*
X10776508Y-13665588D01*
X10776508Y-13665588D02*
X10786031Y-13675111D01*
X10786031Y-13675111D02*
X10795555Y-13694159D01*
X10795555Y-13694159D02*
X10795555Y-13703683D01*
X10795555Y-13703683D02*
X10786031Y-13722730D01*
X10786031Y-13722730D02*
X10776508Y-13732254D01*
X10776508Y-13732254D02*
X10757460Y-13741778D01*
X10757460Y-13741778D02*
X10719365Y-13741778D01*
X10719365Y-13741778D02*
X10700317Y-13751302D01*
X10700317Y-13751302D02*
X10690793Y-13760826D01*
X10690793Y-13760826D02*
X10681270Y-13779873D01*
X10681270Y-13779873D02*
X10681270Y-13817968D01*
X10681270Y-13817968D02*
X10690793Y-13837016D01*
X10690793Y-13837016D02*
X10700317Y-13846540D01*
X10700317Y-13846540D02*
X10719365Y-13856064D01*
X10719365Y-13856064D02*
X10757460Y-13856064D01*
X10757460Y-13856064D02*
X10776508Y-13846540D01*
X10776508Y-13846540D02*
X10786031Y-13837016D01*
X10786031Y-13837016D02*
X10795555Y-13817968D01*
X10795555Y-13817968D02*
X10795555Y-13779873D01*
X10795555Y-13779873D02*
X10786031Y-13760826D01*
X10786031Y-13760826D02*
X10776508Y-13751302D01*
X10776508Y-13751302D02*
X10757460Y-13741778D01*
X10919365Y-13656064D02*
X10938412Y-13656064D01*
X10938412Y-13656064D02*
X10957460Y-13665588D01*
X10957460Y-13665588D02*
X10966984Y-13675111D01*
X10966984Y-13675111D02*
X10976508Y-13694159D01*
X10976508Y-13694159D02*
X10986031Y-13732254D01*
X10986031Y-13732254D02*
X10986031Y-13779873D01*
X10986031Y-13779873D02*
X10976508Y-13817968D01*
X10976508Y-13817968D02*
X10966984Y-13837016D01*
X10966984Y-13837016D02*
X10957460Y-13846540D01*
X10957460Y-13846540D02*
X10938412Y-13856064D01*
X10938412Y-13856064D02*
X10919365Y-13856064D01*
X10919365Y-13856064D02*
X10900317Y-13846540D01*
X10900317Y-13846540D02*
X10890793Y-13837016D01*
X10890793Y-13837016D02*
X10881270Y-13817968D01*
X10881270Y-13817968D02*
X10871746Y-13779873D01*
X10871746Y-13779873D02*
X10871746Y-13732254D01*
X10871746Y-13732254D02*
X10881270Y-13694159D01*
X10881270Y-13694159D02*
X10890793Y-13675111D01*
X10890793Y-13675111D02*
X10900317Y-13665588D01*
X10900317Y-13665588D02*
X10919365Y-13656064D01*
X11109841Y-13656064D02*
X11128889Y-13656064D01*
X11128889Y-13656064D02*
X11147936Y-13665588D01*
X11147936Y-13665588D02*
X11157460Y-13675111D01*
X11157460Y-13675111D02*
X11166984Y-13694159D01*
X11166984Y-13694159D02*
X11176508Y-13732254D01*
X11176508Y-13732254D02*
X11176508Y-13779873D01*
X11176508Y-13779873D02*
X11166984Y-13817968D01*
X11166984Y-13817968D02*
X11157460Y-13837016D01*
X11157460Y-13837016D02*
X11147936Y-13846540D01*
X11147936Y-13846540D02*
X11128889Y-13856064D01*
X11128889Y-13856064D02*
X11109841Y-13856064D01*
X11109841Y-13856064D02*
X11090793Y-13846540D01*
X11090793Y-13846540D02*
X11081270Y-13837016D01*
X11081270Y-13837016D02*
X11071746Y-13817968D01*
X11071746Y-13817968D02*
X11062222Y-13779873D01*
X11062222Y-13779873D02*
X11062222Y-13732254D01*
X11062222Y-13732254D02*
X11071746Y-13694159D01*
X11071746Y-13694159D02*
X11081270Y-13675111D01*
X11081270Y-13675111D02*
X11090793Y-13665588D01*
X11090793Y-13665588D02*
X11109841Y-13656064D01*
X11262222Y-13856064D02*
X11262222Y-13722730D01*
X11262222Y-13741778D02*
X11271746Y-13732254D01*
X11271746Y-13732254D02*
X11290793Y-13722730D01*
X11290793Y-13722730D02*
X11319365Y-13722730D01*
X11319365Y-13722730D02*
X11338412Y-13732254D01*
X11338412Y-13732254D02*
X11347936Y-13751302D01*
X11347936Y-13751302D02*
X11347936Y-13856064D01*
X11347936Y-13751302D02*
X11357460Y-13732254D01*
X11357460Y-13732254D02*
X11376508Y-13722730D01*
X11376508Y-13722730D02*
X11405079Y-13722730D01*
X11405079Y-13722730D02*
X11424127Y-13732254D01*
X11424127Y-13732254D02*
X11433650Y-13751302D01*
X11433650Y-13751302D02*
X11433650Y-13856064D01*
X11528889Y-13856064D02*
X11528889Y-13722730D01*
X11528889Y-13741778D02*
X11538412Y-13732254D01*
X11538412Y-13732254D02*
X11557460Y-13722730D01*
X11557460Y-13722730D02*
X11586031Y-13722730D01*
X11586031Y-13722730D02*
X11605079Y-13732254D01*
X11605079Y-13732254D02*
X11614603Y-13751302D01*
X11614603Y-13751302D02*
X11614603Y-13856064D01*
X11614603Y-13751302D02*
X11624127Y-13732254D01*
X11624127Y-13732254D02*
X11643174Y-13722730D01*
X11643174Y-13722730D02*
X11671746Y-13722730D01*
X11671746Y-13722730D02*
X11690793Y-13732254D01*
X11690793Y-13732254D02*
X11700317Y-13751302D01*
X11700317Y-13751302D02*
X11700317Y-13856064D01*
X12090793Y-13646540D02*
X11919365Y-13903683D01*
X12347936Y-13656064D02*
X12366984Y-13656064D01*
X12366984Y-13656064D02*
X12386032Y-13665588D01*
X12386032Y-13665588D02*
X12395555Y-13675111D01*
X12395555Y-13675111D02*
X12405079Y-13694159D01*
X12405079Y-13694159D02*
X12414603Y-13732254D01*
X12414603Y-13732254D02*
X12414603Y-13779873D01*
X12414603Y-13779873D02*
X12405079Y-13817968D01*
X12405079Y-13817968D02*
X12395555Y-13837016D01*
X12395555Y-13837016D02*
X12386032Y-13846540D01*
X12386032Y-13846540D02*
X12366984Y-13856064D01*
X12366984Y-13856064D02*
X12347936Y-13856064D01*
X12347936Y-13856064D02*
X12328889Y-13846540D01*
X12328889Y-13846540D02*
X12319365Y-13837016D01*
X12319365Y-13837016D02*
X12309841Y-13817968D01*
X12309841Y-13817968D02*
X12300317Y-13779873D01*
X12300317Y-13779873D02*
X12300317Y-13732254D01*
X12300317Y-13732254D02*
X12309841Y-13694159D01*
X12309841Y-13694159D02*
X12319365Y-13675111D01*
X12319365Y-13675111D02*
X12328889Y-13665588D01*
X12328889Y-13665588D02*
X12347936Y-13656064D01*
X12500317Y-13837016D02*
X12509841Y-13846540D01*
X12509841Y-13846540D02*
X12500317Y-13856064D01*
X12500317Y-13856064D02*
X12490793Y-13846540D01*
X12490793Y-13846540D02*
X12500317Y-13837016D01*
X12500317Y-13837016D02*
X12500317Y-13856064D01*
X12633651Y-13656064D02*
X12652698Y-13656064D01*
X12652698Y-13656064D02*
X12671746Y-13665588D01*
X12671746Y-13665588D02*
X12681270Y-13675111D01*
X12681270Y-13675111D02*
X12690793Y-13694159D01*
X12690793Y-13694159D02*
X12700317Y-13732254D01*
X12700317Y-13732254D02*
X12700317Y-13779873D01*
X12700317Y-13779873D02*
X12690793Y-13817968D01*
X12690793Y-13817968D02*
X12681270Y-13837016D01*
X12681270Y-13837016D02*
X12671746Y-13846540D01*
X12671746Y-13846540D02*
X12652698Y-13856064D01*
X12652698Y-13856064D02*
X12633651Y-13856064D01*
X12633651Y-13856064D02*
X12614603Y-13846540D01*
X12614603Y-13846540D02*
X12605079Y-13837016D01*
X12605079Y-13837016D02*
X12595555Y-13817968D01*
X12595555Y-13817968D02*
X12586032Y-13779873D01*
X12586032Y-13779873D02*
X12586032Y-13732254D01*
X12586032Y-13732254D02*
X12595555Y-13694159D01*
X12595555Y-13694159D02*
X12605079Y-13675111D01*
X12605079Y-13675111D02*
X12614603Y-13665588D01*
X12614603Y-13665588D02*
X12633651Y-13656064D01*
X12766984Y-13656064D02*
X12890793Y-13656064D01*
X12890793Y-13656064D02*
X12824127Y-13732254D01*
X12824127Y-13732254D02*
X12852698Y-13732254D01*
X12852698Y-13732254D02*
X12871746Y-13741778D01*
X12871746Y-13741778D02*
X12881270Y-13751302D01*
X12881270Y-13751302D02*
X12890793Y-13770349D01*
X12890793Y-13770349D02*
X12890793Y-13817968D01*
X12890793Y-13817968D02*
X12881270Y-13837016D01*
X12881270Y-13837016D02*
X12871746Y-13846540D01*
X12871746Y-13846540D02*
X12852698Y-13856064D01*
X12852698Y-13856064D02*
X12795555Y-13856064D01*
X12795555Y-13856064D02*
X12776508Y-13846540D01*
X12776508Y-13846540D02*
X12766984Y-13837016D01*
X13081270Y-13856064D02*
X12966984Y-13856064D01*
X13024127Y-13856064D02*
X13024127Y-13656064D01*
X13024127Y-13656064D02*
X13005079Y-13684635D01*
X13005079Y-13684635D02*
X12986032Y-13703683D01*
X12986032Y-13703683D02*
X12966984Y-13713207D01*
X13262222Y-13656064D02*
X13166984Y-13656064D01*
X13166984Y-13656064D02*
X13157460Y-13751302D01*
X13157460Y-13751302D02*
X13166984Y-13741778D01*
X13166984Y-13741778D02*
X13186032Y-13732254D01*
X13186032Y-13732254D02*
X13233651Y-13732254D01*
X13233651Y-13732254D02*
X13252698Y-13741778D01*
X13252698Y-13741778D02*
X13262222Y-13751302D01*
X13262222Y-13751302D02*
X13271746Y-13770349D01*
X13271746Y-13770349D02*
X13271746Y-13817968D01*
X13271746Y-13817968D02*
X13262222Y-13837016D01*
X13262222Y-13837016D02*
X13252698Y-13846540D01*
X13252698Y-13846540D02*
X13233651Y-13856064D01*
X13233651Y-13856064D02*
X13186032Y-13856064D01*
X13186032Y-13856064D02*
X13166984Y-13846540D01*
X13166984Y-13846540D02*
X13157460Y-13837016D01*
X13347936Y-13656064D02*
X13347936Y-13694159D01*
X13424127Y-13656064D02*
X13424127Y-13694159D01*
X13719365Y-13932254D02*
X13709841Y-13922730D01*
X13709841Y-13922730D02*
X13690794Y-13894159D01*
X13690794Y-13894159D02*
X13681270Y-13875111D01*
X13681270Y-13875111D02*
X13671746Y-13846540D01*
X13671746Y-13846540D02*
X13662222Y-13798921D01*
X13662222Y-13798921D02*
X13662222Y-13760826D01*
X13662222Y-13760826D02*
X13671746Y-13713207D01*
X13671746Y-13713207D02*
X13681270Y-13684635D01*
X13681270Y-13684635D02*
X13690794Y-13665588D01*
X13690794Y-13665588D02*
X13709841Y-13637016D01*
X13709841Y-13637016D02*
X13719365Y-13627492D01*
X13824127Y-13741778D02*
X13805079Y-13732254D01*
X13805079Y-13732254D02*
X13795555Y-13722730D01*
X13795555Y-13722730D02*
X13786032Y-13703683D01*
X13786032Y-13703683D02*
X13786032Y-13694159D01*
X13786032Y-13694159D02*
X13795555Y-13675111D01*
X13795555Y-13675111D02*
X13805079Y-13665588D01*
X13805079Y-13665588D02*
X13824127Y-13656064D01*
X13824127Y-13656064D02*
X13862222Y-13656064D01*
X13862222Y-13656064D02*
X13881270Y-13665588D01*
X13881270Y-13665588D02*
X13890794Y-13675111D01*
X13890794Y-13675111D02*
X13900317Y-13694159D01*
X13900317Y-13694159D02*
X13900317Y-13703683D01*
X13900317Y-13703683D02*
X13890794Y-13722730D01*
X13890794Y-13722730D02*
X13881270Y-13732254D01*
X13881270Y-13732254D02*
X13862222Y-13741778D01*
X13862222Y-13741778D02*
X13824127Y-13741778D01*
X13824127Y-13741778D02*
X13805079Y-13751302D01*
X13805079Y-13751302D02*
X13795555Y-13760826D01*
X13795555Y-13760826D02*
X13786032Y-13779873D01*
X13786032Y-13779873D02*
X13786032Y-13817968D01*
X13786032Y-13817968D02*
X13795555Y-13837016D01*
X13795555Y-13837016D02*
X13805079Y-13846540D01*
X13805079Y-13846540D02*
X13824127Y-13856064D01*
X13824127Y-13856064D02*
X13862222Y-13856064D01*
X13862222Y-13856064D02*
X13881270Y-13846540D01*
X13881270Y-13846540D02*
X13890794Y-13837016D01*
X13890794Y-13837016D02*
X13900317Y-13817968D01*
X13900317Y-13817968D02*
X13900317Y-13779873D01*
X13900317Y-13779873D02*
X13890794Y-13760826D01*
X13890794Y-13760826D02*
X13881270Y-13751302D01*
X13881270Y-13751302D02*
X13862222Y-13741778D01*
X14024127Y-13656064D02*
X14043175Y-13656064D01*
X14043175Y-13656064D02*
X14062222Y-13665588D01*
X14062222Y-13665588D02*
X14071746Y-13675111D01*
X14071746Y-13675111D02*
X14081270Y-13694159D01*
X14081270Y-13694159D02*
X14090794Y-13732254D01*
X14090794Y-13732254D02*
X14090794Y-13779873D01*
X14090794Y-13779873D02*
X14081270Y-13817968D01*
X14081270Y-13817968D02*
X14071746Y-13837016D01*
X14071746Y-13837016D02*
X14062222Y-13846540D01*
X14062222Y-13846540D02*
X14043175Y-13856064D01*
X14043175Y-13856064D02*
X14024127Y-13856064D01*
X14024127Y-13856064D02*
X14005079Y-13846540D01*
X14005079Y-13846540D02*
X13995555Y-13837016D01*
X13995555Y-13837016D02*
X13986032Y-13817968D01*
X13986032Y-13817968D02*
X13976508Y-13779873D01*
X13976508Y-13779873D02*
X13976508Y-13732254D01*
X13976508Y-13732254D02*
X13986032Y-13694159D01*
X13986032Y-13694159D02*
X13995555Y-13675111D01*
X13995555Y-13675111D02*
X14005079Y-13665588D01*
X14005079Y-13665588D02*
X14024127Y-13656064D01*
X14328889Y-13856064D02*
X14328889Y-13656064D01*
X14414603Y-13856064D02*
X14414603Y-13751302D01*
X14414603Y-13751302D02*
X14405079Y-13732254D01*
X14405079Y-13732254D02*
X14386032Y-13722730D01*
X14386032Y-13722730D02*
X14357460Y-13722730D01*
X14357460Y-13722730D02*
X14338413Y-13732254D01*
X14338413Y-13732254D02*
X14328889Y-13741778D01*
X14538413Y-13856064D02*
X14519365Y-13846540D01*
X14519365Y-13846540D02*
X14509841Y-13837016D01*
X14509841Y-13837016D02*
X14500317Y-13817968D01*
X14500317Y-13817968D02*
X14500317Y-13760826D01*
X14500317Y-13760826D02*
X14509841Y-13741778D01*
X14509841Y-13741778D02*
X14519365Y-13732254D01*
X14519365Y-13732254D02*
X14538413Y-13722730D01*
X14538413Y-13722730D02*
X14566984Y-13722730D01*
X14566984Y-13722730D02*
X14586032Y-13732254D01*
X14586032Y-13732254D02*
X14595556Y-13741778D01*
X14595556Y-13741778D02*
X14605079Y-13760826D01*
X14605079Y-13760826D02*
X14605079Y-13817968D01*
X14605079Y-13817968D02*
X14595556Y-13837016D01*
X14595556Y-13837016D02*
X14586032Y-13846540D01*
X14586032Y-13846540D02*
X14566984Y-13856064D01*
X14566984Y-13856064D02*
X14538413Y-13856064D01*
X14719365Y-13856064D02*
X14700317Y-13846540D01*
X14700317Y-13846540D02*
X14690794Y-13827492D01*
X14690794Y-13827492D02*
X14690794Y-13656064D01*
X14871746Y-13846540D02*
X14852698Y-13856064D01*
X14852698Y-13856064D02*
X14814603Y-13856064D01*
X14814603Y-13856064D02*
X14795556Y-13846540D01*
X14795556Y-13846540D02*
X14786032Y-13827492D01*
X14786032Y-13827492D02*
X14786032Y-13751302D01*
X14786032Y-13751302D02*
X14795556Y-13732254D01*
X14795556Y-13732254D02*
X14814603Y-13722730D01*
X14814603Y-13722730D02*
X14852698Y-13722730D01*
X14852698Y-13722730D02*
X14871746Y-13732254D01*
X14871746Y-13732254D02*
X14881270Y-13751302D01*
X14881270Y-13751302D02*
X14881270Y-13770349D01*
X14881270Y-13770349D02*
X14786032Y-13789397D01*
X14957460Y-13846540D02*
X14976508Y-13856064D01*
X14976508Y-13856064D02*
X15014603Y-13856064D01*
X15014603Y-13856064D02*
X15033651Y-13846540D01*
X15033651Y-13846540D02*
X15043175Y-13827492D01*
X15043175Y-13827492D02*
X15043175Y-13817968D01*
X15043175Y-13817968D02*
X15033651Y-13798921D01*
X15033651Y-13798921D02*
X15014603Y-13789397D01*
X15014603Y-13789397D02*
X14986032Y-13789397D01*
X14986032Y-13789397D02*
X14966984Y-13779873D01*
X14966984Y-13779873D02*
X14957460Y-13760826D01*
X14957460Y-13760826D02*
X14957460Y-13751302D01*
X14957460Y-13751302D02*
X14966984Y-13732254D01*
X14966984Y-13732254D02*
X14986032Y-13722730D01*
X14986032Y-13722730D02*
X15014603Y-13722730D01*
X15014603Y-13722730D02*
X15033651Y-13732254D01*
X15109841Y-13932254D02*
X15119365Y-13922730D01*
X15119365Y-13922730D02*
X15138413Y-13894159D01*
X15138413Y-13894159D02*
X15147937Y-13875111D01*
X15147937Y-13875111D02*
X15157460Y-13846540D01*
X15157460Y-13846540D02*
X15166984Y-13798921D01*
X15166984Y-13798921D02*
X15166984Y-13760826D01*
X15166984Y-13760826D02*
X15157460Y-13713207D01*
X15157460Y-13713207D02*
X15147937Y-13684635D01*
X15147937Y-13684635D02*
X15138413Y-13665588D01*
X15138413Y-13665588D02*
X15119365Y-13637016D01*
X15119365Y-13637016D02*
X15109841Y-13627492D01*
D17*
X10067460Y-13982540D02*
X10157460Y-14072540D01*
X10157460Y-13982540D02*
X10067460Y-14072540D01*
X10157460Y-14027540D02*
G75*
G03*
X10157460Y-14027540I-45000J0D01*
G01*
D11*
X10443174Y-13920064D02*
X10462222Y-13920064D01*
X10462222Y-13920064D02*
X10481270Y-13929588D01*
X10481270Y-13929588D02*
X10490793Y-13939111D01*
X10490793Y-13939111D02*
X10500317Y-13958159D01*
X10500317Y-13958159D02*
X10509841Y-13996254D01*
X10509841Y-13996254D02*
X10509841Y-14043873D01*
X10509841Y-14043873D02*
X10500317Y-14081968D01*
X10500317Y-14081968D02*
X10490793Y-14101016D01*
X10490793Y-14101016D02*
X10481270Y-14110540D01*
X10481270Y-14110540D02*
X10462222Y-14120064D01*
X10462222Y-14120064D02*
X10443174Y-14120064D01*
X10443174Y-14120064D02*
X10424127Y-14110540D01*
X10424127Y-14110540D02*
X10414603Y-14101016D01*
X10414603Y-14101016D02*
X10405079Y-14081968D01*
X10405079Y-14081968D02*
X10395555Y-14043873D01*
X10395555Y-14043873D02*
X10395555Y-13996254D01*
X10395555Y-13996254D02*
X10405079Y-13958159D01*
X10405079Y-13958159D02*
X10414603Y-13939111D01*
X10414603Y-13939111D02*
X10424127Y-13929588D01*
X10424127Y-13929588D02*
X10443174Y-13920064D01*
X10595555Y-14101016D02*
X10605079Y-14110540D01*
X10605079Y-14110540D02*
X10595555Y-14120064D01*
X10595555Y-14120064D02*
X10586031Y-14110540D01*
X10586031Y-14110540D02*
X10595555Y-14101016D01*
X10595555Y-14101016D02*
X10595555Y-14120064D01*
X10700317Y-14120064D02*
X10738412Y-14120064D01*
X10738412Y-14120064D02*
X10757460Y-14110540D01*
X10757460Y-14110540D02*
X10766984Y-14101016D01*
X10766984Y-14101016D02*
X10786031Y-14072445D01*
X10786031Y-14072445D02*
X10795555Y-14034349D01*
X10795555Y-14034349D02*
X10795555Y-13958159D01*
X10795555Y-13958159D02*
X10786031Y-13939111D01*
X10786031Y-13939111D02*
X10776508Y-13929588D01*
X10776508Y-13929588D02*
X10757460Y-13920064D01*
X10757460Y-13920064D02*
X10719365Y-13920064D01*
X10719365Y-13920064D02*
X10700317Y-13929588D01*
X10700317Y-13929588D02*
X10690793Y-13939111D01*
X10690793Y-13939111D02*
X10681270Y-13958159D01*
X10681270Y-13958159D02*
X10681270Y-14005778D01*
X10681270Y-14005778D02*
X10690793Y-14024826D01*
X10690793Y-14024826D02*
X10700317Y-14034349D01*
X10700317Y-14034349D02*
X10719365Y-14043873D01*
X10719365Y-14043873D02*
X10757460Y-14043873D01*
X10757460Y-14043873D02*
X10776508Y-14034349D01*
X10776508Y-14034349D02*
X10786031Y-14024826D01*
X10786031Y-14024826D02*
X10795555Y-14005778D01*
X10919365Y-13920064D02*
X10938412Y-13920064D01*
X10938412Y-13920064D02*
X10957460Y-13929588D01*
X10957460Y-13929588D02*
X10966984Y-13939111D01*
X10966984Y-13939111D02*
X10976508Y-13958159D01*
X10976508Y-13958159D02*
X10986031Y-13996254D01*
X10986031Y-13996254D02*
X10986031Y-14043873D01*
X10986031Y-14043873D02*
X10976508Y-14081968D01*
X10976508Y-14081968D02*
X10966984Y-14101016D01*
X10966984Y-14101016D02*
X10957460Y-14110540D01*
X10957460Y-14110540D02*
X10938412Y-14120064D01*
X10938412Y-14120064D02*
X10919365Y-14120064D01*
X10919365Y-14120064D02*
X10900317Y-14110540D01*
X10900317Y-14110540D02*
X10890793Y-14101016D01*
X10890793Y-14101016D02*
X10881270Y-14081968D01*
X10881270Y-14081968D02*
X10871746Y-14043873D01*
X10871746Y-14043873D02*
X10871746Y-13996254D01*
X10871746Y-13996254D02*
X10881270Y-13958159D01*
X10881270Y-13958159D02*
X10890793Y-13939111D01*
X10890793Y-13939111D02*
X10900317Y-13929588D01*
X10900317Y-13929588D02*
X10919365Y-13920064D01*
X11109841Y-13920064D02*
X11128889Y-13920064D01*
X11128889Y-13920064D02*
X11147936Y-13929588D01*
X11147936Y-13929588D02*
X11157460Y-13939111D01*
X11157460Y-13939111D02*
X11166984Y-13958159D01*
X11166984Y-13958159D02*
X11176508Y-13996254D01*
X11176508Y-13996254D02*
X11176508Y-14043873D01*
X11176508Y-14043873D02*
X11166984Y-14081968D01*
X11166984Y-14081968D02*
X11157460Y-14101016D01*
X11157460Y-14101016D02*
X11147936Y-14110540D01*
X11147936Y-14110540D02*
X11128889Y-14120064D01*
X11128889Y-14120064D02*
X11109841Y-14120064D01*
X11109841Y-14120064D02*
X11090793Y-14110540D01*
X11090793Y-14110540D02*
X11081270Y-14101016D01*
X11081270Y-14101016D02*
X11071746Y-14081968D01*
X11071746Y-14081968D02*
X11062222Y-14043873D01*
X11062222Y-14043873D02*
X11062222Y-13996254D01*
X11062222Y-13996254D02*
X11071746Y-13958159D01*
X11071746Y-13958159D02*
X11081270Y-13939111D01*
X11081270Y-13939111D02*
X11090793Y-13929588D01*
X11090793Y-13929588D02*
X11109841Y-13920064D01*
X11262222Y-14120064D02*
X11262222Y-13986730D01*
X11262222Y-14005778D02*
X11271746Y-13996254D01*
X11271746Y-13996254D02*
X11290793Y-13986730D01*
X11290793Y-13986730D02*
X11319365Y-13986730D01*
X11319365Y-13986730D02*
X11338412Y-13996254D01*
X11338412Y-13996254D02*
X11347936Y-14015302D01*
X11347936Y-14015302D02*
X11347936Y-14120064D01*
X11347936Y-14015302D02*
X11357460Y-13996254D01*
X11357460Y-13996254D02*
X11376508Y-13986730D01*
X11376508Y-13986730D02*
X11405079Y-13986730D01*
X11405079Y-13986730D02*
X11424127Y-13996254D01*
X11424127Y-13996254D02*
X11433650Y-14015302D01*
X11433650Y-14015302D02*
X11433650Y-14120064D01*
X11528889Y-14120064D02*
X11528889Y-13986730D01*
X11528889Y-14005778D02*
X11538412Y-13996254D01*
X11538412Y-13996254D02*
X11557460Y-13986730D01*
X11557460Y-13986730D02*
X11586031Y-13986730D01*
X11586031Y-13986730D02*
X11605079Y-13996254D01*
X11605079Y-13996254D02*
X11614603Y-14015302D01*
X11614603Y-14015302D02*
X11614603Y-14120064D01*
X11614603Y-14015302D02*
X11624127Y-13996254D01*
X11624127Y-13996254D02*
X11643174Y-13986730D01*
X11643174Y-13986730D02*
X11671746Y-13986730D01*
X11671746Y-13986730D02*
X11690793Y-13996254D01*
X11690793Y-13996254D02*
X11700317Y-14015302D01*
X11700317Y-14015302D02*
X11700317Y-14120064D01*
X12090793Y-13910540D02*
X11919365Y-14167683D01*
X12347936Y-13920064D02*
X12366984Y-13920064D01*
X12366984Y-13920064D02*
X12386032Y-13929588D01*
X12386032Y-13929588D02*
X12395555Y-13939111D01*
X12395555Y-13939111D02*
X12405079Y-13958159D01*
X12405079Y-13958159D02*
X12414603Y-13996254D01*
X12414603Y-13996254D02*
X12414603Y-14043873D01*
X12414603Y-14043873D02*
X12405079Y-14081968D01*
X12405079Y-14081968D02*
X12395555Y-14101016D01*
X12395555Y-14101016D02*
X12386032Y-14110540D01*
X12386032Y-14110540D02*
X12366984Y-14120064D01*
X12366984Y-14120064D02*
X12347936Y-14120064D01*
X12347936Y-14120064D02*
X12328889Y-14110540D01*
X12328889Y-14110540D02*
X12319365Y-14101016D01*
X12319365Y-14101016D02*
X12309841Y-14081968D01*
X12309841Y-14081968D02*
X12300317Y-14043873D01*
X12300317Y-14043873D02*
X12300317Y-13996254D01*
X12300317Y-13996254D02*
X12309841Y-13958159D01*
X12309841Y-13958159D02*
X12319365Y-13939111D01*
X12319365Y-13939111D02*
X12328889Y-13929588D01*
X12328889Y-13929588D02*
X12347936Y-13920064D01*
X12500317Y-14101016D02*
X12509841Y-14110540D01*
X12509841Y-14110540D02*
X12500317Y-14120064D01*
X12500317Y-14120064D02*
X12490793Y-14110540D01*
X12490793Y-14110540D02*
X12500317Y-14101016D01*
X12500317Y-14101016D02*
X12500317Y-14120064D01*
X12633651Y-13920064D02*
X12652698Y-13920064D01*
X12652698Y-13920064D02*
X12671746Y-13929588D01*
X12671746Y-13929588D02*
X12681270Y-13939111D01*
X12681270Y-13939111D02*
X12690793Y-13958159D01*
X12690793Y-13958159D02*
X12700317Y-13996254D01*
X12700317Y-13996254D02*
X12700317Y-14043873D01*
X12700317Y-14043873D02*
X12690793Y-14081968D01*
X12690793Y-14081968D02*
X12681270Y-14101016D01*
X12681270Y-14101016D02*
X12671746Y-14110540D01*
X12671746Y-14110540D02*
X12652698Y-14120064D01*
X12652698Y-14120064D02*
X12633651Y-14120064D01*
X12633651Y-14120064D02*
X12614603Y-14110540D01*
X12614603Y-14110540D02*
X12605079Y-14101016D01*
X12605079Y-14101016D02*
X12595555Y-14081968D01*
X12595555Y-14081968D02*
X12586032Y-14043873D01*
X12586032Y-14043873D02*
X12586032Y-13996254D01*
X12586032Y-13996254D02*
X12595555Y-13958159D01*
X12595555Y-13958159D02*
X12605079Y-13939111D01*
X12605079Y-13939111D02*
X12614603Y-13929588D01*
X12614603Y-13929588D02*
X12633651Y-13920064D01*
X12766984Y-13920064D02*
X12890793Y-13920064D01*
X12890793Y-13920064D02*
X12824127Y-13996254D01*
X12824127Y-13996254D02*
X12852698Y-13996254D01*
X12852698Y-13996254D02*
X12871746Y-14005778D01*
X12871746Y-14005778D02*
X12881270Y-14015302D01*
X12881270Y-14015302D02*
X12890793Y-14034349D01*
X12890793Y-14034349D02*
X12890793Y-14081968D01*
X12890793Y-14081968D02*
X12881270Y-14101016D01*
X12881270Y-14101016D02*
X12871746Y-14110540D01*
X12871746Y-14110540D02*
X12852698Y-14120064D01*
X12852698Y-14120064D02*
X12795555Y-14120064D01*
X12795555Y-14120064D02*
X12776508Y-14110540D01*
X12776508Y-14110540D02*
X12766984Y-14101016D01*
X13071746Y-13920064D02*
X12976508Y-13920064D01*
X12976508Y-13920064D02*
X12966984Y-14015302D01*
X12966984Y-14015302D02*
X12976508Y-14005778D01*
X12976508Y-14005778D02*
X12995555Y-13996254D01*
X12995555Y-13996254D02*
X13043174Y-13996254D01*
X13043174Y-13996254D02*
X13062222Y-14005778D01*
X13062222Y-14005778D02*
X13071746Y-14015302D01*
X13071746Y-14015302D02*
X13081270Y-14034349D01*
X13081270Y-14034349D02*
X13081270Y-14081968D01*
X13081270Y-14081968D02*
X13071746Y-14101016D01*
X13071746Y-14101016D02*
X13062222Y-14110540D01*
X13062222Y-14110540D02*
X13043174Y-14120064D01*
X13043174Y-14120064D02*
X12995555Y-14120064D01*
X12995555Y-14120064D02*
X12976508Y-14110540D01*
X12976508Y-14110540D02*
X12966984Y-14101016D01*
X13252698Y-13986730D02*
X13252698Y-14120064D01*
X13205079Y-13910540D02*
X13157460Y-14053397D01*
X13157460Y-14053397D02*
X13281270Y-14053397D01*
X13347936Y-13920064D02*
X13347936Y-13958159D01*
X13424127Y-13920064D02*
X13424127Y-13958159D01*
X13719365Y-14196254D02*
X13709841Y-14186730D01*
X13709841Y-14186730D02*
X13690794Y-14158159D01*
X13690794Y-14158159D02*
X13681270Y-14139111D01*
X13681270Y-14139111D02*
X13671746Y-14110540D01*
X13671746Y-14110540D02*
X13662222Y-14062921D01*
X13662222Y-14062921D02*
X13662222Y-14024826D01*
X13662222Y-14024826D02*
X13671746Y-13977207D01*
X13671746Y-13977207D02*
X13681270Y-13948635D01*
X13681270Y-13948635D02*
X13690794Y-13929588D01*
X13690794Y-13929588D02*
X13709841Y-13901016D01*
X13709841Y-13901016D02*
X13719365Y-13891492D01*
X13900317Y-14120064D02*
X13786032Y-14120064D01*
X13843174Y-14120064D02*
X13843174Y-13920064D01*
X13843174Y-13920064D02*
X13824127Y-13948635D01*
X13824127Y-13948635D02*
X13805079Y-13967683D01*
X13805079Y-13967683D02*
X13786032Y-13977207D01*
X13966984Y-13920064D02*
X14100317Y-13920064D01*
X14100317Y-13920064D02*
X14014603Y-14120064D01*
X14328889Y-14120064D02*
X14328889Y-13920064D01*
X14414603Y-14120064D02*
X14414603Y-14015302D01*
X14414603Y-14015302D02*
X14405079Y-13996254D01*
X14405079Y-13996254D02*
X14386032Y-13986730D01*
X14386032Y-13986730D02*
X14357460Y-13986730D01*
X14357460Y-13986730D02*
X14338413Y-13996254D01*
X14338413Y-13996254D02*
X14328889Y-14005778D01*
X14538413Y-14120064D02*
X14519365Y-14110540D01*
X14519365Y-14110540D02*
X14509841Y-14101016D01*
X14509841Y-14101016D02*
X14500317Y-14081968D01*
X14500317Y-14081968D02*
X14500317Y-14024826D01*
X14500317Y-14024826D02*
X14509841Y-14005778D01*
X14509841Y-14005778D02*
X14519365Y-13996254D01*
X14519365Y-13996254D02*
X14538413Y-13986730D01*
X14538413Y-13986730D02*
X14566984Y-13986730D01*
X14566984Y-13986730D02*
X14586032Y-13996254D01*
X14586032Y-13996254D02*
X14595556Y-14005778D01*
X14595556Y-14005778D02*
X14605079Y-14024826D01*
X14605079Y-14024826D02*
X14605079Y-14081968D01*
X14605079Y-14081968D02*
X14595556Y-14101016D01*
X14595556Y-14101016D02*
X14586032Y-14110540D01*
X14586032Y-14110540D02*
X14566984Y-14120064D01*
X14566984Y-14120064D02*
X14538413Y-14120064D01*
X14719365Y-14120064D02*
X14700317Y-14110540D01*
X14700317Y-14110540D02*
X14690794Y-14091492D01*
X14690794Y-14091492D02*
X14690794Y-13920064D01*
X14871746Y-14110540D02*
X14852698Y-14120064D01*
X14852698Y-14120064D02*
X14814603Y-14120064D01*
X14814603Y-14120064D02*
X14795556Y-14110540D01*
X14795556Y-14110540D02*
X14786032Y-14091492D01*
X14786032Y-14091492D02*
X14786032Y-14015302D01*
X14786032Y-14015302D02*
X14795556Y-13996254D01*
X14795556Y-13996254D02*
X14814603Y-13986730D01*
X14814603Y-13986730D02*
X14852698Y-13986730D01*
X14852698Y-13986730D02*
X14871746Y-13996254D01*
X14871746Y-13996254D02*
X14881270Y-14015302D01*
X14881270Y-14015302D02*
X14881270Y-14034349D01*
X14881270Y-14034349D02*
X14786032Y-14053397D01*
X14957460Y-14110540D02*
X14976508Y-14120064D01*
X14976508Y-14120064D02*
X15014603Y-14120064D01*
X15014603Y-14120064D02*
X15033651Y-14110540D01*
X15033651Y-14110540D02*
X15043175Y-14091492D01*
X15043175Y-14091492D02*
X15043175Y-14081968D01*
X15043175Y-14081968D02*
X15033651Y-14062921D01*
X15033651Y-14062921D02*
X15014603Y-14053397D01*
X15014603Y-14053397D02*
X14986032Y-14053397D01*
X14986032Y-14053397D02*
X14966984Y-14043873D01*
X14966984Y-14043873D02*
X14957460Y-14024826D01*
X14957460Y-14024826D02*
X14957460Y-14015302D01*
X14957460Y-14015302D02*
X14966984Y-13996254D01*
X14966984Y-13996254D02*
X14986032Y-13986730D01*
X14986032Y-13986730D02*
X15014603Y-13986730D01*
X15014603Y-13986730D02*
X15033651Y-13996254D01*
X15109841Y-14196254D02*
X15119365Y-14186730D01*
X15119365Y-14186730D02*
X15138413Y-14158159D01*
X15138413Y-14158159D02*
X15147937Y-14139111D01*
X15147937Y-14139111D02*
X15157460Y-14110540D01*
X15157460Y-14110540D02*
X15166984Y-14062921D01*
X15166984Y-14062921D02*
X15166984Y-14024826D01*
X15166984Y-14024826D02*
X15157460Y-13977207D01*
X15157460Y-13977207D02*
X15147937Y-13948635D01*
X15147937Y-13948635D02*
X15138413Y-13929588D01*
X15138413Y-13929588D02*
X15119365Y-13901016D01*
X15119365Y-13901016D02*
X15109841Y-13891492D01*
D18*
X10057460Y-14241540D02*
X10157460Y-14341540D01*
X10157460Y-14241540D02*
X10057460Y-14341540D01*
X10107460Y-14241540D02*
X10107460Y-14341540D01*
X10057460Y-14291540D02*
X10157460Y-14291540D01*
D11*
X10509841Y-14384064D02*
X10395555Y-14384064D01*
X10452698Y-14384064D02*
X10452698Y-14184064D01*
X10452698Y-14184064D02*
X10433650Y-14212635D01*
X10433650Y-14212635D02*
X10414603Y-14231683D01*
X10414603Y-14231683D02*
X10395555Y-14241207D01*
X10595555Y-14365016D02*
X10605079Y-14374540D01*
X10605079Y-14374540D02*
X10595555Y-14384064D01*
X10595555Y-14384064D02*
X10586031Y-14374540D01*
X10586031Y-14374540D02*
X10595555Y-14365016D01*
X10595555Y-14365016D02*
X10595555Y-14384064D01*
X10728889Y-14184064D02*
X10747936Y-14184064D01*
X10747936Y-14184064D02*
X10766984Y-14193588D01*
X10766984Y-14193588D02*
X10776508Y-14203111D01*
X10776508Y-14203111D02*
X10786031Y-14222159D01*
X10786031Y-14222159D02*
X10795555Y-14260254D01*
X10795555Y-14260254D02*
X10795555Y-14307873D01*
X10795555Y-14307873D02*
X10786031Y-14345968D01*
X10786031Y-14345968D02*
X10776508Y-14365016D01*
X10776508Y-14365016D02*
X10766984Y-14374540D01*
X10766984Y-14374540D02*
X10747936Y-14384064D01*
X10747936Y-14384064D02*
X10728889Y-14384064D01*
X10728889Y-14384064D02*
X10709841Y-14374540D01*
X10709841Y-14374540D02*
X10700317Y-14365016D01*
X10700317Y-14365016D02*
X10690793Y-14345968D01*
X10690793Y-14345968D02*
X10681270Y-14307873D01*
X10681270Y-14307873D02*
X10681270Y-14260254D01*
X10681270Y-14260254D02*
X10690793Y-14222159D01*
X10690793Y-14222159D02*
X10700317Y-14203111D01*
X10700317Y-14203111D02*
X10709841Y-14193588D01*
X10709841Y-14193588D02*
X10728889Y-14184064D01*
X10919365Y-14184064D02*
X10938412Y-14184064D01*
X10938412Y-14184064D02*
X10957460Y-14193588D01*
X10957460Y-14193588D02*
X10966984Y-14203111D01*
X10966984Y-14203111D02*
X10976508Y-14222159D01*
X10976508Y-14222159D02*
X10986031Y-14260254D01*
X10986031Y-14260254D02*
X10986031Y-14307873D01*
X10986031Y-14307873D02*
X10976508Y-14345968D01*
X10976508Y-14345968D02*
X10966984Y-14365016D01*
X10966984Y-14365016D02*
X10957460Y-14374540D01*
X10957460Y-14374540D02*
X10938412Y-14384064D01*
X10938412Y-14384064D02*
X10919365Y-14384064D01*
X10919365Y-14384064D02*
X10900317Y-14374540D01*
X10900317Y-14374540D02*
X10890793Y-14365016D01*
X10890793Y-14365016D02*
X10881270Y-14345968D01*
X10881270Y-14345968D02*
X10871746Y-14307873D01*
X10871746Y-14307873D02*
X10871746Y-14260254D01*
X10871746Y-14260254D02*
X10881270Y-14222159D01*
X10881270Y-14222159D02*
X10890793Y-14203111D01*
X10890793Y-14203111D02*
X10900317Y-14193588D01*
X10900317Y-14193588D02*
X10919365Y-14184064D01*
X11109841Y-14184064D02*
X11128889Y-14184064D01*
X11128889Y-14184064D02*
X11147936Y-14193588D01*
X11147936Y-14193588D02*
X11157460Y-14203111D01*
X11157460Y-14203111D02*
X11166984Y-14222159D01*
X11166984Y-14222159D02*
X11176508Y-14260254D01*
X11176508Y-14260254D02*
X11176508Y-14307873D01*
X11176508Y-14307873D02*
X11166984Y-14345968D01*
X11166984Y-14345968D02*
X11157460Y-14365016D01*
X11157460Y-14365016D02*
X11147936Y-14374540D01*
X11147936Y-14374540D02*
X11128889Y-14384064D01*
X11128889Y-14384064D02*
X11109841Y-14384064D01*
X11109841Y-14384064D02*
X11090793Y-14374540D01*
X11090793Y-14374540D02*
X11081270Y-14365016D01*
X11081270Y-14365016D02*
X11071746Y-14345968D01*
X11071746Y-14345968D02*
X11062222Y-14307873D01*
X11062222Y-14307873D02*
X11062222Y-14260254D01*
X11062222Y-14260254D02*
X11071746Y-14222159D01*
X11071746Y-14222159D02*
X11081270Y-14203111D01*
X11081270Y-14203111D02*
X11090793Y-14193588D01*
X11090793Y-14193588D02*
X11109841Y-14184064D01*
X11262222Y-14384064D02*
X11262222Y-14250730D01*
X11262222Y-14269778D02*
X11271746Y-14260254D01*
X11271746Y-14260254D02*
X11290793Y-14250730D01*
X11290793Y-14250730D02*
X11319365Y-14250730D01*
X11319365Y-14250730D02*
X11338412Y-14260254D01*
X11338412Y-14260254D02*
X11347936Y-14279302D01*
X11347936Y-14279302D02*
X11347936Y-14384064D01*
X11347936Y-14279302D02*
X11357460Y-14260254D01*
X11357460Y-14260254D02*
X11376508Y-14250730D01*
X11376508Y-14250730D02*
X11405079Y-14250730D01*
X11405079Y-14250730D02*
X11424127Y-14260254D01*
X11424127Y-14260254D02*
X11433650Y-14279302D01*
X11433650Y-14279302D02*
X11433650Y-14384064D01*
X11528889Y-14384064D02*
X11528889Y-14250730D01*
X11528889Y-14269778D02*
X11538412Y-14260254D01*
X11538412Y-14260254D02*
X11557460Y-14250730D01*
X11557460Y-14250730D02*
X11586031Y-14250730D01*
X11586031Y-14250730D02*
X11605079Y-14260254D01*
X11605079Y-14260254D02*
X11614603Y-14279302D01*
X11614603Y-14279302D02*
X11614603Y-14384064D01*
X11614603Y-14279302D02*
X11624127Y-14260254D01*
X11624127Y-14260254D02*
X11643174Y-14250730D01*
X11643174Y-14250730D02*
X11671746Y-14250730D01*
X11671746Y-14250730D02*
X11690793Y-14260254D01*
X11690793Y-14260254D02*
X11700317Y-14279302D01*
X11700317Y-14279302D02*
X11700317Y-14384064D01*
X12090793Y-14174540D02*
X11919365Y-14431683D01*
X12347936Y-14184064D02*
X12366984Y-14184064D01*
X12366984Y-14184064D02*
X12386032Y-14193588D01*
X12386032Y-14193588D02*
X12395555Y-14203111D01*
X12395555Y-14203111D02*
X12405079Y-14222159D01*
X12405079Y-14222159D02*
X12414603Y-14260254D01*
X12414603Y-14260254D02*
X12414603Y-14307873D01*
X12414603Y-14307873D02*
X12405079Y-14345968D01*
X12405079Y-14345968D02*
X12395555Y-14365016D01*
X12395555Y-14365016D02*
X12386032Y-14374540D01*
X12386032Y-14374540D02*
X12366984Y-14384064D01*
X12366984Y-14384064D02*
X12347936Y-14384064D01*
X12347936Y-14384064D02*
X12328889Y-14374540D01*
X12328889Y-14374540D02*
X12319365Y-14365016D01*
X12319365Y-14365016D02*
X12309841Y-14345968D01*
X12309841Y-14345968D02*
X12300317Y-14307873D01*
X12300317Y-14307873D02*
X12300317Y-14260254D01*
X12300317Y-14260254D02*
X12309841Y-14222159D01*
X12309841Y-14222159D02*
X12319365Y-14203111D01*
X12319365Y-14203111D02*
X12328889Y-14193588D01*
X12328889Y-14193588D02*
X12347936Y-14184064D01*
X12500317Y-14365016D02*
X12509841Y-14374540D01*
X12509841Y-14374540D02*
X12500317Y-14384064D01*
X12500317Y-14384064D02*
X12490793Y-14374540D01*
X12490793Y-14374540D02*
X12500317Y-14365016D01*
X12500317Y-14365016D02*
X12500317Y-14384064D01*
X12633651Y-14184064D02*
X12652698Y-14184064D01*
X12652698Y-14184064D02*
X12671746Y-14193588D01*
X12671746Y-14193588D02*
X12681270Y-14203111D01*
X12681270Y-14203111D02*
X12690793Y-14222159D01*
X12690793Y-14222159D02*
X12700317Y-14260254D01*
X12700317Y-14260254D02*
X12700317Y-14307873D01*
X12700317Y-14307873D02*
X12690793Y-14345968D01*
X12690793Y-14345968D02*
X12681270Y-14365016D01*
X12681270Y-14365016D02*
X12671746Y-14374540D01*
X12671746Y-14374540D02*
X12652698Y-14384064D01*
X12652698Y-14384064D02*
X12633651Y-14384064D01*
X12633651Y-14384064D02*
X12614603Y-14374540D01*
X12614603Y-14374540D02*
X12605079Y-14365016D01*
X12605079Y-14365016D02*
X12595555Y-14345968D01*
X12595555Y-14345968D02*
X12586032Y-14307873D01*
X12586032Y-14307873D02*
X12586032Y-14260254D01*
X12586032Y-14260254D02*
X12595555Y-14222159D01*
X12595555Y-14222159D02*
X12605079Y-14203111D01*
X12605079Y-14203111D02*
X12614603Y-14193588D01*
X12614603Y-14193588D02*
X12633651Y-14184064D01*
X12766984Y-14184064D02*
X12890793Y-14184064D01*
X12890793Y-14184064D02*
X12824127Y-14260254D01*
X12824127Y-14260254D02*
X12852698Y-14260254D01*
X12852698Y-14260254D02*
X12871746Y-14269778D01*
X12871746Y-14269778D02*
X12881270Y-14279302D01*
X12881270Y-14279302D02*
X12890793Y-14298349D01*
X12890793Y-14298349D02*
X12890793Y-14345968D01*
X12890793Y-14345968D02*
X12881270Y-14365016D01*
X12881270Y-14365016D02*
X12871746Y-14374540D01*
X12871746Y-14374540D02*
X12852698Y-14384064D01*
X12852698Y-14384064D02*
X12795555Y-14384064D01*
X12795555Y-14384064D02*
X12776508Y-14374540D01*
X12776508Y-14374540D02*
X12766984Y-14365016D01*
X12986032Y-14384064D02*
X13024127Y-14384064D01*
X13024127Y-14384064D02*
X13043174Y-14374540D01*
X13043174Y-14374540D02*
X13052698Y-14365016D01*
X13052698Y-14365016D02*
X13071746Y-14336445D01*
X13071746Y-14336445D02*
X13081270Y-14298349D01*
X13081270Y-14298349D02*
X13081270Y-14222159D01*
X13081270Y-14222159D02*
X13071746Y-14203111D01*
X13071746Y-14203111D02*
X13062222Y-14193588D01*
X13062222Y-14193588D02*
X13043174Y-14184064D01*
X13043174Y-14184064D02*
X13005079Y-14184064D01*
X13005079Y-14184064D02*
X12986032Y-14193588D01*
X12986032Y-14193588D02*
X12976508Y-14203111D01*
X12976508Y-14203111D02*
X12966984Y-14222159D01*
X12966984Y-14222159D02*
X12966984Y-14269778D01*
X12966984Y-14269778D02*
X12976508Y-14288826D01*
X12976508Y-14288826D02*
X12986032Y-14298349D01*
X12986032Y-14298349D02*
X13005079Y-14307873D01*
X13005079Y-14307873D02*
X13043174Y-14307873D01*
X13043174Y-14307873D02*
X13062222Y-14298349D01*
X13062222Y-14298349D02*
X13071746Y-14288826D01*
X13071746Y-14288826D02*
X13081270Y-14269778D01*
X13252698Y-14250730D02*
X13252698Y-14384064D01*
X13205079Y-14174540D02*
X13157460Y-14317397D01*
X13157460Y-14317397D02*
X13281270Y-14317397D01*
X13347936Y-14184064D02*
X13347936Y-14222159D01*
X13424127Y-14184064D02*
X13424127Y-14222159D01*
X13719365Y-14460254D02*
X13709841Y-14450730D01*
X13709841Y-14450730D02*
X13690794Y-14422159D01*
X13690794Y-14422159D02*
X13681270Y-14403111D01*
X13681270Y-14403111D02*
X13671746Y-14374540D01*
X13671746Y-14374540D02*
X13662222Y-14326921D01*
X13662222Y-14326921D02*
X13662222Y-14288826D01*
X13662222Y-14288826D02*
X13671746Y-14241207D01*
X13671746Y-14241207D02*
X13681270Y-14212635D01*
X13681270Y-14212635D02*
X13690794Y-14193588D01*
X13690794Y-14193588D02*
X13709841Y-14165016D01*
X13709841Y-14165016D02*
X13719365Y-14155492D01*
X13776508Y-14184064D02*
X13900317Y-14184064D01*
X13900317Y-14184064D02*
X13833651Y-14260254D01*
X13833651Y-14260254D02*
X13862222Y-14260254D01*
X13862222Y-14260254D02*
X13881270Y-14269778D01*
X13881270Y-14269778D02*
X13890794Y-14279302D01*
X13890794Y-14279302D02*
X13900317Y-14298349D01*
X13900317Y-14298349D02*
X13900317Y-14345968D01*
X13900317Y-14345968D02*
X13890794Y-14365016D01*
X13890794Y-14365016D02*
X13881270Y-14374540D01*
X13881270Y-14374540D02*
X13862222Y-14384064D01*
X13862222Y-14384064D02*
X13805079Y-14384064D01*
X13805079Y-14384064D02*
X13786032Y-14374540D01*
X13786032Y-14374540D02*
X13776508Y-14365016D01*
X14071746Y-14250730D02*
X14071746Y-14384064D01*
X14024127Y-14174540D02*
X13976508Y-14317397D01*
X13976508Y-14317397D02*
X14100317Y-14317397D01*
X14328889Y-14384064D02*
X14328889Y-14184064D01*
X14414603Y-14384064D02*
X14414603Y-14279302D01*
X14414603Y-14279302D02*
X14405079Y-14260254D01*
X14405079Y-14260254D02*
X14386032Y-14250730D01*
X14386032Y-14250730D02*
X14357460Y-14250730D01*
X14357460Y-14250730D02*
X14338413Y-14260254D01*
X14338413Y-14260254D02*
X14328889Y-14269778D01*
X14538413Y-14384064D02*
X14519365Y-14374540D01*
X14519365Y-14374540D02*
X14509841Y-14365016D01*
X14509841Y-14365016D02*
X14500317Y-14345968D01*
X14500317Y-14345968D02*
X14500317Y-14288826D01*
X14500317Y-14288826D02*
X14509841Y-14269778D01*
X14509841Y-14269778D02*
X14519365Y-14260254D01*
X14519365Y-14260254D02*
X14538413Y-14250730D01*
X14538413Y-14250730D02*
X14566984Y-14250730D01*
X14566984Y-14250730D02*
X14586032Y-14260254D01*
X14586032Y-14260254D02*
X14595556Y-14269778D01*
X14595556Y-14269778D02*
X14605079Y-14288826D01*
X14605079Y-14288826D02*
X14605079Y-14345968D01*
X14605079Y-14345968D02*
X14595556Y-14365016D01*
X14595556Y-14365016D02*
X14586032Y-14374540D01*
X14586032Y-14374540D02*
X14566984Y-14384064D01*
X14566984Y-14384064D02*
X14538413Y-14384064D01*
X14719365Y-14384064D02*
X14700317Y-14374540D01*
X14700317Y-14374540D02*
X14690794Y-14355492D01*
X14690794Y-14355492D02*
X14690794Y-14184064D01*
X14871746Y-14374540D02*
X14852698Y-14384064D01*
X14852698Y-14384064D02*
X14814603Y-14384064D01*
X14814603Y-14384064D02*
X14795556Y-14374540D01*
X14795556Y-14374540D02*
X14786032Y-14355492D01*
X14786032Y-14355492D02*
X14786032Y-14279302D01*
X14786032Y-14279302D02*
X14795556Y-14260254D01*
X14795556Y-14260254D02*
X14814603Y-14250730D01*
X14814603Y-14250730D02*
X14852698Y-14250730D01*
X14852698Y-14250730D02*
X14871746Y-14260254D01*
X14871746Y-14260254D02*
X14881270Y-14279302D01*
X14881270Y-14279302D02*
X14881270Y-14298349D01*
X14881270Y-14298349D02*
X14786032Y-14317397D01*
X14957460Y-14374540D02*
X14976508Y-14384064D01*
X14976508Y-14384064D02*
X15014603Y-14384064D01*
X15014603Y-14384064D02*
X15033651Y-14374540D01*
X15033651Y-14374540D02*
X15043175Y-14355492D01*
X15043175Y-14355492D02*
X15043175Y-14345968D01*
X15043175Y-14345968D02*
X15033651Y-14326921D01*
X15033651Y-14326921D02*
X15014603Y-14317397D01*
X15014603Y-14317397D02*
X14986032Y-14317397D01*
X14986032Y-14317397D02*
X14966984Y-14307873D01*
X14966984Y-14307873D02*
X14957460Y-14288826D01*
X14957460Y-14288826D02*
X14957460Y-14279302D01*
X14957460Y-14279302D02*
X14966984Y-14260254D01*
X14966984Y-14260254D02*
X14986032Y-14250730D01*
X14986032Y-14250730D02*
X15014603Y-14250730D01*
X15014603Y-14250730D02*
X15033651Y-14260254D01*
X15109841Y-14460254D02*
X15119365Y-14450730D01*
X15119365Y-14450730D02*
X15138413Y-14422159D01*
X15138413Y-14422159D02*
X15147937Y-14403111D01*
X15147937Y-14403111D02*
X15157460Y-14374540D01*
X15157460Y-14374540D02*
X15166984Y-14326921D01*
X15166984Y-14326921D02*
X15166984Y-14288826D01*
X15166984Y-14288826D02*
X15157460Y-14241207D01*
X15157460Y-14241207D02*
X15147937Y-14212635D01*
X15147937Y-14212635D02*
X15138413Y-14193588D01*
X15138413Y-14193588D02*
X15119365Y-14165016D01*
X15119365Y-14165016D02*
X15109841Y-14155492D01*
D19*
X10047460Y-14500540D02*
X10157460Y-14610540D01*
X10157460Y-14500540D02*
X10047460Y-14610540D01*
X10141351Y-14594431D02*
X10141351Y-14516649D01*
X10063569Y-14516649D01*
X10063569Y-14594431D01*
X10141351Y-14594431D01*
D11*
X10509841Y-14648064D02*
X10395555Y-14648064D01*
X10452698Y-14648064D02*
X10452698Y-14448064D01*
X10452698Y-14448064D02*
X10433650Y-14476635D01*
X10433650Y-14476635D02*
X10414603Y-14495683D01*
X10414603Y-14495683D02*
X10395555Y-14505207D01*
X10595555Y-14629016D02*
X10605079Y-14638540D01*
X10605079Y-14638540D02*
X10595555Y-14648064D01*
X10595555Y-14648064D02*
X10586031Y-14638540D01*
X10586031Y-14638540D02*
X10595555Y-14629016D01*
X10595555Y-14629016D02*
X10595555Y-14648064D01*
X10795555Y-14648064D02*
X10681270Y-14648064D01*
X10738412Y-14648064D02*
X10738412Y-14448064D01*
X10738412Y-14448064D02*
X10719365Y-14476635D01*
X10719365Y-14476635D02*
X10700317Y-14495683D01*
X10700317Y-14495683D02*
X10681270Y-14505207D01*
X10919365Y-14448064D02*
X10938412Y-14448064D01*
X10938412Y-14448064D02*
X10957460Y-14457588D01*
X10957460Y-14457588D02*
X10966984Y-14467111D01*
X10966984Y-14467111D02*
X10976508Y-14486159D01*
X10976508Y-14486159D02*
X10986031Y-14524254D01*
X10986031Y-14524254D02*
X10986031Y-14571873D01*
X10986031Y-14571873D02*
X10976508Y-14609968D01*
X10976508Y-14609968D02*
X10966984Y-14629016D01*
X10966984Y-14629016D02*
X10957460Y-14638540D01*
X10957460Y-14638540D02*
X10938412Y-14648064D01*
X10938412Y-14648064D02*
X10919365Y-14648064D01*
X10919365Y-14648064D02*
X10900317Y-14638540D01*
X10900317Y-14638540D02*
X10890793Y-14629016D01*
X10890793Y-14629016D02*
X10881270Y-14609968D01*
X10881270Y-14609968D02*
X10871746Y-14571873D01*
X10871746Y-14571873D02*
X10871746Y-14524254D01*
X10871746Y-14524254D02*
X10881270Y-14486159D01*
X10881270Y-14486159D02*
X10890793Y-14467111D01*
X10890793Y-14467111D02*
X10900317Y-14457588D01*
X10900317Y-14457588D02*
X10919365Y-14448064D01*
X11109841Y-14448064D02*
X11128889Y-14448064D01*
X11128889Y-14448064D02*
X11147936Y-14457588D01*
X11147936Y-14457588D02*
X11157460Y-14467111D01*
X11157460Y-14467111D02*
X11166984Y-14486159D01*
X11166984Y-14486159D02*
X11176508Y-14524254D01*
X11176508Y-14524254D02*
X11176508Y-14571873D01*
X11176508Y-14571873D02*
X11166984Y-14609968D01*
X11166984Y-14609968D02*
X11157460Y-14629016D01*
X11157460Y-14629016D02*
X11147936Y-14638540D01*
X11147936Y-14638540D02*
X11128889Y-14648064D01*
X11128889Y-14648064D02*
X11109841Y-14648064D01*
X11109841Y-14648064D02*
X11090793Y-14638540D01*
X11090793Y-14638540D02*
X11081270Y-14629016D01*
X11081270Y-14629016D02*
X11071746Y-14609968D01*
X11071746Y-14609968D02*
X11062222Y-14571873D01*
X11062222Y-14571873D02*
X11062222Y-14524254D01*
X11062222Y-14524254D02*
X11071746Y-14486159D01*
X11071746Y-14486159D02*
X11081270Y-14467111D01*
X11081270Y-14467111D02*
X11090793Y-14457588D01*
X11090793Y-14457588D02*
X11109841Y-14448064D01*
X11262222Y-14648064D02*
X11262222Y-14514730D01*
X11262222Y-14533778D02*
X11271746Y-14524254D01*
X11271746Y-14524254D02*
X11290793Y-14514730D01*
X11290793Y-14514730D02*
X11319365Y-14514730D01*
X11319365Y-14514730D02*
X11338412Y-14524254D01*
X11338412Y-14524254D02*
X11347936Y-14543302D01*
X11347936Y-14543302D02*
X11347936Y-14648064D01*
X11347936Y-14543302D02*
X11357460Y-14524254D01*
X11357460Y-14524254D02*
X11376508Y-14514730D01*
X11376508Y-14514730D02*
X11405079Y-14514730D01*
X11405079Y-14514730D02*
X11424127Y-14524254D01*
X11424127Y-14524254D02*
X11433650Y-14543302D01*
X11433650Y-14543302D02*
X11433650Y-14648064D01*
X11528889Y-14648064D02*
X11528889Y-14514730D01*
X11528889Y-14533778D02*
X11538412Y-14524254D01*
X11538412Y-14524254D02*
X11557460Y-14514730D01*
X11557460Y-14514730D02*
X11586031Y-14514730D01*
X11586031Y-14514730D02*
X11605079Y-14524254D01*
X11605079Y-14524254D02*
X11614603Y-14543302D01*
X11614603Y-14543302D02*
X11614603Y-14648064D01*
X11614603Y-14543302D02*
X11624127Y-14524254D01*
X11624127Y-14524254D02*
X11643174Y-14514730D01*
X11643174Y-14514730D02*
X11671746Y-14514730D01*
X11671746Y-14514730D02*
X11690793Y-14524254D01*
X11690793Y-14524254D02*
X11700317Y-14543302D01*
X11700317Y-14543302D02*
X11700317Y-14648064D01*
X12090793Y-14438540D02*
X11919365Y-14695683D01*
X12347936Y-14448064D02*
X12366984Y-14448064D01*
X12366984Y-14448064D02*
X12386032Y-14457588D01*
X12386032Y-14457588D02*
X12395555Y-14467111D01*
X12395555Y-14467111D02*
X12405079Y-14486159D01*
X12405079Y-14486159D02*
X12414603Y-14524254D01*
X12414603Y-14524254D02*
X12414603Y-14571873D01*
X12414603Y-14571873D02*
X12405079Y-14609968D01*
X12405079Y-14609968D02*
X12395555Y-14629016D01*
X12395555Y-14629016D02*
X12386032Y-14638540D01*
X12386032Y-14638540D02*
X12366984Y-14648064D01*
X12366984Y-14648064D02*
X12347936Y-14648064D01*
X12347936Y-14648064D02*
X12328889Y-14638540D01*
X12328889Y-14638540D02*
X12319365Y-14629016D01*
X12319365Y-14629016D02*
X12309841Y-14609968D01*
X12309841Y-14609968D02*
X12300317Y-14571873D01*
X12300317Y-14571873D02*
X12300317Y-14524254D01*
X12300317Y-14524254D02*
X12309841Y-14486159D01*
X12309841Y-14486159D02*
X12319365Y-14467111D01*
X12319365Y-14467111D02*
X12328889Y-14457588D01*
X12328889Y-14457588D02*
X12347936Y-14448064D01*
X12500317Y-14629016D02*
X12509841Y-14638540D01*
X12509841Y-14638540D02*
X12500317Y-14648064D01*
X12500317Y-14648064D02*
X12490793Y-14638540D01*
X12490793Y-14638540D02*
X12500317Y-14629016D01*
X12500317Y-14629016D02*
X12500317Y-14648064D01*
X12633651Y-14448064D02*
X12652698Y-14448064D01*
X12652698Y-14448064D02*
X12671746Y-14457588D01*
X12671746Y-14457588D02*
X12681270Y-14467111D01*
X12681270Y-14467111D02*
X12690793Y-14486159D01*
X12690793Y-14486159D02*
X12700317Y-14524254D01*
X12700317Y-14524254D02*
X12700317Y-14571873D01*
X12700317Y-14571873D02*
X12690793Y-14609968D01*
X12690793Y-14609968D02*
X12681270Y-14629016D01*
X12681270Y-14629016D02*
X12671746Y-14638540D01*
X12671746Y-14638540D02*
X12652698Y-14648064D01*
X12652698Y-14648064D02*
X12633651Y-14648064D01*
X12633651Y-14648064D02*
X12614603Y-14638540D01*
X12614603Y-14638540D02*
X12605079Y-14629016D01*
X12605079Y-14629016D02*
X12595555Y-14609968D01*
X12595555Y-14609968D02*
X12586032Y-14571873D01*
X12586032Y-14571873D02*
X12586032Y-14524254D01*
X12586032Y-14524254D02*
X12595555Y-14486159D01*
X12595555Y-14486159D02*
X12605079Y-14467111D01*
X12605079Y-14467111D02*
X12614603Y-14457588D01*
X12614603Y-14457588D02*
X12633651Y-14448064D01*
X12871746Y-14514730D02*
X12871746Y-14648064D01*
X12824127Y-14438540D02*
X12776508Y-14581397D01*
X12776508Y-14581397D02*
X12900317Y-14581397D01*
X12957460Y-14448064D02*
X13081270Y-14448064D01*
X13081270Y-14448064D02*
X13014603Y-14524254D01*
X13014603Y-14524254D02*
X13043174Y-14524254D01*
X13043174Y-14524254D02*
X13062222Y-14533778D01*
X13062222Y-14533778D02*
X13071746Y-14543302D01*
X13071746Y-14543302D02*
X13081270Y-14562349D01*
X13081270Y-14562349D02*
X13081270Y-14609968D01*
X13081270Y-14609968D02*
X13071746Y-14629016D01*
X13071746Y-14629016D02*
X13062222Y-14638540D01*
X13062222Y-14638540D02*
X13043174Y-14648064D01*
X13043174Y-14648064D02*
X12986032Y-14648064D01*
X12986032Y-14648064D02*
X12966984Y-14638540D01*
X12966984Y-14638540D02*
X12957460Y-14629016D01*
X13147936Y-14448064D02*
X13271746Y-14448064D01*
X13271746Y-14448064D02*
X13205079Y-14524254D01*
X13205079Y-14524254D02*
X13233651Y-14524254D01*
X13233651Y-14524254D02*
X13252698Y-14533778D01*
X13252698Y-14533778D02*
X13262222Y-14543302D01*
X13262222Y-14543302D02*
X13271746Y-14562349D01*
X13271746Y-14562349D02*
X13271746Y-14609968D01*
X13271746Y-14609968D02*
X13262222Y-14629016D01*
X13262222Y-14629016D02*
X13252698Y-14638540D01*
X13252698Y-14638540D02*
X13233651Y-14648064D01*
X13233651Y-14648064D02*
X13176508Y-14648064D01*
X13176508Y-14648064D02*
X13157460Y-14638540D01*
X13157460Y-14638540D02*
X13147936Y-14629016D01*
X13347936Y-14448064D02*
X13347936Y-14486159D01*
X13424127Y-14448064D02*
X13424127Y-14486159D01*
X13719365Y-14724254D02*
X13709841Y-14714730D01*
X13709841Y-14714730D02*
X13690794Y-14686159D01*
X13690794Y-14686159D02*
X13681270Y-14667111D01*
X13681270Y-14667111D02*
X13671746Y-14638540D01*
X13671746Y-14638540D02*
X13662222Y-14590921D01*
X13662222Y-14590921D02*
X13662222Y-14552826D01*
X13662222Y-14552826D02*
X13671746Y-14505207D01*
X13671746Y-14505207D02*
X13681270Y-14476635D01*
X13681270Y-14476635D02*
X13690794Y-14457588D01*
X13690794Y-14457588D02*
X13709841Y-14429016D01*
X13709841Y-14429016D02*
X13719365Y-14419492D01*
X13786032Y-14467111D02*
X13795555Y-14457588D01*
X13795555Y-14457588D02*
X13814603Y-14448064D01*
X13814603Y-14448064D02*
X13862222Y-14448064D01*
X13862222Y-14448064D02*
X13881270Y-14457588D01*
X13881270Y-14457588D02*
X13890794Y-14467111D01*
X13890794Y-14467111D02*
X13900317Y-14486159D01*
X13900317Y-14486159D02*
X13900317Y-14505207D01*
X13900317Y-14505207D02*
X13890794Y-14533778D01*
X13890794Y-14533778D02*
X13776508Y-14648064D01*
X13776508Y-14648064D02*
X13900317Y-14648064D01*
X14024127Y-14448064D02*
X14043175Y-14448064D01*
X14043175Y-14448064D02*
X14062222Y-14457588D01*
X14062222Y-14457588D02*
X14071746Y-14467111D01*
X14071746Y-14467111D02*
X14081270Y-14486159D01*
X14081270Y-14486159D02*
X14090794Y-14524254D01*
X14090794Y-14524254D02*
X14090794Y-14571873D01*
X14090794Y-14571873D02*
X14081270Y-14609968D01*
X14081270Y-14609968D02*
X14071746Y-14629016D01*
X14071746Y-14629016D02*
X14062222Y-14638540D01*
X14062222Y-14638540D02*
X14043175Y-14648064D01*
X14043175Y-14648064D02*
X14024127Y-14648064D01*
X14024127Y-14648064D02*
X14005079Y-14638540D01*
X14005079Y-14638540D02*
X13995555Y-14629016D01*
X13995555Y-14629016D02*
X13986032Y-14609968D01*
X13986032Y-14609968D02*
X13976508Y-14571873D01*
X13976508Y-14571873D02*
X13976508Y-14524254D01*
X13976508Y-14524254D02*
X13986032Y-14486159D01*
X13986032Y-14486159D02*
X13995555Y-14467111D01*
X13995555Y-14467111D02*
X14005079Y-14457588D01*
X14005079Y-14457588D02*
X14024127Y-14448064D01*
X14328889Y-14648064D02*
X14328889Y-14448064D01*
X14414603Y-14648064D02*
X14414603Y-14543302D01*
X14414603Y-14543302D02*
X14405079Y-14524254D01*
X14405079Y-14524254D02*
X14386032Y-14514730D01*
X14386032Y-14514730D02*
X14357460Y-14514730D01*
X14357460Y-14514730D02*
X14338413Y-14524254D01*
X14338413Y-14524254D02*
X14328889Y-14533778D01*
X14538413Y-14648064D02*
X14519365Y-14638540D01*
X14519365Y-14638540D02*
X14509841Y-14629016D01*
X14509841Y-14629016D02*
X14500317Y-14609968D01*
X14500317Y-14609968D02*
X14500317Y-14552826D01*
X14500317Y-14552826D02*
X14509841Y-14533778D01*
X14509841Y-14533778D02*
X14519365Y-14524254D01*
X14519365Y-14524254D02*
X14538413Y-14514730D01*
X14538413Y-14514730D02*
X14566984Y-14514730D01*
X14566984Y-14514730D02*
X14586032Y-14524254D01*
X14586032Y-14524254D02*
X14595556Y-14533778D01*
X14595556Y-14533778D02*
X14605079Y-14552826D01*
X14605079Y-14552826D02*
X14605079Y-14609968D01*
X14605079Y-14609968D02*
X14595556Y-14629016D01*
X14595556Y-14629016D02*
X14586032Y-14638540D01*
X14586032Y-14638540D02*
X14566984Y-14648064D01*
X14566984Y-14648064D02*
X14538413Y-14648064D01*
X14719365Y-14648064D02*
X14700317Y-14638540D01*
X14700317Y-14638540D02*
X14690794Y-14619492D01*
X14690794Y-14619492D02*
X14690794Y-14448064D01*
X14871746Y-14638540D02*
X14852698Y-14648064D01*
X14852698Y-14648064D02*
X14814603Y-14648064D01*
X14814603Y-14648064D02*
X14795556Y-14638540D01*
X14795556Y-14638540D02*
X14786032Y-14619492D01*
X14786032Y-14619492D02*
X14786032Y-14543302D01*
X14786032Y-14543302D02*
X14795556Y-14524254D01*
X14795556Y-14524254D02*
X14814603Y-14514730D01*
X14814603Y-14514730D02*
X14852698Y-14514730D01*
X14852698Y-14514730D02*
X14871746Y-14524254D01*
X14871746Y-14524254D02*
X14881270Y-14543302D01*
X14881270Y-14543302D02*
X14881270Y-14562349D01*
X14881270Y-14562349D02*
X14786032Y-14581397D01*
X14957460Y-14638540D02*
X14976508Y-14648064D01*
X14976508Y-14648064D02*
X15014603Y-14648064D01*
X15014603Y-14648064D02*
X15033651Y-14638540D01*
X15033651Y-14638540D02*
X15043175Y-14619492D01*
X15043175Y-14619492D02*
X15043175Y-14609968D01*
X15043175Y-14609968D02*
X15033651Y-14590921D01*
X15033651Y-14590921D02*
X15014603Y-14581397D01*
X15014603Y-14581397D02*
X14986032Y-14581397D01*
X14986032Y-14581397D02*
X14966984Y-14571873D01*
X14966984Y-14571873D02*
X14957460Y-14552826D01*
X14957460Y-14552826D02*
X14957460Y-14543302D01*
X14957460Y-14543302D02*
X14966984Y-14524254D01*
X14966984Y-14524254D02*
X14986032Y-14514730D01*
X14986032Y-14514730D02*
X15014603Y-14514730D01*
X15014603Y-14514730D02*
X15033651Y-14524254D01*
X15109841Y-14724254D02*
X15119365Y-14714730D01*
X15119365Y-14714730D02*
X15138413Y-14686159D01*
X15138413Y-14686159D02*
X15147937Y-14667111D01*
X15147937Y-14667111D02*
X15157460Y-14638540D01*
X15157460Y-14638540D02*
X15166984Y-14590921D01*
X15166984Y-14590921D02*
X15166984Y-14552826D01*
X15166984Y-14552826D02*
X15157460Y-14505207D01*
X15157460Y-14505207D02*
X15147937Y-14476635D01*
X15147937Y-14476635D02*
X15138413Y-14457588D01*
X15138413Y-14457588D02*
X15119365Y-14429016D01*
X15119365Y-14429016D02*
X15109841Y-14419492D01*
D20*
X10037460Y-14759540D02*
X10157460Y-14879540D01*
X10157460Y-14759540D02*
X10037460Y-14879540D01*
X10097460Y-14879540D02*
X10157460Y-14819540D01*
X10097460Y-14759540D01*
X10037460Y-14819540D01*
X10097460Y-14879540D01*
D11*
X10509841Y-14912064D02*
X10395555Y-14912064D01*
X10452698Y-14912064D02*
X10452698Y-14712064D01*
X10452698Y-14712064D02*
X10433650Y-14740635D01*
X10433650Y-14740635D02*
X10414603Y-14759683D01*
X10414603Y-14759683D02*
X10395555Y-14769207D01*
X10595555Y-14893016D02*
X10605079Y-14902540D01*
X10605079Y-14902540D02*
X10595555Y-14912064D01*
X10595555Y-14912064D02*
X10586031Y-14902540D01*
X10586031Y-14902540D02*
X10595555Y-14893016D01*
X10595555Y-14893016D02*
X10595555Y-14912064D01*
X10681270Y-14731111D02*
X10690793Y-14721588D01*
X10690793Y-14721588D02*
X10709841Y-14712064D01*
X10709841Y-14712064D02*
X10757460Y-14712064D01*
X10757460Y-14712064D02*
X10776508Y-14721588D01*
X10776508Y-14721588D02*
X10786031Y-14731111D01*
X10786031Y-14731111D02*
X10795555Y-14750159D01*
X10795555Y-14750159D02*
X10795555Y-14769207D01*
X10795555Y-14769207D02*
X10786031Y-14797778D01*
X10786031Y-14797778D02*
X10671746Y-14912064D01*
X10671746Y-14912064D02*
X10795555Y-14912064D01*
X10919365Y-14712064D02*
X10938412Y-14712064D01*
X10938412Y-14712064D02*
X10957460Y-14721588D01*
X10957460Y-14721588D02*
X10966984Y-14731111D01*
X10966984Y-14731111D02*
X10976508Y-14750159D01*
X10976508Y-14750159D02*
X10986031Y-14788254D01*
X10986031Y-14788254D02*
X10986031Y-14835873D01*
X10986031Y-14835873D02*
X10976508Y-14873968D01*
X10976508Y-14873968D02*
X10966984Y-14893016D01*
X10966984Y-14893016D02*
X10957460Y-14902540D01*
X10957460Y-14902540D02*
X10938412Y-14912064D01*
X10938412Y-14912064D02*
X10919365Y-14912064D01*
X10919365Y-14912064D02*
X10900317Y-14902540D01*
X10900317Y-14902540D02*
X10890793Y-14893016D01*
X10890793Y-14893016D02*
X10881270Y-14873968D01*
X10881270Y-14873968D02*
X10871746Y-14835873D01*
X10871746Y-14835873D02*
X10871746Y-14788254D01*
X10871746Y-14788254D02*
X10881270Y-14750159D01*
X10881270Y-14750159D02*
X10890793Y-14731111D01*
X10890793Y-14731111D02*
X10900317Y-14721588D01*
X10900317Y-14721588D02*
X10919365Y-14712064D01*
X11109841Y-14712064D02*
X11128889Y-14712064D01*
X11128889Y-14712064D02*
X11147936Y-14721588D01*
X11147936Y-14721588D02*
X11157460Y-14731111D01*
X11157460Y-14731111D02*
X11166984Y-14750159D01*
X11166984Y-14750159D02*
X11176508Y-14788254D01*
X11176508Y-14788254D02*
X11176508Y-14835873D01*
X11176508Y-14835873D02*
X11166984Y-14873968D01*
X11166984Y-14873968D02*
X11157460Y-14893016D01*
X11157460Y-14893016D02*
X11147936Y-14902540D01*
X11147936Y-14902540D02*
X11128889Y-14912064D01*
X11128889Y-14912064D02*
X11109841Y-14912064D01*
X11109841Y-14912064D02*
X11090793Y-14902540D01*
X11090793Y-14902540D02*
X11081270Y-14893016D01*
X11081270Y-14893016D02*
X11071746Y-14873968D01*
X11071746Y-14873968D02*
X11062222Y-14835873D01*
X11062222Y-14835873D02*
X11062222Y-14788254D01*
X11062222Y-14788254D02*
X11071746Y-14750159D01*
X11071746Y-14750159D02*
X11081270Y-14731111D01*
X11081270Y-14731111D02*
X11090793Y-14721588D01*
X11090793Y-14721588D02*
X11109841Y-14712064D01*
X11262222Y-14912064D02*
X11262222Y-14778730D01*
X11262222Y-14797778D02*
X11271746Y-14788254D01*
X11271746Y-14788254D02*
X11290793Y-14778730D01*
X11290793Y-14778730D02*
X11319365Y-14778730D01*
X11319365Y-14778730D02*
X11338412Y-14788254D01*
X11338412Y-14788254D02*
X11347936Y-14807302D01*
X11347936Y-14807302D02*
X11347936Y-14912064D01*
X11347936Y-14807302D02*
X11357460Y-14788254D01*
X11357460Y-14788254D02*
X11376508Y-14778730D01*
X11376508Y-14778730D02*
X11405079Y-14778730D01*
X11405079Y-14778730D02*
X11424127Y-14788254D01*
X11424127Y-14788254D02*
X11433650Y-14807302D01*
X11433650Y-14807302D02*
X11433650Y-14912064D01*
X11528889Y-14912064D02*
X11528889Y-14778730D01*
X11528889Y-14797778D02*
X11538412Y-14788254D01*
X11538412Y-14788254D02*
X11557460Y-14778730D01*
X11557460Y-14778730D02*
X11586031Y-14778730D01*
X11586031Y-14778730D02*
X11605079Y-14788254D01*
X11605079Y-14788254D02*
X11614603Y-14807302D01*
X11614603Y-14807302D02*
X11614603Y-14912064D01*
X11614603Y-14807302D02*
X11624127Y-14788254D01*
X11624127Y-14788254D02*
X11643174Y-14778730D01*
X11643174Y-14778730D02*
X11671746Y-14778730D01*
X11671746Y-14778730D02*
X11690793Y-14788254D01*
X11690793Y-14788254D02*
X11700317Y-14807302D01*
X11700317Y-14807302D02*
X11700317Y-14912064D01*
X12090793Y-14702540D02*
X11919365Y-14959683D01*
X12347936Y-14712064D02*
X12366984Y-14712064D01*
X12366984Y-14712064D02*
X12386032Y-14721588D01*
X12386032Y-14721588D02*
X12395555Y-14731111D01*
X12395555Y-14731111D02*
X12405079Y-14750159D01*
X12405079Y-14750159D02*
X12414603Y-14788254D01*
X12414603Y-14788254D02*
X12414603Y-14835873D01*
X12414603Y-14835873D02*
X12405079Y-14873968D01*
X12405079Y-14873968D02*
X12395555Y-14893016D01*
X12395555Y-14893016D02*
X12386032Y-14902540D01*
X12386032Y-14902540D02*
X12366984Y-14912064D01*
X12366984Y-14912064D02*
X12347936Y-14912064D01*
X12347936Y-14912064D02*
X12328889Y-14902540D01*
X12328889Y-14902540D02*
X12319365Y-14893016D01*
X12319365Y-14893016D02*
X12309841Y-14873968D01*
X12309841Y-14873968D02*
X12300317Y-14835873D01*
X12300317Y-14835873D02*
X12300317Y-14788254D01*
X12300317Y-14788254D02*
X12309841Y-14750159D01*
X12309841Y-14750159D02*
X12319365Y-14731111D01*
X12319365Y-14731111D02*
X12328889Y-14721588D01*
X12328889Y-14721588D02*
X12347936Y-14712064D01*
X12500317Y-14893016D02*
X12509841Y-14902540D01*
X12509841Y-14902540D02*
X12500317Y-14912064D01*
X12500317Y-14912064D02*
X12490793Y-14902540D01*
X12490793Y-14902540D02*
X12500317Y-14893016D01*
X12500317Y-14893016D02*
X12500317Y-14912064D01*
X12633651Y-14712064D02*
X12652698Y-14712064D01*
X12652698Y-14712064D02*
X12671746Y-14721588D01*
X12671746Y-14721588D02*
X12681270Y-14731111D01*
X12681270Y-14731111D02*
X12690793Y-14750159D01*
X12690793Y-14750159D02*
X12700317Y-14788254D01*
X12700317Y-14788254D02*
X12700317Y-14835873D01*
X12700317Y-14835873D02*
X12690793Y-14873968D01*
X12690793Y-14873968D02*
X12681270Y-14893016D01*
X12681270Y-14893016D02*
X12671746Y-14902540D01*
X12671746Y-14902540D02*
X12652698Y-14912064D01*
X12652698Y-14912064D02*
X12633651Y-14912064D01*
X12633651Y-14912064D02*
X12614603Y-14902540D01*
X12614603Y-14902540D02*
X12605079Y-14893016D01*
X12605079Y-14893016D02*
X12595555Y-14873968D01*
X12595555Y-14873968D02*
X12586032Y-14835873D01*
X12586032Y-14835873D02*
X12586032Y-14788254D01*
X12586032Y-14788254D02*
X12595555Y-14750159D01*
X12595555Y-14750159D02*
X12605079Y-14731111D01*
X12605079Y-14731111D02*
X12614603Y-14721588D01*
X12614603Y-14721588D02*
X12633651Y-14712064D01*
X12871746Y-14778730D02*
X12871746Y-14912064D01*
X12824127Y-14702540D02*
X12776508Y-14845397D01*
X12776508Y-14845397D02*
X12900317Y-14845397D01*
X12957460Y-14712064D02*
X13090793Y-14712064D01*
X13090793Y-14712064D02*
X13005079Y-14912064D01*
X13157460Y-14731111D02*
X13166984Y-14721588D01*
X13166984Y-14721588D02*
X13186032Y-14712064D01*
X13186032Y-14712064D02*
X13233651Y-14712064D01*
X13233651Y-14712064D02*
X13252698Y-14721588D01*
X13252698Y-14721588D02*
X13262222Y-14731111D01*
X13262222Y-14731111D02*
X13271746Y-14750159D01*
X13271746Y-14750159D02*
X13271746Y-14769207D01*
X13271746Y-14769207D02*
X13262222Y-14797778D01*
X13262222Y-14797778D02*
X13147936Y-14912064D01*
X13147936Y-14912064D02*
X13271746Y-14912064D01*
X13347936Y-14712064D02*
X13347936Y-14750159D01*
X13424127Y-14712064D02*
X13424127Y-14750159D01*
X13719365Y-14988254D02*
X13709841Y-14978730D01*
X13709841Y-14978730D02*
X13690794Y-14950159D01*
X13690794Y-14950159D02*
X13681270Y-14931111D01*
X13681270Y-14931111D02*
X13671746Y-14902540D01*
X13671746Y-14902540D02*
X13662222Y-14854921D01*
X13662222Y-14854921D02*
X13662222Y-14816826D01*
X13662222Y-14816826D02*
X13671746Y-14769207D01*
X13671746Y-14769207D02*
X13681270Y-14740635D01*
X13681270Y-14740635D02*
X13690794Y-14721588D01*
X13690794Y-14721588D02*
X13709841Y-14693016D01*
X13709841Y-14693016D02*
X13719365Y-14683492D01*
X13786032Y-14731111D02*
X13795555Y-14721588D01*
X13795555Y-14721588D02*
X13814603Y-14712064D01*
X13814603Y-14712064D02*
X13862222Y-14712064D01*
X13862222Y-14712064D02*
X13881270Y-14721588D01*
X13881270Y-14721588D02*
X13890794Y-14731111D01*
X13890794Y-14731111D02*
X13900317Y-14750159D01*
X13900317Y-14750159D02*
X13900317Y-14769207D01*
X13900317Y-14769207D02*
X13890794Y-14797778D01*
X13890794Y-14797778D02*
X13776508Y-14912064D01*
X13776508Y-14912064D02*
X13900317Y-14912064D01*
X14138413Y-14912064D02*
X14138413Y-14712064D01*
X14224127Y-14912064D02*
X14224127Y-14807302D01*
X14224127Y-14807302D02*
X14214603Y-14788254D01*
X14214603Y-14788254D02*
X14195556Y-14778730D01*
X14195556Y-14778730D02*
X14166984Y-14778730D01*
X14166984Y-14778730D02*
X14147936Y-14788254D01*
X14147936Y-14788254D02*
X14138413Y-14797778D01*
X14347936Y-14912064D02*
X14328889Y-14902540D01*
X14328889Y-14902540D02*
X14319365Y-14893016D01*
X14319365Y-14893016D02*
X14309841Y-14873968D01*
X14309841Y-14873968D02*
X14309841Y-14816826D01*
X14309841Y-14816826D02*
X14319365Y-14797778D01*
X14319365Y-14797778D02*
X14328889Y-14788254D01*
X14328889Y-14788254D02*
X14347936Y-14778730D01*
X14347936Y-14778730D02*
X14376508Y-14778730D01*
X14376508Y-14778730D02*
X14395556Y-14788254D01*
X14395556Y-14788254D02*
X14405079Y-14797778D01*
X14405079Y-14797778D02*
X14414603Y-14816826D01*
X14414603Y-14816826D02*
X14414603Y-14873968D01*
X14414603Y-14873968D02*
X14405079Y-14893016D01*
X14405079Y-14893016D02*
X14395556Y-14902540D01*
X14395556Y-14902540D02*
X14376508Y-14912064D01*
X14376508Y-14912064D02*
X14347936Y-14912064D01*
X14528889Y-14912064D02*
X14509841Y-14902540D01*
X14509841Y-14902540D02*
X14500317Y-14883492D01*
X14500317Y-14883492D02*
X14500317Y-14712064D01*
X14681270Y-14902540D02*
X14662222Y-14912064D01*
X14662222Y-14912064D02*
X14624127Y-14912064D01*
X14624127Y-14912064D02*
X14605079Y-14902540D01*
X14605079Y-14902540D02*
X14595556Y-14883492D01*
X14595556Y-14883492D02*
X14595556Y-14807302D01*
X14595556Y-14807302D02*
X14605079Y-14788254D01*
X14605079Y-14788254D02*
X14624127Y-14778730D01*
X14624127Y-14778730D02*
X14662222Y-14778730D01*
X14662222Y-14778730D02*
X14681270Y-14788254D01*
X14681270Y-14788254D02*
X14690794Y-14807302D01*
X14690794Y-14807302D02*
X14690794Y-14826349D01*
X14690794Y-14826349D02*
X14595556Y-14845397D01*
X14766984Y-14902540D02*
X14786032Y-14912064D01*
X14786032Y-14912064D02*
X14824127Y-14912064D01*
X14824127Y-14912064D02*
X14843175Y-14902540D01*
X14843175Y-14902540D02*
X14852698Y-14883492D01*
X14852698Y-14883492D02*
X14852698Y-14873968D01*
X14852698Y-14873968D02*
X14843175Y-14854921D01*
X14843175Y-14854921D02*
X14824127Y-14845397D01*
X14824127Y-14845397D02*
X14795556Y-14845397D01*
X14795556Y-14845397D02*
X14776508Y-14835873D01*
X14776508Y-14835873D02*
X14766984Y-14816826D01*
X14766984Y-14816826D02*
X14766984Y-14807302D01*
X14766984Y-14807302D02*
X14776508Y-14788254D01*
X14776508Y-14788254D02*
X14795556Y-14778730D01*
X14795556Y-14778730D02*
X14824127Y-14778730D01*
X14824127Y-14778730D02*
X14843175Y-14788254D01*
X14919365Y-14988254D02*
X14928889Y-14978730D01*
X14928889Y-14978730D02*
X14947937Y-14950159D01*
X14947937Y-14950159D02*
X14957460Y-14931111D01*
X14957460Y-14931111D02*
X14966984Y-14902540D01*
X14966984Y-14902540D02*
X14976508Y-14854921D01*
X14976508Y-14854921D02*
X14976508Y-14816826D01*
X14976508Y-14816826D02*
X14966984Y-14769207D01*
X14966984Y-14769207D02*
X14957460Y-14740635D01*
X14957460Y-14740635D02*
X14947937Y-14721588D01*
X14947937Y-14721588D02*
X14928889Y-14693016D01*
X14928889Y-14693016D02*
X14919365Y-14683492D01*
X10057460Y-14983540D02*
X10057460Y-15183540D01*
X9957460Y-15083540D02*
X10157460Y-15083540D01*
X10157460Y-15083540D02*
G75*
G03*
X10157460Y-15083540I-100000J0D01*
G01*
X10386031Y-14976064D02*
X10509841Y-14976064D01*
X10509841Y-14976064D02*
X10443174Y-15052254D01*
X10443174Y-15052254D02*
X10471746Y-15052254D01*
X10471746Y-15052254D02*
X10490793Y-15061778D01*
X10490793Y-15061778D02*
X10500317Y-15071302D01*
X10500317Y-15071302D02*
X10509841Y-15090349D01*
X10509841Y-15090349D02*
X10509841Y-15137968D01*
X10509841Y-15137968D02*
X10500317Y-15157016D01*
X10500317Y-15157016D02*
X10490793Y-15166540D01*
X10490793Y-15166540D02*
X10471746Y-15176064D01*
X10471746Y-15176064D02*
X10414603Y-15176064D01*
X10414603Y-15176064D02*
X10395555Y-15166540D01*
X10395555Y-15166540D02*
X10386031Y-15157016D01*
X10595555Y-15157016D02*
X10605079Y-15166540D01*
X10605079Y-15166540D02*
X10595555Y-15176064D01*
X10595555Y-15176064D02*
X10586031Y-15166540D01*
X10586031Y-15166540D02*
X10595555Y-15157016D01*
X10595555Y-15157016D02*
X10595555Y-15176064D01*
X10681270Y-14995111D02*
X10690793Y-14985588D01*
X10690793Y-14985588D02*
X10709841Y-14976064D01*
X10709841Y-14976064D02*
X10757460Y-14976064D01*
X10757460Y-14976064D02*
X10776508Y-14985588D01*
X10776508Y-14985588D02*
X10786031Y-14995111D01*
X10786031Y-14995111D02*
X10795555Y-15014159D01*
X10795555Y-15014159D02*
X10795555Y-15033207D01*
X10795555Y-15033207D02*
X10786031Y-15061778D01*
X10786031Y-15061778D02*
X10671746Y-15176064D01*
X10671746Y-15176064D02*
X10795555Y-15176064D01*
X10919365Y-14976064D02*
X10938412Y-14976064D01*
X10938412Y-14976064D02*
X10957460Y-14985588D01*
X10957460Y-14985588D02*
X10966984Y-14995111D01*
X10966984Y-14995111D02*
X10976508Y-15014159D01*
X10976508Y-15014159D02*
X10986031Y-15052254D01*
X10986031Y-15052254D02*
X10986031Y-15099873D01*
X10986031Y-15099873D02*
X10976508Y-15137968D01*
X10976508Y-15137968D02*
X10966984Y-15157016D01*
X10966984Y-15157016D02*
X10957460Y-15166540D01*
X10957460Y-15166540D02*
X10938412Y-15176064D01*
X10938412Y-15176064D02*
X10919365Y-15176064D01*
X10919365Y-15176064D02*
X10900317Y-15166540D01*
X10900317Y-15166540D02*
X10890793Y-15157016D01*
X10890793Y-15157016D02*
X10881270Y-15137968D01*
X10881270Y-15137968D02*
X10871746Y-15099873D01*
X10871746Y-15099873D02*
X10871746Y-15052254D01*
X10871746Y-15052254D02*
X10881270Y-15014159D01*
X10881270Y-15014159D02*
X10890793Y-14995111D01*
X10890793Y-14995111D02*
X10900317Y-14985588D01*
X10900317Y-14985588D02*
X10919365Y-14976064D01*
X11109841Y-14976064D02*
X11128889Y-14976064D01*
X11128889Y-14976064D02*
X11147936Y-14985588D01*
X11147936Y-14985588D02*
X11157460Y-14995111D01*
X11157460Y-14995111D02*
X11166984Y-15014159D01*
X11166984Y-15014159D02*
X11176508Y-15052254D01*
X11176508Y-15052254D02*
X11176508Y-15099873D01*
X11176508Y-15099873D02*
X11166984Y-15137968D01*
X11166984Y-15137968D02*
X11157460Y-15157016D01*
X11157460Y-15157016D02*
X11147936Y-15166540D01*
X11147936Y-15166540D02*
X11128889Y-15176064D01*
X11128889Y-15176064D02*
X11109841Y-15176064D01*
X11109841Y-15176064D02*
X11090793Y-15166540D01*
X11090793Y-15166540D02*
X11081270Y-15157016D01*
X11081270Y-15157016D02*
X11071746Y-15137968D01*
X11071746Y-15137968D02*
X11062222Y-15099873D01*
X11062222Y-15099873D02*
X11062222Y-15052254D01*
X11062222Y-15052254D02*
X11071746Y-15014159D01*
X11071746Y-15014159D02*
X11081270Y-14995111D01*
X11081270Y-14995111D02*
X11090793Y-14985588D01*
X11090793Y-14985588D02*
X11109841Y-14976064D01*
X11262222Y-15176064D02*
X11262222Y-15042730D01*
X11262222Y-15061778D02*
X11271746Y-15052254D01*
X11271746Y-15052254D02*
X11290793Y-15042730D01*
X11290793Y-15042730D02*
X11319365Y-15042730D01*
X11319365Y-15042730D02*
X11338412Y-15052254D01*
X11338412Y-15052254D02*
X11347936Y-15071302D01*
X11347936Y-15071302D02*
X11347936Y-15176064D01*
X11347936Y-15071302D02*
X11357460Y-15052254D01*
X11357460Y-15052254D02*
X11376508Y-15042730D01*
X11376508Y-15042730D02*
X11405079Y-15042730D01*
X11405079Y-15042730D02*
X11424127Y-15052254D01*
X11424127Y-15052254D02*
X11433650Y-15071302D01*
X11433650Y-15071302D02*
X11433650Y-15176064D01*
X11528889Y-15176064D02*
X11528889Y-15042730D01*
X11528889Y-15061778D02*
X11538412Y-15052254D01*
X11538412Y-15052254D02*
X11557460Y-15042730D01*
X11557460Y-15042730D02*
X11586031Y-15042730D01*
X11586031Y-15042730D02*
X11605079Y-15052254D01*
X11605079Y-15052254D02*
X11614603Y-15071302D01*
X11614603Y-15071302D02*
X11614603Y-15176064D01*
X11614603Y-15071302D02*
X11624127Y-15052254D01*
X11624127Y-15052254D02*
X11643174Y-15042730D01*
X11643174Y-15042730D02*
X11671746Y-15042730D01*
X11671746Y-15042730D02*
X11690793Y-15052254D01*
X11690793Y-15052254D02*
X11700317Y-15071302D01*
X11700317Y-15071302D02*
X11700317Y-15176064D01*
X12090793Y-14966540D02*
X11919365Y-15223683D01*
X12347936Y-14976064D02*
X12366984Y-14976064D01*
X12366984Y-14976064D02*
X12386032Y-14985588D01*
X12386032Y-14985588D02*
X12395555Y-14995111D01*
X12395555Y-14995111D02*
X12405079Y-15014159D01*
X12405079Y-15014159D02*
X12414603Y-15052254D01*
X12414603Y-15052254D02*
X12414603Y-15099873D01*
X12414603Y-15099873D02*
X12405079Y-15137968D01*
X12405079Y-15137968D02*
X12395555Y-15157016D01*
X12395555Y-15157016D02*
X12386032Y-15166540D01*
X12386032Y-15166540D02*
X12366984Y-15176064D01*
X12366984Y-15176064D02*
X12347936Y-15176064D01*
X12347936Y-15176064D02*
X12328889Y-15166540D01*
X12328889Y-15166540D02*
X12319365Y-15157016D01*
X12319365Y-15157016D02*
X12309841Y-15137968D01*
X12309841Y-15137968D02*
X12300317Y-15099873D01*
X12300317Y-15099873D02*
X12300317Y-15052254D01*
X12300317Y-15052254D02*
X12309841Y-15014159D01*
X12309841Y-15014159D02*
X12319365Y-14995111D01*
X12319365Y-14995111D02*
X12328889Y-14985588D01*
X12328889Y-14985588D02*
X12347936Y-14976064D01*
X12500317Y-15157016D02*
X12509841Y-15166540D01*
X12509841Y-15166540D02*
X12500317Y-15176064D01*
X12500317Y-15176064D02*
X12490793Y-15166540D01*
X12490793Y-15166540D02*
X12500317Y-15157016D01*
X12500317Y-15157016D02*
X12500317Y-15176064D01*
X12700317Y-15176064D02*
X12586032Y-15176064D01*
X12643174Y-15176064D02*
X12643174Y-14976064D01*
X12643174Y-14976064D02*
X12624127Y-15004635D01*
X12624127Y-15004635D02*
X12605079Y-15023683D01*
X12605079Y-15023683D02*
X12586032Y-15033207D01*
X12776508Y-14995111D02*
X12786032Y-14985588D01*
X12786032Y-14985588D02*
X12805079Y-14976064D01*
X12805079Y-14976064D02*
X12852698Y-14976064D01*
X12852698Y-14976064D02*
X12871746Y-14985588D01*
X12871746Y-14985588D02*
X12881270Y-14995111D01*
X12881270Y-14995111D02*
X12890793Y-15014159D01*
X12890793Y-15014159D02*
X12890793Y-15033207D01*
X12890793Y-15033207D02*
X12881270Y-15061778D01*
X12881270Y-15061778D02*
X12766984Y-15176064D01*
X12766984Y-15176064D02*
X12890793Y-15176064D01*
X13062222Y-14976064D02*
X13024127Y-14976064D01*
X13024127Y-14976064D02*
X13005079Y-14985588D01*
X13005079Y-14985588D02*
X12995555Y-14995111D01*
X12995555Y-14995111D02*
X12976508Y-15023683D01*
X12976508Y-15023683D02*
X12966984Y-15061778D01*
X12966984Y-15061778D02*
X12966984Y-15137968D01*
X12966984Y-15137968D02*
X12976508Y-15157016D01*
X12976508Y-15157016D02*
X12986032Y-15166540D01*
X12986032Y-15166540D02*
X13005079Y-15176064D01*
X13005079Y-15176064D02*
X13043174Y-15176064D01*
X13043174Y-15176064D02*
X13062222Y-15166540D01*
X13062222Y-15166540D02*
X13071746Y-15157016D01*
X13071746Y-15157016D02*
X13081270Y-15137968D01*
X13081270Y-15137968D02*
X13081270Y-15090349D01*
X13081270Y-15090349D02*
X13071746Y-15071302D01*
X13071746Y-15071302D02*
X13062222Y-15061778D01*
X13062222Y-15061778D02*
X13043174Y-15052254D01*
X13043174Y-15052254D02*
X13005079Y-15052254D01*
X13005079Y-15052254D02*
X12986032Y-15061778D01*
X12986032Y-15061778D02*
X12976508Y-15071302D01*
X12976508Y-15071302D02*
X12966984Y-15090349D01*
X13205079Y-14976064D02*
X13224127Y-14976064D01*
X13224127Y-14976064D02*
X13243174Y-14985588D01*
X13243174Y-14985588D02*
X13252698Y-14995111D01*
X13252698Y-14995111D02*
X13262222Y-15014159D01*
X13262222Y-15014159D02*
X13271746Y-15052254D01*
X13271746Y-15052254D02*
X13271746Y-15099873D01*
X13271746Y-15099873D02*
X13262222Y-15137968D01*
X13262222Y-15137968D02*
X13252698Y-15157016D01*
X13252698Y-15157016D02*
X13243174Y-15166540D01*
X13243174Y-15166540D02*
X13224127Y-15176064D01*
X13224127Y-15176064D02*
X13205079Y-15176064D01*
X13205079Y-15176064D02*
X13186032Y-15166540D01*
X13186032Y-15166540D02*
X13176508Y-15157016D01*
X13176508Y-15157016D02*
X13166984Y-15137968D01*
X13166984Y-15137968D02*
X13157460Y-15099873D01*
X13157460Y-15099873D02*
X13157460Y-15052254D01*
X13157460Y-15052254D02*
X13166984Y-15014159D01*
X13166984Y-15014159D02*
X13176508Y-14995111D01*
X13176508Y-14995111D02*
X13186032Y-14985588D01*
X13186032Y-14985588D02*
X13205079Y-14976064D01*
X13347936Y-14976064D02*
X13347936Y-15014159D01*
X13424127Y-14976064D02*
X13424127Y-15014159D01*
X13719365Y-15252254D02*
X13709841Y-15242730D01*
X13709841Y-15242730D02*
X13690794Y-15214159D01*
X13690794Y-15214159D02*
X13681270Y-15195111D01*
X13681270Y-15195111D02*
X13671746Y-15166540D01*
X13671746Y-15166540D02*
X13662222Y-15118921D01*
X13662222Y-15118921D02*
X13662222Y-15080826D01*
X13662222Y-15080826D02*
X13671746Y-15033207D01*
X13671746Y-15033207D02*
X13681270Y-15004635D01*
X13681270Y-15004635D02*
X13690794Y-14985588D01*
X13690794Y-14985588D02*
X13709841Y-14957016D01*
X13709841Y-14957016D02*
X13719365Y-14947492D01*
X13881270Y-15042730D02*
X13881270Y-15176064D01*
X13833651Y-14966540D02*
X13786032Y-15109397D01*
X13786032Y-15109397D02*
X13909841Y-15109397D01*
X14138413Y-15176064D02*
X14138413Y-14976064D01*
X14224127Y-15176064D02*
X14224127Y-15071302D01*
X14224127Y-15071302D02*
X14214603Y-15052254D01*
X14214603Y-15052254D02*
X14195556Y-15042730D01*
X14195556Y-15042730D02*
X14166984Y-15042730D01*
X14166984Y-15042730D02*
X14147936Y-15052254D01*
X14147936Y-15052254D02*
X14138413Y-15061778D01*
X14347936Y-15176064D02*
X14328889Y-15166540D01*
X14328889Y-15166540D02*
X14319365Y-15157016D01*
X14319365Y-15157016D02*
X14309841Y-15137968D01*
X14309841Y-15137968D02*
X14309841Y-15080826D01*
X14309841Y-15080826D02*
X14319365Y-15061778D01*
X14319365Y-15061778D02*
X14328889Y-15052254D01*
X14328889Y-15052254D02*
X14347936Y-15042730D01*
X14347936Y-15042730D02*
X14376508Y-15042730D01*
X14376508Y-15042730D02*
X14395556Y-15052254D01*
X14395556Y-15052254D02*
X14405079Y-15061778D01*
X14405079Y-15061778D02*
X14414603Y-15080826D01*
X14414603Y-15080826D02*
X14414603Y-15137968D01*
X14414603Y-15137968D02*
X14405079Y-15157016D01*
X14405079Y-15157016D02*
X14395556Y-15166540D01*
X14395556Y-15166540D02*
X14376508Y-15176064D01*
X14376508Y-15176064D02*
X14347936Y-15176064D01*
X14528889Y-15176064D02*
X14509841Y-15166540D01*
X14509841Y-15166540D02*
X14500317Y-15147492D01*
X14500317Y-15147492D02*
X14500317Y-14976064D01*
X14681270Y-15166540D02*
X14662222Y-15176064D01*
X14662222Y-15176064D02*
X14624127Y-15176064D01*
X14624127Y-15176064D02*
X14605079Y-15166540D01*
X14605079Y-15166540D02*
X14595556Y-15147492D01*
X14595556Y-15147492D02*
X14595556Y-15071302D01*
X14595556Y-15071302D02*
X14605079Y-15052254D01*
X14605079Y-15052254D02*
X14624127Y-15042730D01*
X14624127Y-15042730D02*
X14662222Y-15042730D01*
X14662222Y-15042730D02*
X14681270Y-15052254D01*
X14681270Y-15052254D02*
X14690794Y-15071302D01*
X14690794Y-15071302D02*
X14690794Y-15090349D01*
X14690794Y-15090349D02*
X14595556Y-15109397D01*
X14766984Y-15166540D02*
X14786032Y-15176064D01*
X14786032Y-15176064D02*
X14824127Y-15176064D01*
X14824127Y-15176064D02*
X14843175Y-15166540D01*
X14843175Y-15166540D02*
X14852698Y-15147492D01*
X14852698Y-15147492D02*
X14852698Y-15137968D01*
X14852698Y-15137968D02*
X14843175Y-15118921D01*
X14843175Y-15118921D02*
X14824127Y-15109397D01*
X14824127Y-15109397D02*
X14795556Y-15109397D01*
X14795556Y-15109397D02*
X14776508Y-15099873D01*
X14776508Y-15099873D02*
X14766984Y-15080826D01*
X14766984Y-15080826D02*
X14766984Y-15071302D01*
X14766984Y-15071302D02*
X14776508Y-15052254D01*
X14776508Y-15052254D02*
X14795556Y-15042730D01*
X14795556Y-15042730D02*
X14824127Y-15042730D01*
X14824127Y-15042730D02*
X14843175Y-15052254D01*
X14919365Y-15252254D02*
X14928889Y-15242730D01*
X14928889Y-15242730D02*
X14947937Y-15214159D01*
X14947937Y-15214159D02*
X14957460Y-15195111D01*
X14957460Y-15195111D02*
X14966984Y-15166540D01*
X14966984Y-15166540D02*
X14976508Y-15118921D01*
X14976508Y-15118921D02*
X14976508Y-15080826D01*
X14976508Y-15080826D02*
X14966984Y-15033207D01*
X14966984Y-15033207D02*
X14957460Y-15004635D01*
X14957460Y-15004635D02*
X14947937Y-14985588D01*
X14947937Y-14985588D02*
X14928889Y-14957016D01*
X14928889Y-14957016D02*
X14919365Y-14947492D01*
M02*
