%TF.GenerationSoftware,KiCad,Pcbnew,7.0.2-0*%
%TF.CreationDate,2023-04-26T13:01:35-04:00*%
%TF.ProjectId,UBMP430,55424d50-3433-4302-9e6b-696361645f70,3*%
%TF.SameCoordinates,Original*%
%TF.FileFunction,Copper,L2,Bot*%
%TF.FilePolarity,Positive*%
%FSLAX46Y46*%
G04 Gerber Fmt 4.6, Leading zero omitted, Abs format (unit mm)*
G04 Created by KiCad (PCBNEW 7.0.2-0) date 2023-04-26 13:01:35*
%MOMM*%
%LPD*%
G01*
G04 APERTURE LIST*
G04 Aperture macros list*
%AMRoundRect*
0 Rectangle with rounded corners*
0 $1 Rounding radius*
0 $2 $3 $4 $5 $6 $7 $8 $9 X,Y pos of 4 corners*
0 Add a 4 corners polygon primitive as box body*
4,1,4,$2,$3,$4,$5,$6,$7,$8,$9,$2,$3,0*
0 Add four circle primitives for the rounded corners*
1,1,$1+$1,$2,$3*
1,1,$1+$1,$4,$5*
1,1,$1+$1,$6,$7*
1,1,$1+$1,$8,$9*
0 Add four rect primitives between the rounded corners*
20,1,$1+$1,$2,$3,$4,$5,0*
20,1,$1+$1,$4,$5,$6,$7,0*
20,1,$1+$1,$6,$7,$8,$9,0*
20,1,$1+$1,$8,$9,$2,$3,0*%
G04 Aperture macros list end*
%TA.AperFunction,ComponentPad*%
%ADD10C,1.800000*%
%TD*%
%TA.AperFunction,ComponentPad*%
%ADD11R,1.800000X1.800000*%
%TD*%
%TA.AperFunction,ComponentPad*%
%ADD12R,1.600000X1.600000*%
%TD*%
%TA.AperFunction,ComponentPad*%
%ADD13C,1.600000*%
%TD*%
%TA.AperFunction,ComponentPad*%
%ADD14C,2.400000*%
%TD*%
%TA.AperFunction,ComponentPad*%
%ADD15O,2.400000X2.400000*%
%TD*%
%TA.AperFunction,ComponentPad*%
%ADD16C,6.400000*%
%TD*%
%TA.AperFunction,ComponentPad*%
%ADD17O,1.600000X1.600000*%
%TD*%
%TA.AperFunction,ComponentPad*%
%ADD18C,2.000000*%
%TD*%
%TA.AperFunction,ComponentPad*%
%ADD19R,1.700000X1.700000*%
%TD*%
%TA.AperFunction,ComponentPad*%
%ADD20O,1.700000X1.700000*%
%TD*%
%TA.AperFunction,ComponentPad*%
%ADD21R,1.300000X1.300000*%
%TD*%
%TA.AperFunction,ComponentPad*%
%ADD22C,1.300000*%
%TD*%
%TA.AperFunction,ComponentPad*%
%ADD23C,0.700000*%
%TD*%
%TA.AperFunction,ComponentPad*%
%ADD24O,2.400000X0.900000*%
%TD*%
%TA.AperFunction,ComponentPad*%
%ADD25O,1.700000X0.900000*%
%TD*%
%TA.AperFunction,ComponentPad*%
%ADD26R,2.000000X2.000000*%
%TD*%
%TA.AperFunction,ComponentPad*%
%ADD27RoundRect,0.250200X0.649800X-0.649800X0.649800X0.649800X-0.649800X0.649800X-0.649800X-0.649800X0*%
%TD*%
%TA.AperFunction,ViaPad*%
%ADD28C,0.762000*%
%TD*%
%TA.AperFunction,Conductor*%
%ADD29C,0.635000*%
%TD*%
%TA.AperFunction,Conductor*%
%ADD30C,1.270000*%
%TD*%
%TA.AperFunction,Conductor*%
%ADD31C,0.304800*%
%TD*%
%TA.AperFunction,Conductor*%
%ADD32C,0.889000*%
%TD*%
%TA.AperFunction,Conductor*%
%ADD33C,0.508000*%
%TD*%
G04 APERTURE END LIST*
D10*
%TO.P,Q1,1,C*%
%TO.N,Net-(Q1-C)*%
X187960000Y-93980000D03*
D11*
%TO.P,Q1,2,E*%
%TO.N,GND*%
X187960000Y-96520000D03*
%TD*%
D12*
%TO.P,C1,1*%
%TO.N,+5V*%
X113665000Y-88900000D03*
D13*
%TO.P,C1,2*%
%TO.N,GND*%
X111165000Y-88900000D03*
%TD*%
%TO.P,C4,1*%
%TO.N,GND*%
X104775000Y-111105000D03*
%TO.P,C4,2*%
%TO.N,Net-(J1-SHIELD)*%
X104775000Y-108605000D03*
%TD*%
D10*
%TO.P,D1,1,K*%
%TO.N,Net-(D1-K)*%
X107945000Y-109855000D03*
D11*
%TO.P,D1,2,A*%
%TO.N,Net-(D1-A)*%
X110485000Y-109855000D03*
%TD*%
D10*
%TO.P,D4,1,K*%
%TO.N,GND*%
X142240000Y-109855000D03*
D11*
%TO.P,D4,2,A*%
%TO.N,Net-(D4-A)*%
X144780000Y-109855000D03*
%TD*%
D14*
%TO.P,FB1,1*%
%TO.N,+5V*%
X116840000Y-93980000D03*
D15*
%TO.P,FB1,2*%
%TO.N,Net-(#FLG0103-pwr)*%
X104140000Y-93980000D03*
%TD*%
D16*
%TO.P,MH1,1*%
%TO.N,N/C*%
X105410000Y-86360000D03*
%TD*%
D13*
%TO.P,R6,1*%
%TO.N,Net-(U1-RB7{slash}TX{slash}CK)*%
X135255000Y-108585000D03*
D17*
%TO.P,R6,2*%
%TO.N,Net-(R6-Pad2)*%
X135255000Y-118745000D03*
%TD*%
D13*
%TO.P,R20,1*%
%TO.N,+5V*%
X132715000Y-118745000D03*
D17*
%TO.P,R20,2*%
%TO.N,Net-(Q1-C)*%
X132715000Y-108585000D03*
%TD*%
D18*
%TO.P,SW4,1,1*%
%TO.N,GND*%
X142875000Y-114245000D03*
X149375000Y-114245000D03*
%TO.P,SW4,2,2*%
%TO.N,Net-(R5-Pad2)*%
X142875000Y-118745000D03*
X149375000Y-118745000D03*
%TD*%
D13*
%TO.P,C2,1*%
%TO.N,+5V*%
X118765000Y-107950000D03*
%TO.P,C2,2*%
%TO.N,GND*%
X121265000Y-107950000D03*
%TD*%
%TO.P,C3,1*%
%TO.N,Net-(U1-Vusb3v3)*%
X121900000Y-95250000D03*
%TO.P,C3,2*%
%TO.N,GND*%
X119400000Y-95250000D03*
%TD*%
D10*
%TO.P,D3,1,K*%
%TO.N,GND*%
X142240000Y-93345000D03*
D11*
%TO.P,D3,2,A*%
%TO.N,Net-(D3-A)*%
X144780000Y-93345000D03*
%TD*%
D18*
%TO.P,SW3,1,1*%
%TO.N,GND*%
X149375000Y-88955000D03*
X142875000Y-88955000D03*
%TO.P,SW3,2,2*%
%TO.N,Net-(R4-Pad2)*%
X149375000Y-84455000D03*
X142875000Y-84455000D03*
%TD*%
D13*
%TO.P,R5,1*%
%TO.N,Net-(U1-RB6{slash}SCL{slash}SCK)*%
X137795000Y-108585000D03*
D17*
%TO.P,R5,2*%
%TO.N,Net-(R5-Pad2)*%
X137795000Y-118745000D03*
%TD*%
D16*
%TO.P,MH4,1*%
%TO.N,N/C*%
X105410000Y-116840000D03*
%TD*%
D18*
%TO.P,SW5,1,1*%
%TO.N,GND*%
X119380000Y-114245000D03*
X125880000Y-114245000D03*
%TO.P,SW5,2,2*%
%TO.N,Net-(R6-Pad2)*%
X119380000Y-118745000D03*
X125880000Y-118745000D03*
%TD*%
D13*
%TO.P,R19,1*%
%TO.N,GND*%
X130175000Y-118745000D03*
D17*
%TO.P,R19,2*%
%TO.N,Net-(U1-RA4{slash}AN3{slash}SOSCO{slash}T1G{slash}OSC2{slash}CLKOUT{slash}CLKR)*%
X130175000Y-108585000D03*
%TD*%
D13*
%TO.P,R2,1*%
%TO.N,Net-(D1-A)*%
X115570000Y-108585000D03*
D17*
%TO.P,R2,2*%
%TO.N,+5V*%
X115570000Y-118745000D03*
%TD*%
D12*
%TO.P,U1,1,VDD*%
%TO.N,+5V*%
X118745000Y-105410000D03*
D17*
%TO.P,U1,2,RA5/SOSCI/T1CKI/OSC1/CLKIN*%
%TO.N,Net-(D1-K)*%
X121285000Y-105410000D03*
%TO.P,U1,3,RA4/AN3/SOSCO/T1G/OSC2/CLKOUT/CLKR*%
%TO.N,Net-(U1-RA4{slash}AN3{slash}SOSCO{slash}T1G{slash}OSC2{slash}CLKOUT{slash}CLKR)*%
X123825000Y-105410000D03*
%TO.P,U1,4,RA3/T1G/~{SS}/~{MCLR}/Vpp*%
%TO.N,/Vpp*%
X126365000Y-105410000D03*
%TO.P,U1,5,PWM1/CWG1A/T0CKI/RC5*%
%TO.N,Net-(U1-PWM1{slash}CWG1A{slash}T0CKI{slash}RC5)*%
X128905000Y-105410000D03*
%TO.P,U1,6,CWG1B/C1OUT/C2OUT/RC4*%
%TO.N,Net-(U1-CWG1B{slash}C1OUT{slash}C2OUT{slash}RC4)*%
X131445000Y-105410000D03*
%TO.P,U1,7,CLKR/C1IN3-/C2IN3-/DACOUT2/AN7/RC3*%
%TO.N,Net-(Q1-C)*%
X133985000Y-105410000D03*
%TO.P,U1,8,~{SS}/PWM2/AN8/RC6*%
%TO.N,Net-(U1-~{SS}{slash}PWM2{slash}AN8{slash}RC6)*%
X136525000Y-105410000D03*
%TO.P,U1,9,SDO/AN9/RC7*%
%TO.N,Net-(U1-SDO{slash}AN9{slash}RC7)*%
X139065000Y-105410000D03*
%TO.P,U1,10,RB7/TX/CK*%
%TO.N,Net-(U1-RB7{slash}TX{slash}CK)*%
X141605000Y-105410000D03*
%TO.P,U1,11,RB6/SCL/SCK*%
%TO.N,Net-(U1-RB6{slash}SCL{slash}SCK)*%
X141605000Y-97790000D03*
%TO.P,U1,12,RB5/AN11/RX/DX*%
%TO.N,Net-(U1-RB5{slash}AN11{slash}RX{slash}DX)*%
X139065000Y-97790000D03*
%TO.P,U1,13,RB4/AN10/SDA/SDI*%
%TO.N,Net-(U1-RB4{slash}AN10{slash}SDA{slash}SDI)*%
X136525000Y-97790000D03*
%TO.P,U1,14,C2IN2-/C1IN2-/DACOUT1/AN6/RC2*%
%TO.N,Net-(U1-C2IN2-{slash}C1IN2-{slash}DACOUT1{slash}AN6{slash}RC2)*%
X133985000Y-97790000D03*
%TO.P,U1,15,ICSPCLK/~{CWGFLT}/C2IN-/C1IN-/AN5/RC1*%
%TO.N,Net-(H9-PGC{slash}ICSPCLK)*%
X131445000Y-97790000D03*
%TO.P,U1,16,ICSPDAT/C2IN+/C1IN+/Vref+/AN4/RC0*%
%TO.N,Net-(H9-PGD{slash}ICSPDAT)*%
X128905000Y-97790000D03*
%TO.P,U1,17,Vusb3v3*%
%TO.N,Net-(U1-Vusb3v3)*%
X126365000Y-97790000D03*
%TO.P,U1,18,RA1/D-/ICSPCLK*%
%TO.N,/D-*%
X123825000Y-97790000D03*
%TO.P,U1,19,RA0/D+/ICSPDAT*%
%TO.N,/D+*%
X121285000Y-97790000D03*
%TO.P,U1,20,VSS*%
%TO.N,GND*%
X118745000Y-97790000D03*
%TD*%
D13*
%TO.P,R13,1*%
%TO.N,Net-(H3-Pin_1)*%
X159385000Y-92075000D03*
D17*
%TO.P,R13,2*%
%TO.N,Net-(U1-C2IN2-{slash}C1IN2-{slash}DACOUT1{slash}AN6{slash}RC2)*%
X159385000Y-102235000D03*
%TD*%
D13*
%TO.P,R9,1*%
%TO.N,Net-(U1-~{SS}{slash}PWM2{slash}AN8{slash}RC6)*%
X159385000Y-107315000D03*
D17*
%TO.P,R9,2*%
%TO.N,Net-(D4-A)*%
X159385000Y-117475000D03*
%TD*%
D13*
%TO.P,R8,1*%
%TO.N,Net-(U1-PWM1{slash}CWG1A{slash}T0CKI{slash}RC5)*%
X156845000Y-107315000D03*
D17*
%TO.P,R8,2*%
%TO.N,Net-(D3-A)*%
X156845000Y-117475000D03*
%TD*%
D13*
%TO.P,R14,1*%
%TO.N,Net-(H4-Pin_1)*%
X161925000Y-92075000D03*
D17*
%TO.P,R14,2*%
%TO.N,Net-(Q1-C)*%
X161925000Y-102235000D03*
%TD*%
D13*
%TO.P,R10,1*%
%TO.N,Net-(U1-SDO{slash}AN9{slash}RC7)*%
X161925000Y-107315000D03*
D17*
%TO.P,R10,2*%
%TO.N,Net-(D5-A)*%
X161925000Y-117475000D03*
%TD*%
D13*
%TO.P,R12,1*%
%TO.N,Net-(H2-Pin_1)*%
X156845000Y-92075000D03*
D17*
%TO.P,R12,2*%
%TO.N,Net-(H9-PGC{slash}ICSPCLK)*%
X156845000Y-102235000D03*
%TD*%
D12*
%TO.P,C6,1*%
%TO.N,+5V*%
X177800000Y-87630000D03*
D13*
%TO.P,C6,2*%
%TO.N,GND*%
X177800000Y-85130000D03*
%TD*%
D19*
%TO.P,H2,1,Pin_1*%
%TO.N,Net-(H2-Pin_1)*%
X156845000Y-89535000D03*
D20*
%TO.P,H2,2,Pin_2*%
%TO.N,+5V*%
X156845000Y-86995000D03*
%TO.P,H2,3,Pin_3*%
%TO.N,GND*%
X156845000Y-84455000D03*
%TD*%
D19*
%TO.P,H4,1,Pin_1*%
%TO.N,Net-(H4-Pin_1)*%
X161925000Y-89535000D03*
D20*
%TO.P,H4,2,Pin_2*%
%TO.N,+5V*%
X161925000Y-86995000D03*
%TO.P,H4,3,Pin_3*%
%TO.N,GND*%
X161925000Y-84455000D03*
%TD*%
D19*
%TO.P,H5,1,Pin_1*%
%TO.N,Net-(H5-Pin_1)*%
X164465000Y-89535000D03*
D20*
%TO.P,H5,2,Pin_2*%
%TO.N,+5V*%
X164465000Y-86995000D03*
%TO.P,H5,3,Pin_3*%
%TO.N,GND*%
X164465000Y-84455000D03*
%TD*%
D19*
%TO.P,H6,1,Pin_1*%
%TO.N,Net-(H6-Pin_1)*%
X167005000Y-89535000D03*
D20*
%TO.P,H6,2,Pin_2*%
%TO.N,+5V*%
X167005000Y-86995000D03*
%TO.P,H6,3,Pin_3*%
%TO.N,GND*%
X167005000Y-84455000D03*
%TD*%
D19*
%TO.P,H7,1,Pin_1*%
%TO.N,Net-(H7-Pin_1)*%
X169545000Y-89535000D03*
D20*
%TO.P,H7,2,Pin_2*%
%TO.N,+5V*%
X169545000Y-86995000D03*
%TO.P,H7,3,Pin_3*%
%TO.N,GND*%
X169545000Y-84455000D03*
%TD*%
D19*
%TO.P,H8,1,Pin_1*%
%TO.N,Net-(H8-Pin_1)*%
X172085000Y-89535000D03*
D20*
%TO.P,H8,2,Pin_2*%
%TO.N,+5V*%
X172085000Y-86995000D03*
%TO.P,H8,3,Pin_3*%
%TO.N,GND*%
X172085000Y-84455000D03*
%TD*%
D21*
%TO.P,Q2,1,E*%
%TO.N,GND*%
X185420000Y-107315000D03*
D22*
%TO.P,Q2,2,B*%
%TO.N,Net-(Q2-B)*%
X186690000Y-106045000D03*
%TO.P,Q2,3,C*%
%TO.N,Net-(D6-K)*%
X187960000Y-107315000D03*
%TD*%
D16*
%TO.P,MH2,1*%
%TO.N,N/C*%
X186690000Y-86360000D03*
%TD*%
D13*
%TO.P,R4,1*%
%TO.N,Net-(U1-RB5{slash}AN11{slash}RX{slash}DX)*%
X137795000Y-94615000D03*
D17*
%TO.P,R4,2*%
%TO.N,Net-(R4-Pad2)*%
X137795000Y-84455000D03*
%TD*%
D19*
%TO.P,H3,1,Pin_1*%
%TO.N,Net-(H3-Pin_1)*%
X159385000Y-89535000D03*
D20*
%TO.P,H3,2,Pin_2*%
%TO.N,+5V*%
X159385000Y-86995000D03*
%TO.P,H3,3,Pin_3*%
%TO.N,GND*%
X159385000Y-84455000D03*
%TD*%
D23*
%TO.P,J1,A1,GND*%
%TO.N,GND*%
X107696000Y-98628200D03*
%TO.P,J1,A4,VBUS*%
%TO.N,Net-(#FLG0103-pwr)*%
X107696000Y-99478200D03*
%TO.P,J1,A5,CC1*%
%TO.N,unconnected-(J1-CC1-PadA5)*%
X107696000Y-100328200D03*
%TO.P,J1,A6,D+*%
%TO.N,/D+*%
X107696000Y-101178200D03*
%TO.P,J1,A7,D-*%
%TO.N,/D-*%
X107696000Y-102028200D03*
%TO.P,J1,A8,SBU1*%
%TO.N,unconnected-(J1-SBU1-PadA8)*%
X107696000Y-102878200D03*
%TO.P,J1,A9,VBUS*%
%TO.N,Net-(#FLG0103-pwr)*%
X107696000Y-103728200D03*
%TO.P,J1,A12,GND*%
%TO.N,GND*%
X107696000Y-104578200D03*
%TO.P,J1,B1,GND*%
X106346000Y-104578200D03*
%TO.P,J1,B4,VBUS*%
%TO.N,Net-(#FLG0103-pwr)*%
X106346000Y-103728200D03*
%TO.P,J1,B5,CC2*%
%TO.N,unconnected-(J1-CC2-PadB5)*%
X106346000Y-102878200D03*
%TO.P,J1,B6,D+*%
%TO.N,/D+*%
X106346000Y-102028200D03*
%TO.P,J1,B7,D-*%
%TO.N,/D-*%
X106346000Y-101178200D03*
%TO.P,J1,B8,SBU2*%
%TO.N,unconnected-(J1-SBU2-PadB8)*%
X106346000Y-100328200D03*
%TO.P,J1,B9,VBUS*%
%TO.N,Net-(#FLG0103-pwr)*%
X106346000Y-99478200D03*
%TO.P,J1,B12,GND*%
%TO.N,GND*%
X106346000Y-98628200D03*
D24*
%TO.P,J1,S1,SHIELD*%
%TO.N,Net-(J1-SHIELD)*%
X106716000Y-97278200D03*
D25*
X103336000Y-97278200D03*
D24*
X106716000Y-105928200D03*
D25*
X103336000Y-105928200D03*
%TD*%
D16*
%TO.P,MH3,1*%
%TO.N,N/C*%
X186690000Y-116840000D03*
%TD*%
D13*
%TO.P,R18,1*%
%TO.N,Net-(H8-Pin_1)*%
X172085000Y-92075000D03*
D17*
%TO.P,R18,2*%
%TO.N,Net-(U1-SDO{slash}AN9{slash}RC7)*%
X172085000Y-102235000D03*
%TD*%
D13*
%TO.P,R15,1*%
%TO.N,Net-(H5-Pin_1)*%
X164465000Y-92075000D03*
D17*
%TO.P,R15,2*%
%TO.N,Net-(U1-CWG1B{slash}C1OUT{slash}C2OUT{slash}RC4)*%
X164465000Y-102235000D03*
%TD*%
D13*
%TO.P,R16,1*%
%TO.N,Net-(H6-Pin_1)*%
X167005000Y-92075000D03*
D17*
%TO.P,R16,2*%
%TO.N,Net-(U1-PWM1{slash}CWG1A{slash}T0CKI{slash}RC5)*%
X167005000Y-102235000D03*
%TD*%
D13*
%TO.P,R11,1*%
%TO.N,Net-(H1-Pin_1)*%
X154305000Y-92075000D03*
D17*
%TO.P,R11,2*%
%TO.N,Net-(H9-PGD{slash}ICSPDAT)*%
X154305000Y-102235000D03*
%TD*%
D13*
%TO.P,R17,1*%
%TO.N,Net-(H7-Pin_1)*%
X169545000Y-92075000D03*
D17*
%TO.P,R17,2*%
%TO.N,Net-(U1-~{SS}{slash}PWM2{slash}AN8{slash}RC6)*%
X169545000Y-102235000D03*
%TD*%
D13*
%TO.P,R1,1*%
%TO.N,Net-(R1-Pad1)*%
X113030000Y-118745000D03*
D17*
%TO.P,R1,2*%
%TO.N,/Vpp*%
X113030000Y-108585000D03*
%TD*%
D10*
%TO.P,D5,1,K*%
%TO.N,GND*%
X123825000Y-109855000D03*
D11*
%TO.P,D5,2,A*%
%TO.N,Net-(D5-A)*%
X126365000Y-109855000D03*
%TD*%
D13*
%TO.P,R22,1*%
%TO.N,+5V*%
X174625000Y-92075000D03*
D17*
%TO.P,R22,2*%
%TO.N,Net-(D6-A)*%
X184785000Y-92075000D03*
%TD*%
D26*
%TO.P,LS1,1,1*%
%TO.N,Net-(U1-RA4{slash}AN3{slash}SOSCO{slash}T1G{slash}OSC2{slash}CLKOUT{slash}CLKR)*%
X180340000Y-97790000D03*
D18*
%TO.P,LS1,2,2*%
%TO.N,GND*%
X180340000Y-102790000D03*
%TD*%
D27*
%TO.P,U2,1,OUT*%
%TO.N,Net-(U1-C2IN2-{slash}C1IN2-{slash}DACOUT1{slash}AN6{slash}RC2)*%
X173990000Y-111760000D03*
D10*
%TO.P,U2,2,GND*%
%TO.N,GND*%
X173990000Y-109220000D03*
%TO.P,U2,3,Vs*%
%TO.N,+5V*%
X173990000Y-106680000D03*
%TD*%
D13*
%TO.P,R21,1*%
%TO.N,Net-(U1-PWM1{slash}CWG1A{slash}T0CKI{slash}RC5)*%
X178435000Y-111125000D03*
D17*
%TO.P,R21,2*%
%TO.N,Net-(Q2-B)*%
X188595000Y-111125000D03*
%TD*%
D13*
%TO.P,R7,1*%
%TO.N,Net-(U1-CWG1B{slash}C1OUT{slash}C2OUT{slash}RC4)*%
X154305000Y-107315000D03*
D17*
%TO.P,R7,2*%
%TO.N,Net-(D2-A)*%
X154305000Y-117475000D03*
%TD*%
D19*
%TO.P,H9,1,~{MCLR}/VPP*%
%TO.N,/Vpp*%
X166370000Y-115570000D03*
D20*
%TO.P,H9,2,VDD*%
%TO.N,+5V*%
X168910000Y-115570000D03*
%TO.P,H9,3,VSS*%
%TO.N,GND*%
X171450000Y-115570000D03*
%TO.P,H9,4,PGD/ICSPDAT*%
%TO.N,Net-(H9-PGD{slash}ICSPDAT)*%
X173990000Y-115570000D03*
%TO.P,H9,5,PGC/ICSPCLK*%
%TO.N,Net-(H9-PGC{slash}ICSPCLK)*%
X176530000Y-115570000D03*
%TO.P,H9,6,PGM/LVP*%
%TO.N,unconnected-(H9-PGM{slash}LVP-Pad6)*%
X179070000Y-115570000D03*
%TD*%
D10*
%TO.P,D6,1,K*%
%TO.N,Net-(D6-K)*%
X187960000Y-102870000D03*
D11*
%TO.P,D6,2,A*%
%TO.N,Net-(D6-A)*%
X187960000Y-100330000D03*
%TD*%
D19*
%TO.P,H1,1,Pin_1*%
%TO.N,Net-(H1-Pin_1)*%
X154305000Y-89535000D03*
D20*
%TO.P,H1,2,Pin_2*%
%TO.N,+5V*%
X154305000Y-86995000D03*
%TO.P,H1,3,Pin_3*%
%TO.N,GND*%
X154305000Y-84455000D03*
%TD*%
D13*
%TO.P,C5,1*%
%TO.N,+5V*%
X172045000Y-104775000D03*
%TO.P,C5,2*%
%TO.N,GND*%
X169545000Y-104775000D03*
%TD*%
%TO.P,R3,1*%
%TO.N,Net-(U1-RB4{slash}AN10{slash}SDA{slash}SDI)*%
X135255000Y-94615000D03*
D17*
%TO.P,R3,2*%
%TO.N,Net-(R3-Pad2)*%
X135255000Y-84455000D03*
%TD*%
D10*
%TO.P,D2,1,K*%
%TO.N,GND*%
X123825000Y-93345000D03*
D11*
%TO.P,D2,2,A*%
%TO.N,Net-(D2-A)*%
X126365000Y-93345000D03*
%TD*%
D18*
%TO.P,SW2,1,1*%
%TO.N,GND*%
X125880000Y-88955000D03*
X119380000Y-88955000D03*
%TO.P,SW2,2,2*%
%TO.N,Net-(R3-Pad2)*%
X125880000Y-84455000D03*
X119380000Y-84455000D03*
%TD*%
%TO.P,SW1,1,1*%
%TO.N,GND*%
X114935000Y-98425000D03*
X114935000Y-104925000D03*
%TO.P,SW1,2,2*%
%TO.N,Net-(R1-Pad1)*%
X110435000Y-98425000D03*
X110435000Y-104925000D03*
%TD*%
D19*
%TO.P,BT1,1,+*%
%TO.N,+5V*%
X113665000Y-84455000D03*
D20*
%TO.P,BT1,2,-*%
%TO.N,GND*%
X111125000Y-84455000D03*
%TD*%
D13*
%TO.P,R23,1*%
%TO.N,GND*%
X130175000Y-84455000D03*
D17*
%TO.P,R23,2*%
%TO.N,unconnected-(J1-CC1-PadA5)*%
X130175000Y-94615000D03*
%TD*%
D13*
%TO.P,R24,1*%
%TO.N,GND*%
X132715000Y-84455000D03*
D17*
%TO.P,R24,2*%
%TO.N,unconnected-(J1-CC2-PadB5)*%
X132715000Y-94615000D03*
%TD*%
D28*
%TO.N,unconnected-(J1-CC2-PadB5)*%
X103759000Y-102870000D03*
%TO.N,Net-(U1-RA4{slash}AN3{slash}SOSCO{slash}T1G{slash}OSC2{slash}CLKOUT{slash}CLKR)*%
X131445000Y-112395000D03*
%TO.N,Net-(Q1-C)*%
X163195000Y-96520000D03*
%TD*%
D29*
%TO.N,GND*%
X107696000Y-104578200D02*
X106346000Y-104578200D01*
X107696000Y-98628200D02*
X106346000Y-98628200D01*
D30*
X172085000Y-84455000D02*
X177125000Y-84455000D01*
X111125000Y-84455000D02*
X111125000Y-88860000D01*
D31*
X111125000Y-88860000D02*
X111165000Y-88900000D01*
D30*
X159385000Y-84455000D02*
X161925000Y-84455000D01*
X161925000Y-84455000D02*
X164465000Y-84455000D01*
X164465000Y-84455000D02*
X167005000Y-84455000D01*
X167005000Y-84455000D02*
X169545000Y-84455000D01*
X177125000Y-84455000D02*
X177800000Y-85130000D01*
X154305000Y-84455000D02*
X156845000Y-84455000D01*
X156845000Y-84455000D02*
X159385000Y-84455000D01*
X169545000Y-84455000D02*
X172085000Y-84455000D01*
D31*
%TO.N,+5V*%
X117475000Y-112395000D02*
X115570000Y-114300000D01*
D30*
X116840000Y-88900000D02*
X116840000Y-93980000D01*
X161925000Y-86995000D02*
X159385000Y-86995000D01*
X167005000Y-86995000D02*
X164465000Y-86995000D01*
D31*
X118745000Y-111760000D02*
X118745000Y-112395000D01*
X118745000Y-108585000D02*
X118745000Y-111760000D01*
D30*
X154305000Y-86995000D02*
X118110000Y-86995000D01*
D32*
X172085000Y-104775000D02*
X173990000Y-106680000D01*
D30*
X156845000Y-86995000D02*
X154305000Y-86995000D01*
D31*
X115570000Y-114300000D02*
X115570000Y-118745000D01*
X118745000Y-112395000D02*
X117475000Y-112395000D01*
X126365000Y-112395000D02*
X132715000Y-118745000D01*
D30*
X113665000Y-84455000D02*
X113665000Y-88900000D01*
D29*
X172045000Y-104775000D02*
X172085000Y-104775000D01*
D30*
X175260000Y-86995000D02*
X172085000Y-86995000D01*
X159385000Y-86995000D02*
X156845000Y-86995000D01*
X164465000Y-86995000D02*
X161925000Y-86995000D01*
X118110000Y-86995000D02*
X116840000Y-88265000D01*
X175895000Y-87630000D02*
X177800000Y-87630000D01*
D31*
X118745000Y-112395000D02*
X126365000Y-112395000D01*
D30*
X175260000Y-86995000D02*
X175895000Y-87630000D01*
X172085000Y-86995000D02*
X169545000Y-86995000D01*
X169545000Y-86995000D02*
X167005000Y-86995000D01*
X113665000Y-88900000D02*
X116840000Y-88900000D01*
X116840000Y-88265000D02*
X116840000Y-88900000D01*
D33*
%TO.N,Net-(U1-Vusb3v3)*%
X123825000Y-95250000D02*
X126365000Y-97790000D01*
X121900000Y-95250000D02*
X123825000Y-95250000D01*
D31*
%TO.N,Net-(D1-K)*%
X121285000Y-105410000D02*
X121285000Y-104140000D01*
X120650000Y-103505000D02*
X114300000Y-103505000D01*
X107950000Y-109855000D02*
X107945000Y-109855000D01*
X114300000Y-103505000D02*
X107950000Y-109855000D01*
X121285000Y-104140000D02*
X120650000Y-103505000D01*
%TO.N,Net-(D1-A)*%
X110485000Y-109855000D02*
X111760000Y-109855000D01*
X115570000Y-109855000D02*
X115570000Y-108585000D01*
X111760000Y-109855000D02*
X112395000Y-110490000D01*
X114935000Y-110490000D02*
X115570000Y-109855000D01*
X112395000Y-110490000D02*
X114935000Y-110490000D01*
%TO.N,Net-(D2-A)*%
X154940000Y-119380000D02*
X154305000Y-118745000D01*
X128270000Y-91440000D02*
X146050000Y-91440000D01*
X180975000Y-117475000D02*
X179070000Y-119380000D01*
X179070000Y-119380000D02*
X154940000Y-119380000D01*
X146050000Y-91440000D02*
X153035000Y-98425000D01*
X174625000Y-98425000D02*
X177800000Y-101600000D01*
X154305000Y-118745000D02*
X154305000Y-117475000D01*
X126365000Y-93345000D02*
X128270000Y-91440000D01*
X177800000Y-101600000D02*
X177800000Y-104775000D01*
X153035000Y-98425000D02*
X174625000Y-98425000D01*
X177800000Y-104775000D02*
X180975000Y-107950000D01*
X180975000Y-107950000D02*
X180975000Y-117475000D01*
%TO.N,Net-(D3-A)*%
X157480000Y-118745000D02*
X156845000Y-118110000D01*
X178435000Y-118745000D02*
X157480000Y-118745000D01*
X180340000Y-116840000D02*
X178435000Y-118745000D01*
X144780000Y-93345000D02*
X150495000Y-99060000D01*
X173990000Y-99060000D02*
X177165000Y-102235000D01*
X150495000Y-99060000D02*
X173990000Y-99060000D01*
X180340000Y-108585000D02*
X180340000Y-116840000D01*
X177165000Y-105410000D02*
X180340000Y-108585000D01*
X177165000Y-102235000D02*
X177165000Y-105410000D01*
X156845000Y-118110000D02*
X156845000Y-117475000D01*
%TO.N,Net-(D4-A)*%
X159385000Y-116205000D02*
X159385000Y-117475000D01*
X158115000Y-114935000D02*
X159385000Y-116205000D01*
X153670000Y-114935000D02*
X158115000Y-114935000D01*
X148590000Y-109855000D02*
X153670000Y-114935000D01*
X144780000Y-109855000D02*
X148590000Y-109855000D01*
%TO.N,Net-(D5-A)*%
X128270000Y-110490000D02*
X127635000Y-109855000D01*
X141605000Y-107950000D02*
X139065000Y-110490000D01*
X159385000Y-113665000D02*
X153670000Y-113665000D01*
X127635000Y-109855000D02*
X126365000Y-109855000D01*
X161925000Y-116205000D02*
X159385000Y-113665000D01*
X147955000Y-107950000D02*
X141605000Y-107950000D01*
X139065000Y-110490000D02*
X128270000Y-110490000D01*
X153670000Y-113665000D02*
X147955000Y-107950000D01*
X161925000Y-117475000D02*
X161925000Y-116205000D01*
D29*
%TO.N,Net-(D6-K)*%
X188595000Y-103505000D02*
X188595000Y-106680000D01*
X187960000Y-102870000D02*
X188595000Y-103505000D01*
X188595000Y-106680000D02*
X187960000Y-107315000D01*
D31*
%TO.N,/Vpp*%
X113030000Y-108585000D02*
X114935000Y-106680000D01*
X138430000Y-109855000D02*
X140970000Y-107315000D01*
X126365000Y-106680000D02*
X129540000Y-109855000D01*
X160655000Y-112395000D02*
X163830000Y-115570000D01*
X126365000Y-105410000D02*
X126365000Y-106680000D01*
X140970000Y-107315000D02*
X148590000Y-107315000D01*
X148590000Y-107315000D02*
X153670000Y-112395000D01*
X114935000Y-106680000D02*
X126365000Y-106680000D01*
X163830000Y-115570000D02*
X166370000Y-115570000D01*
X153670000Y-112395000D02*
X160655000Y-112395000D01*
X129540000Y-109855000D02*
X138430000Y-109855000D01*
D29*
%TO.N,Net-(D6-A)*%
X189865000Y-97155000D02*
X187960000Y-99060000D01*
X184785000Y-92075000D02*
X189230000Y-92075000D01*
X189230000Y-92075000D02*
X189865000Y-92710000D01*
X189865000Y-92710000D02*
X189865000Y-97155000D01*
X187960000Y-99060000D02*
X187960000Y-100330000D01*
%TO.N,Net-(#FLG0103-pwr)*%
X106346000Y-103728200D02*
X107696000Y-103728200D01*
X104913800Y-99478200D02*
X104902000Y-99466400D01*
X106346000Y-99478200D02*
X104913800Y-99478200D01*
X106346000Y-99478200D02*
X107696000Y-99478200D01*
X105633200Y-103728200D02*
X106346000Y-103728200D01*
X104140000Y-93980000D02*
X104902000Y-94742000D01*
X104902000Y-102997000D02*
X105633200Y-103728200D01*
X104902000Y-94742000D02*
X104902000Y-99466400D01*
X104902000Y-99466400D02*
X104902000Y-102997000D01*
D31*
%TO.N,Net-(H1-Pin_1)*%
X154305000Y-89535000D02*
X154305000Y-92075000D01*
%TO.N,Net-(H2-Pin_1)*%
X156845000Y-89535000D02*
X156845000Y-92075000D01*
%TO.N,Net-(H3-Pin_1)*%
X159385000Y-89535000D02*
X159385000Y-92075000D01*
%TO.N,Net-(H4-Pin_1)*%
X161925000Y-89535000D02*
X161925000Y-92075000D01*
%TO.N,Net-(R1-Pad1)*%
X107950000Y-113030000D02*
X111125000Y-113030000D01*
X106680000Y-111760000D02*
X107950000Y-113030000D01*
X106680000Y-108585000D02*
X106680000Y-111760000D01*
X110435000Y-104925000D02*
X110435000Y-106258750D01*
X113030000Y-114935000D02*
X113030000Y-118745000D01*
X107315000Y-107950000D02*
X106680000Y-108585000D01*
X110435000Y-106258750D02*
X108743750Y-107950000D01*
X108743750Y-107950000D02*
X107315000Y-107950000D01*
X111125000Y-113030000D02*
X113030000Y-114935000D01*
%TO.N,Net-(R3-Pad2)*%
X133985000Y-83185000D02*
X127150000Y-83185000D01*
X135255000Y-84455000D02*
X133985000Y-83185000D01*
X127150000Y-83185000D02*
X125880000Y-84455000D01*
X125880000Y-84455000D02*
X119380000Y-84455000D01*
%TO.N,Net-(H5-Pin_1)*%
X164465000Y-89535000D02*
X164465000Y-92075000D01*
%TO.N,Net-(R4-Pad2)*%
X137795000Y-84455000D02*
X142875000Y-84455000D01*
X149375000Y-84455000D02*
X142875000Y-84455000D01*
%TO.N,Net-(H6-Pin_1)*%
X167005000Y-89535000D02*
X167005000Y-92075000D01*
%TO.N,Net-(R5-Pad2)*%
X142875000Y-118800000D02*
X138485000Y-118800000D01*
X149375000Y-118800000D02*
X142875000Y-118800000D01*
X138485000Y-118800000D02*
X138430000Y-118745000D01*
%TO.N,Net-(H7-Pin_1)*%
X169545000Y-89535000D02*
X169545000Y-92075000D01*
%TO.N,Net-(R6-Pad2)*%
X119380000Y-118745000D02*
X125880000Y-118745000D01*
X133985000Y-120015000D02*
X135255000Y-118745000D01*
X128905000Y-120015000D02*
X133985000Y-120015000D01*
X125880000Y-118745000D02*
X127635000Y-118745000D01*
X127635000Y-118745000D02*
X128905000Y-120015000D01*
%TO.N,Net-(H8-Pin_1)*%
X172085000Y-89535000D02*
X172085000Y-92075000D01*
%TO.N,Net-(H9-PGD{slash}ICSPDAT)*%
X154305000Y-102235000D02*
X154305000Y-103505000D01*
X128905000Y-97790000D02*
X128905000Y-100330000D01*
X168275000Y-109855000D02*
X172085000Y-113665000D01*
X153035000Y-100965000D02*
X154305000Y-102235000D01*
X129540000Y-100965000D02*
X153035000Y-100965000D01*
X154305000Y-103505000D02*
X154940000Y-104140000D01*
X160655000Y-101417447D02*
X161107447Y-100965000D01*
X172085000Y-113665000D02*
X173990000Y-115570000D01*
X160655000Y-102870000D02*
X160655000Y-101417447D01*
X154940000Y-104140000D02*
X159385000Y-104140000D01*
X168275000Y-101417447D02*
X168275000Y-109855000D01*
X159385000Y-104140000D02*
X160655000Y-102870000D01*
X167822553Y-100965000D02*
X168275000Y-101417447D01*
X128905000Y-100330000D02*
X129540000Y-100965000D01*
X161107447Y-100965000D02*
X167822553Y-100965000D01*
%TO.N,/D+*%
X121539000Y-97790000D02*
X121285000Y-97790000D01*
X122577200Y-101323800D02*
X123190000Y-100711000D01*
X107841600Y-101323800D02*
X122577200Y-101323800D01*
X123190000Y-100711000D02*
X123190000Y-99441000D01*
X107457453Y-101178200D02*
X107696000Y-101178200D01*
X123190000Y-99441000D02*
X121539000Y-97790000D01*
X106607453Y-102028200D02*
X107457453Y-101178200D01*
X106346000Y-102028200D02*
X106607453Y-102028200D01*
X107696000Y-101178200D02*
X107841600Y-101323800D01*
%TO.N,/D-*%
X123825000Y-100965000D02*
X123825000Y-97790000D01*
X107841600Y-101882600D02*
X122907400Y-101882600D01*
X122907400Y-101882600D02*
X123825000Y-100965000D01*
X107696000Y-102028200D02*
X107841600Y-101882600D01*
%TO.N,Net-(H9-PGC{slash}ICSPCLK)*%
X135255000Y-99060000D02*
X135890000Y-99695000D01*
X131445000Y-97790000D02*
X132715000Y-96520000D01*
X134620000Y-96520000D02*
X135255000Y-97155000D01*
X176530000Y-102870000D02*
X176530000Y-115570000D01*
X132715000Y-96520000D02*
X134620000Y-96520000D01*
X156845000Y-99695000D02*
X156845000Y-102235000D01*
X156845000Y-99695000D02*
X135890000Y-99695000D01*
X173355000Y-99695000D02*
X176530000Y-102870000D01*
X135255000Y-97155000D02*
X135255000Y-99060000D01*
X156845000Y-99695000D02*
X173355000Y-99695000D01*
%TO.N,unconnected-(J1-CC1-PadA5)*%
X125730000Y-95250000D02*
X125095000Y-94615000D01*
X128270000Y-94615000D02*
X127635000Y-95250000D01*
X125095000Y-92710000D02*
X124460000Y-92075000D01*
X125095000Y-94615000D02*
X125095000Y-92710000D01*
X127635000Y-95250000D02*
X125730000Y-95250000D01*
X120650000Y-95885000D02*
X120015000Y-96520000D01*
X119380000Y-100330000D02*
X119378200Y-100328200D01*
X119378200Y-100328200D02*
X107696000Y-100328200D01*
X121285000Y-92075000D02*
X120650000Y-92710000D01*
X124460000Y-92075000D02*
X121285000Y-92075000D01*
X120650000Y-92710000D02*
X120650000Y-95885000D01*
X130175000Y-94615000D02*
X128270000Y-94615000D01*
X120015000Y-96520000D02*
X120015000Y-99695000D01*
X120015000Y-99695000D02*
X119380000Y-100330000D01*
%TO.N,unconnected-(J1-CC2-PadB5)*%
X128270000Y-95885000D02*
X131445000Y-95885000D01*
X127635000Y-100965000D02*
X127635000Y-96520000D01*
X103759000Y-102870000D02*
X103759000Y-103441500D01*
X125730000Y-102870000D02*
X127635000Y-100965000D01*
X104775000Y-106680000D02*
X105410000Y-107315000D01*
X104775000Y-104457500D02*
X104775000Y-106680000D01*
X108585000Y-106680000D02*
X108585000Y-103505000D01*
X103759000Y-103441500D02*
X104775000Y-104457500D01*
X127635000Y-96520000D02*
X128270000Y-95885000D01*
X108585000Y-103505000D02*
X109220000Y-102870000D01*
X107950000Y-107315000D02*
X108585000Y-106680000D01*
X109220000Y-102870000D02*
X125730000Y-102870000D01*
X105410000Y-107315000D02*
X107950000Y-107315000D01*
X131445000Y-95885000D02*
X132715000Y-94615000D01*
%TO.N,Net-(U1-RA4{slash}AN3{slash}SOSCO{slash}T1G{slash}OSC2{slash}CLKOUT{slash}CLKR)*%
X131445000Y-112395000D02*
X135890000Y-116840000D01*
X127635000Y-106045000D02*
X128270000Y-106680000D01*
X128270000Y-106680000D02*
X129540000Y-106680000D01*
X127000000Y-103505000D02*
X127635000Y-104140000D01*
X127635000Y-104140000D02*
X127635000Y-106045000D01*
X153670000Y-120015000D02*
X179705000Y-120015000D01*
X123825000Y-105410000D02*
X123825000Y-104140000D01*
X181610000Y-105410000D02*
X182245000Y-104775000D01*
X129540000Y-106680000D02*
X130175000Y-107315000D01*
X150495000Y-116840000D02*
X153670000Y-120015000D01*
X182245000Y-99695000D02*
X180340000Y-97790000D01*
X124460000Y-103505000D02*
X127000000Y-103505000D01*
X130175000Y-107315000D02*
X130175000Y-108585000D01*
X181610000Y-118110000D02*
X181610000Y-105410000D01*
X123825000Y-104140000D02*
X124460000Y-103505000D01*
X182245000Y-104775000D02*
X182245000Y-99695000D01*
X179705000Y-120015000D02*
X181610000Y-118110000D01*
X135890000Y-116840000D02*
X150495000Y-116840000D01*
%TO.N,Net-(Q1-C)*%
X158115000Y-106680000D02*
X161925000Y-102870000D01*
X147955000Y-102870000D02*
X153670000Y-108585000D01*
X175260000Y-96520000D02*
X177800000Y-93980000D01*
X157308366Y-108585000D02*
X158115000Y-107778366D01*
X177800000Y-93980000D02*
X187960000Y-93980000D01*
X153670000Y-108585000D02*
X157308366Y-108585000D01*
X163195000Y-96520000D02*
X175260000Y-96520000D01*
X133985000Y-103505000D02*
X134620000Y-102870000D01*
X132715000Y-107950000D02*
X133985000Y-106680000D01*
X133985000Y-105410000D02*
X133985000Y-103505000D01*
X133985000Y-106680000D02*
X133985000Y-105410000D01*
X161925000Y-102870000D02*
X161925000Y-102235000D01*
X158115000Y-107778366D02*
X158115000Y-106680000D01*
X134620000Y-102870000D02*
X147955000Y-102870000D01*
X132715000Y-108585000D02*
X132715000Y-107950000D01*
%TO.N,Net-(Q2-B)*%
X186690000Y-106045000D02*
X186690000Y-109220000D01*
X186690000Y-109220000D02*
X188595000Y-111125000D01*
%TO.N,Net-(U1-RB4{slash}AN10{slash}SDA{slash}SDI)*%
X136525000Y-95885000D02*
X136525000Y-97790000D01*
X135255000Y-94615000D02*
X136525000Y-95885000D01*
%TO.N,Net-(U1-RB5{slash}AN11{slash}RX{slash}DX)*%
X137795000Y-94615000D02*
X139065000Y-95885000D01*
X139065000Y-95885000D02*
X139065000Y-97790000D01*
%TO.N,Net-(U1-RB7{slash}TX{slash}CK)*%
X140335000Y-106680000D02*
X137160000Y-106680000D01*
X141605000Y-105410000D02*
X140335000Y-106680000D01*
X137160000Y-106680000D02*
X135255000Y-108585000D01*
%TO.N,Net-(U1-CWG1B{slash}C1OUT{slash}C2OUT{slash}RC4)*%
X131445000Y-102870000D02*
X132080000Y-102235000D01*
X149225000Y-102235000D02*
X154305000Y-107315000D01*
X131445000Y-105410000D02*
X131445000Y-102870000D01*
X132080000Y-102235000D02*
X149225000Y-102235000D01*
%TO.N,Net-(U1-PWM1{slash}CWG1A{slash}T0CKI{slash}RC5)*%
X155575000Y-106045000D02*
X156845000Y-107315000D01*
X167005000Y-110490000D02*
X167640000Y-111125000D01*
X168275000Y-117475000D02*
X177165000Y-117475000D01*
X129540000Y-101600000D02*
X151130000Y-101600000D01*
X167640000Y-116840000D02*
X168275000Y-117475000D01*
X128905000Y-102235000D02*
X129540000Y-101600000D01*
X177165000Y-117475000D02*
X177800000Y-116840000D01*
X177800000Y-113665000D02*
X178435000Y-113030000D01*
X177800000Y-116840000D02*
X177800000Y-113665000D01*
X151130000Y-101600000D02*
X155575000Y-106045000D01*
X178435000Y-113030000D02*
X178435000Y-111125000D01*
X167005000Y-102235000D02*
X167005000Y-110490000D01*
X128905000Y-105410000D02*
X128905000Y-102235000D01*
X167640000Y-111125000D02*
X167640000Y-116840000D01*
%TO.N,Net-(U1-~{SS}{slash}PWM2{slash}AN8{slash}RC6)*%
X153670000Y-109855000D02*
X158115000Y-109855000D01*
X137160000Y-103505000D02*
X147320000Y-103505000D01*
X147320000Y-103505000D02*
X153670000Y-109855000D01*
X136525000Y-105410000D02*
X136525000Y-104140000D01*
X136525000Y-104140000D02*
X137160000Y-103505000D01*
X159385000Y-108585000D02*
X159385000Y-107315000D01*
X158115000Y-109855000D02*
X159385000Y-108585000D01*
%TO.N,Net-(U1-SDO{slash}AN9{slash}RC7)*%
X146685000Y-104140000D02*
X153670000Y-111125000D01*
X139065000Y-105410000D02*
X139065000Y-104775000D01*
X161925000Y-108585000D02*
X161925000Y-107315000D01*
X159385000Y-111125000D02*
X161925000Y-108585000D01*
X153670000Y-111125000D02*
X159385000Y-111125000D01*
X139065000Y-104775000D02*
X139700000Y-104140000D01*
X139700000Y-104140000D02*
X146685000Y-104140000D01*
%TO.N,Net-(U1-C2IN2-{slash}C1IN2-{slash}DACOUT1{slash}AN6{slash}RC2)*%
X160020000Y-100330000D02*
X170045053Y-100330000D01*
X155575000Y-101600000D02*
X155575000Y-102870000D01*
X155575000Y-102870000D02*
X156210000Y-103505000D01*
X172085000Y-111760000D02*
X173990000Y-111760000D01*
X134620000Y-100330000D02*
X154305000Y-100330000D01*
X133985000Y-99695000D02*
X134620000Y-100330000D01*
X170045053Y-100330000D02*
X170815000Y-101099947D01*
X159385000Y-102235000D02*
X159385000Y-100965000D01*
X133985000Y-97790000D02*
X133985000Y-99695000D01*
X159385000Y-100965000D02*
X160020000Y-100330000D01*
X154305000Y-100330000D02*
X155575000Y-101600000D01*
X170815000Y-110490000D02*
X172085000Y-111760000D01*
X159385000Y-102870000D02*
X159385000Y-102235000D01*
X156210000Y-103505000D02*
X158750000Y-103505000D01*
X170815000Y-101099947D02*
X170815000Y-110490000D01*
X158750000Y-103505000D02*
X159385000Y-102870000D01*
%TD*%
M02*
